<svg xmlns="http://www.w3.org/2000/svg" viewBox="0 0 400 400" width="400" height="400">
<rect width="400" height="400" fill="#aa36d6"/>
<circle cx="19" cy="323" r="5" fill="rgb(43,48,197)" opacity="0.8"/>
<circle cx="38" cy="119" r="15" fill="rgb(118,94,185)" opacity="0.8"/>
<circle cx="166" cy="8" r="8" fill="rgb(30,145,234)" opacity="0.8"/>
<circle cx="368" cy="118" r="18" fill="rgb(237,65,59)" opacity="0.8"/>
<circle cx="112" cy="123" r="6" fill="rgb(195,235,181)" opacity="0.8"/>
<circle cx="18" cy="3" r="11" fill="rgb(121,168,4)" opacity="0.8"/>
<circle cx="208" cy="101" r="8" fill="rgb(83,48,223)" opacity="0.8"/>
<circle cx="316" cy="310" r="17" fill="rgb(135,202,224)" opacity="0.8"/>
<circle cx="201" cy="8" r="9" fill="rgb(0,220,101)" opacity="0.8"/>
<circle cx="111" cy="274" r="7" fill="rgb(197,77,58)" opacity="0.8"/>
<circle cx="20" cy="369" r="16" fill="rgb(196,152,29)" opacity="0.8"/>
<circle cx="294" cy="188" r="4" fill="rgb(40,101,225)" opacity="0.8"/>
<circle cx="14" cy="309" r="8" fill="rgb(152,168,72)" opacity="0.8"/>
<circle cx="157" cy="259" r="4" fill="rgb(50,146,92)" opacity="0.8"/>
<circle cx="361" cy="212" r="10" fill="rgb(151,102,132)" opacity="0.8"/>
<circle cx="70" cy="274" r="10" fill="rgb(45,173,157)" opacity="0.8"/>
<circle cx="278" cy="175" r="13" fill="rgb(93,234,71)" opacity="0.8"/>
<circle cx="225" cy="23" r="11" fill="rgb(189,221,105)" opacity="0.8"/>
<circle cx="55" cy="251" r="12" fill="rgb(98,76,89)" opacity="0.8"/>
<circle cx="267" cy="192" r="19" fill="rgb(94,68,229)" opacity="0.8"/>
<circle cx="169" cy="363" r="3" fill="rgb(63,245,255)" opacity="0.8"/>
<circle cx="31" cy="111" r="7" fill="rgb(38,6,175)" opacity="0.8"/>
<circle cx="294" cy="67" r="9" fill="rgb(119,141,80)" opacity="0.8"/>
<circle cx="273" cy="245" r="16" fill="rgb(70,79,100)" opacity="0.8"/>
<circle cx="347" cy="190" r="14" fill="rgb(95,199,153)" opacity="0.8"/>
<circle cx="38" cy="93" r="5" fill="rgb(246,246,70)" opacity="0.8"/>
<circle cx="98" cy="88" r="18" fill="rgb(50,136,206)" opacity="0.8"/>
<circle cx="154" cy="220" r="15" fill="rgb(10,148,179)" opacity="0.8"/>
<circle cx="16" cy="229" r="18" fill="rgb(234,170,18)" opacity="0.8"/>
<circle cx="244" cy="372" r="6" fill="rgb(139,137,36)" opacity="0.8"/>
<circle cx="35" cy="326" r="9" fill="rgb(34,244,104)" opacity="0.8"/>
<circle cx="165" cy="4" r="7" fill="rgb(91,220,234)" opacity="0.8"/>
<circle cx="15" cy="254" r="4" fill="rgb(46,19,38)" opacity="0.8"/>
<circle cx="11" cy="183" r="5" fill="rgb(190,12,122)" opacity="0.8"/>
<circle cx="46" cy="278" r="11" fill="rgb(188,239,135)" opacity="0.8"/>
<circle cx="141" cy="211" r="17" fill="rgb(11,188,189)" opacity="0.8"/>
<circle cx="17" cy="47" r="6" fill="rgb(125,226,80)" opacity="0.8"/>
<circle cx="1" cy="275" r="11" fill="rgb(196,30,45)" opacity="0.8"/>
<circle cx="72" cy="192" r="17" fill="rgb(189,165,246)" opacity="0.8"/>
<circle cx="314" cy="196" r="5" fill="rgb(125,244,223)" opacity="0.8"/>
<circle cx="134" cy="131" r="5" fill="rgb(75,147,26)" opacity="0.8"/>
<circle cx="106" cy="304" r="5" fill="rgb(93,24,37)" opacity="0.8"/>
<circle cx="241" cy="275" r="12" fill="rgb(30,171,26)" opacity="0.8"/>
<circle cx="124" cy="185" r="5" fill="rgb(240,87,170)" opacity="0.8"/>
<circle cx="266" cy="15" r="13" fill="rgb(199,170,31)" opacity="0.8"/>
<circle cx="290" cy="192" r="15" fill="rgb(13,31,151)" opacity="0.8"/>
<circle cx="127" cy="379" r="20" fill="rgb(174,0,83)" opacity="0.8"/>
<circle cx="320" cy="60" r="12" fill="rgb(140,243,209)" opacity="0.8"/>
<circle cx="350" cy="198" r="15" fill="rgb(73,215,219)" opacity="0.8"/>
<circle cx="328" cy="206" r="8" fill="rgb(179,96,120)" opacity="0.8"/>
<circle cx="203" cy="209" r="3" fill="rgb(86,81,195)" opacity="0.8"/>
<circle cx="96" cy="245" r="20" fill="rgb(79,139,229)" opacity="0.8"/>
<circle cx="309" cy="227" r="19" fill="rgb(176,72,18)" opacity="0.8"/>
<circle cx="319" cy="211" r="18" fill="rgb(229,117,112)" opacity="0.8"/>
<circle cx="364" cy="160" r="14" fill="rgb(142,238,30)" opacity="0.8"/>
<circle cx="164" cy="300" r="20" fill="rgb(107,102,179)" opacity="0.8"/>
<circle cx="286" cy="321" r="15" fill="rgb(52,49,232)" opacity="0.8"/>
<circle cx="176" cy="73" r="12" fill="rgb(12,252,141)" opacity="0.8"/>
<circle cx="103" cy="206" r="14" fill="rgb(162,137,254)" opacity="0.8"/>
<circle cx="30" cy="57" r="11" fill="rgb(41,27,41)" opacity="0.8"/>
<circle cx="299" cy="59" r="20" fill="rgb(2,20,78)" opacity="0.8"/>
<circle cx="93" cy="329" r="9" fill="rgb(5,251,105)" opacity="0.8"/>
<circle cx="265" cy="71" r="10" fill="rgb(78,109,217)" opacity="0.8"/>
<circle cx="232" cy="107" r="4" fill="rgb(29,13,152)" opacity="0.8"/>
<circle cx="184" cy="351" r="12" fill="rgb(158,71,126)" opacity="0.8"/>
<circle cx="142" cy="101" r="9" fill="rgb(231,177,80)" opacity="0.8"/>
<circle cx="277" cy="322" r="12" fill="rgb(222,38,65)" opacity="0.8"/>
<circle cx="9" cy="345" r="11" fill="rgb(231,249,54)" opacity="0.8"/>
<circle cx="228" cy="176" r="20" fill="rgb(126,74,127)" opacity="0.8"/>
<circle cx="16" cy="161" r="16" fill="rgb(19,184,147)" opacity="0.8"/>
<circle cx="101" cy="174" r="20" fill="rgb(47,61,244)" opacity="0.8"/>
<circle cx="63" cy="52" r="11" fill="rgb(174,30,220)" opacity="0.8"/>
<circle cx="369" cy="185" r="17" fill="rgb(247,152,56)" opacity="0.8"/>
<circle cx="73" cy="220" r="7" fill="rgb(79,12,106)" opacity="0.8"/>
<circle cx="336" cy="20" r="20" fill="rgb(198,208,230)" opacity="0.8"/>
<circle cx="292" cy="322" r="8" fill="rgb(32,162,13)" opacity="0.8"/>
<circle cx="265" cy="7" r="3" fill="rgb(145,6,79)" opacity="0.8"/>
<circle cx="227" cy="360" r="13" fill="rgb(0,146,206)" opacity="0.8"/>
<circle cx="90" cy="152" r="4" fill="rgb(17,255,108)" opacity="0.8"/>
<circle cx="340" cy="207" r="20" fill="rgb(237,176,102)" opacity="0.8"/>
<circle cx="197" cy="81" r="17" fill="rgb(114,47,72)" opacity="0.8"/>
<circle cx="198" cy="58" r="3" fill="rgb(150,194,242)" opacity="0.8"/>
<circle cx="285" cy="176" r="6" fill="rgb(233,150,11)" opacity="0.8"/>
<circle cx="191" cy="160" r="16" fill="rgb(80,127,67)" opacity="0.8"/>
<circle cx="151" cy="278" r="20" fill="rgb(23,21,105)" opacity="0.8"/>
<circle cx="125" cy="224" r="6" fill="rgb(155,16,189)" opacity="0.8"/>
<circle cx="135" cy="279" r="3" fill="rgb(227,183,50)" opacity="0.8"/>
<circle cx="183" cy="25" r="10" fill="rgb(124,200,241)" opacity="0.8"/>
<circle cx="295" cy="247" r="19" fill="rgb(115,138,238)" opacity="0.8"/>
<circle cx="81" cy="304" r="18" fill="rgb(175,193,208)" opacity="0.8"/>
<circle cx="327" cy="293" r="17" fill="rgb(134,157,231)" opacity="0.8"/>
<circle cx="99" cy="57" r="20" fill="rgb(219,129,138)" opacity="0.8"/>
<circle cx="366" cy="256" r="5" fill="rgb(133,20,254)" opacity="0.8"/>
<circle cx="255" cy="174" r="5" fill="rgb(172,77,250)" opacity="0.8"/>
<circle cx="73" cy="377" r="6" fill="rgb(179,100,74)" opacity="0.8"/>
<circle cx="367" cy="227" r="3" fill="rgb(196,39,54)" opacity="0.8"/>
<circle cx="374" cy="204" r="6" fill="rgb(236,217,8)" opacity="0.8"/>
<circle cx="7" cy="213" r="6" fill="rgb(206,235,139)" opacity="0.8"/>
<circle cx="9" cy="29" r="10" fill="rgb(86,105,34)" opacity="0.8"/>
<circle cx="301" cy="127" r="7" fill="rgb(188,102,6)" opacity="0.8"/>
<circle cx="279" cy="358" r="3" fill="rgb(69,58,71)" opacity="0.8"/>
<circle cx="237" cy="16" r="16" fill="rgb(241,140,109)" opacity="0.8"/>
<circle cx="332" cy="104" r="10" fill="rgb(34,185,163)" opacity="0.8"/>
<circle cx="36" cy="175" r="9" fill="rgb(88,236,108)" opacity="0.8"/>
<circle cx="272" cy="153" r="4" fill="rgb(77,66,216)" opacity="0.8"/>
<circle cx="14" cy="172" r="11" fill="rgb(164,7,217)" opacity="0.8"/>
<circle cx="56" cy="81" r="11" fill="rgb(204,243,164)" opacity="0.8"/>
<circle cx="112" cy="145" r="4" fill="rgb(94,35,21)" opacity="0.8"/>
<circle cx="289" cy="314" r="3" fill="rgb(139,104,190)" opacity="0.8"/>
<circle cx="187" cy="291" r="13" fill="rgb(146,127,200)" opacity="0.8"/>
<circle cx="269" cy="32" r="18" fill="rgb(248,204,202)" opacity="0.8"/>
<circle cx="47" cy="128" r="7" fill="rgb(30,155,91)" opacity="0.8"/>
<circle cx="41" cy="302" r="20" fill="rgb(168,85,224)" opacity="0.8"/>
<circle cx="317" cy="129" r="9" fill="rgb(198,172,108)" opacity="0.8"/>
<circle cx="83" cy="94" r="17" fill="rgb(155,243,102)" opacity="0.8"/>
<circle cx="253" cy="273" r="9" fill="rgb(27,188,142)" opacity="0.8"/>
<circle cx="135" cy="77" r="12" fill="rgb(19,210,254)" opacity="0.8"/>
<circle cx="254" cy="27" r="8" fill="rgb(220,30,58)" opacity="0.8"/>
</svg>