<svg xmlns="http://www.w3.org/2000/svg" viewBox="0 0 400 400" width="400" height="400">
<rect width="400" height="400" fill="#559beb"/>
<circle cx="309" cy="157" r="19" fill="rgb(83,223,131)" opacity="0.8"/>
<circle cx="193" cy="177" r="6" fill="rgb(140,188,139)" opacity="0.8"/>
<circle cx="210" cy="341" r="20" fill="rgb(246,166,230)" opacity="0.8"/>
<circle cx="360" cy="62" r="18" fill="rgb(101,0,128)" opacity="0.8"/>
<circle cx="8" cy="359" r="3" fill="rgb(173,70,14)" opacity="0.8"/>
<circle cx="76" cy="340" r="20" fill="rgb(181,174,67)" opacity="0.8"/>
<circle cx="106" cy="69" r="11" fill="rgb(44,133,183)" opacity="0.8"/>
<circle cx="39" cy="272" r="4" fill="rgb(57,100,184)" opacity="0.8"/>
<circle cx="33" cy="3" r="4" fill="rgb(14,25,67)" opacity="0.8"/>
<circle cx="321" cy="146" r="9" fill="rgb(187,95,27)" opacity="0.8"/>
<circle cx="276" cy="224" r="10" fill="rgb(39,226,29)" opacity="0.8"/>
<circle cx="361" cy="130" r="16" fill="rgb(97,204,27)" opacity="0.8"/>
<circle cx="163" cy="141" r="6" fill="rgb(118,17,23)" opacity="0.8"/>
<circle cx="8" cy="228" r="16" fill="rgb(105,76,226)" opacity="0.8"/>
<circle cx="47" cy="217" r="11" fill="rgb(173,158,134)" opacity="0.8"/>
<circle cx="41" cy="166" r="6" fill="rgb(114,114,229)" opacity="0.8"/>
<circle cx="230" cy="130" r="6" fill="rgb(151,137,138)" opacity="0.8"/>
<circle cx="179" cy="53" r="17" fill="rgb(116,120,119)" opacity="0.8"/>
<circle cx="78" cy="286" r="8" fill="rgb(115,89,165)" opacity="0.8"/>
<circle cx="129" cy="63" r="16" fill="rgb(42,108,208)" opacity="0.8"/>
<circle cx="290" cy="339" r="4" fill="rgb(252,178,188)" opacity="0.8"/>
<circle cx="43" cy="40" r="3" fill="rgb(107,244,83)" opacity="0.8"/>
<circle cx="108" cy="206" r="7" fill="rgb(20,152,63)" opacity="0.8"/>
<circle cx="51" cy="48" r="10" fill="rgb(51,173,63)" opacity="0.8"/>
<circle cx="75" cy="131" r="7" fill="rgb(191,20,116)" opacity="0.8"/>
<circle cx="253" cy="250" r="16" fill="rgb(12,149,230)" opacity="0.8"/>
<circle cx="231" cy="115" r="16" fill="rgb(123,205,73)" opacity="0.8"/>
<circle cx="97" cy="242" r="17" fill="rgb(97,126,194)" opacity="0.8"/>
<circle cx="337" cy="39" r="14" fill="rgb(4,98,196)" opacity="0.8"/>
<circle cx="95" cy="126" r="9" fill="rgb(233,185,120)" opacity="0.8"/>
<circle cx="328" cy="206" r="4" fill="rgb(121,177,137)" opacity="0.8"/>
<circle cx="105" cy="320" r="3" fill="rgb(213,62,169)" opacity="0.8"/>
<circle cx="328" cy="380" r="14" fill="rgb(129,171,64)" opacity="0.8"/>
<circle cx="107" cy="339" r="9" fill="rgb(25,205,59)" opacity="0.8"/>
<circle cx="196" cy="358" r="7" fill="rgb(169,132,162)" opacity="0.8"/>
<circle cx="86" cy="82" r="17" fill="rgb(197,205,69)" opacity="0.8"/>
<circle cx="190" cy="251" r="5" fill="rgb(6,238,24)" opacity="0.8"/>
<circle cx="112" cy="218" r="20" fill="rgb(29,91,181)" opacity="0.8"/>
<circle cx="21" cy="77" r="5" fill="rgb(176,192,13)" opacity="0.8"/>
<circle cx="285" cy="349" r="20" fill="rgb(72,111,196)" opacity="0.8"/>
<circle cx="309" cy="260" r="12" fill="rgb(86,211,233)" opacity="0.8"/>
<circle cx="225" cy="165" r="9" fill="rgb(2,6,62)" opacity="0.8"/>
<circle cx="329" cy="371" r="7" fill="rgb(249,173,18)" opacity="0.8"/>
<circle cx="15" cy="101" r="13" fill="rgb(141,75,66)" opacity="0.8"/>
<circle cx="205" cy="335" r="7" fill="rgb(132,104,210)" opacity="0.8"/>
<circle cx="123" cy="199" r="3" fill="rgb(206,131,175)" opacity="0.8"/>
<circle cx="42" cy="162" r="19" fill="rgb(203,170,18)" opacity="0.8"/>
<circle cx="227" cy="89" r="16" fill="rgb(57,52,240)" opacity="0.8"/>
<circle cx="358" cy="216" r="7" fill="rgb(73,92,253)" opacity="0.8"/>
<circle cx="284" cy="126" r="4" fill="rgb(149,215,234)" opacity="0.8"/>
<circle cx="261" cy="45" r="3" fill="rgb(69,8,49)" opacity="0.8"/>
<circle cx="75" cy="110" r="5" fill="rgb(71,244,240)" opacity="0.8"/>
<circle cx="146" cy="242" r="19" fill="rgb(218,158,119)" opacity="0.8"/>
<circle cx="99" cy="194" r="12" fill="rgb(170,177,120)" opacity="0.8"/>
<circle cx="130" cy="262" r="7" fill="rgb(69,94,220)" opacity="0.8"/>
<circle cx="128" cy="54" r="12" fill="rgb(116,65,33)" opacity="0.8"/>
<circle cx="89" cy="11" r="13" fill="rgb(164,195,176)" opacity="0.8"/>
<circle cx="113" cy="132" r="13" fill="rgb(160,232,114)" opacity="0.8"/>
<circle cx="339" cy="309" r="20" fill="rgb(135,123,169)" opacity="0.8"/>
<circle cx="67" cy="267" r="11" fill="rgb(173,224,223)" opacity="0.8"/>
<circle cx="251" cy="357" r="17" fill="rgb(1,14,174)" opacity="0.8"/>
<circle cx="62" cy="121" r="12" fill="rgb(161,55,223)" opacity="0.8"/>
<circle cx="230" cy="334" r="13" fill="rgb(120,27,28)" opacity="0.8"/>
<circle cx="9" cy="217" r="6" fill="rgb(117,253,150)" opacity="0.8"/>
<circle cx="285" cy="268" r="4" fill="rgb(164,175,92)" opacity="0.8"/>
<circle cx="57" cy="163" r="15" fill="rgb(215,156,148)" opacity="0.8"/>
<circle cx="8" cy="309" r="16" fill="rgb(27,189,93)" opacity="0.8"/>
<circle cx="293" cy="345" r="10" fill="rgb(71,139,72)" opacity="0.8"/>
<circle cx="43" cy="222" r="13" fill="rgb(0,174,10)" opacity="0.8"/>
<circle cx="159" cy="152" r="11" fill="rgb(128,9,64)" opacity="0.8"/>
<circle cx="290" cy="267" r="6" fill="rgb(164,6,209)" opacity="0.8"/>
<circle cx="3" cy="230" r="18" fill="rgb(144,161,234)" opacity="0.8"/>
<circle cx="111" cy="153" r="18" fill="rgb(124,39,21)" opacity="0.8"/>
<circle cx="309" cy="369" r="20" fill="rgb(236,38,54)" opacity="0.8"/>
<circle cx="190" cy="83" r="7" fill="rgb(172,115,104)" opacity="0.8"/>
<circle cx="317" cy="76" r="3" fill="rgb(104,216,63)" opacity="0.8"/>
<circle cx="43" cy="276" r="18" fill="rgb(185,251,70)" opacity="0.8"/>
<circle cx="213" cy="306" r="13" fill="rgb(239,121,104)" opacity="0.8"/>
<circle cx="300" cy="218" r="19" fill="rgb(84,217,205)" opacity="0.8"/>
<circle cx="124" cy="138" r="16" fill="rgb(27,3,41)" opacity="0.8"/>
<circle cx="153" cy="202" r="8" fill="rgb(121,136,243)" opacity="0.8"/>
<circle cx="147" cy="348" r="16" fill="rgb(171,128,2)" opacity="0.8"/>
<circle cx="203" cy="282" r="3" fill="rgb(39,169,36)" opacity="0.8"/>
<circle cx="353" cy="168" r="13" fill="rgb(31,203,53)" opacity="0.8"/>
<circle cx="26" cy="332" r="5" fill="rgb(218,195,161)" opacity="0.8"/>
<circle cx="248" cy="154" r="16" fill="rgb(148,245,147)" opacity="0.8"/>
<circle cx="154" cy="76" r="20" fill="rgb(47,166,223)" opacity="0.8"/>
<circle cx="37" cy="349" r="3" fill="rgb(213,61,20)" opacity="0.8"/>
<circle cx="289" cy="110" r="7" fill="rgb(33,233,130)" opacity="0.8"/>
<circle cx="115" cy="154" r="19" fill="rgb(44,105,226)" opacity="0.8"/>
<circle cx="297" cy="203" r="4" fill="rgb(213,69,78)" opacity="0.8"/>
<circle cx="101" cy="210" r="9" fill="rgb(199,124,73)" opacity="0.8"/>
<circle cx="260" cy="282" r="8" fill="rgb(255,35,234)" opacity="0.8"/>
<circle cx="117" cy="113" r="15" fill="rgb(124,235,74)" opacity="0.8"/>
<circle cx="127" cy="174" r="8" fill="rgb(197,188,232)" opacity="0.8"/>
<circle cx="305" cy="108" r="20" fill="rgb(42,127,45)" opacity="0.8"/>
<circle cx="9" cy="344" r="4" fill="rgb(8,132,187)" opacity="0.8"/>
<circle cx="259" cy="161" r="9" fill="rgb(1,137,120)" opacity="0.8"/>
<circle cx="123" cy="49" r="20" fill="rgb(52,234,250)" opacity="0.8"/>
<circle cx="329" cy="232" r="3" fill="rgb(167,253,255)" opacity="0.8"/>
<circle cx="147" cy="357" r="3" fill="rgb(78,198,252)" opacity="0.8"/>
<circle cx="133" cy="151" r="4" fill="rgb(25,244,31)" opacity="0.8"/>
<circle cx="244" cy="311" r="9" fill="rgb(48,15,245)" opacity="0.8"/>
<circle cx="301" cy="149" r="5" fill="rgb(158,18,54)" opacity="0.8"/>
<circle cx="280" cy="88" r="20" fill="rgb(93,23,217)" opacity="0.8"/>
<circle cx="310" cy="141" r="6" fill="rgb(215,211,114)" opacity="0.8"/>
<circle cx="366" cy="155" r="14" fill="rgb(242,16,19)" opacity="0.8"/>
<circle cx="360" cy="69" r="15" fill="rgb(77,230,222)" opacity="0.8"/>
<circle cx="311" cy="254" r="8" fill="rgb(33,240,12)" opacity="0.8"/>
<circle cx="350" cy="354" r="14" fill="rgb(251,245,3)" opacity="0.8"/>
<circle cx="365" cy="358" r="8" fill="rgb(58,147,4)" opacity="0.8"/>
<circle cx="206" cy="119" r="11" fill="rgb(91,140,142)" opacity="0.8"/>
<circle cx="60" cy="7" r="15" fill="rgb(79,89,123)" opacity="0.8"/>
<circle cx="32" cy="124" r="11" fill="rgb(7,235,253)" opacity="0.8"/>
<circle cx="37" cy="102" r="10" fill="rgb(248,153,227)" opacity="0.8"/>
<circle cx="226" cy="30" r="4" fill="rgb(56,23,113)" opacity="0.8"/>
<circle cx="231" cy="213" r="3" fill="rgb(67,220,237)" opacity="0.8"/>
<circle cx="113" cy="34" r="4" fill="rgb(228,231,133)" opacity="0.8"/>
<circle cx="204" cy="58" r="18" fill="rgb(204,86,108)" opacity="0.8"/>
<circle cx="242" cy="115" r="19" fill="rgb(56,165,165)" opacity="0.8"/>
<circle cx="237" cy="63" r="18" fill="rgb(92,35,179)" opacity="0.8"/>
<circle cx="246" cy="251" r="18" fill="rgb(196,28,62)" opacity="0.8"/>
<circle cx="327" cy="22" r="19" fill="rgb(157,228,200)" opacity="0.8"/>
<circle cx="257" cy="272" r="17" fill="rgb(188,66,108)" opacity="0.8"/>
<circle cx="252" cy="181" r="14" fill="rgb(189,85,161)" opacity="0.8"/>
<circle cx="272" cy="114" r="16" fill="rgb(125,227,12)" opacity="0.8"/>
<circle cx="339" cy="261" r="13" fill="rgb(184,39,24)" opacity="0.8"/>
<circle cx="165" cy="37" r="6" fill="rgb(106,210,195)" opacity="0.8"/>
<circle cx="62" cy="315" r="19" fill="rgb(134,109,10)" opacity="0.8"/>
<circle cx="155" cy="282" r="5" fill="rgb(1,152,117)" opacity="0.8"/>
<circle cx="302" cy="262" r="4" fill="rgb(176,185,159)" opacity="0.8"/>
<circle cx="27" cy="330" r="17" fill="rgb(106,89,175)" opacity="0.8"/>
<circle cx="366" cy="137" r="11" fill="rgb(10,33,205)" opacity="0.8"/>
<circle cx="261" cy="140" r="16" fill="rgb(74,176,40)" opacity="0.8"/>
<circle cx="91" cy="202" r="7" fill="rgb(144,13,252)" opacity="0.8"/>
<circle cx="260" cy="133" r="16" fill="rgb(14,5,90)" opacity="0.8"/>
<circle cx="246" cy="60" r="16" fill="rgb(181,168,115)" opacity="0.8"/>
<circle cx="44" cy="143" r="3" fill="rgb(81,214,251)" opacity="0.8"/>
<circle cx="112" cy="91" r="13" fill="rgb(48,242,127)" opacity="0.8"/>
<circle cx="195" cy="88" r="19" fill="rgb(79,28,173)" opacity="0.8"/>
<circle cx="288" cy="170" r="18" fill="rgb(47,57,172)" opacity="0.8"/>
<circle cx="327" cy="298" r="7" fill="rgb(201,248,125)" opacity="0.8"/>
<circle cx="26" cy="303" r="9" fill="rgb(136,33,174)" opacity="0.8"/>
<circle cx="134" cy="102" r="15" fill="rgb(121,59,173)" opacity="0.8"/>
<circle cx="131" cy="349" r="16" fill="rgb(51,182,153)" opacity="0.8"/>
<circle cx="110" cy="76" r="7" fill="rgb(216,209,204)" opacity="0.8"/>
<circle cx="98" cy="31" r="14" fill="rgb(51,56,34)" opacity="0.8"/>
<circle cx="313" cy="369" r="4" fill="rgb(155,89,23)" opacity="0.8"/>
<circle cx="45" cy="299" r="13" fill="rgb(19,226,7)" opacity="0.8"/>
<circle cx="373" cy="143" r="19" fill="rgb(91,223,122)" opacity="0.8"/>
</svg>