<svg xmlns="http://www.w3.org/2000/svg" viewBox="0 0 400 400" width="400" height="400">
<rect width="400" height="400" fill="#348ccc"/>
<circle cx="173" cy="81" r="7" fill="rgb(206,106,15)" opacity="0.8"/>
<circle cx="176" cy="131" r="16" fill="rgb(101,78,225)" opacity="0.8"/>
<circle cx="212" cy="3" r="15" fill="rgb(232,53,244)" opacity="0.8"/>
<circle cx="312" cy="114" r="15" fill="rgb(247,184,85)" opacity="0.8"/>
<circle cx="106" cy="313" r="15" fill="rgb(64,246,146)" opacity="0.8"/>
<circle cx="115" cy="55" r="8" fill="rgb(0,138,37)" opacity="0.8"/>
<circle cx="261" cy="25" r="10" fill="rgb(89,187,102)" opacity="0.8"/>
<circle cx="112" cy="31" r="8" fill="rgb(121,171,207)" opacity="0.8"/>
<circle cx="328" cy="48" r="14" fill="rgb(78,185,26)" opacity="0.8"/>
<circle cx="360" cy="93" r="3" fill="rgb(99,127,74)" opacity="0.8"/>
<circle cx="116" cy="24" r="6" fill="rgb(17,133,137)" opacity="0.8"/>
<circle cx="278" cy="265" r="13" fill="rgb(4,205,37)" opacity="0.8"/>
<circle cx="51" cy="296" r="15" fill="rgb(147,161,201)" opacity="0.8"/>
<circle cx="173" cy="64" r="12" fill="rgb(251,81,154)" opacity="0.8"/>
<circle cx="96" cy="303" r="8" fill="rgb(148,226,114)" opacity="0.8"/>
<circle cx="326" cy="207" r="4" fill="rgb(230,81,86)" opacity="0.8"/>
<circle cx="181" cy="185" r="7" fill="rgb(168,77,242)" opacity="0.8"/>
<circle cx="95" cy="352" r="8" fill="rgb(220,245,228)" opacity="0.8"/>
<circle cx="156" cy="167" r="14" fill="rgb(213,105,167)" opacity="0.8"/>
<circle cx="5" cy="7" r="8" fill="rgb(51,53,155)" opacity="0.8"/>
<circle cx="371" cy="170" r="5" fill="rgb(42,74,129)" opacity="0.8"/>
<circle cx="136" cy="219" r="18" fill="rgb(127,156,187)" opacity="0.8"/>
<circle cx="133" cy="255" r="8" fill="rgb(27,132,6)" opacity="0.8"/>
<circle cx="348" cy="129" r="7" fill="rgb(254,27,17)" opacity="0.8"/>
<circle cx="76" cy="81" r="9" fill="rgb(19,133,225)" opacity="0.8"/>
<circle cx="47" cy="346" r="20" fill="rgb(130,0,12)" opacity="0.8"/>
<circle cx="6" cy="254" r="9" fill="rgb(215,163,86)" opacity="0.8"/>
<circle cx="10" cy="193" r="6" fill="rgb(93,6,190)" opacity="0.8"/>
<circle cx="194" cy="302" r="14" fill="rgb(105,27,155)" opacity="0.8"/>
<circle cx="114" cy="274" r="20" fill="rgb(247,124,135)" opacity="0.8"/>
<circle cx="124" cy="218" r="15" fill="rgb(27,227,94)" opacity="0.8"/>
<circle cx="279" cy="128" r="20" fill="rgb(125,113,29)" opacity="0.8"/>
<circle cx="239" cy="203" r="3" fill="rgb(76,125,146)" opacity="0.8"/>
<circle cx="316" cy="89" r="19" fill="rgb(109,147,16)" opacity="0.8"/>
<circle cx="369" cy="281" r="13" fill="rgb(83,121,217)" opacity="0.8"/>
<circle cx="207" cy="236" r="4" fill="rgb(186,205,48)" opacity="0.8"/>
<circle cx="130" cy="156" r="5" fill="rgb(83,175,30)" opacity="0.8"/>
<circle cx="23" cy="182" r="9" fill="rgb(23,64,248)" opacity="0.8"/>
</svg>