<svg xmlns="http://www.w3.org/2000/svg" viewBox="0 0 400 400" width="400" height="400">
<rect width="400" height="400" fill="#67e959"/>
<circle cx="53" cy="154" r="18" fill="rgb(205,143,223)" opacity="0.8"/>
<circle cx="301" cy="339" r="12" fill="rgb(244,4,56)" opacity="0.8"/>
<circle cx="211" cy="253" r="16" fill="rgb(169,118,118)" opacity="0.8"/>
<circle cx="155" cy="23" r="10" fill="rgb(194,59,34)" opacity="0.8"/>
<circle cx="130" cy="217" r="12" fill="rgb(226,131,174)" opacity="0.8"/>
<circle cx="291" cy="104" r="16" fill="rgb(66,54,0)" opacity="0.8"/>
<circle cx="92" cy="269" r="19" fill="rgb(2,200,205)" opacity="0.8"/>
<circle cx="4" cy="40" r="10" fill="rgb(114,126,16)" opacity="0.8"/>
<circle cx="240" cy="67" r="5" fill="rgb(240,104,195)" opacity="0.8"/>
<circle cx="242" cy="197" r="13" fill="rgb(65,216,16)" opacity="0.8"/>
<circle cx="343" cy="370" r="20" fill="rgb(222,117,27)" opacity="0.8"/>
<circle cx="14" cy="168" r="20" fill="rgb(73,219,218)" opacity="0.8"/>
<circle cx="312" cy="20" r="8" fill="rgb(67,91,91)" opacity="0.8"/>
<circle cx="138" cy="129" r="3" fill="rgb(170,104,96)" opacity="0.8"/>
<circle cx="380" cy="23" r="8" fill="rgb(167,224,251)" opacity="0.8"/>
<circle cx="8" cy="142" r="7" fill="rgb(13,159,149)" opacity="0.8"/>
<circle cx="299" cy="274" r="18" fill="rgb(12,76,36)" opacity="0.8"/>
<circle cx="253" cy="179" r="11" fill="rgb(244,129,62)" opacity="0.8"/>
<circle cx="12" cy="249" r="5" fill="rgb(45,69,94)" opacity="0.8"/>
<circle cx="188" cy="211" r="13" fill="rgb(35,136,33)" opacity="0.8"/>
<circle cx="355" cy="306" r="10" fill="rgb(198,107,106)" opacity="0.8"/>
<circle cx="318" cy="57" r="20" fill="rgb(118,149,191)" opacity="0.8"/>
<circle cx="164" cy="150" r="12" fill="rgb(222,92,26)" opacity="0.8"/>
<circle cx="371" cy="15" r="8" fill="rgb(131,24,30)" opacity="0.8"/>
<circle cx="105" cy="187" r="17" fill="rgb(123,225,253)" opacity="0.8"/>
<circle cx="168" cy="263" r="8" fill="rgb(248,78,241)" opacity="0.8"/>
<circle cx="368" cy="182" r="12" fill="rgb(122,18,47)" opacity="0.8"/>
<circle cx="300" cy="353" r="14" fill="rgb(230,123,60)" opacity="0.8"/>
<circle cx="160" cy="166" r="8" fill="rgb(91,236,75)" opacity="0.8"/>
<circle cx="107" cy="102" r="8" fill="rgb(151,137,231)" opacity="0.8"/>
<circle cx="114" cy="113" r="19" fill="rgb(23,241,5)" opacity="0.8"/>
<circle cx="180" cy="156" r="4" fill="rgb(224,182,18)" opacity="0.8"/>
<circle cx="222" cy="260" r="6" fill="rgb(180,31,29)" opacity="0.8"/>
<circle cx="163" cy="129" r="5" fill="rgb(123,38,150)" opacity="0.8"/>
<circle cx="238" cy="339" r="17" fill="rgb(13,163,37)" opacity="0.8"/>
<circle cx="372" cy="219" r="8" fill="rgb(11,3,230)" opacity="0.8"/>
<circle cx="236" cy="357" r="3" fill="rgb(162,174,120)" opacity="0.8"/>
<circle cx="41" cy="135" r="7" fill="rgb(173,184,10)" opacity="0.8"/>
<circle cx="326" cy="101" r="4" fill="rgb(236,229,230)" opacity="0.8"/>
<circle cx="118" cy="285" r="16" fill="rgb(6,3,147)" opacity="0.8"/>
<circle cx="324" cy="162" r="4" fill="rgb(45,137,118)" opacity="0.8"/>
<circle cx="178" cy="161" r="20" fill="rgb(17,154,105)" opacity="0.8"/>
<circle cx="98" cy="206" r="12" fill="rgb(196,139,115)" opacity="0.8"/>
<circle cx="52" cy="248" r="15" fill="rgb(61,155,245)" opacity="0.8"/>
<circle cx="238" cy="305" r="16" fill="rgb(211,197,218)" opacity="0.8"/>
<circle cx="333" cy="360" r="12" fill="rgb(225,184,39)" opacity="0.8"/>
<circle cx="154" cy="234" r="20" fill="rgb(86,107,4)" opacity="0.8"/>
<circle cx="292" cy="138" r="9" fill="rgb(124,33,116)" opacity="0.8"/>
<circle cx="165" cy="151" r="12" fill="rgb(134,158,148)" opacity="0.8"/>
<circle cx="118" cy="84" r="4" fill="rgb(190,94,63)" opacity="0.8"/>
<circle cx="320" cy="242" r="10" fill="rgb(249,190,41)" opacity="0.8"/>
<circle cx="214" cy="157" r="18" fill="rgb(126,59,181)" opacity="0.8"/>
<circle cx="260" cy="206" r="8" fill="rgb(58,31,6)" opacity="0.8"/>
<circle cx="305" cy="189" r="13" fill="rgb(185,204,199)" opacity="0.8"/>
<circle cx="307" cy="65" r="5" fill="rgb(81,158,22)" opacity="0.8"/>
<circle cx="307" cy="122" r="15" fill="rgb(208,154,15)" opacity="0.8"/>
<circle cx="178" cy="13" r="11" fill="rgb(129,46,117)" opacity="0.8"/>
<circle cx="321" cy="115" r="15" fill="rgb(116,151,132)" opacity="0.8"/>
<circle cx="251" cy="20" r="18" fill="rgb(73,237,71)" opacity="0.8"/>
<circle cx="289" cy="23" r="7" fill="rgb(112,25,236)" opacity="0.8"/>
<circle cx="216" cy="26" r="4" fill="rgb(125,192,247)" opacity="0.8"/>
<circle cx="254" cy="77" r="16" fill="rgb(120,17,118)" opacity="0.8"/>
<circle cx="274" cy="37" r="16" fill="rgb(133,180,193)" opacity="0.8"/>
<circle cx="239" cy="230" r="19" fill="rgb(131,215,198)" opacity="0.8"/>
<circle cx="167" cy="277" r="18" fill="rgb(115,94,93)" opacity="0.8"/>
<circle cx="353" cy="377" r="20" fill="rgb(185,184,240)" opacity="0.8"/>
<circle cx="14" cy="137" r="5" fill="rgb(247,64,218)" opacity="0.8"/>
<circle cx="222" cy="30" r="14" fill="rgb(32,95,161)" opacity="0.8"/>
<circle cx="255" cy="362" r="9" fill="rgb(44,91,16)" opacity="0.8"/>
<circle cx="375" cy="71" r="14" fill="rgb(235,7,129)" opacity="0.8"/>
<circle cx="251" cy="245" r="8" fill="rgb(59,85,95)" opacity="0.8"/>
</svg>