<svg xmlns="http://www.w3.org/2000/svg" viewBox="0 0 400 400" width="400" height="400">
<rect width="400" height="400" fill="#bdb383"/>
<circle cx="247" cy="204" r="20" fill="rgb(210,153,183)" opacity="0.8"/>
<circle cx="281" cy="338" r="8" fill="rgb(250,62,165)" opacity="0.8"/>
<circle cx="188" cy="106" r="4" fill="rgb(22,152,28)" opacity="0.8"/>
<circle cx="174" cy="251" r="6" fill="rgb(135,118,44)" opacity="0.8"/>
<circle cx="151" cy="332" r="6" fill="rgb(242,104,201)" opacity="0.8"/>
<circle cx="182" cy="365" r="20" fill="rgb(24,136,156)" opacity="0.8"/>
<circle cx="140" cy="214" r="18" fill="rgb(233,227,170)" opacity="0.8"/>
<circle cx="260" cy="144" r="6" fill="rgb(9,190,203)" opacity="0.8"/>
<circle cx="147" cy="282" r="14" fill="rgb(96,238,77)" opacity="0.8"/>
<circle cx="17" cy="270" r="3" fill="rgb(234,14,21)" opacity="0.8"/>
<circle cx="108" cy="64" r="17" fill="rgb(33,122,237)" opacity="0.8"/>
<circle cx="242" cy="97" r="13" fill="rgb(82,115,84)" opacity="0.8"/>
<circle cx="150" cy="329" r="15" fill="rgb(235,179,245)" opacity="0.8"/>
<circle cx="366" cy="272" r="4" fill="rgb(216,222,127)" opacity="0.8"/>
<circle cx="37" cy="236" r="14" fill="rgb(169,114,105)" opacity="0.8"/>
<circle cx="202" cy="306" r="10" fill="rgb(199,101,187)" opacity="0.8"/>
<circle cx="337" cy="24" r="16" fill="rgb(129,57,161)" opacity="0.8"/>
<circle cx="15" cy="20" r="6" fill="rgb(67,228,192)" opacity="0.8"/>
<circle cx="31" cy="321" r="9" fill="rgb(241,183,220)" opacity="0.8"/>
<circle cx="293" cy="167" r="17" fill="rgb(90,159,90)" opacity="0.8"/>
<circle cx="38" cy="267" r="7" fill="rgb(95,40,165)" opacity="0.8"/>
<circle cx="137" cy="57" r="4" fill="rgb(136,233,119)" opacity="0.8"/>
<circle cx="43" cy="79" r="11" fill="rgb(237,203,169)" opacity="0.8"/>
<circle cx="219" cy="114" r="15" fill="rgb(208,167,34)" opacity="0.8"/>
<circle cx="111" cy="331" r="9" fill="rgb(195,144,1)" opacity="0.8"/>
<circle cx="278" cy="3" r="15" fill="rgb(41,195,22)" opacity="0.8"/>
<circle cx="171" cy="380" r="18" fill="rgb(182,232,161)" opacity="0.8"/>
<circle cx="346" cy="257" r="12" fill="rgb(53,156,61)" opacity="0.8"/>
<circle cx="45" cy="253" r="5" fill="rgb(215,166,79)" opacity="0.8"/>
<circle cx="190" cy="295" r="11" fill="rgb(222,99,88)" opacity="0.8"/>
<circle cx="200" cy="89" r="20" fill="rgb(169,237,235)" opacity="0.8"/>
<circle cx="354" cy="162" r="10" fill="rgb(12,214,203)" opacity="0.8"/>
<circle cx="175" cy="340" r="7" fill="rgb(38,227,109)" opacity="0.8"/>
<circle cx="210" cy="280" r="17" fill="rgb(207,81,97)" opacity="0.8"/>
<circle cx="127" cy="11" r="19" fill="rgb(91,191,243)" opacity="0.8"/>
<circle cx="215" cy="208" r="13" fill="rgb(101,6,155)" opacity="0.8"/>
<circle cx="114" cy="220" r="18" fill="rgb(51,62,35)" opacity="0.8"/>
<circle cx="296" cy="95" r="19" fill="rgb(123,30,4)" opacity="0.8"/>
<circle cx="73" cy="276" r="9" fill="rgb(146,215,245)" opacity="0.8"/>
<circle cx="125" cy="358" r="14" fill="rgb(252,3,19)" opacity="0.8"/>
<circle cx="61" cy="74" r="10" fill="rgb(6,220,38)" opacity="0.8"/>
<circle cx="31" cy="270" r="3" fill="rgb(85,185,249)" opacity="0.8"/>
<circle cx="303" cy="368" r="8" fill="rgb(63,26,133)" opacity="0.8"/>
<circle cx="223" cy="222" r="17" fill="rgb(247,151,237)" opacity="0.8"/>
<circle cx="95" cy="264" r="10" fill="rgb(148,134,12)" opacity="0.8"/>
<circle cx="165" cy="24" r="18" fill="rgb(40,217,186)" opacity="0.8"/>
<circle cx="313" cy="134" r="20" fill="rgb(241,218,43)" opacity="0.8"/>
<circle cx="198" cy="375" r="20" fill="rgb(106,34,240)" opacity="0.8"/>
<circle cx="275" cy="368" r="13" fill="rgb(149,161,219)" opacity="0.8"/>
<circle cx="328" cy="167" r="10" fill="rgb(209,255,154)" opacity="0.8"/>
<circle cx="341" cy="341" r="5" fill="rgb(63,111,127)" opacity="0.8"/>
<circle cx="188" cy="212" r="6" fill="rgb(132,109,103)" opacity="0.8"/>
<circle cx="127" cy="358" r="8" fill="rgb(34,219,255)" opacity="0.8"/>
<circle cx="215" cy="118" r="16" fill="rgb(174,97,179)" opacity="0.8"/>
<circle cx="37" cy="378" r="4" fill="rgb(169,45,90)" opacity="0.8"/>
<circle cx="83" cy="57" r="7" fill="rgb(5,220,174)" opacity="0.8"/>
<circle cx="156" cy="364" r="20" fill="rgb(32,95,111)" opacity="0.8"/>
<circle cx="133" cy="116" r="17" fill="rgb(206,65,205)" opacity="0.8"/>
<circle cx="206" cy="184" r="8" fill="rgb(35,65,119)" opacity="0.8"/>
<circle cx="317" cy="234" r="9" fill="rgb(187,150,63)" opacity="0.8"/>
<circle cx="112" cy="302" r="6" fill="rgb(247,205,72)" opacity="0.8"/>
<circle cx="380" cy="374" r="19" fill="rgb(154,215,32)" opacity="0.8"/>
<circle cx="179" cy="201" r="14" fill="rgb(138,248,254)" opacity="0.8"/>
<circle cx="203" cy="319" r="15" fill="rgb(11,36,214)" opacity="0.8"/>
<circle cx="338" cy="73" r="10" fill="rgb(47,104,222)" opacity="0.8"/>
<circle cx="274" cy="369" r="16" fill="rgb(70,113,133)" opacity="0.8"/>
<circle cx="371" cy="206" r="5" fill="rgb(146,8,202)" opacity="0.8"/>
<circle cx="361" cy="56" r="4" fill="rgb(117,64,236)" opacity="0.8"/>
<circle cx="347" cy="134" r="3" fill="rgb(160,63,205)" opacity="0.8"/>
<circle cx="58" cy="197" r="13" fill="rgb(213,12,169)" opacity="0.8"/>
<circle cx="245" cy="270" r="11" fill="rgb(10,35,96)" opacity="0.8"/>
<circle cx="328" cy="30" r="19" fill="rgb(93,226,200)" opacity="0.8"/>
<circle cx="159" cy="199" r="5" fill="rgb(8,199,7)" opacity="0.8"/>
<circle cx="291" cy="13" r="11" fill="rgb(198,71,83)" opacity="0.8"/>
<circle cx="304" cy="177" r="4" fill="rgb(158,20,12)" opacity="0.8"/>
<circle cx="45" cy="357" r="6" fill="rgb(243,36,142)" opacity="0.8"/>
<circle cx="335" cy="61" r="19" fill="rgb(154,18,212)" opacity="0.8"/>
<circle cx="115" cy="277" r="19" fill="rgb(165,229,171)" opacity="0.8"/>
<circle cx="281" cy="347" r="18" fill="rgb(142,215,98)" opacity="0.8"/>
<circle cx="82" cy="290" r="15" fill="rgb(25,47,229)" opacity="0.8"/>
<circle cx="133" cy="131" r="5" fill="rgb(236,126,234)" opacity="0.8"/>
<circle cx="33" cy="210" r="13" fill="rgb(166,121,47)" opacity="0.8"/>
<circle cx="76" cy="49" r="14" fill="rgb(145,100,117)" opacity="0.8"/>
<circle cx="304" cy="179" r="18" fill="rgb(194,190,208)" opacity="0.8"/>
<circle cx="286" cy="299" r="17" fill="rgb(122,210,57)" opacity="0.8"/>
<circle cx="158" cy="6" r="5" fill="rgb(105,38,223)" opacity="0.8"/>
<circle cx="246" cy="341" r="6" fill="rgb(243,104,69)" opacity="0.8"/>
<circle cx="211" cy="277" r="18" fill="rgb(227,64,145)" opacity="0.8"/>
<circle cx="66" cy="245" r="6" fill="rgb(159,229,61)" opacity="0.8"/>
<circle cx="205" cy="98" r="13" fill="rgb(158,98,211)" opacity="0.8"/>
<circle cx="38" cy="62" r="19" fill="rgb(69,186,247)" opacity="0.8"/>
<circle cx="280" cy="54" r="3" fill="rgb(96,101,61)" opacity="0.8"/>
<circle cx="370" cy="156" r="7" fill="rgb(8,220,251)" opacity="0.8"/>
<circle cx="25" cy="69" r="8" fill="rgb(232,30,97)" opacity="0.8"/>
<circle cx="301" cy="108" r="8" fill="rgb(227,102,22)" opacity="0.8"/>
<circle cx="84" cy="37" r="19" fill="rgb(9,138,140)" opacity="0.8"/>
<circle cx="89" cy="53" r="12" fill="rgb(199,32,250)" opacity="0.8"/>
<circle cx="302" cy="361" r="14" fill="rgb(17,106,244)" opacity="0.8"/>
<circle cx="10" cy="334" r="14" fill="rgb(185,200,176)" opacity="0.8"/>
<circle cx="331" cy="380" r="6" fill="rgb(80,236,144)" opacity="0.8"/>
<circle cx="261" cy="112" r="11" fill="rgb(253,134,133)" opacity="0.8"/>
<circle cx="263" cy="233" r="10" fill="rgb(149,114,0)" opacity="0.8"/>
<circle cx="151" cy="171" r="11" fill="rgb(189,190,166)" opacity="0.8"/>
<circle cx="169" cy="11" r="15" fill="rgb(69,12,52)" opacity="0.8"/>
<circle cx="370" cy="150" r="7" fill="rgb(50,187,22)" opacity="0.8"/>
<circle cx="321" cy="315" r="3" fill="rgb(189,221,75)" opacity="0.8"/>
<circle cx="323" cy="279" r="7" fill="rgb(160,224,134)" opacity="0.8"/>
<circle cx="143" cy="285" r="5" fill="rgb(129,75,110)" opacity="0.8"/>
<circle cx="76" cy="369" r="9" fill="rgb(188,164,21)" opacity="0.8"/>
<circle cx="205" cy="207" r="9" fill="rgb(224,238,95)" opacity="0.8"/>
<circle cx="12" cy="144" r="14" fill="rgb(12,94,89)" opacity="0.8"/>
<circle cx="299" cy="237" r="3" fill="rgb(0,163,66)" opacity="0.8"/>
<circle cx="328" cy="98" r="7" fill="rgb(37,73,234)" opacity="0.8"/>
<circle cx="276" cy="56" r="7" fill="rgb(233,31,96)" opacity="0.8"/>
<circle cx="142" cy="190" r="11" fill="rgb(184,62,14)" opacity="0.8"/>
<circle cx="288" cy="89" r="8" fill="rgb(0,122,244)" opacity="0.8"/>
<circle cx="335" cy="213" r="16" fill="rgb(211,18,231)" opacity="0.8"/>
<circle cx="133" cy="92" r="13" fill="rgb(52,99,237)" opacity="0.8"/>
<circle cx="344" cy="262" r="19" fill="rgb(241,73,227)" opacity="0.8"/>
<circle cx="210" cy="63" r="6" fill="rgb(50,108,33)" opacity="0.8"/>
<circle cx="61" cy="65" r="18" fill="rgb(46,53,200)" opacity="0.8"/>
<circle cx="96" cy="221" r="14" fill="rgb(61,49,186)" opacity="0.8"/>
<circle cx="228" cy="97" r="13" fill="rgb(248,63,253)" opacity="0.8"/>
<circle cx="146" cy="300" r="12" fill="rgb(148,38,215)" opacity="0.8"/>
<circle cx="135" cy="277" r="4" fill="rgb(135,63,250)" opacity="0.8"/>
<circle cx="192" cy="362" r="15" fill="rgb(30,101,79)" opacity="0.8"/>
<circle cx="314" cy="306" r="9" fill="rgb(151,218,185)" opacity="0.8"/>
<circle cx="239" cy="97" r="16" fill="rgb(181,42,2)" opacity="0.8"/>
<circle cx="325" cy="165" r="14" fill="rgb(159,4,89)" opacity="0.8"/>
<circle cx="50" cy="246" r="20" fill="rgb(242,43,37)" opacity="0.8"/>
<circle cx="139" cy="51" r="8" fill="rgb(111,243,66)" opacity="0.8"/>
<circle cx="339" cy="205" r="6" fill="rgb(83,200,24)" opacity="0.8"/>
<circle cx="200" cy="268" r="12" fill="rgb(146,2,27)" opacity="0.8"/>
<circle cx="13" cy="320" r="20" fill="rgb(167,121,224)" opacity="0.8"/>
<circle cx="89" cy="116" r="16" fill="rgb(185,138,62)" opacity="0.8"/>
<circle cx="30" cy="182" r="5" fill="rgb(206,2,212)" opacity="0.8"/>
<circle cx="0" cy="147" r="11" fill="rgb(52,59,185)" opacity="0.8"/>
<circle cx="276" cy="333" r="17" fill="rgb(127,128,73)" opacity="0.8"/>
<circle cx="12" cy="288" r="3" fill="rgb(230,104,148)" opacity="0.8"/>
<circle cx="82" cy="91" r="6" fill="rgb(135,84,219)" opacity="0.8"/>
<circle cx="7" cy="45" r="13" fill="rgb(30,227,206)" opacity="0.8"/>
<circle cx="45" cy="218" r="20" fill="rgb(162,38,252)" opacity="0.8"/>
<circle cx="234" cy="1" r="9" fill="rgb(48,7,203)" opacity="0.8"/>
<circle cx="274" cy="218" r="15" fill="rgb(189,150,117)" opacity="0.8"/>
<circle cx="190" cy="350" r="16" fill="rgb(81,237,132)" opacity="0.8"/>
<circle cx="350" cy="34" r="8" fill="rgb(116,216,233)" opacity="0.8"/>
<circle cx="314" cy="53" r="9" fill="rgb(73,130,132)" opacity="0.8"/>
<circle cx="92" cy="107" r="11" fill="rgb(166,108,53)" opacity="0.8"/>
</svg>