<svg xmlns="http://www.w3.org/2000/svg" viewBox="0 0 400 400" width="400" height="400">
<rect width="400" height="400" fill="#dec2a2"/>
<circle cx="67" cy="211" r="14" fill="rgb(44,200,34)" opacity="0.8"/>
<circle cx="368" cy="180" r="10" fill="rgb(221,28,140)" opacity="0.8"/>
<circle cx="247" cy="373" r="11" fill="rgb(192,163,63)" opacity="0.8"/>
<circle cx="77" cy="202" r="17" fill="rgb(30,78,85)" opacity="0.8"/>
<circle cx="16" cy="161" r="13" fill="rgb(65,240,241)" opacity="0.8"/>
<circle cx="179" cy="246" r="20" fill="rgb(231,57,43)" opacity="0.8"/>
<circle cx="348" cy="50" r="10" fill="rgb(68,104,222)" opacity="0.8"/>
<circle cx="58" cy="44" r="14" fill="rgb(222,169,191)" opacity="0.8"/>
<circle cx="170" cy="108" r="8" fill="rgb(149,74,43)" opacity="0.8"/>
<circle cx="172" cy="302" r="9" fill="rgb(49,108,78)" opacity="0.8"/>
<circle cx="251" cy="30" r="5" fill="rgb(241,8,18)" opacity="0.8"/>
<circle cx="5" cy="233" r="11" fill="rgb(146,106,6)" opacity="0.8"/>
<circle cx="333" cy="208" r="7" fill="rgb(243,4,114)" opacity="0.8"/>
<circle cx="139" cy="151" r="11" fill="rgb(136,98,255)" opacity="0.8"/>
<circle cx="350" cy="92" r="13" fill="rgb(17,201,11)" opacity="0.8"/>
<circle cx="192" cy="68" r="17" fill="rgb(246,22,115)" opacity="0.8"/>
<circle cx="48" cy="85" r="12" fill="rgb(55,195,147)" opacity="0.8"/>
<circle cx="92" cy="244" r="19" fill="rgb(61,183,252)" opacity="0.8"/>
<circle cx="361" cy="139" r="19" fill="rgb(54,126,14)" opacity="0.8"/>
<circle cx="289" cy="17" r="12" fill="rgb(215,82,118)" opacity="0.8"/>
<circle cx="69" cy="321" r="17" fill="rgb(6,16,91)" opacity="0.8"/>
<circle cx="131" cy="26" r="13" fill="rgb(89,160,61)" opacity="0.8"/>
<circle cx="362" cy="109" r="12" fill="rgb(44,69,94)" opacity="0.8"/>
<circle cx="318" cy="2" r="9" fill="rgb(81,1,53)" opacity="0.8"/>
<circle cx="23" cy="288" r="20" fill="rgb(127,102,219)" opacity="0.8"/>
<circle cx="266" cy="5" r="18" fill="rgb(175,132,24)" opacity="0.8"/>
<circle cx="7" cy="269" r="18" fill="rgb(235,80,210)" opacity="0.8"/>
<circle cx="172" cy="50" r="17" fill="rgb(61,4,203)" opacity="0.8"/>
<circle cx="66" cy="298" r="9" fill="rgb(215,248,203)" opacity="0.8"/>
<circle cx="306" cy="91" r="14" fill="rgb(133,96,42)" opacity="0.8"/>
<circle cx="264" cy="225" r="13" fill="rgb(138,55,120)" opacity="0.8"/>
<circle cx="379" cy="290" r="12" fill="rgb(52,138,205)" opacity="0.8"/>
<circle cx="19" cy="23" r="6" fill="rgb(51,77,255)" opacity="0.8"/>
<circle cx="136" cy="211" r="11" fill="rgb(116,202,53)" opacity="0.8"/>
<circle cx="210" cy="263" r="18" fill="rgb(44,38,182)" opacity="0.8"/>
<circle cx="271" cy="1" r="6" fill="rgb(107,174,30)" opacity="0.8"/>
<circle cx="176" cy="375" r="14" fill="rgb(60,65,38)" opacity="0.8"/>
<circle cx="355" cy="249" r="16" fill="rgb(2,196,63)" opacity="0.8"/>
<circle cx="246" cy="291" r="17" fill="rgb(64,149,129)" opacity="0.8"/>
<circle cx="201" cy="354" r="14" fill="rgb(137,216,109)" opacity="0.8"/>
<circle cx="302" cy="193" r="16" fill="rgb(226,179,147)" opacity="0.8"/>
<circle cx="311" cy="265" r="18" fill="rgb(0,43,241)" opacity="0.8"/>
<circle cx="71" cy="221" r="13" fill="rgb(165,125,155)" opacity="0.8"/>
<circle cx="121" cy="148" r="9" fill="rgb(100,14,228)" opacity="0.8"/>
<circle cx="57" cy="115" r="12" fill="rgb(68,198,39)" opacity="0.8"/>
<circle cx="259" cy="303" r="10" fill="rgb(94,172,107)" opacity="0.8"/>
<circle cx="140" cy="224" r="4" fill="rgb(200,141,205)" opacity="0.8"/>
<circle cx="193" cy="220" r="12" fill="rgb(83,138,182)" opacity="0.8"/>
<circle cx="126" cy="13" r="7" fill="rgb(167,218,59)" opacity="0.8"/>
<circle cx="14" cy="290" r="9" fill="rgb(102,205,179)" opacity="0.8"/>
<circle cx="121" cy="72" r="19" fill="rgb(174,137,136)" opacity="0.8"/>
<circle cx="283" cy="216" r="14" fill="rgb(172,191,14)" opacity="0.8"/>
<circle cx="207" cy="375" r="16" fill="rgb(98,224,25)" opacity="0.8"/>
<circle cx="189" cy="210" r="5" fill="rgb(7,154,114)" opacity="0.8"/>
<circle cx="284" cy="132" r="16" fill="rgb(20,42,45)" opacity="0.8"/>
<circle cx="355" cy="239" r="13" fill="rgb(77,130,231)" opacity="0.8"/>
<circle cx="99" cy="317" r="8" fill="rgb(138,113,92)" opacity="0.8"/>
<circle cx="42" cy="117" r="6" fill="rgb(253,69,150)" opacity="0.8"/>
<circle cx="195" cy="15" r="5" fill="rgb(254,234,100)" opacity="0.8"/>
<circle cx="375" cy="127" r="5" fill="rgb(136,138,57)" opacity="0.8"/>
<circle cx="252" cy="228" r="20" fill="rgb(135,126,219)" opacity="0.8"/>
<circle cx="236" cy="194" r="20" fill="rgb(137,107,233)" opacity="0.8"/>
<circle cx="44" cy="21" r="8" fill="rgb(140,218,80)" opacity="0.8"/>
<circle cx="358" cy="22" r="17" fill="rgb(232,101,245)" opacity="0.8"/>
<circle cx="113" cy="176" r="20" fill="rgb(70,34,80)" opacity="0.8"/>
<circle cx="254" cy="94" r="12" fill="rgb(235,168,162)" opacity="0.8"/>
<circle cx="116" cy="330" r="11" fill="rgb(187,166,5)" opacity="0.8"/>
<circle cx="29" cy="10" r="18" fill="rgb(124,113,82)" opacity="0.8"/>
<circle cx="186" cy="123" r="8" fill="rgb(242,54,219)" opacity="0.8"/>
<circle cx="66" cy="143" r="14" fill="rgb(135,53,46)" opacity="0.8"/>
<circle cx="176" cy="170" r="13" fill="rgb(198,164,183)" opacity="0.8"/>
<circle cx="67" cy="357" r="10" fill="rgb(170,130,164)" opacity="0.8"/>
<circle cx="75" cy="254" r="9" fill="rgb(17,226,168)" opacity="0.8"/>
<circle cx="178" cy="1" r="10" fill="rgb(147,236,92)" opacity="0.8"/>
<circle cx="245" cy="291" r="14" fill="rgb(66,225,18)" opacity="0.8"/>
<circle cx="350" cy="32" r="13" fill="rgb(214,153,192)" opacity="0.8"/>
<circle cx="37" cy="0" r="10" fill="rgb(37,104,113)" opacity="0.8"/>
<circle cx="323" cy="268" r="12" fill="rgb(142,151,13)" opacity="0.8"/>
<circle cx="322" cy="356" r="15" fill="rgb(14,252,117)" opacity="0.8"/>
<circle cx="2" cy="43" r="17" fill="rgb(48,166,45)" opacity="0.8"/>
<circle cx="201" cy="258" r="17" fill="rgb(92,167,51)" opacity="0.8"/>
<circle cx="264" cy="46" r="10" fill="rgb(37,253,197)" opacity="0.8"/>
<circle cx="239" cy="274" r="8" fill="rgb(49,177,217)" opacity="0.8"/>
<circle cx="64" cy="357" r="19" fill="rgb(23,140,116)" opacity="0.8"/>
<circle cx="236" cy="271" r="4" fill="rgb(35,5,75)" opacity="0.8"/>
<circle cx="156" cy="21" r="19" fill="rgb(86,233,241)" opacity="0.8"/>
<circle cx="49" cy="14" r="8" fill="rgb(67,230,156)" opacity="0.8"/>
<circle cx="75" cy="324" r="6" fill="rgb(88,219,78)" opacity="0.8"/>
<circle cx="191" cy="118" r="7" fill="rgb(252,5,25)" opacity="0.8"/>
<circle cx="251" cy="293" r="20" fill="rgb(193,100,126)" opacity="0.8"/>
<circle cx="41" cy="116" r="8" fill="rgb(138,78,112)" opacity="0.8"/>
<circle cx="94" cy="268" r="20" fill="rgb(30,213,82)" opacity="0.8"/>
<circle cx="278" cy="98" r="3" fill="rgb(148,87,76)" opacity="0.8"/>
<circle cx="212" cy="297" r="14" fill="rgb(82,127,140)" opacity="0.8"/>
<circle cx="200" cy="81" r="16" fill="rgb(128,233,84)" opacity="0.8"/>
<circle cx="191" cy="92" r="16" fill="rgb(162,152,86)" opacity="0.8"/>
<circle cx="139" cy="229" r="3" fill="rgb(44,161,199)" opacity="0.8"/>
<circle cx="112" cy="379" r="18" fill="rgb(77,147,93)" opacity="0.8"/>
<circle cx="260" cy="42" r="18" fill="rgb(156,172,205)" opacity="0.8"/>
<circle cx="80" cy="173" r="20" fill="rgb(199,99,86)" opacity="0.8"/>
<circle cx="236" cy="159" r="7" fill="rgb(244,130,100)" opacity="0.8"/>
<circle cx="235" cy="34" r="17" fill="rgb(70,162,199)" opacity="0.8"/>
<circle cx="251" cy="158" r="5" fill="rgb(212,65,85)" opacity="0.8"/>
<circle cx="303" cy="199" r="19" fill="rgb(22,178,33)" opacity="0.8"/>
<circle cx="121" cy="153" r="3" fill="rgb(20,202,49)" opacity="0.8"/>
<circle cx="81" cy="290" r="20" fill="rgb(62,248,27)" opacity="0.8"/>
<circle cx="256" cy="143" r="7" fill="rgb(254,223,247)" opacity="0.8"/>
<circle cx="59" cy="216" r="10" fill="rgb(135,135,59)" opacity="0.8"/>
<circle cx="32" cy="351" r="8" fill="rgb(92,33,29)" opacity="0.8"/>
<circle cx="295" cy="219" r="7" fill="rgb(211,242,236)" opacity="0.8"/>
<circle cx="281" cy="327" r="9" fill="rgb(234,183,25)" opacity="0.8"/>
<circle cx="141" cy="374" r="10" fill="rgb(94,204,231)" opacity="0.8"/>
<circle cx="366" cy="203" r="7" fill="rgb(238,156,95)" opacity="0.8"/>
<circle cx="239" cy="225" r="17" fill="rgb(114,249,115)" opacity="0.8"/>
<circle cx="76" cy="78" r="18" fill="rgb(162,87,222)" opacity="0.8"/>
<circle cx="67" cy="142" r="20" fill="rgb(230,188,220)" opacity="0.8"/>
<circle cx="380" cy="376" r="14" fill="rgb(137,6,38)" opacity="0.8"/>
<circle cx="145" cy="365" r="13" fill="rgb(145,244,227)" opacity="0.8"/>
<circle cx="328" cy="251" r="11" fill="rgb(19,150,79)" opacity="0.8"/>
<circle cx="314" cy="257" r="20" fill="rgb(20,227,215)" opacity="0.8"/>
<circle cx="114" cy="115" r="7" fill="rgb(202,201,205)" opacity="0.8"/>
<circle cx="196" cy="267" r="14" fill="rgb(48,5,32)" opacity="0.8"/>
<circle cx="174" cy="7" r="8" fill="rgb(67,138,101)" opacity="0.8"/>
<circle cx="227" cy="256" r="3" fill="rgb(129,74,51)" opacity="0.8"/>
<circle cx="142" cy="133" r="16" fill="rgb(229,10,77)" opacity="0.8"/>
<circle cx="128" cy="379" r="9" fill="rgb(83,54,251)" opacity="0.8"/>
<circle cx="53" cy="134" r="6" fill="rgb(241,214,121)" opacity="0.8"/>
<circle cx="179" cy="375" r="7" fill="rgb(242,86,107)" opacity="0.8"/>
<circle cx="45" cy="329" r="9" fill="rgb(162,251,116)" opacity="0.8"/>
<circle cx="245" cy="97" r="15" fill="rgb(178,12,89)" opacity="0.8"/>
<circle cx="280" cy="247" r="10" fill="rgb(80,135,33)" opacity="0.8"/>
<circle cx="102" cy="75" r="19" fill="rgb(68,143,145)" opacity="0.8"/>
<circle cx="49" cy="16" r="3" fill="rgb(0,211,40)" opacity="0.8"/>
<circle cx="278" cy="324" r="19" fill="rgb(251,181,225)" opacity="0.8"/>
</svg>