<svg xmlns="http://www.w3.org/2000/svg" viewBox="0 0 400 400" width="400" height="400">
<rect width="400" height="400" fill="#8a56f6"/>
<circle cx="266" cy="304" r="16" fill="rgb(113,73,66)" opacity="0.8"/>
<circle cx="142" cy="247" r="7" fill="rgb(47,222,24)" opacity="0.8"/>
<circle cx="123" cy="115" r="4" fill="rgb(215,14,66)" opacity="0.8"/>
<circle cx="298" cy="83" r="12" fill="rgb(238,143,40)" opacity="0.8"/>
<circle cx="268" cy="296" r="17" fill="rgb(148,36,51)" opacity="0.8"/>
<circle cx="219" cy="367" r="5" fill="rgb(35,200,160)" opacity="0.8"/>
<circle cx="311" cy="79" r="16" fill="rgb(35,253,43)" opacity="0.8"/>
<circle cx="269" cy="281" r="8" fill="rgb(21,49,43)" opacity="0.8"/>
<circle cx="218" cy="33" r="18" fill="rgb(24,252,137)" opacity="0.8"/>
<circle cx="13" cy="31" r="9" fill="rgb(92,56,47)" opacity="0.8"/>
<circle cx="42" cy="121" r="3" fill="rgb(121,25,118)" opacity="0.8"/>
<circle cx="255" cy="167" r="15" fill="rgb(241,80,144)" opacity="0.8"/>
<circle cx="101" cy="201" r="20" fill="rgb(13,220,76)" opacity="0.8"/>
<circle cx="20" cy="44" r="11" fill="rgb(172,212,23)" opacity="0.8"/>
<circle cx="283" cy="192" r="13" fill="rgb(18,59,177)" opacity="0.8"/>
<circle cx="262" cy="216" r="5" fill="rgb(216,67,51)" opacity="0.8"/>
<circle cx="330" cy="335" r="12" fill="rgb(47,16,99)" opacity="0.8"/>
<circle cx="294" cy="194" r="16" fill="rgb(148,134,155)" opacity="0.8"/>
<circle cx="322" cy="233" r="10" fill="rgb(115,132,71)" opacity="0.8"/>
<circle cx="9" cy="205" r="11" fill="rgb(43,160,158)" opacity="0.8"/>
<circle cx="194" cy="348" r="17" fill="rgb(15,175,165)" opacity="0.8"/>
<circle cx="115" cy="243" r="5" fill="rgb(160,44,119)" opacity="0.8"/>
<circle cx="86" cy="310" r="6" fill="rgb(91,178,203)" opacity="0.8"/>
<circle cx="136" cy="133" r="8" fill="rgb(13,223,60)" opacity="0.8"/>
<circle cx="342" cy="150" r="9" fill="rgb(44,17,51)" opacity="0.8"/>
<circle cx="66" cy="377" r="10" fill="rgb(163,202,136)" opacity="0.8"/>
<circle cx="213" cy="124" r="16" fill="rgb(237,1,175)" opacity="0.8"/>
<circle cx="348" cy="295" r="13" fill="rgb(126,52,244)" opacity="0.8"/>
<circle cx="173" cy="311" r="7" fill="rgb(118,219,34)" opacity="0.8"/>
<circle cx="237" cy="208" r="8" fill="rgb(104,224,234)" opacity="0.8"/>
<circle cx="64" cy="363" r="3" fill="rgb(163,158,86)" opacity="0.8"/>
<circle cx="375" cy="291" r="15" fill="rgb(113,9,1)" opacity="0.8"/>
<circle cx="75" cy="302" r="17" fill="rgb(236,178,247)" opacity="0.8"/>
<circle cx="19" cy="226" r="9" fill="rgb(32,211,187)" opacity="0.8"/>
<circle cx="128" cy="34" r="19" fill="rgb(141,24,216)" opacity="0.8"/>
<circle cx="156" cy="43" r="5" fill="rgb(140,154,31)" opacity="0.8"/>
<circle cx="197" cy="231" r="6" fill="rgb(118,113,248)" opacity="0.8"/>
<circle cx="65" cy="121" r="20" fill="rgb(144,197,107)" opacity="0.8"/>
<circle cx="138" cy="55" r="15" fill="rgb(30,92,40)" opacity="0.8"/>
<circle cx="40" cy="189" r="11" fill="rgb(14,93,82)" opacity="0.8"/>
<circle cx="272" cy="349" r="8" fill="rgb(128,217,14)" opacity="0.8"/>
<circle cx="313" cy="32" r="4" fill="rgb(15,177,229)" opacity="0.8"/>
<circle cx="182" cy="27" r="9" fill="rgb(18,64,103)" opacity="0.8"/>
<circle cx="62" cy="1" r="4" fill="rgb(241,233,21)" opacity="0.8"/>
<circle cx="74" cy="167" r="7" fill="rgb(210,62,79)" opacity="0.8"/>
<circle cx="20" cy="24" r="8" fill="rgb(131,103,250)" opacity="0.8"/>
<circle cx="301" cy="306" r="6" fill="rgb(201,221,146)" opacity="0.8"/>
<circle cx="342" cy="145" r="12" fill="rgb(196,117,7)" opacity="0.8"/>
<circle cx="361" cy="100" r="3" fill="rgb(39,56,83)" opacity="0.8"/>
</svg>