<svg xmlns="http://www.w3.org/2000/svg" viewBox="0 0 400 400" width="400" height="400">
<rect width="400" height="400" fill="#eeb292"/>
<circle cx="57" cy="36" r="11" fill="rgb(76,63,191)" opacity="0.8"/>
<circle cx="250" cy="24" r="17" fill="rgb(239,76,20)" opacity="0.8"/>
<circle cx="21" cy="311" r="12" fill="rgb(136,46,36)" opacity="0.8"/>
<circle cx="210" cy="323" r="19" fill="rgb(254,181,200)" opacity="0.8"/>
<circle cx="380" cy="241" r="13" fill="rgb(35,87,224)" opacity="0.8"/>
<circle cx="114" cy="90" r="10" fill="rgb(121,230,165)" opacity="0.8"/>
<circle cx="1" cy="53" r="3" fill="rgb(135,243,156)" opacity="0.8"/>
<circle cx="274" cy="322" r="13" fill="rgb(72,140,123)" opacity="0.8"/>
<circle cx="358" cy="15" r="11" fill="rgb(198,239,155)" opacity="0.8"/>
<circle cx="23" cy="56" r="7" fill="rgb(208,49,84)" opacity="0.8"/>
<circle cx="327" cy="212" r="19" fill="rgb(136,221,179)" opacity="0.8"/>
<circle cx="318" cy="89" r="15" fill="rgb(52,27,5)" opacity="0.8"/>
<circle cx="147" cy="344" r="17" fill="rgb(158,53,44)" opacity="0.8"/>
<circle cx="248" cy="70" r="10" fill="rgb(248,146,246)" opacity="0.8"/>
<circle cx="259" cy="57" r="15" fill="rgb(228,45,19)" opacity="0.8"/>
<circle cx="75" cy="220" r="12" fill="rgb(194,133,205)" opacity="0.8"/>
<circle cx="163" cy="379" r="14" fill="rgb(75,106,154)" opacity="0.8"/>
<circle cx="257" cy="125" r="11" fill="rgb(217,195,45)" opacity="0.8"/>
<circle cx="154" cy="142" r="14" fill="rgb(164,22,63)" opacity="0.8"/>
<circle cx="52" cy="50" r="4" fill="rgb(4,78,42)" opacity="0.8"/>
<circle cx="319" cy="175" r="19" fill="rgb(3,154,9)" opacity="0.8"/>
<circle cx="194" cy="2" r="16" fill="rgb(17,236,65)" opacity="0.8"/>
<circle cx="240" cy="257" r="19" fill="rgb(191,24,58)" opacity="0.8"/>
<circle cx="49" cy="212" r="16" fill="rgb(68,213,99)" opacity="0.8"/>
<circle cx="362" cy="231" r="20" fill="rgb(186,226,215)" opacity="0.8"/>
<circle cx="84" cy="181" r="7" fill="rgb(177,234,197)" opacity="0.8"/>
<circle cx="254" cy="22" r="3" fill="rgb(108,182,244)" opacity="0.8"/>
<circle cx="46" cy="325" r="9" fill="rgb(32,17,186)" opacity="0.8"/>
<circle cx="268" cy="310" r="19" fill="rgb(223,154,193)" opacity="0.8"/>
<circle cx="253" cy="126" r="8" fill="rgb(14,242,216)" opacity="0.8"/>
<circle cx="86" cy="113" r="11" fill="rgb(182,140,159)" opacity="0.8"/>
<circle cx="191" cy="147" r="3" fill="rgb(227,59,2)" opacity="0.8"/>
<circle cx="294" cy="0" r="19" fill="rgb(57,245,198)" opacity="0.8"/>
<circle cx="265" cy="245" r="11" fill="rgb(57,181,29)" opacity="0.8"/>
<circle cx="127" cy="152" r="3" fill="rgb(43,60,246)" opacity="0.8"/>
<circle cx="141" cy="216" r="12" fill="rgb(213,12,119)" opacity="0.8"/>
<circle cx="243" cy="129" r="20" fill="rgb(226,93,32)" opacity="0.8"/>
<circle cx="345" cy="79" r="7" fill="rgb(204,90,160)" opacity="0.8"/>
<circle cx="101" cy="371" r="16" fill="rgb(56,201,151)" opacity="0.8"/>
<circle cx="44" cy="177" r="9" fill="rgb(171,19,16)" opacity="0.8"/>
<circle cx="224" cy="271" r="13" fill="rgb(252,30,162)" opacity="0.8"/>
<circle cx="212" cy="21" r="6" fill="rgb(149,253,155)" opacity="0.8"/>
<circle cx="299" cy="126" r="9" fill="rgb(167,245,136)" opacity="0.8"/>
<circle cx="224" cy="230" r="16" fill="rgb(230,61,192)" opacity="0.8"/>
<circle cx="145" cy="66" r="15" fill="rgb(237,208,101)" opacity="0.8"/>
<circle cx="136" cy="96" r="10" fill="rgb(76,77,242)" opacity="0.8"/>
<circle cx="296" cy="236" r="15" fill="rgb(138,91,121)" opacity="0.8"/>
<circle cx="233" cy="217" r="19" fill="rgb(72,211,101)" opacity="0.8"/>
<circle cx="290" cy="251" r="13" fill="rgb(161,119,81)" opacity="0.8"/>
<circle cx="174" cy="326" r="18" fill="rgb(113,179,72)" opacity="0.8"/>
<circle cx="175" cy="232" r="4" fill="rgb(190,93,145)" opacity="0.8"/>
<circle cx="196" cy="107" r="6" fill="rgb(214,249,190)" opacity="0.8"/>
<circle cx="333" cy="83" r="5" fill="rgb(80,204,130)" opacity="0.8"/>
<circle cx="307" cy="351" r="19" fill="rgb(61,207,74)" opacity="0.8"/>
<circle cx="264" cy="135" r="17" fill="rgb(169,62,202)" opacity="0.8"/>
<circle cx="278" cy="32" r="16" fill="rgb(38,214,106)" opacity="0.8"/>
<circle cx="283" cy="298" r="14" fill="rgb(165,90,223)" opacity="0.8"/>
<circle cx="105" cy="82" r="3" fill="rgb(161,225,40)" opacity="0.8"/>
<circle cx="86" cy="27" r="9" fill="rgb(134,154,52)" opacity="0.8"/>
<circle cx="164" cy="122" r="8" fill="rgb(222,5,104)" opacity="0.8"/>
<circle cx="60" cy="235" r="19" fill="rgb(44,202,159)" opacity="0.8"/>
<circle cx="45" cy="363" r="9" fill="rgb(182,80,55)" opacity="0.8"/>
<circle cx="238" cy="186" r="5" fill="rgb(208,110,123)" opacity="0.8"/>
<circle cx="120" cy="1" r="3" fill="rgb(174,44,3)" opacity="0.8"/>
<circle cx="339" cy="76" r="13" fill="rgb(229,244,156)" opacity="0.8"/>
<circle cx="252" cy="137" r="19" fill="rgb(41,255,29)" opacity="0.8"/>
<circle cx="327" cy="6" r="9" fill="rgb(100,83,180)" opacity="0.8"/>
<circle cx="286" cy="379" r="11" fill="rgb(214,123,229)" opacity="0.8"/>
<circle cx="239" cy="241" r="15" fill="rgb(135,69,5)" opacity="0.8"/>
<circle cx="211" cy="54" r="7" fill="rgb(146,210,113)" opacity="0.8"/>
<circle cx="127" cy="78" r="4" fill="rgb(74,35,211)" opacity="0.8"/>
<circle cx="22" cy="103" r="7" fill="rgb(130,140,73)" opacity="0.8"/>
<circle cx="77" cy="24" r="20" fill="rgb(204,83,66)" opacity="0.8"/>
<circle cx="291" cy="149" r="18" fill="rgb(62,7,161)" opacity="0.8"/>
<circle cx="149" cy="90" r="12" fill="rgb(238,249,44)" opacity="0.8"/>
<circle cx="39" cy="153" r="9" fill="rgb(82,253,39)" opacity="0.8"/>
<circle cx="50" cy="11" r="7" fill="rgb(71,19,106)" opacity="0.8"/>
<circle cx="155" cy="68" r="7" fill="rgb(255,162,194)" opacity="0.8"/>
<circle cx="344" cy="321" r="12" fill="rgb(120,85,250)" opacity="0.8"/>
<circle cx="164" cy="29" r="12" fill="rgb(65,140,176)" opacity="0.8"/>
<circle cx="217" cy="15" r="17" fill="rgb(6,34,73)" opacity="0.8"/>
<circle cx="37" cy="181" r="11" fill="rgb(100,65,1)" opacity="0.8"/>
<circle cx="226" cy="25" r="11" fill="rgb(35,110,65)" opacity="0.8"/>
<circle cx="333" cy="277" r="18" fill="rgb(225,145,195)" opacity="0.8"/>
<circle cx="105" cy="354" r="3" fill="rgb(152,244,232)" opacity="0.8"/>
<circle cx="227" cy="5" r="7" fill="rgb(143,94,211)" opacity="0.8"/>
<circle cx="191" cy="146" r="13" fill="rgb(22,25,161)" opacity="0.8"/>
<circle cx="375" cy="379" r="11" fill="rgb(124,134,193)" opacity="0.8"/>
<circle cx="108" cy="377" r="11" fill="rgb(13,169,224)" opacity="0.8"/>
<circle cx="117" cy="216" r="18" fill="rgb(18,151,175)" opacity="0.8"/>
<circle cx="190" cy="272" r="7" fill="rgb(149,123,212)" opacity="0.8"/>
<circle cx="139" cy="9" r="15" fill="rgb(232,238,241)" opacity="0.8"/>
<circle cx="118" cy="286" r="17" fill="rgb(86,228,172)" opacity="0.8"/>
<circle cx="139" cy="127" r="17" fill="rgb(165,42,78)" opacity="0.8"/>
<circle cx="343" cy="54" r="18" fill="rgb(30,172,223)" opacity="0.8"/>
<circle cx="145" cy="4" r="3" fill="rgb(146,13,196)" opacity="0.8"/>
<circle cx="108" cy="10" r="16" fill="rgb(46,173,121)" opacity="0.8"/>
<circle cx="26" cy="348" r="18" fill="rgb(97,90,190)" opacity="0.8"/>
<circle cx="109" cy="209" r="13" fill="rgb(253,217,177)" opacity="0.8"/>
<circle cx="40" cy="200" r="9" fill="rgb(54,110,76)" opacity="0.8"/>
<circle cx="17" cy="380" r="5" fill="rgb(173,134,207)" opacity="0.8"/>
<circle cx="231" cy="203" r="19" fill="rgb(113,192,168)" opacity="0.8"/>
<circle cx="346" cy="19" r="7" fill="rgb(250,156,225)" opacity="0.8"/>
<circle cx="281" cy="9" r="17" fill="rgb(106,188,186)" opacity="0.8"/>
<circle cx="144" cy="23" r="10" fill="rgb(177,73,18)" opacity="0.8"/>
<circle cx="171" cy="188" r="16" fill="rgb(239,54,30)" opacity="0.8"/>
<circle cx="372" cy="338" r="7" fill="rgb(183,100,81)" opacity="0.8"/>
<circle cx="281" cy="56" r="18" fill="rgb(184,250,60)" opacity="0.8"/>
<circle cx="336" cy="101" r="9" fill="rgb(44,24,252)" opacity="0.8"/>
<circle cx="182" cy="120" r="14" fill="rgb(165,228,94)" opacity="0.8"/>
<circle cx="14" cy="24" r="7" fill="rgb(124,102,170)" opacity="0.8"/>
<circle cx="167" cy="24" r="18" fill="rgb(57,58,238)" opacity="0.8"/>
<circle cx="57" cy="86" r="7" fill="rgb(243,230,167)" opacity="0.8"/>
<circle cx="59" cy="207" r="7" fill="rgb(35,57,41)" opacity="0.8"/>
<circle cx="245" cy="61" r="15" fill="rgb(82,243,127)" opacity="0.8"/>
<circle cx="356" cy="368" r="11" fill="rgb(12,4,198)" opacity="0.8"/>
<circle cx="251" cy="126" r="20" fill="rgb(115,188,86)" opacity="0.8"/>
<circle cx="167" cy="257" r="15" fill="rgb(157,253,145)" opacity="0.8"/>
<circle cx="21" cy="361" r="17" fill="rgb(236,109,57)" opacity="0.8"/>
<circle cx="298" cy="97" r="9" fill="rgb(24,194,191)" opacity="0.8"/>
<circle cx="380" cy="104" r="13" fill="rgb(157,241,138)" opacity="0.8"/>
<circle cx="176" cy="335" r="14" fill="rgb(146,115,156)" opacity="0.8"/>
<circle cx="113" cy="75" r="10" fill="rgb(18,230,128)" opacity="0.8"/>
<circle cx="104" cy="249" r="3" fill="rgb(64,185,0)" opacity="0.8"/>
<circle cx="4" cy="120" r="10" fill="rgb(79,232,91)" opacity="0.8"/>
<circle cx="78" cy="286" r="4" fill="rgb(31,66,148)" opacity="0.8"/>
<circle cx="174" cy="335" r="19" fill="rgb(235,253,21)" opacity="0.8"/>
<circle cx="209" cy="103" r="13" fill="rgb(91,115,201)" opacity="0.8"/>
<circle cx="235" cy="97" r="13" fill="rgb(213,204,135)" opacity="0.8"/>
<circle cx="108" cy="257" r="4" fill="rgb(187,98,203)" opacity="0.8"/>
<circle cx="310" cy="319" r="13" fill="rgb(120,62,164)" opacity="0.8"/>
<circle cx="111" cy="101" r="20" fill="rgb(104,148,109)" opacity="0.8"/>
<circle cx="40" cy="10" r="3" fill="rgb(123,220,197)" opacity="0.8"/>
<circle cx="10" cy="140" r="10" fill="rgb(161,78,154)" opacity="0.8"/>
<circle cx="164" cy="219" r="16" fill="rgb(35,183,72)" opacity="0.8"/>
<circle cx="206" cy="276" r="19" fill="rgb(250,92,93)" opacity="0.8"/>
<circle cx="34" cy="318" r="12" fill="rgb(234,238,69)" opacity="0.8"/>
<circle cx="334" cy="317" r="19" fill="rgb(106,222,168)" opacity="0.8"/>
<circle cx="66" cy="334" r="11" fill="rgb(216,86,19)" opacity="0.8"/>
<circle cx="287" cy="228" r="17" fill="rgb(236,158,183)" opacity="0.8"/>
<circle cx="103" cy="167" r="8" fill="rgb(124,132,135)" opacity="0.8"/>
<circle cx="286" cy="210" r="16" fill="rgb(183,2,167)" opacity="0.8"/>
<circle cx="246" cy="282" r="7" fill="rgb(144,121,137)" opacity="0.8"/>
<circle cx="61" cy="109" r="20" fill="rgb(177,15,62)" opacity="0.8"/>
<circle cx="141" cy="104" r="14" fill="rgb(161,202,100)" opacity="0.8"/>
<circle cx="252" cy="168" r="17" fill="rgb(59,185,66)" opacity="0.8"/>
<circle cx="87" cy="102" r="19" fill="rgb(26,45,71)" opacity="0.8"/>
<circle cx="331" cy="279" r="11" fill="rgb(108,255,211)" opacity="0.8"/>
<circle cx="356" cy="146" r="6" fill="rgb(163,242,85)" opacity="0.8"/>
<circle cx="44" cy="314" r="5" fill="rgb(26,98,43)" opacity="0.8"/>
<circle cx="201" cy="124" r="17" fill="rgb(158,44,121)" opacity="0.8"/>
<circle cx="219" cy="375" r="18" fill="rgb(176,242,162)" opacity="0.8"/>
<circle cx="322" cy="303" r="11" fill="rgb(23,170,12)" opacity="0.8"/>
<circle cx="101" cy="119" r="16" fill="rgb(76,227,150)" opacity="0.8"/>
<circle cx="356" cy="290" r="19" fill="rgb(159,59,2)" opacity="0.8"/>
<circle cx="346" cy="89" r="4" fill="rgb(17,69,174)" opacity="0.8"/>
<circle cx="16" cy="175" r="20" fill="rgb(23,255,181)" opacity="0.8"/>
<circle cx="300" cy="100" r="17" fill="rgb(12,253,138)" opacity="0.8"/>
<circle cx="242" cy="183" r="9" fill="rgb(175,249,11)" opacity="0.8"/>
<circle cx="105" cy="343" r="4" fill="rgb(128,103,122)" opacity="0.8"/>
<circle cx="207" cy="82" r="14" fill="rgb(34,226,35)" opacity="0.8"/>
<circle cx="226" cy="187" r="14" fill="rgb(190,114,84)" opacity="0.8"/>
<circle cx="104" cy="112" r="5" fill="rgb(6,213,134)" opacity="0.8"/>
<circle cx="117" cy="289" r="4" fill="rgb(88,196,135)" opacity="0.8"/>
<circle cx="76" cy="336" r="7" fill="rgb(28,243,149)" opacity="0.8"/>
<circle cx="221" cy="341" r="10" fill="rgb(168,4,24)" opacity="0.8"/>
<circle cx="300" cy="343" r="9" fill="rgb(156,103,61)" opacity="0.8"/>
<circle cx="1" cy="252" r="17" fill="rgb(215,9,149)" opacity="0.8"/>
<circle cx="176" cy="255" r="12" fill="rgb(172,141,142)" opacity="0.8"/>
<circle cx="28" cy="235" r="14" fill="rgb(167,250,166)" opacity="0.8"/>
<circle cx="278" cy="56" r="15" fill="rgb(194,166,177)" opacity="0.8"/>
<circle cx="99" cy="238" r="18" fill="rgb(100,30,96)" opacity="0.8"/>
<circle cx="208" cy="91" r="13" fill="rgb(67,32,228)" opacity="0.8"/>
<circle cx="206" cy="277" r="16" fill="rgb(222,196,249)" opacity="0.8"/>
<circle cx="163" cy="199" r="17" fill="rgb(96,90,166)" opacity="0.8"/>
<circle cx="63" cy="3" r="4" fill="rgb(89,38,27)" opacity="0.8"/>
<circle cx="118" cy="176" r="4" fill="rgb(33,188,50)" opacity="0.8"/>
<circle cx="195" cy="144" r="18" fill="rgb(11,76,128)" opacity="0.8"/>
<circle cx="128" cy="250" r="3" fill="rgb(14,218,84)" opacity="0.8"/>
<circle cx="33" cy="73" r="15" fill="rgb(248,105,10)" opacity="0.8"/>
<circle cx="20" cy="177" r="20" fill="rgb(9,137,69)" opacity="0.8"/>
<circle cx="106" cy="152" r="11" fill="rgb(151,91,4)" opacity="0.8"/>
<circle cx="249" cy="34" r="20" fill="rgb(130,57,20)" opacity="0.8"/>
<circle cx="282" cy="5" r="12" fill="rgb(21,189,199)" opacity="0.8"/>
<circle cx="19" cy="212" r="10" fill="rgb(134,195,94)" opacity="0.8"/>
<circle cx="220" cy="73" r="14" fill="rgb(78,3,161)" opacity="0.8"/>
</svg>