<svg xmlns="http://www.w3.org/2000/svg" viewBox="0 0 400 400" width="400" height="400">
<rect width="400" height="400" fill="#efe1d1"/>
<circle cx="250" cy="367" r="17" fill="rgb(244,64,216)" opacity="0.8"/>
<circle cx="159" cy="1" r="16" fill="rgb(176,184,188)" opacity="0.8"/>
<circle cx="201" cy="212" r="11" fill="rgb(33,136,237)" opacity="0.8"/>
<circle cx="53" cy="320" r="19" fill="rgb(86,99,104)" opacity="0.8"/>
<circle cx="52" cy="175" r="11" fill="rgb(162,236,195)" opacity="0.8"/>
<circle cx="171" cy="240" r="19" fill="rgb(106,226,59)" opacity="0.8"/>
<circle cx="238" cy="287" r="12" fill="rgb(251,176,235)" opacity="0.8"/>
<circle cx="292" cy="210" r="9" fill="rgb(170,116,30)" opacity="0.8"/>
<circle cx="112" cy="352" r="3" fill="rgb(193,241,113)" opacity="0.8"/>
<circle cx="76" cy="202" r="7" fill="rgb(216,189,167)" opacity="0.8"/>
<circle cx="136" cy="361" r="17" fill="rgb(87,67,58)" opacity="0.8"/>
<circle cx="221" cy="169" r="14" fill="rgb(187,100,31)" opacity="0.8"/>
<circle cx="115" cy="158" r="17" fill="rgb(224,151,178)" opacity="0.8"/>
<circle cx="176" cy="198" r="16" fill="rgb(20,210,72)" opacity="0.8"/>
<circle cx="23" cy="148" r="5" fill="rgb(57,185,42)" opacity="0.8"/>
<circle cx="18" cy="329" r="3" fill="rgb(212,23,105)" opacity="0.8"/>
<circle cx="284" cy="117" r="20" fill="rgb(206,67,81)" opacity="0.8"/>
<circle cx="191" cy="3" r="20" fill="rgb(122,19,82)" opacity="0.8"/>
<circle cx="351" cy="375" r="17" fill="rgb(234,9,60)" opacity="0.8"/>
<circle cx="320" cy="339" r="11" fill="rgb(24,137,146)" opacity="0.8"/>
<circle cx="265" cy="174" r="3" fill="rgb(168,251,52)" opacity="0.8"/>
<circle cx="224" cy="359" r="17" fill="rgb(167,225,80)" opacity="0.8"/>
<circle cx="232" cy="211" r="17" fill="rgb(78,185,241)" opacity="0.8"/>
<circle cx="128" cy="138" r="8" fill="rgb(227,98,251)" opacity="0.8"/>
<circle cx="205" cy="173" r="13" fill="rgb(34,41,58)" opacity="0.8"/>
<circle cx="232" cy="116" r="16" fill="rgb(93,217,218)" opacity="0.8"/>
<circle cx="228" cy="133" r="12" fill="rgb(177,78,80)" opacity="0.8"/>
</svg>