<svg xmlns="http://www.w3.org/2000/svg" viewBox="0 0 400 400" width="400" height="400">
<rect width="400" height="400" fill="#681898"/>
<circle cx="219" cy="342" r="6" fill="rgb(201,180,32)" opacity="0.8"/>
<circle cx="239" cy="84" r="20" fill="rgb(223,66,113)" opacity="0.8"/>
<circle cx="343" cy="123" r="14" fill="rgb(250,103,187)" opacity="0.8"/>
<circle cx="116" cy="234" r="8" fill="rgb(20,249,73)" opacity="0.8"/>
<circle cx="236" cy="365" r="16" fill="rgb(102,11,239)" opacity="0.8"/>
<circle cx="366" cy="111" r="20" fill="rgb(90,55,129)" opacity="0.8"/>
<circle cx="82" cy="146" r="5" fill="rgb(0,160,8)" opacity="0.8"/>
<circle cx="325" cy="131" r="12" fill="rgb(60,99,149)" opacity="0.8"/>
<circle cx="195" cy="163" r="10" fill="rgb(118,182,248)" opacity="0.8"/>
<circle cx="61" cy="150" r="15" fill="rgb(234,187,248)" opacity="0.8"/>
<circle cx="305" cy="143" r="18" fill="rgb(168,6,27)" opacity="0.8"/>
<circle cx="73" cy="230" r="5" fill="rgb(116,149,12)" opacity="0.8"/>
<circle cx="189" cy="64" r="9" fill="rgb(69,169,177)" opacity="0.8"/>
<circle cx="172" cy="149" r="18" fill="rgb(103,204,37)" opacity="0.8"/>
<circle cx="115" cy="123" r="12" fill="rgb(153,212,165)" opacity="0.8"/>
<circle cx="3" cy="287" r="8" fill="rgb(50,248,208)" opacity="0.8"/>
<circle cx="315" cy="239" r="15" fill="rgb(203,12,152)" opacity="0.8"/>
<circle cx="24" cy="22" r="9" fill="rgb(102,52,175)" opacity="0.8"/>
<circle cx="102" cy="72" r="6" fill="rgb(38,68,137)" opacity="0.8"/>
<circle cx="107" cy="285" r="13" fill="rgb(52,107,26)" opacity="0.8"/>
<circle cx="81" cy="79" r="14" fill="rgb(86,43,250)" opacity="0.8"/>
<circle cx="143" cy="367" r="10" fill="rgb(110,138,8)" opacity="0.8"/>
<circle cx="317" cy="10" r="10" fill="rgb(73,224,119)" opacity="0.8"/>
<circle cx="244" cy="85" r="11" fill="rgb(208,1,16)" opacity="0.8"/>
<circle cx="234" cy="310" r="4" fill="rgb(198,35,247)" opacity="0.8"/>
<circle cx="142" cy="367" r="9" fill="rgb(12,216,53)" opacity="0.8"/>
<circle cx="149" cy="109" r="13" fill="rgb(117,173,114)" opacity="0.8"/>
<circle cx="4" cy="114" r="7" fill="rgb(19,255,242)" opacity="0.8"/>
<circle cx="77" cy="332" r="7" fill="rgb(193,217,100)" opacity="0.8"/>
<circle cx="308" cy="308" r="10" fill="rgb(175,55,130)" opacity="0.8"/>
<circle cx="160" cy="205" r="13" fill="rgb(248,222,109)" opacity="0.8"/>
<circle cx="92" cy="72" r="12" fill="rgb(216,145,63)" opacity="0.8"/>
<circle cx="133" cy="66" r="17" fill="rgb(207,86,244)" opacity="0.8"/>
<circle cx="115" cy="134" r="11" fill="rgb(38,177,47)" opacity="0.8"/>
<circle cx="88" cy="74" r="18" fill="rgb(224,78,99)" opacity="0.8"/>
<circle cx="64" cy="216" r="16" fill="rgb(5,159,39)" opacity="0.8"/>
<circle cx="45" cy="207" r="19" fill="rgb(109,235,191)" opacity="0.8"/>
<circle cx="196" cy="282" r="19" fill="rgb(210,236,1)" opacity="0.8"/>
<circle cx="379" cy="320" r="17" fill="rgb(145,229,146)" opacity="0.8"/>
<circle cx="96" cy="125" r="5" fill="rgb(16,30,135)" opacity="0.8"/>
<circle cx="66" cy="15" r="4" fill="rgb(119,235,112)" opacity="0.8"/>
<circle cx="254" cy="150" r="12" fill="rgb(123,38,252)" opacity="0.8"/>
<circle cx="325" cy="223" r="14" fill="rgb(127,64,26)" opacity="0.8"/>
<circle cx="106" cy="103" r="16" fill="rgb(233,212,22)" opacity="0.8"/>
<circle cx="161" cy="336" r="11" fill="rgb(113,96,178)" opacity="0.8"/>
<circle cx="62" cy="277" r="7" fill="rgb(222,0,251)" opacity="0.8"/>
<circle cx="78" cy="186" r="6" fill="rgb(207,235,99)" opacity="0.8"/>
<circle cx="336" cy="88" r="11" fill="rgb(46,5,227)" opacity="0.8"/>
<circle cx="171" cy="249" r="3" fill="rgb(180,249,28)" opacity="0.8"/>
<circle cx="81" cy="341" r="15" fill="rgb(213,112,95)" opacity="0.8"/>
<circle cx="264" cy="276" r="7" fill="rgb(60,188,188)" opacity="0.8"/>
<circle cx="327" cy="48" r="14" fill="rgb(171,119,21)" opacity="0.8"/>
<circle cx="283" cy="222" r="20" fill="rgb(233,236,176)" opacity="0.8"/>
<circle cx="288" cy="371" r="4" fill="rgb(192,69,25)" opacity="0.8"/>
<circle cx="319" cy="66" r="13" fill="rgb(77,17,181)" opacity="0.8"/>
<circle cx="195" cy="183" r="9" fill="rgb(127,178,86)" opacity="0.8"/>
<circle cx="244" cy="265" r="4" fill="rgb(173,93,85)" opacity="0.8"/>
<circle cx="113" cy="149" r="8" fill="rgb(143,117,221)" opacity="0.8"/>
<circle cx="115" cy="286" r="10" fill="rgb(143,183,137)" opacity="0.8"/>
<circle cx="302" cy="104" r="15" fill="rgb(40,185,189)" opacity="0.8"/>
<circle cx="74" cy="377" r="13" fill="rgb(188,99,158)" opacity="0.8"/>
<circle cx="301" cy="89" r="13" fill="rgb(210,158,55)" opacity="0.8"/>
<circle cx="312" cy="371" r="6" fill="rgb(172,99,175)" opacity="0.8"/>
<circle cx="116" cy="253" r="8" fill="rgb(247,170,98)" opacity="0.8"/>
<circle cx="150" cy="284" r="19" fill="rgb(93,99,152)" opacity="0.8"/>
<circle cx="101" cy="48" r="13" fill="rgb(58,97,77)" opacity="0.8"/>
<circle cx="348" cy="280" r="6" fill="rgb(205,153,11)" opacity="0.8"/>
<circle cx="19" cy="217" r="17" fill="rgb(45,65,110)" opacity="0.8"/>
<circle cx="23" cy="321" r="16" fill="rgb(84,47,206)" opacity="0.8"/>
<circle cx="374" cy="56" r="17" fill="rgb(114,217,177)" opacity="0.8"/>
<circle cx="255" cy="118" r="13" fill="rgb(173,20,13)" opacity="0.8"/>
<circle cx="237" cy="262" r="3" fill="rgb(199,170,251)" opacity="0.8"/>
<circle cx="150" cy="242" r="8" fill="rgb(231,101,95)" opacity="0.8"/>
<circle cx="25" cy="73" r="20" fill="rgb(108,47,250)" opacity="0.8"/>
<circle cx="86" cy="30" r="16" fill="rgb(222,98,205)" opacity="0.8"/>
<circle cx="354" cy="144" r="11" fill="rgb(89,86,106)" opacity="0.8"/>
<circle cx="367" cy="330" r="5" fill="rgb(115,67,207)" opacity="0.8"/>
<circle cx="258" cy="145" r="12" fill="rgb(67,125,137)" opacity="0.8"/>
<circle cx="369" cy="35" r="17" fill="rgb(5,250,166)" opacity="0.8"/>
<circle cx="226" cy="341" r="8" fill="rgb(150,223,236)" opacity="0.8"/>
<circle cx="56" cy="367" r="18" fill="rgb(22,48,19)" opacity="0.8"/>
<circle cx="24" cy="282" r="5" fill="rgb(49,56,158)" opacity="0.8"/>
<circle cx="186" cy="105" r="5" fill="rgb(235,63,2)" opacity="0.8"/>
<circle cx="317" cy="179" r="9" fill="rgb(93,249,218)" opacity="0.8"/>
<circle cx="146" cy="282" r="7" fill="rgb(41,139,7)" opacity="0.8"/>
<circle cx="185" cy="346" r="13" fill="rgb(228,176,3)" opacity="0.8"/>
<circle cx="294" cy="143" r="19" fill="rgb(141,25,217)" opacity="0.8"/>
<circle cx="74" cy="134" r="12" fill="rgb(124,200,71)" opacity="0.8"/>
<circle cx="270" cy="53" r="10" fill="rgb(83,209,163)" opacity="0.8"/>
<circle cx="151" cy="14" r="6" fill="rgb(234,61,204)" opacity="0.8"/>
<circle cx="273" cy="172" r="3" fill="rgb(10,212,249)" opacity="0.8"/>
<circle cx="349" cy="264" r="18" fill="rgb(189,162,102)" opacity="0.8"/>
<circle cx="163" cy="60" r="4" fill="rgb(114,70,231)" opacity="0.8"/>
<circle cx="319" cy="263" r="15" fill="rgb(226,13,11)" opacity="0.8"/>
<circle cx="55" cy="170" r="4" fill="rgb(117,94,166)" opacity="0.8"/>
<circle cx="118" cy="318" r="20" fill="rgb(19,6,115)" opacity="0.8"/>
<circle cx="292" cy="131" r="5" fill="rgb(229,246,16)" opacity="0.8"/>
<circle cx="156" cy="255" r="4" fill="rgb(241,133,55)" opacity="0.8"/>
<circle cx="324" cy="116" r="14" fill="rgb(90,112,39)" opacity="0.8"/>
<circle cx="128" cy="240" r="14" fill="rgb(168,140,165)" opacity="0.8"/>
<circle cx="44" cy="1" r="14" fill="rgb(185,166,167)" opacity="0.8"/>
<circle cx="158" cy="90" r="18" fill="rgb(219,232,6)" opacity="0.8"/>
<circle cx="346" cy="130" r="16" fill="rgb(241,19,216)" opacity="0.8"/>
<circle cx="157" cy="323" r="3" fill="rgb(94,10,155)" opacity="0.8"/>
<circle cx="116" cy="371" r="8" fill="rgb(143,145,21)" opacity="0.8"/>
<circle cx="185" cy="342" r="18" fill="rgb(129,101,65)" opacity="0.8"/>
<circle cx="62" cy="114" r="13" fill="rgb(91,175,123)" opacity="0.8"/>
<circle cx="268" cy="371" r="6" fill="rgb(228,141,215)" opacity="0.8"/>
<circle cx="216" cy="286" r="12" fill="rgb(8,142,189)" opacity="0.8"/>
<circle cx="143" cy="173" r="12" fill="rgb(135,119,219)" opacity="0.8"/>
<circle cx="286" cy="111" r="20" fill="rgb(253,191,153)" opacity="0.8"/>
<circle cx="16" cy="337" r="16" fill="rgb(246,93,161)" opacity="0.8"/>
<circle cx="368" cy="231" r="17" fill="rgb(83,110,102)" opacity="0.8"/>
<circle cx="129" cy="48" r="4" fill="rgb(89,195,248)" opacity="0.8"/>
<circle cx="355" cy="370" r="19" fill="rgb(129,210,198)" opacity="0.8"/>
<circle cx="332" cy="365" r="3" fill="rgb(38,103,118)" opacity="0.8"/>
<circle cx="9" cy="261" r="19" fill="rgb(92,29,242)" opacity="0.8"/>
<circle cx="204" cy="308" r="17" fill="rgb(237,61,179)" opacity="0.8"/>
<circle cx="205" cy="127" r="6" fill="rgb(115,228,31)" opacity="0.8"/>
<circle cx="185" cy="150" r="6" fill="rgb(8,248,44)" opacity="0.8"/>
<circle cx="311" cy="105" r="18" fill="rgb(46,57,31)" opacity="0.8"/>
<circle cx="373" cy="170" r="6" fill="rgb(139,247,82)" opacity="0.8"/>
<circle cx="305" cy="119" r="19" fill="rgb(7,7,115)" opacity="0.8"/>
<circle cx="226" cy="176" r="19" fill="rgb(151,162,3)" opacity="0.8"/>
<circle cx="152" cy="301" r="17" fill="rgb(213,10,244)" opacity="0.8"/>
<circle cx="120" cy="124" r="10" fill="rgb(82,61,63)" opacity="0.8"/>
<circle cx="181" cy="256" r="18" fill="rgb(34,248,38)" opacity="0.8"/>
<circle cx="216" cy="47" r="11" fill="rgb(87,139,239)" opacity="0.8"/>
<circle cx="70" cy="303" r="16" fill="rgb(39,112,221)" opacity="0.8"/>
<circle cx="254" cy="114" r="20" fill="rgb(175,179,9)" opacity="0.8"/>
<circle cx="106" cy="250" r="3" fill="rgb(242,67,18)" opacity="0.8"/>
<circle cx="136" cy="256" r="16" fill="rgb(21,16,9)" opacity="0.8"/>
<circle cx="115" cy="261" r="17" fill="rgb(234,56,175)" opacity="0.8"/>
<circle cx="342" cy="62" r="14" fill="rgb(234,205,48)" opacity="0.8"/>
<circle cx="3" cy="242" r="8" fill="rgb(74,98,65)" opacity="0.8"/>
<circle cx="20" cy="208" r="4" fill="rgb(202,53,199)" opacity="0.8"/>
<circle cx="348" cy="197" r="5" fill="rgb(106,133,46)" opacity="0.8"/>
<circle cx="306" cy="213" r="12" fill="rgb(213,106,19)" opacity="0.8"/>
<circle cx="162" cy="360" r="14" fill="rgb(112,166,182)" opacity="0.8"/>
<circle cx="315" cy="101" r="13" fill="rgb(34,44,94)" opacity="0.8"/>
<circle cx="135" cy="46" r="4" fill="rgb(191,95,191)" opacity="0.8"/>
<circle cx="267" cy="197" r="5" fill="rgb(191,170,192)" opacity="0.8"/>
<circle cx="329" cy="125" r="14" fill="rgb(183,81,129)" opacity="0.8"/>
<circle cx="169" cy="380" r="20" fill="rgb(158,195,159)" opacity="0.8"/>
<circle cx="183" cy="28" r="10" fill="rgb(41,192,144)" opacity="0.8"/>
<circle cx="192" cy="89" r="17" fill="rgb(93,194,203)" opacity="0.8"/>
<circle cx="293" cy="142" r="13" fill="rgb(164,101,93)" opacity="0.8"/>
<circle cx="127" cy="250" r="10" fill="rgb(245,42,87)" opacity="0.8"/>
<circle cx="116" cy="284" r="4" fill="rgb(30,238,109)" opacity="0.8"/>
<circle cx="26" cy="102" r="17" fill="rgb(161,205,39)" opacity="0.8"/>
<circle cx="111" cy="335" r="18" fill="rgb(49,136,206)" opacity="0.8"/>
<circle cx="132" cy="295" r="16" fill="rgb(227,189,238)" opacity="0.8"/>
<circle cx="329" cy="236" r="6" fill="rgb(35,8,152)" opacity="0.8"/>
<circle cx="25" cy="184" r="20" fill="rgb(161,182,200)" opacity="0.8"/>
<circle cx="364" cy="224" r="20" fill="rgb(5,21,133)" opacity="0.8"/>
<circle cx="211" cy="273" r="6" fill="rgb(101,144,25)" opacity="0.8"/>
<circle cx="64" cy="95" r="15" fill="rgb(193,45,209)" opacity="0.8"/>
<circle cx="101" cy="267" r="4" fill="rgb(135,36,211)" opacity="0.8"/>
<circle cx="209" cy="59" r="7" fill="rgb(129,66,30)" opacity="0.8"/>
<circle cx="380" cy="379" r="7" fill="rgb(113,26,244)" opacity="0.8"/>
<circle cx="64" cy="145" r="10" fill="rgb(48,125,187)" opacity="0.8"/>
<circle cx="191" cy="0" r="4" fill="rgb(151,225,171)" opacity="0.8"/>
<circle cx="344" cy="34" r="12" fill="rgb(123,57,54)" opacity="0.8"/>
<circle cx="176" cy="62" r="11" fill="rgb(21,124,118)" opacity="0.8"/>
<circle cx="172" cy="212" r="11" fill="rgb(162,74,230)" opacity="0.8"/>
</svg>