<svg xmlns="http://www.w3.org/2000/svg" viewBox="0 0 400 400" width="400" height="400">
<rect width="400" height="400" fill="#223e5e"/>
<circle cx="13" cy="242" r="11" fill="rgb(198,135,113)" opacity="0.8"/>
<circle cx="295" cy="212" r="17" fill="rgb(163,57,51)" opacity="0.8"/>
<circle cx="230" cy="321" r="14" fill="rgb(150,123,139)" opacity="0.8"/>
<circle cx="368" cy="151" r="3" fill="rgb(5,235,175)" opacity="0.8"/>
<circle cx="310" cy="88" r="17" fill="rgb(77,83,111)" opacity="0.8"/>
<circle cx="193" cy="179" r="9" fill="rgb(200,164,220)" opacity="0.8"/>
<circle cx="170" cy="142" r="9" fill="rgb(198,89,248)" opacity="0.8"/>
<circle cx="95" cy="41" r="18" fill="rgb(182,155,140)" opacity="0.8"/>
<circle cx="201" cy="45" r="14" fill="rgb(218,22,12)" opacity="0.8"/>
<circle cx="301" cy="50" r="7" fill="rgb(80,231,225)" opacity="0.8"/>
<circle cx="350" cy="45" r="4" fill="rgb(29,133,150)" opacity="0.8"/>
<circle cx="167" cy="17" r="14" fill="rgb(116,180,48)" opacity="0.8"/>
<circle cx="52" cy="28" r="12" fill="rgb(69,29,131)" opacity="0.8"/>
<circle cx="233" cy="362" r="9" fill="rgb(127,170,252)" opacity="0.8"/>
<circle cx="116" cy="136" r="6" fill="rgb(143,251,110)" opacity="0.8"/>
<circle cx="44" cy="233" r="16" fill="rgb(124,254,29)" opacity="0.8"/>
<circle cx="147" cy="8" r="11" fill="rgb(187,16,215)" opacity="0.8"/>
<circle cx="148" cy="187" r="17" fill="rgb(118,243,251)" opacity="0.8"/>
<circle cx="130" cy="67" r="12" fill="rgb(1,91,183)" opacity="0.8"/>
<circle cx="81" cy="315" r="14" fill="rgb(187,254,34)" opacity="0.8"/>
<circle cx="199" cy="106" r="9" fill="rgb(147,205,83)" opacity="0.8"/>
<circle cx="128" cy="122" r="14" fill="rgb(96,239,110)" opacity="0.8"/>
<circle cx="102" cy="212" r="4" fill="rgb(240,230,200)" opacity="0.8"/>
<circle cx="83" cy="311" r="19" fill="rgb(42,188,76)" opacity="0.8"/>
<circle cx="48" cy="108" r="14" fill="rgb(188,188,34)" opacity="0.8"/>
<circle cx="217" cy="316" r="17" fill="rgb(11,171,110)" opacity="0.8"/>
<circle cx="2" cy="65" r="14" fill="rgb(48,192,2)" opacity="0.8"/>
<circle cx="307" cy="68" r="14" fill="rgb(164,43,65)" opacity="0.8"/>
<circle cx="335" cy="157" r="9" fill="rgb(52,190,184)" opacity="0.8"/>
<circle cx="122" cy="121" r="6" fill="rgb(144,6,191)" opacity="0.8"/>
<circle cx="27" cy="174" r="9" fill="rgb(181,127,169)" opacity="0.8"/>
<circle cx="188" cy="77" r="3" fill="rgb(33,239,0)" opacity="0.8"/>
<circle cx="11" cy="311" r="13" fill="rgb(135,175,13)" opacity="0.8"/>
<circle cx="219" cy="211" r="6" fill="rgb(82,53,6)" opacity="0.8"/>
<circle cx="58" cy="184" r="9" fill="rgb(57,115,59)" opacity="0.8"/>
<circle cx="181" cy="108" r="19" fill="rgb(65,80,151)" opacity="0.8"/>
<circle cx="133" cy="80" r="8" fill="rgb(79,109,182)" opacity="0.8"/>
<circle cx="48" cy="224" r="7" fill="rgb(91,249,8)" opacity="0.8"/>
<circle cx="238" cy="313" r="14" fill="rgb(140,91,136)" opacity="0.8"/>
<circle cx="50" cy="130" r="11" fill="rgb(139,226,196)" opacity="0.8"/>
<circle cx="130" cy="237" r="16" fill="rgb(205,223,17)" opacity="0.8"/>
<circle cx="259" cy="74" r="16" fill="rgb(79,226,50)" opacity="0.8"/>
</svg>