<svg xmlns="http://www.w3.org/2000/svg" viewBox="0 0 400 400" width="400" height="400">
<rect width="400" height="400" fill="#bb5505"/>
<circle cx="332" cy="226" r="7" fill="rgb(134,80,36)" opacity="0.8"/>
<circle cx="25" cy="194" r="3" fill="rgb(117,129,122)" opacity="0.8"/>
<circle cx="3" cy="173" r="15" fill="rgb(155,172,122)" opacity="0.8"/>
<circle cx="339" cy="81" r="15" fill="rgb(198,253,25)" opacity="0.8"/>
<circle cx="79" cy="285" r="12" fill="rgb(15,100,2)" opacity="0.8"/>
<circle cx="68" cy="46" r="13" fill="rgb(240,117,204)" opacity="0.8"/>
<circle cx="142" cy="87" r="14" fill="rgb(210,94,26)" opacity="0.8"/>
<circle cx="24" cy="378" r="11" fill="rgb(29,71,198)" opacity="0.8"/>
<circle cx="135" cy="231" r="6" fill="rgb(0,68,168)" opacity="0.8"/>
<circle cx="84" cy="142" r="8" fill="rgb(90,101,12)" opacity="0.8"/>
<circle cx="40" cy="35" r="12" fill="rgb(118,68,227)" opacity="0.8"/>
<circle cx="168" cy="168" r="20" fill="rgb(29,208,122)" opacity="0.8"/>
<circle cx="294" cy="264" r="17" fill="rgb(28,14,144)" opacity="0.8"/>
<circle cx="196" cy="72" r="13" fill="rgb(95,11,135)" opacity="0.8"/>
<circle cx="177" cy="63" r="19" fill="rgb(63,227,231)" opacity="0.8"/>
<circle cx="316" cy="60" r="6" fill="rgb(103,10,178)" opacity="0.8"/>
<circle cx="103" cy="309" r="13" fill="rgb(0,128,14)" opacity="0.8"/>
<circle cx="185" cy="335" r="16" fill="rgb(126,50,78)" opacity="0.8"/>
<circle cx="39" cy="144" r="19" fill="rgb(230,72,226)" opacity="0.8"/>
<circle cx="145" cy="79" r="11" fill="rgb(164,88,228)" opacity="0.8"/>
<circle cx="62" cy="300" r="11" fill="rgb(168,231,23)" opacity="0.8"/>
<circle cx="78" cy="12" r="17" fill="rgb(210,217,27)" opacity="0.8"/>
<circle cx="130" cy="373" r="20" fill="rgb(191,129,155)" opacity="0.8"/>
<circle cx="25" cy="196" r="4" fill="rgb(180,209,163)" opacity="0.8"/>
<circle cx="154" cy="192" r="16" fill="rgb(158,80,250)" opacity="0.8"/>
<circle cx="210" cy="150" r="5" fill="rgb(178,43,113)" opacity="0.8"/>
<circle cx="327" cy="22" r="4" fill="rgb(171,37,155)" opacity="0.8"/>
<circle cx="76" cy="16" r="12" fill="rgb(158,124,135)" opacity="0.8"/>
<circle cx="137" cy="87" r="16" fill="rgb(228,118,0)" opacity="0.8"/>
<circle cx="112" cy="372" r="10" fill="rgb(27,244,239)" opacity="0.8"/>
<circle cx="235" cy="208" r="13" fill="rgb(143,140,191)" opacity="0.8"/>
<circle cx="127" cy="174" r="12" fill="rgb(84,231,85)" opacity="0.8"/>
<circle cx="275" cy="245" r="5" fill="rgb(101,50,136)" opacity="0.8"/>
<circle cx="208" cy="362" r="8" fill="rgb(209,43,38)" opacity="0.8"/>
<circle cx="132" cy="86" r="17" fill="rgb(107,13,72)" opacity="0.8"/>
<circle cx="318" cy="291" r="4" fill="rgb(11,158,73)" opacity="0.8"/>
<circle cx="366" cy="312" r="6" fill="rgb(24,247,29)" opacity="0.8"/>
<circle cx="298" cy="129" r="13" fill="rgb(220,12,24)" opacity="0.8"/>
<circle cx="101" cy="165" r="3" fill="rgb(46,109,195)" opacity="0.8"/>
<circle cx="16" cy="145" r="5" fill="rgb(186,68,245)" opacity="0.8"/>
<circle cx="214" cy="83" r="19" fill="rgb(180,24,244)" opacity="0.8"/>
<circle cx="56" cy="82" r="18" fill="rgb(248,126,121)" opacity="0.8"/>
<circle cx="18" cy="31" r="13" fill="rgb(62,42,135)" opacity="0.8"/>
<circle cx="215" cy="186" r="19" fill="rgb(95,88,2)" opacity="0.8"/>
<circle cx="353" cy="211" r="18" fill="rgb(217,34,79)" opacity="0.8"/>
<circle cx="99" cy="309" r="10" fill="rgb(240,223,167)" opacity="0.8"/>
<circle cx="13" cy="260" r="12" fill="rgb(244,24,98)" opacity="0.8"/>
<circle cx="4" cy="75" r="4" fill="rgb(242,189,239)" opacity="0.8"/>
<circle cx="16" cy="215" r="16" fill="rgb(214,238,82)" opacity="0.8"/>
<circle cx="108" cy="242" r="14" fill="rgb(158,244,45)" opacity="0.8"/>
<circle cx="336" cy="322" r="13" fill="rgb(114,187,114)" opacity="0.8"/>
<circle cx="227" cy="91" r="5" fill="rgb(181,101,184)" opacity="0.8"/>
<circle cx="345" cy="47" r="9" fill="rgb(173,150,248)" opacity="0.8"/>
<circle cx="258" cy="188" r="19" fill="rgb(37,124,206)" opacity="0.8"/>
<circle cx="157" cy="124" r="13" fill="rgb(193,101,126)" opacity="0.8"/>
<circle cx="48" cy="137" r="9" fill="rgb(160,234,124)" opacity="0.8"/>
<circle cx="56" cy="324" r="5" fill="rgb(95,4,85)" opacity="0.8"/>
<circle cx="0" cy="233" r="14" fill="rgb(22,103,166)" opacity="0.8"/>
<circle cx="66" cy="72" r="4" fill="rgb(156,150,163)" opacity="0.8"/>
<circle cx="276" cy="365" r="5" fill="rgb(244,181,181)" opacity="0.8"/>
<circle cx="200" cy="350" r="10" fill="rgb(119,109,228)" opacity="0.8"/>
<circle cx="134" cy="332" r="13" fill="rgb(28,205,154)" opacity="0.8"/>
<circle cx="354" cy="253" r="15" fill="rgb(231,67,220)" opacity="0.8"/>
<circle cx="86" cy="353" r="19" fill="rgb(229,131,24)" opacity="0.8"/>
</svg>