<svg xmlns="http://www.w3.org/2000/svg" viewBox="0 0 400 400" width="400" height="400">
<rect width="400" height="400" fill="#7937c7"/>
<circle cx="30" cy="101" r="5" fill="rgb(193,82,208)" opacity="0.8"/>
<circle cx="369" cy="191" r="15" fill="rgb(101,25,15)" opacity="0.8"/>
<circle cx="377" cy="362" r="18" fill="rgb(96,76,9)" opacity="0.8"/>
<circle cx="288" cy="51" r="16" fill="rgb(66,51,129)" opacity="0.8"/>
<circle cx="222" cy="303" r="5" fill="rgb(200,45,156)" opacity="0.8"/>
<circle cx="178" cy="85" r="15" fill="rgb(18,76,48)" opacity="0.8"/>
<circle cx="311" cy="108" r="3" fill="rgb(221,172,102)" opacity="0.8"/>
<circle cx="70" cy="275" r="17" fill="rgb(111,19,30)" opacity="0.8"/>
<circle cx="189" cy="222" r="8" fill="rgb(58,180,111)" opacity="0.8"/>
<circle cx="21" cy="314" r="5" fill="rgb(119,184,240)" opacity="0.8"/>
<circle cx="10" cy="373" r="17" fill="rgb(28,65,75)" opacity="0.8"/>
<circle cx="62" cy="368" r="18" fill="rgb(135,132,49)" opacity="0.8"/>
<circle cx="15" cy="114" r="6" fill="rgb(248,103,190)" opacity="0.8"/>
<circle cx="55" cy="34" r="13" fill="rgb(160,243,14)" opacity="0.8"/>
<circle cx="238" cy="129" r="13" fill="rgb(250,200,154)" opacity="0.8"/>
<circle cx="257" cy="277" r="13" fill="rgb(111,50,158)" opacity="0.8"/>
<circle cx="64" cy="257" r="8" fill="rgb(37,109,129)" opacity="0.8"/>
<circle cx="285" cy="155" r="5" fill="rgb(56,58,48)" opacity="0.8"/>
<circle cx="43" cy="370" r="10" fill="rgb(32,102,239)" opacity="0.8"/>
<circle cx="206" cy="271" r="6" fill="rgb(235,30,107)" opacity="0.8"/>
<circle cx="170" cy="270" r="19" fill="rgb(18,33,32)" opacity="0.8"/>
<circle cx="231" cy="123" r="9" fill="rgb(226,76,71)" opacity="0.8"/>
<circle cx="305" cy="32" r="13" fill="rgb(143,153,229)" opacity="0.8"/>
<circle cx="324" cy="38" r="18" fill="rgb(60,131,147)" opacity="0.8"/>
<circle cx="210" cy="369" r="17" fill="rgb(15,86,223)" opacity="0.8"/>
<circle cx="64" cy="241" r="19" fill="rgb(137,109,49)" opacity="0.8"/>
<circle cx="330" cy="263" r="14" fill="rgb(247,240,85)" opacity="0.8"/>
<circle cx="263" cy="80" r="9" fill="rgb(77,143,8)" opacity="0.8"/>
<circle cx="135" cy="199" r="3" fill="rgb(60,231,155)" opacity="0.8"/>
<circle cx="308" cy="129" r="14" fill="rgb(41,3,159)" opacity="0.8"/>
<circle cx="258" cy="374" r="17" fill="rgb(93,204,146)" opacity="0.8"/>
<circle cx="304" cy="86" r="10" fill="rgb(9,137,201)" opacity="0.8"/>
<circle cx="180" cy="239" r="6" fill="rgb(24,215,103)" opacity="0.8"/>
<circle cx="216" cy="105" r="14" fill="rgb(233,61,124)" opacity="0.8"/>
<circle cx="206" cy="262" r="17" fill="rgb(32,2,229)" opacity="0.8"/>
<circle cx="320" cy="52" r="18" fill="rgb(47,91,23)" opacity="0.8"/>
<circle cx="53" cy="180" r="4" fill="rgb(94,177,103)" opacity="0.8"/>
<circle cx="316" cy="35" r="20" fill="rgb(153,47,16)" opacity="0.8"/>
<circle cx="322" cy="69" r="8" fill="rgb(47,248,177)" opacity="0.8"/>
<circle cx="86" cy="374" r="13" fill="rgb(151,55,246)" opacity="0.8"/>
<circle cx="345" cy="271" r="12" fill="rgb(206,196,135)" opacity="0.8"/>
<circle cx="360" cy="103" r="3" fill="rgb(92,242,69)" opacity="0.8"/>
<circle cx="257" cy="60" r="6" fill="rgb(163,252,10)" opacity="0.8"/>
<circle cx="124" cy="39" r="20" fill="rgb(38,173,43)" opacity="0.8"/>
<circle cx="105" cy="296" r="17" fill="rgb(12,250,163)" opacity="0.8"/>
<circle cx="324" cy="211" r="3" fill="rgb(110,99,101)" opacity="0.8"/>
<circle cx="294" cy="227" r="6" fill="rgb(142,242,83)" opacity="0.8"/>
<circle cx="270" cy="139" r="8" fill="rgb(54,201,147)" opacity="0.8"/>
<circle cx="339" cy="68" r="14" fill="rgb(151,144,25)" opacity="0.8"/>
<circle cx="90" cy="135" r="17" fill="rgb(2,50,205)" opacity="0.8"/>
<circle cx="38" cy="109" r="18" fill="rgb(238,52,63)" opacity="0.8"/>
<circle cx="68" cy="370" r="3" fill="rgb(227,206,230)" opacity="0.8"/>
<circle cx="277" cy="117" r="18" fill="rgb(210,22,218)" opacity="0.8"/>
<circle cx="214" cy="243" r="16" fill="rgb(252,149,116)" opacity="0.8"/>
<circle cx="196" cy="277" r="4" fill="rgb(248,228,173)" opacity="0.8"/>
<circle cx="131" cy="282" r="4" fill="rgb(85,98,39)" opacity="0.8"/>
<circle cx="354" cy="72" r="10" fill="rgb(135,2,224)" opacity="0.8"/>
<circle cx="287" cy="337" r="8" fill="rgb(243,175,48)" opacity="0.8"/>
<circle cx="93" cy="199" r="14" fill="rgb(30,37,36)" opacity="0.8"/>
<circle cx="67" cy="53" r="12" fill="rgb(84,122,15)" opacity="0.8"/>
</svg>