<svg xmlns="http://www.w3.org/2000/svg" viewBox="0 0 400 400" width="400" height="400">
<rect width="400" height="400" fill="#dd9363"/>
<circle cx="43" cy="225" r="18" fill="rgb(55,23,9)" opacity="0.8"/>
<circle cx="180" cy="341" r="12" fill="rgb(127,70,0)" opacity="0.8"/>
<circle cx="262" cy="78" r="12" fill="rgb(21,36,172)" opacity="0.8"/>
<circle cx="196" cy="377" r="4" fill="rgb(132,155,2)" opacity="0.8"/>
<circle cx="195" cy="211" r="10" fill="rgb(80,202,191)" opacity="0.8"/>
<circle cx="94" cy="283" r="13" fill="rgb(92,118,215)" opacity="0.8"/>
<circle cx="209" cy="241" r="17" fill="rgb(225,67,48)" opacity="0.8"/>
<circle cx="149" cy="168" r="17" fill="rgb(187,198,39)" opacity="0.8"/>
<circle cx="313" cy="118" r="8" fill="rgb(127,228,110)" opacity="0.8"/>
<circle cx="241" cy="177" r="13" fill="rgb(153,45,5)" opacity="0.8"/>
<circle cx="329" cy="209" r="11" fill="rgb(1,254,45)" opacity="0.8"/>
<circle cx="352" cy="241" r="3" fill="rgb(254,163,160)" opacity="0.8"/>
<circle cx="11" cy="136" r="16" fill="rgb(37,248,119)" opacity="0.8"/>
<circle cx="329" cy="368" r="7" fill="rgb(74,73,206)" opacity="0.8"/>
<circle cx="170" cy="236" r="3" fill="rgb(38,105,199)" opacity="0.8"/>
<circle cx="133" cy="208" r="13" fill="rgb(162,83,137)" opacity="0.8"/>
<circle cx="25" cy="373" r="5" fill="rgb(79,67,239)" opacity="0.8"/>
<circle cx="268" cy="277" r="3" fill="rgb(72,109,140)" opacity="0.8"/>
<circle cx="87" cy="129" r="6" fill="rgb(150,58,61)" opacity="0.8"/>
<circle cx="140" cy="21" r="7" fill="rgb(30,213,69)" opacity="0.8"/>
<circle cx="33" cy="38" r="19" fill="rgb(187,191,46)" opacity="0.8"/>
<circle cx="53" cy="376" r="8" fill="rgb(38,192,147)" opacity="0.8"/>
<circle cx="281" cy="88" r="3" fill="rgb(120,170,77)" opacity="0.8"/>
<circle cx="253" cy="177" r="15" fill="rgb(165,26,215)" opacity="0.8"/>
<circle cx="256" cy="305" r="3" fill="rgb(20,144,36)" opacity="0.8"/>
<circle cx="340" cy="196" r="7" fill="rgb(108,67,55)" opacity="0.8"/>
<circle cx="234" cy="13" r="5" fill="rgb(213,65,219)" opacity="0.8"/>
<circle cx="54" cy="232" r="15" fill="rgb(98,52,84)" opacity="0.8"/>
<circle cx="213" cy="226" r="11" fill="rgb(62,69,138)" opacity="0.8"/>
<circle cx="277" cy="249" r="16" fill="rgb(34,51,193)" opacity="0.8"/>
<circle cx="199" cy="72" r="5" fill="rgb(33,33,119)" opacity="0.8"/>
<circle cx="110" cy="156" r="7" fill="rgb(209,127,206)" opacity="0.8"/>
<circle cx="237" cy="117" r="10" fill="rgb(39,1,19)" opacity="0.8"/>
<circle cx="62" cy="217" r="4" fill="rgb(116,49,185)" opacity="0.8"/>
<circle cx="137" cy="349" r="6" fill="rgb(247,166,164)" opacity="0.8"/>
<circle cx="139" cy="217" r="16" fill="rgb(219,88,22)" opacity="0.8"/>
<circle cx="130" cy="98" r="4" fill="rgb(65,30,112)" opacity="0.8"/>
<circle cx="16" cy="368" r="17" fill="rgb(219,248,251)" opacity="0.8"/>
<circle cx="94" cy="321" r="18" fill="rgb(237,237,223)" opacity="0.8"/>
<circle cx="171" cy="152" r="14" fill="rgb(201,30,101)" opacity="0.8"/>
<circle cx="290" cy="226" r="18" fill="rgb(238,206,198)" opacity="0.8"/>
<circle cx="225" cy="119" r="13" fill="rgb(245,146,173)" opacity="0.8"/>
<circle cx="336" cy="144" r="18" fill="rgb(129,138,11)" opacity="0.8"/>
<circle cx="24" cy="303" r="3" fill="rgb(106,137,105)" opacity="0.8"/>
<circle cx="144" cy="208" r="17" fill="rgb(15,19,141)" opacity="0.8"/>
<circle cx="113" cy="328" r="16" fill="rgb(16,195,226)" opacity="0.8"/>
<circle cx="324" cy="192" r="12" fill="rgb(87,12,231)" opacity="0.8"/>
<circle cx="336" cy="19" r="16" fill="rgb(196,21,170)" opacity="0.8"/>
<circle cx="185" cy="85" r="17" fill="rgb(55,147,23)" opacity="0.8"/>
<circle cx="65" cy="248" r="4" fill="rgb(51,236,106)" opacity="0.8"/>
<circle cx="325" cy="350" r="7" fill="rgb(162,135,33)" opacity="0.8"/>
<circle cx="189" cy="267" r="20" fill="rgb(198,14,103)" opacity="0.8"/>
<circle cx="337" cy="175" r="9" fill="rgb(214,26,239)" opacity="0.8"/>
<circle cx="337" cy="150" r="6" fill="rgb(98,158,136)" opacity="0.8"/>
<circle cx="277" cy="342" r="3" fill="rgb(3,183,91)" opacity="0.8"/>
<circle cx="139" cy="298" r="16" fill="rgb(123,112,90)" opacity="0.8"/>
<circle cx="10" cy="379" r="8" fill="rgb(129,90,205)" opacity="0.8"/>
<circle cx="174" cy="1" r="11" fill="rgb(121,218,180)" opacity="0.8"/>
<circle cx="73" cy="175" r="19" fill="rgb(91,39,98)" opacity="0.8"/>
<circle cx="213" cy="20" r="9" fill="rgb(2,60,154)" opacity="0.8"/>
<circle cx="35" cy="17" r="15" fill="rgb(72,118,247)" opacity="0.8"/>
<circle cx="155" cy="123" r="12" fill="rgb(209,28,223)" opacity="0.8"/>
<circle cx="36" cy="116" r="12" fill="rgb(39,236,155)" opacity="0.8"/>
<circle cx="11" cy="188" r="11" fill="rgb(107,97,153)" opacity="0.8"/>
<circle cx="290" cy="11" r="6" fill="rgb(71,123,30)" opacity="0.8"/>
<circle cx="345" cy="148" r="16" fill="rgb(222,164,58)" opacity="0.8"/>
<circle cx="130" cy="113" r="18" fill="rgb(188,133,16)" opacity="0.8"/>
<circle cx="82" cy="288" r="11" fill="rgb(128,89,22)" opacity="0.8"/>
<circle cx="171" cy="175" r="5" fill="rgb(223,138,210)" opacity="0.8"/>
<circle cx="70" cy="354" r="10" fill="rgb(45,195,192)" opacity="0.8"/>
<circle cx="101" cy="247" r="20" fill="rgb(21,67,146)" opacity="0.8"/>
<circle cx="285" cy="162" r="12" fill="rgb(79,151,128)" opacity="0.8"/>
<circle cx="308" cy="334" r="14" fill="rgb(85,30,44)" opacity="0.8"/>
<circle cx="136" cy="376" r="14" fill="rgb(11,126,236)" opacity="0.8"/>
<circle cx="306" cy="321" r="3" fill="rgb(110,49,254)" opacity="0.8"/>
<circle cx="196" cy="195" r="3" fill="rgb(32,44,49)" opacity="0.8"/>
<circle cx="43" cy="310" r="19" fill="rgb(239,113,136)" opacity="0.8"/>
<circle cx="182" cy="116" r="15" fill="rgb(98,123,174)" opacity="0.8"/>
<circle cx="220" cy="259" r="9" fill="rgb(89,58,178)" opacity="0.8"/>
<circle cx="283" cy="72" r="19" fill="rgb(212,194,59)" opacity="0.8"/>
<circle cx="270" cy="242" r="15" fill="rgb(7,57,160)" opacity="0.8"/>
<circle cx="213" cy="281" r="16" fill="rgb(37,93,166)" opacity="0.8"/>
<circle cx="181" cy="181" r="16" fill="rgb(41,17,240)" opacity="0.8"/>
<circle cx="232" cy="112" r="14" fill="rgb(37,254,29)" opacity="0.8"/>
<circle cx="360" cy="230" r="6" fill="rgb(218,148,17)" opacity="0.8"/>
<circle cx="226" cy="45" r="11" fill="rgb(230,32,79)" opacity="0.8"/>
<circle cx="189" cy="144" r="7" fill="rgb(74,58,78)" opacity="0.8"/>
<circle cx="146" cy="73" r="20" fill="rgb(231,133,243)" opacity="0.8"/>
<circle cx="253" cy="238" r="12" fill="rgb(214,109,74)" opacity="0.8"/>
<circle cx="226" cy="135" r="11" fill="rgb(104,242,214)" opacity="0.8"/>
<circle cx="58" cy="332" r="19" fill="rgb(66,116,82)" opacity="0.8"/>
<circle cx="96" cy="73" r="13" fill="rgb(55,15,41)" opacity="0.8"/>
<circle cx="324" cy="2" r="10" fill="rgb(153,91,164)" opacity="0.8"/>
<circle cx="106" cy="43" r="20" fill="rgb(88,195,253)" opacity="0.8"/>
<circle cx="363" cy="52" r="16" fill="rgb(48,72,39)" opacity="0.8"/>
<circle cx="305" cy="167" r="16" fill="rgb(120,100,47)" opacity="0.8"/>
<circle cx="74" cy="204" r="13" fill="rgb(244,188,151)" opacity="0.8"/>
<circle cx="108" cy="341" r="3" fill="rgb(97,61,238)" opacity="0.8"/>
<circle cx="55" cy="131" r="12" fill="rgb(184,149,251)" opacity="0.8"/>
<circle cx="319" cy="312" r="5" fill="rgb(61,63,151)" opacity="0.8"/>
<circle cx="340" cy="15" r="6" fill="rgb(184,108,26)" opacity="0.8"/>
<circle cx="249" cy="278" r="3" fill="rgb(164,4,141)" opacity="0.8"/>
<circle cx="328" cy="28" r="9" fill="rgb(164,11,109)" opacity="0.8"/>
<circle cx="158" cy="80" r="5" fill="rgb(123,43,152)" opacity="0.8"/>
<circle cx="18" cy="187" r="5" fill="rgb(210,41,160)" opacity="0.8"/>
<circle cx="281" cy="210" r="3" fill="rgb(234,35,237)" opacity="0.8"/>
<circle cx="309" cy="344" r="17" fill="rgb(139,191,234)" opacity="0.8"/>
<circle cx="80" cy="297" r="15" fill="rgb(7,126,26)" opacity="0.8"/>
<circle cx="16" cy="276" r="19" fill="rgb(92,3,156)" opacity="0.8"/>
<circle cx="90" cy="304" r="5" fill="rgb(168,69,129)" opacity="0.8"/>
<circle cx="368" cy="245" r="3" fill="rgb(196,138,3)" opacity="0.8"/>
<circle cx="116" cy="21" r="7" fill="rgb(244,36,218)" opacity="0.8"/>
<circle cx="228" cy="8" r="19" fill="rgb(236,248,83)" opacity="0.8"/>
<circle cx="349" cy="163" r="18" fill="rgb(240,85,79)" opacity="0.8"/>
<circle cx="157" cy="195" r="10" fill="rgb(47,2,123)" opacity="0.8"/>
<circle cx="230" cy="357" r="6" fill="rgb(31,141,54)" opacity="0.8"/>
<circle cx="264" cy="357" r="7" fill="rgb(87,125,18)" opacity="0.8"/>
<circle cx="338" cy="259" r="19" fill="rgb(39,181,152)" opacity="0.8"/>
<circle cx="247" cy="97" r="5" fill="rgb(19,245,243)" opacity="0.8"/>
<circle cx="153" cy="310" r="8" fill="rgb(223,33,116)" opacity="0.8"/>
<circle cx="366" cy="182" r="11" fill="rgb(156,6,138)" opacity="0.8"/>
<circle cx="17" cy="166" r="9" fill="rgb(51,151,239)" opacity="0.8"/>
<circle cx="143" cy="183" r="14" fill="rgb(182,222,15)" opacity="0.8"/>
<circle cx="39" cy="188" r="15" fill="rgb(112,167,255)" opacity="0.8"/>
<circle cx="316" cy="188" r="14" fill="rgb(30,185,244)" opacity="0.8"/>
<circle cx="223" cy="43" r="18" fill="rgb(228,217,91)" opacity="0.8"/>
<circle cx="309" cy="16" r="18" fill="rgb(129,202,233)" opacity="0.8"/>
<circle cx="353" cy="278" r="17" fill="rgb(7,16,122)" opacity="0.8"/>
<circle cx="225" cy="332" r="7" fill="rgb(34,37,108)" opacity="0.8"/>
<circle cx="339" cy="234" r="6" fill="rgb(102,219,239)" opacity="0.8"/>
<circle cx="29" cy="115" r="7" fill="rgb(43,168,205)" opacity="0.8"/>
<circle cx="310" cy="235" r="14" fill="rgb(82,211,49)" opacity="0.8"/>
<circle cx="88" cy="329" r="3" fill="rgb(34,83,63)" opacity="0.8"/>
<circle cx="365" cy="19" r="15" fill="rgb(232,79,210)" opacity="0.8"/>
<circle cx="375" cy="360" r="7" fill="rgb(154,127,239)" opacity="0.8"/>
<circle cx="264" cy="6" r="18" fill="rgb(127,240,12)" opacity="0.8"/>
<circle cx="131" cy="241" r="4" fill="rgb(139,155,248)" opacity="0.8"/>
<circle cx="77" cy="315" r="19" fill="rgb(184,240,150)" opacity="0.8"/>
<circle cx="148" cy="222" r="9" fill="rgb(237,77,230)" opacity="0.8"/>
<circle cx="299" cy="106" r="12" fill="rgb(139,27,238)" opacity="0.8"/>
<circle cx="106" cy="290" r="14" fill="rgb(226,125,110)" opacity="0.8"/>
<circle cx="233" cy="380" r="20" fill="rgb(31,19,130)" opacity="0.8"/>
<circle cx="299" cy="333" r="11" fill="rgb(14,99,137)" opacity="0.8"/>
<circle cx="79" cy="248" r="10" fill="rgb(143,147,234)" opacity="0.8"/>
<circle cx="24" cy="308" r="13" fill="rgb(14,31,92)" opacity="0.8"/>
<circle cx="56" cy="34" r="4" fill="rgb(244,65,126)" opacity="0.8"/>
<circle cx="375" cy="4" r="19" fill="rgb(169,168,127)" opacity="0.8"/>
<circle cx="302" cy="137" r="18" fill="rgb(81,72,71)" opacity="0.8"/>
<circle cx="186" cy="68" r="10" fill="rgb(1,192,242)" opacity="0.8"/>
<circle cx="321" cy="54" r="3" fill="rgb(128,181,194)" opacity="0.8"/>
<circle cx="247" cy="51" r="4" fill="rgb(131,22,194)" opacity="0.8"/>
<circle cx="320" cy="149" r="13" fill="rgb(193,248,122)" opacity="0.8"/>
<circle cx="85" cy="349" r="11" fill="rgb(97,163,188)" opacity="0.8"/>
<circle cx="25" cy="339" r="18" fill="rgb(252,106,100)" opacity="0.8"/>
<circle cx="229" cy="305" r="3" fill="rgb(50,79,173)" opacity="0.8"/>
<circle cx="372" cy="84" r="5" fill="rgb(230,13,104)" opacity="0.8"/>
<circle cx="179" cy="137" r="15" fill="rgb(80,248,114)" opacity="0.8"/>
<circle cx="26" cy="175" r="7" fill="rgb(107,42,94)" opacity="0.8"/>
<circle cx="203" cy="105" r="14" fill="rgb(128,204,81)" opacity="0.8"/>
<circle cx="279" cy="97" r="10" fill="rgb(4,148,143)" opacity="0.8"/>
<circle cx="133" cy="377" r="3" fill="rgb(0,84,152)" opacity="0.8"/>
<circle cx="260" cy="119" r="19" fill="rgb(216,81,119)" opacity="0.8"/>
<circle cx="65" cy="116" r="8" fill="rgb(63,180,208)" opacity="0.8"/>
<circle cx="372" cy="368" r="8" fill="rgb(156,64,65)" opacity="0.8"/>
<circle cx="152" cy="25" r="9" fill="rgb(49,107,175)" opacity="0.8"/>
<circle cx="341" cy="94" r="16" fill="rgb(57,250,202)" opacity="0.8"/>
<circle cx="343" cy="168" r="20" fill="rgb(52,233,196)" opacity="0.8"/>
<circle cx="29" cy="342" r="19" fill="rgb(171,216,22)" opacity="0.8"/>
<circle cx="7" cy="97" r="15" fill="rgb(170,251,1)" opacity="0.8"/>
<circle cx="222" cy="42" r="17" fill="rgb(214,155,172)" opacity="0.8"/>
<circle cx="220" cy="365" r="17" fill="rgb(49,30,60)" opacity="0.8"/>
<circle cx="207" cy="329" r="13" fill="rgb(240,117,193)" opacity="0.8"/>
<circle cx="351" cy="263" r="10" fill="rgb(111,161,94)" opacity="0.8"/>
<circle cx="74" cy="189" r="7" fill="rgb(154,18,115)" opacity="0.8"/>
<circle cx="178" cy="6" r="4" fill="rgb(89,88,175)" opacity="0.8"/>
<circle cx="95" cy="103" r="11" fill="rgb(19,238,129)" opacity="0.8"/>
<circle cx="175" cy="296" r="4" fill="rgb(105,2,234)" opacity="0.8"/>
<circle cx="265" cy="240" r="10" fill="rgb(211,193,185)" opacity="0.8"/>
<circle cx="200" cy="240" r="19" fill="rgb(220,65,202)" opacity="0.8"/>
<circle cx="196" cy="161" r="19" fill="rgb(180,219,178)" opacity="0.8"/>
<circle cx="224" cy="73" r="12" fill="rgb(210,0,181)" opacity="0.8"/>
<circle cx="138" cy="210" r="12" fill="rgb(186,67,26)" opacity="0.8"/>
<circle cx="110" cy="21" r="13" fill="rgb(218,139,49)" opacity="0.8"/>
<circle cx="24" cy="318" r="10" fill="rgb(242,39,9)" opacity="0.8"/>
<circle cx="136" cy="337" r="12" fill="rgb(173,114,195)" opacity="0.8"/>
<circle cx="94" cy="25" r="9" fill="rgb(249,216,186)" opacity="0.8"/>
<circle cx="127" cy="287" r="13" fill="rgb(134,152,29)" opacity="0.8"/>
<circle cx="229" cy="8" r="18" fill="rgb(114,195,250)" opacity="0.8"/>
<circle cx="36" cy="3" r="6" fill="rgb(250,179,186)" opacity="0.8"/>
<circle cx="168" cy="192" r="15" fill="rgb(69,87,160)" opacity="0.8"/>
<circle cx="77" cy="138" r="12" fill="rgb(129,228,190)" opacity="0.8"/>
<circle cx="215" cy="356" r="11" fill="rgb(101,145,4)" opacity="0.8"/>
<circle cx="143" cy="303" r="6" fill="rgb(46,78,202)" opacity="0.8"/>
<circle cx="3" cy="224" r="9" fill="rgb(18,224,242)" opacity="0.8"/>
<circle cx="6" cy="273" r="13" fill="rgb(125,222,52)" opacity="0.8"/>
<circle cx="6" cy="229" r="18" fill="rgb(43,21,172)" opacity="0.8"/>
</svg>