<svg xmlns="http://www.w3.org/2000/svg" viewBox="0 0 400 400" width="400" height="400">
<rect width="400" height="400" fill="#780888"/>
<circle cx="186" cy="373" r="15" fill="rgb(178,87,32)" opacity="0.8"/>
<circle cx="178" cy="252" r="4" fill="rgb(239,244,202)" opacity="0.8"/>
<circle cx="312" cy="87" r="18" fill="rgb(92,52,137)" opacity="0.8"/>
<circle cx="166" cy="173" r="14" fill="rgb(187,170,179)" opacity="0.8"/>
<circle cx="149" cy="123" r="14" fill="rgb(143,15,233)" opacity="0.8"/>
<circle cx="93" cy="104" r="10" fill="rgb(133,175,176)" opacity="0.8"/>
<circle cx="190" cy="262" r="7" fill="rgb(157,171,180)" opacity="0.8"/>
<circle cx="350" cy="192" r="5" fill="rgb(97,224,124)" opacity="0.8"/>
<circle cx="93" cy="101" r="12" fill="rgb(152,46,37)" opacity="0.8"/>
<circle cx="152" cy="199" r="14" fill="rgb(226,223,113)" opacity="0.8"/>
<circle cx="83" cy="87" r="18" fill="rgb(86,202,14)" opacity="0.8"/>
<circle cx="330" cy="359" r="15" fill="rgb(112,112,245)" opacity="0.8"/>
<circle cx="321" cy="6" r="5" fill="rgb(239,203,242)" opacity="0.8"/>
<circle cx="170" cy="337" r="4" fill="rgb(213,155,251)" opacity="0.8"/>
<circle cx="223" cy="361" r="8" fill="rgb(20,126,243)" opacity="0.8"/>
<circle cx="259" cy="108" r="13" fill="rgb(117,139,23)" opacity="0.8"/>
<circle cx="352" cy="250" r="17" fill="rgb(90,68,252)" opacity="0.8"/>
<circle cx="122" cy="329" r="20" fill="rgb(28,41,51)" opacity="0.8"/>
<circle cx="217" cy="344" r="16" fill="rgb(95,31,102)" opacity="0.8"/>
<circle cx="247" cy="182" r="12" fill="rgb(255,65,157)" opacity="0.8"/>
<circle cx="335" cy="234" r="11" fill="rgb(165,177,101)" opacity="0.8"/>
<circle cx="312" cy="80" r="5" fill="rgb(124,28,206)" opacity="0.8"/>
<circle cx="48" cy="195" r="15" fill="rgb(106,56,173)" opacity="0.8"/>
<circle cx="39" cy="309" r="7" fill="rgb(35,177,242)" opacity="0.8"/>
</svg>