<svg xmlns="http://www.w3.org/2000/svg" viewBox="0 0 400 400" width="400" height="400">
<rect width="400" height="400" fill="#9b7525"/>
<circle cx="254" cy="286" r="14" fill="rgb(113,237,228)" opacity="0.8"/>
<circle cx="276" cy="232" r="15" fill="rgb(13,171,33)" opacity="0.8"/>
<circle cx="243" cy="257" r="17" fill="rgb(44,151,173)" opacity="0.8"/>
<circle cx="297" cy="259" r="4" fill="rgb(116,31,163)" opacity="0.8"/>
<circle cx="117" cy="350" r="20" fill="rgb(0,71,200)" opacity="0.8"/>
<circle cx="175" cy="16" r="20" fill="rgb(123,197,31)" opacity="0.8"/>
<circle cx="137" cy="207" r="7" fill="rgb(130,193,218)" opacity="0.8"/>
<circle cx="100" cy="101" r="11" fill="rgb(232,101,68)" opacity="0.8"/>
<circle cx="69" cy="298" r="11" fill="rgb(92,12,194)" opacity="0.8"/>
<circle cx="103" cy="372" r="13" fill="rgb(228,186,76)" opacity="0.8"/>
<circle cx="281" cy="261" r="16" fill="rgb(198,49,101)" opacity="0.8"/>
<circle cx="30" cy="352" r="16" fill="rgb(92,138,122)" opacity="0.8"/>
<circle cx="32" cy="231" r="16" fill="rgb(217,165,202)" opacity="0.8"/>
<circle cx="310" cy="291" r="7" fill="rgb(1,236,6)" opacity="0.8"/>
<circle cx="24" cy="174" r="8" fill="rgb(120,196,206)" opacity="0.8"/>
<circle cx="362" cy="245" r="20" fill="rgb(3,106,228)" opacity="0.8"/>
<circle cx="292" cy="320" r="14" fill="rgb(210,223,213)" opacity="0.8"/>
<circle cx="95" cy="155" r="5" fill="rgb(169,161,29)" opacity="0.8"/>
<circle cx="16" cy="186" r="3" fill="rgb(251,27,54)" opacity="0.8"/>
<circle cx="258" cy="95" r="8" fill="rgb(193,35,153)" opacity="0.8"/>
<circle cx="259" cy="51" r="18" fill="rgb(169,136,154)" opacity="0.8"/>
<circle cx="19" cy="347" r="5" fill="rgb(207,144,169)" opacity="0.8"/>
<circle cx="75" cy="199" r="9" fill="rgb(200,159,43)" opacity="0.8"/>
<circle cx="264" cy="88" r="18" fill="rgb(51,196,31)" opacity="0.8"/>
<circle cx="311" cy="166" r="11" fill="rgb(117,168,31)" opacity="0.8"/>
<circle cx="18" cy="125" r="18" fill="rgb(173,114,81)" opacity="0.8"/>
<circle cx="327" cy="375" r="8" fill="rgb(153,45,127)" opacity="0.8"/>
<circle cx="122" cy="121" r="5" fill="rgb(187,244,15)" opacity="0.8"/>
<circle cx="106" cy="14" r="19" fill="rgb(37,216,161)" opacity="0.8"/>
<circle cx="30" cy="39" r="7" fill="rgb(198,85,117)" opacity="0.8"/>
<circle cx="273" cy="98" r="13" fill="rgb(202,208,165)" opacity="0.8"/>
<circle cx="92" cy="66" r="16" fill="rgb(20,93,22)" opacity="0.8"/>
<circle cx="322" cy="206" r="17" fill="rgb(9,124,159)" opacity="0.8"/>
<circle cx="339" cy="181" r="9" fill="rgb(184,36,107)" opacity="0.8"/>
<circle cx="68" cy="61" r="8" fill="rgb(76,0,196)" opacity="0.8"/>
<circle cx="176" cy="214" r="17" fill="rgb(95,165,130)" opacity="0.8"/>
<circle cx="147" cy="287" r="12" fill="rgb(241,217,159)" opacity="0.8"/>
<circle cx="356" cy="369" r="6" fill="rgb(196,168,56)" opacity="0.8"/>
<circle cx="293" cy="328" r="20" fill="rgb(6,186,175)" opacity="0.8"/>
<circle cx="200" cy="364" r="16" fill="rgb(236,220,35)" opacity="0.8"/>
<circle cx="245" cy="365" r="20" fill="rgb(206,253,205)" opacity="0.8"/>
<circle cx="325" cy="228" r="3" fill="rgb(231,140,34)" opacity="0.8"/>
<circle cx="269" cy="78" r="15" fill="rgb(93,201,97)" opacity="0.8"/>
<circle cx="244" cy="161" r="4" fill="rgb(131,67,162)" opacity="0.8"/>
<circle cx="295" cy="204" r="14" fill="rgb(54,137,197)" opacity="0.8"/>
<circle cx="318" cy="37" r="5" fill="rgb(224,66,156)" opacity="0.8"/>
<circle cx="177" cy="191" r="8" fill="rgb(30,217,48)" opacity="0.8"/>
<circle cx="255" cy="246" r="3" fill="rgb(216,158,104)" opacity="0.8"/>
<circle cx="265" cy="378" r="11" fill="rgb(173,201,172)" opacity="0.8"/>
<circle cx="36" cy="178" r="17" fill="rgb(208,19,129)" opacity="0.8"/>
<circle cx="320" cy="14" r="13" fill="rgb(81,146,219)" opacity="0.8"/>
<circle cx="361" cy="128" r="3" fill="rgb(94,77,68)" opacity="0.8"/>
<circle cx="135" cy="117" r="9" fill="rgb(11,50,174)" opacity="0.8"/>
<circle cx="182" cy="147" r="19" fill="rgb(225,83,125)" opacity="0.8"/>
<circle cx="193" cy="179" r="8" fill="rgb(219,51,234)" opacity="0.8"/>
<circle cx="258" cy="249" r="3" fill="rgb(76,109,124)" opacity="0.8"/>
<circle cx="105" cy="217" r="11" fill="rgb(250,243,209)" opacity="0.8"/>
<circle cx="341" cy="373" r="8" fill="rgb(107,4,17)" opacity="0.8"/>
<circle cx="134" cy="149" r="10" fill="rgb(18,230,95)" opacity="0.8"/>
<circle cx="16" cy="340" r="11" fill="rgb(35,159,38)" opacity="0.8"/>
<circle cx="348" cy="270" r="17" fill="rgb(174,191,8)" opacity="0.8"/>
<circle cx="274" cy="31" r="18" fill="rgb(219,223,209)" opacity="0.8"/>
<circle cx="317" cy="24" r="14" fill="rgb(20,226,83)" opacity="0.8"/>
<circle cx="157" cy="147" r="10" fill="rgb(134,223,3)" opacity="0.8"/>
<circle cx="78" cy="201" r="13" fill="rgb(133,223,100)" opacity="0.8"/>
<circle cx="237" cy="152" r="3" fill="rgb(13,60,251)" opacity="0.8"/>
<circle cx="265" cy="318" r="7" fill="rgb(235,51,114)" opacity="0.8"/>
<circle cx="7" cy="45" r="18" fill="rgb(5,165,63)" opacity="0.8"/>
<circle cx="104" cy="8" r="18" fill="rgb(165,174,90)" opacity="0.8"/>
<circle cx="204" cy="85" r="4" fill="rgb(14,149,202)" opacity="0.8"/>
<circle cx="295" cy="8" r="8" fill="rgb(83,43,4)" opacity="0.8"/>
<circle cx="260" cy="138" r="14" fill="rgb(1,136,242)" opacity="0.8"/>
<circle cx="177" cy="83" r="11" fill="rgb(37,71,154)" opacity="0.8"/>
<circle cx="93" cy="265" r="13" fill="rgb(208,181,74)" opacity="0.8"/>
<circle cx="206" cy="338" r="13" fill="rgb(54,231,51)" opacity="0.8"/>
<circle cx="241" cy="375" r="17" fill="rgb(44,35,201)" opacity="0.8"/>
<circle cx="160" cy="114" r="6" fill="rgb(178,248,148)" opacity="0.8"/>
<circle cx="208" cy="380" r="20" fill="rgb(171,67,166)" opacity="0.8"/>
<circle cx="53" cy="233" r="8" fill="rgb(92,169,99)" opacity="0.8"/>
<circle cx="157" cy="161" r="4" fill="rgb(20,94,65)" opacity="0.8"/>
<circle cx="222" cy="86" r="3" fill="rgb(225,144,132)" opacity="0.8"/>
<circle cx="34" cy="169" r="9" fill="rgb(55,116,190)" opacity="0.8"/>
<circle cx="306" cy="327" r="5" fill="rgb(70,13,244)" opacity="0.8"/>
<circle cx="334" cy="190" r="5" fill="rgb(218,202,139)" opacity="0.8"/>
<circle cx="127" cy="133" r="13" fill="rgb(163,178,222)" opacity="0.8"/>
<circle cx="304" cy="301" r="9" fill="rgb(188,135,191)" opacity="0.8"/>
<circle cx="324" cy="290" r="18" fill="rgb(162,26,52)" opacity="0.8"/>
<circle cx="119" cy="293" r="19" fill="rgb(145,194,248)" opacity="0.8"/>
<circle cx="338" cy="277" r="13" fill="rgb(71,138,61)" opacity="0.8"/>
<circle cx="291" cy="135" r="8" fill="rgb(109,175,75)" opacity="0.8"/>
<circle cx="377" cy="38" r="15" fill="rgb(25,214,133)" opacity="0.8"/>
<circle cx="86" cy="38" r="12" fill="rgb(171,143,113)" opacity="0.8"/>
<circle cx="273" cy="348" r="8" fill="rgb(65,171,87)" opacity="0.8"/>
<circle cx="337" cy="281" r="7" fill="rgb(224,128,232)" opacity="0.8"/>
<circle cx="83" cy="114" r="9" fill="rgb(143,193,97)" opacity="0.8"/>
<circle cx="236" cy="153" r="7" fill="rgb(144,137,155)" opacity="0.8"/>
<circle cx="238" cy="81" r="5" fill="rgb(76,54,65)" opacity="0.8"/>
<circle cx="313" cy="123" r="17" fill="rgb(2,59,60)" opacity="0.8"/>
<circle cx="95" cy="307" r="16" fill="rgb(9,128,121)" opacity="0.8"/>
<circle cx="85" cy="238" r="6" fill="rgb(95,77,212)" opacity="0.8"/>
<circle cx="188" cy="290" r="4" fill="rgb(162,176,69)" opacity="0.8"/>
<circle cx="176" cy="124" r="17" fill="rgb(178,113,38)" opacity="0.8"/>
<circle cx="342" cy="316" r="15" fill="rgb(113,205,142)" opacity="0.8"/>
<circle cx="220" cy="191" r="11" fill="rgb(192,227,31)" opacity="0.8"/>
<circle cx="255" cy="249" r="12" fill="rgb(144,199,104)" opacity="0.8"/>
</svg>