<svg xmlns="http://www.w3.org/2000/svg" viewBox="0 0 400 400" width="400" height="400">
<rect width="400" height="400" fill="#56ca2a"/>
<circle cx="263" cy="2" r="10" fill="rgb(130,17,216)" opacity="0.8"/>
<circle cx="219" cy="346" r="8" fill="rgb(238,250,128)" opacity="0.8"/>
<circle cx="358" cy="213" r="18" fill="rgb(52,2,110)" opacity="0.8"/>
<circle cx="288" cy="370" r="7" fill="rgb(127,72,189)" opacity="0.8"/>
<circle cx="286" cy="169" r="19" fill="rgb(125,95,125)" opacity="0.8"/>
<circle cx="28" cy="142" r="17" fill="rgb(250,182,216)" opacity="0.8"/>
<circle cx="44" cy="17" r="13" fill="rgb(90,116,234)" opacity="0.8"/>
<circle cx="373" cy="56" r="9" fill="rgb(112,32,35)" opacity="0.8"/>
<circle cx="369" cy="370" r="18" fill="rgb(200,62,250)" opacity="0.8"/>
<circle cx="109" cy="25" r="17" fill="rgb(110,11,147)" opacity="0.8"/>
<circle cx="37" cy="202" r="7" fill="rgb(183,30,67)" opacity="0.8"/>
<circle cx="48" cy="226" r="4" fill="rgb(136,4,174)" opacity="0.8"/>
<circle cx="284" cy="8" r="8" fill="rgb(181,31,85)" opacity="0.8"/>
<circle cx="288" cy="214" r="9" fill="rgb(177,122,63)" opacity="0.8"/>
<circle cx="8" cy="332" r="6" fill="rgb(21,150,63)" opacity="0.8"/>
<circle cx="357" cy="247" r="16" fill="rgb(247,69,30)" opacity="0.8"/>
<circle cx="66" cy="211" r="7" fill="rgb(148,124,217)" opacity="0.8"/>
<circle cx="193" cy="49" r="9" fill="rgb(245,99,123)" opacity="0.8"/>
<circle cx="197" cy="284" r="9" fill="rgb(220,124,149)" opacity="0.8"/>
<circle cx="90" cy="167" r="9" fill="rgb(135,8,194)" opacity="0.8"/>
<circle cx="204" cy="26" r="18" fill="rgb(63,251,117)" opacity="0.8"/>
<circle cx="155" cy="274" r="18" fill="rgb(77,7,78)" opacity="0.8"/>
<circle cx="167" cy="335" r="10" fill="rgb(2,199,205)" opacity="0.8"/>
<circle cx="6" cy="39" r="18" fill="rgb(13,132,160)" opacity="0.8"/>
<circle cx="311" cy="312" r="8" fill="rgb(78,32,211)" opacity="0.8"/>
<circle cx="103" cy="219" r="8" fill="rgb(91,146,135)" opacity="0.8"/>
<circle cx="20" cy="148" r="19" fill="rgb(56,107,201)" opacity="0.8"/>
<circle cx="77" cy="336" r="6" fill="rgb(172,120,19)" opacity="0.8"/>
<circle cx="362" cy="163" r="16" fill="rgb(250,116,82)" opacity="0.8"/>
<circle cx="141" cy="273" r="14" fill="rgb(221,140,184)" opacity="0.8"/>
<circle cx="374" cy="22" r="16" fill="rgb(248,221,24)" opacity="0.8"/>
<circle cx="313" cy="120" r="6" fill="rgb(215,182,152)" opacity="0.8"/>
<circle cx="37" cy="229" r="15" fill="rgb(54,211,226)" opacity="0.8"/>
<circle cx="193" cy="289" r="20" fill="rgb(112,236,36)" opacity="0.8"/>
<circle cx="52" cy="69" r="12" fill="rgb(171,138,33)" opacity="0.8"/>
<circle cx="280" cy="310" r="14" fill="rgb(239,63,179)" opacity="0.8"/>
<circle cx="213" cy="276" r="4" fill="rgb(6,54,211)" opacity="0.8"/>
<circle cx="259" cy="38" r="18" fill="rgb(59,76,149)" opacity="0.8"/>
<circle cx="50" cy="154" r="6" fill="rgb(84,203,4)" opacity="0.8"/>
<circle cx="251" cy="327" r="19" fill="rgb(245,182,100)" opacity="0.8"/>
<circle cx="0" cy="179" r="5" fill="rgb(225,149,113)" opacity="0.8"/>
<circle cx="160" cy="238" r="10" fill="rgb(162,123,158)" opacity="0.8"/>
<circle cx="82" cy="371" r="8" fill="rgb(237,130,186)" opacity="0.8"/>
<circle cx="178" cy="105" r="13" fill="rgb(82,71,191)" opacity="0.8"/>
<circle cx="87" cy="378" r="5" fill="rgb(76,57,82)" opacity="0.8"/>
<circle cx="282" cy="11" r="8" fill="rgb(29,175,95)" opacity="0.8"/>
<circle cx="134" cy="11" r="7" fill="rgb(99,14,113)" opacity="0.8"/>
<circle cx="103" cy="277" r="4" fill="rgb(159,147,105)" opacity="0.8"/>
<circle cx="324" cy="307" r="8" fill="rgb(146,100,59)" opacity="0.8"/>
<circle cx="135" cy="149" r="15" fill="rgb(119,74,152)" opacity="0.8"/>
<circle cx="259" cy="232" r="7" fill="rgb(140,19,25)" opacity="0.8"/>
<circle cx="345" cy="62" r="3" fill="rgb(186,127,160)" opacity="0.8"/>
<circle cx="150" cy="290" r="7" fill="rgb(200,180,96)" opacity="0.8"/>
<circle cx="122" cy="68" r="4" fill="rgb(107,0,217)" opacity="0.8"/>
<circle cx="293" cy="291" r="15" fill="rgb(180,167,207)" opacity="0.8"/>
<circle cx="349" cy="141" r="20" fill="rgb(4,38,2)" opacity="0.8"/>
<circle cx="145" cy="155" r="7" fill="rgb(173,70,37)" opacity="0.8"/>
<circle cx="135" cy="377" r="18" fill="rgb(53,49,25)" opacity="0.8"/>
<circle cx="228" cy="272" r="8" fill="rgb(189,84,89)" opacity="0.8"/>
<circle cx="124" cy="355" r="15" fill="rgb(37,108,220)" opacity="0.8"/>
<circle cx="100" cy="82" r="15" fill="rgb(129,160,182)" opacity="0.8"/>
<circle cx="271" cy="3" r="19" fill="rgb(189,127,158)" opacity="0.8"/>
<circle cx="355" cy="174" r="15" fill="rgb(243,251,181)" opacity="0.8"/>
<circle cx="201" cy="1" r="5" fill="rgb(126,129,75)" opacity="0.8"/>
<circle cx="111" cy="39" r="7" fill="rgb(232,173,100)" opacity="0.8"/>
<circle cx="150" cy="326" r="18" fill="rgb(168,152,116)" opacity="0.8"/>
<circle cx="105" cy="315" r="12" fill="rgb(153,168,240)" opacity="0.8"/>
<circle cx="255" cy="349" r="14" fill="rgb(126,142,118)" opacity="0.8"/>
<circle cx="61" cy="257" r="10" fill="rgb(19,129,5)" opacity="0.8"/>
<circle cx="148" cy="368" r="17" fill="rgb(195,93,246)" opacity="0.8"/>
<circle cx="335" cy="295" r="4" fill="rgb(46,58,17)" opacity="0.8"/>
<circle cx="101" cy="9" r="9" fill="rgb(91,193,68)" opacity="0.8"/>
<circle cx="375" cy="229" r="10" fill="rgb(68,212,101)" opacity="0.8"/>
<circle cx="361" cy="252" r="19" fill="rgb(165,160,137)" opacity="0.8"/>
<circle cx="190" cy="90" r="6" fill="rgb(205,140,75)" opacity="0.8"/>
<circle cx="146" cy="28" r="14" fill="rgb(26,210,57)" opacity="0.8"/>
<circle cx="164" cy="378" r="8" fill="rgb(214,144,178)" opacity="0.8"/>
<circle cx="275" cy="268" r="20" fill="rgb(73,0,162)" opacity="0.8"/>
<circle cx="296" cy="243" r="12" fill="rgb(245,144,253)" opacity="0.8"/>
<circle cx="326" cy="225" r="6" fill="rgb(13,188,120)" opacity="0.8"/>
<circle cx="190" cy="11" r="10" fill="rgb(54,187,175)" opacity="0.8"/>
<circle cx="66" cy="366" r="10" fill="rgb(36,208,228)" opacity="0.8"/>
<circle cx="311" cy="272" r="11" fill="rgb(43,67,139)" opacity="0.8"/>
<circle cx="47" cy="182" r="3" fill="rgb(220,86,200)" opacity="0.8"/>
<circle cx="216" cy="21" r="14" fill="rgb(232,25,141)" opacity="0.8"/>
<circle cx="148" cy="182" r="4" fill="rgb(152,247,188)" opacity="0.8"/>
<circle cx="346" cy="126" r="15" fill="rgb(164,199,56)" opacity="0.8"/>
<circle cx="327" cy="1" r="15" fill="rgb(170,206,194)" opacity="0.8"/>
</svg>