<svg xmlns="http://www.w3.org/2000/svg" viewBox="0 0 400 400" width="400" height="400">
<rect width="400" height="400" fill="#bc8444"/>
<circle cx="57" cy="12" r="17" fill="rgb(207,91,151)" opacity="0.8"/>
<circle cx="91" cy="307" r="11" fill="rgb(186,212,141)" opacity="0.8"/>
<circle cx="157" cy="209" r="4" fill="rgb(229,65,23)" opacity="0.8"/>
<circle cx="309" cy="253" r="8" fill="rgb(215,63,47)" opacity="0.8"/>
<circle cx="78" cy="199" r="15" fill="rgb(46,248,0)" opacity="0.8"/>
<circle cx="199" cy="203" r="10" fill="rgb(89,147,56)" opacity="0.8"/>
<circle cx="64" cy="94" r="13" fill="rgb(118,131,190)" opacity="0.8"/>
<circle cx="25" cy="278" r="13" fill="rgb(99,45,175)" opacity="0.8"/>
<circle cx="267" cy="70" r="15" fill="rgb(91,45,102)" opacity="0.8"/>
<circle cx="263" cy="136" r="16" fill="rgb(2,80,151)" opacity="0.8"/>
<circle cx="153" cy="57" r="14" fill="rgb(168,103,56)" opacity="0.8"/>
<circle cx="314" cy="57" r="20" fill="rgb(83,168,135)" opacity="0.8"/>
<circle cx="313" cy="141" r="8" fill="rgb(179,91,68)" opacity="0.8"/>
<circle cx="335" cy="235" r="19" fill="rgb(11,254,129)" opacity="0.8"/>
<circle cx="301" cy="69" r="9" fill="rgb(186,225,10)" opacity="0.8"/>
<circle cx="75" cy="248" r="5" fill="rgb(207,46,223)" opacity="0.8"/>
<circle cx="114" cy="93" r="8" fill="rgb(28,128,56)" opacity="0.8"/>
<circle cx="273" cy="308" r="16" fill="rgb(137,249,178)" opacity="0.8"/>
<circle cx="23" cy="110" r="3" fill="rgb(135,221,104)" opacity="0.8"/>
<circle cx="323" cy="300" r="16" fill="rgb(249,130,7)" opacity="0.8"/>
<circle cx="26" cy="256" r="16" fill="rgb(125,215,146)" opacity="0.8"/>
<circle cx="262" cy="253" r="4" fill="rgb(217,206,48)" opacity="0.8"/>
<circle cx="307" cy="14" r="15" fill="rgb(16,180,17)" opacity="0.8"/>
<circle cx="168" cy="228" r="5" fill="rgb(113,154,77)" opacity="0.8"/>
<circle cx="333" cy="365" r="18" fill="rgb(58,120,68)" opacity="0.8"/>
<circle cx="182" cy="139" r="9" fill="rgb(52,198,27)" opacity="0.8"/>
<circle cx="379" cy="350" r="19" fill="rgb(8,172,250)" opacity="0.8"/>
<circle cx="62" cy="5" r="9" fill="rgb(195,198,75)" opacity="0.8"/>
<circle cx="174" cy="56" r="20" fill="rgb(115,180,126)" opacity="0.8"/>
<circle cx="309" cy="31" r="15" fill="rgb(133,11,222)" opacity="0.8"/>
<circle cx="238" cy="15" r="15" fill="rgb(167,220,145)" opacity="0.8"/>
</svg>