<svg xmlns="http://www.w3.org/2000/svg" viewBox="0 0 400 400" width="400" height="400">
<rect width="400" height="400" fill="#ced2b2"/>
<circle cx="177" cy="28" r="10" fill="rgb(227,6,105)" opacity="0.8"/>
<circle cx="295" cy="165" r="3" fill="rgb(107,158,77)" opacity="0.8"/>
<circle cx="300" cy="36" r="15" fill="rgb(15,157,1)" opacity="0.8"/>
<circle cx="139" cy="25" r="12" fill="rgb(4,20,134)" opacity="0.8"/>
<circle cx="147" cy="46" r="5" fill="rgb(197,4,230)" opacity="0.8"/>
<circle cx="193" cy="250" r="14" fill="rgb(166,206,54)" opacity="0.8"/>
<circle cx="268" cy="210" r="8" fill="rgb(235,130,218)" opacity="0.8"/>
<circle cx="50" cy="97" r="5" fill="rgb(194,103,84)" opacity="0.8"/>
<circle cx="66" cy="184" r="5" fill="rgb(3,43,31)" opacity="0.8"/>
<circle cx="260" cy="247" r="13" fill="rgb(188,73,123)" opacity="0.8"/>
<circle cx="17" cy="200" r="5" fill="rgb(22,249,234)" opacity="0.8"/>
<circle cx="227" cy="40" r="13" fill="rgb(193,25,127)" opacity="0.8"/>
<circle cx="160" cy="208" r="17" fill="rgb(88,0,198)" opacity="0.8"/>
<circle cx="236" cy="310" r="10" fill="rgb(32,251,52)" opacity="0.8"/>
<circle cx="332" cy="183" r="17" fill="rgb(5,108,139)" opacity="0.8"/>
<circle cx="274" cy="299" r="18" fill="rgb(66,155,133)" opacity="0.8"/>
<circle cx="84" cy="43" r="19" fill="rgb(61,93,200)" opacity="0.8"/>
<circle cx="33" cy="142" r="3" fill="rgb(26,195,73)" opacity="0.8"/>
<circle cx="91" cy="362" r="20" fill="rgb(180,131,41)" opacity="0.8"/>
<circle cx="72" cy="246" r="14" fill="rgb(15,15,93)" opacity="0.8"/>
<circle cx="206" cy="13" r="13" fill="rgb(129,194,182)" opacity="0.8"/>
<circle cx="214" cy="98" r="10" fill="rgb(2,237,7)" opacity="0.8"/>
<circle cx="331" cy="343" r="12" fill="rgb(88,30,241)" opacity="0.8"/>
<circle cx="224" cy="200" r="7" fill="rgb(132,118,244)" opacity="0.8"/>
<circle cx="164" cy="377" r="4" fill="rgb(254,45,50)" opacity="0.8"/>
<circle cx="97" cy="147" r="9" fill="rgb(87,228,86)" opacity="0.8"/>
<circle cx="22" cy="320" r="15" fill="rgb(168,19,128)" opacity="0.8"/>
<circle cx="187" cy="157" r="9" fill="rgb(42,111,166)" opacity="0.8"/>
<circle cx="98" cy="149" r="17" fill="rgb(228,97,196)" opacity="0.8"/>
<circle cx="236" cy="279" r="19" fill="rgb(45,220,176)" opacity="0.8"/>
<circle cx="342" cy="70" r="20" fill="rgb(237,252,28)" opacity="0.8"/>
<circle cx="248" cy="356" r="5" fill="rgb(199,18,226)" opacity="0.8"/>
<circle cx="197" cy="267" r="12" fill="rgb(73,137,210)" opacity="0.8"/>
<circle cx="258" cy="263" r="16" fill="rgb(237,185,215)" opacity="0.8"/>
<circle cx="78" cy="77" r="12" fill="rgb(154,101,32)" opacity="0.8"/>
<circle cx="17" cy="239" r="17" fill="rgb(64,103,130)" opacity="0.8"/>
<circle cx="56" cy="45" r="7" fill="rgb(162,48,78)" opacity="0.8"/>
<circle cx="343" cy="8" r="9" fill="rgb(98,192,222)" opacity="0.8"/>
<circle cx="1" cy="87" r="5" fill="rgb(98,106,194)" opacity="0.8"/>
<circle cx="197" cy="358" r="20" fill="rgb(17,194,163)" opacity="0.8"/>
<circle cx="258" cy="320" r="5" fill="rgb(148,110,250)" opacity="0.8"/>
<circle cx="146" cy="287" r="20" fill="rgb(34,121,49)" opacity="0.8"/>
<circle cx="6" cy="176" r="8" fill="rgb(48,39,84)" opacity="0.8"/>
<circle cx="366" cy="233" r="19" fill="rgb(208,250,194)" opacity="0.8"/>
<circle cx="357" cy="336" r="16" fill="rgb(212,84,80)" opacity="0.8"/>
<circle cx="135" cy="266" r="3" fill="rgb(36,86,71)" opacity="0.8"/>
<circle cx="260" cy="378" r="14" fill="rgb(105,66,44)" opacity="0.8"/>
<circle cx="368" cy="311" r="14" fill="rgb(207,198,201)" opacity="0.8"/>
<circle cx="87" cy="112" r="12" fill="rgb(240,50,4)" opacity="0.8"/>
<circle cx="210" cy="91" r="3" fill="rgb(238,110,11)" opacity="0.8"/>
<circle cx="342" cy="303" r="18" fill="rgb(81,171,141)" opacity="0.8"/>
<circle cx="317" cy="293" r="11" fill="rgb(85,114,184)" opacity="0.8"/>
<circle cx="264" cy="128" r="7" fill="rgb(97,254,100)" opacity="0.8"/>
<circle cx="257" cy="9" r="4" fill="rgb(36,126,173)" opacity="0.8"/>
<circle cx="218" cy="323" r="18" fill="rgb(172,77,248)" opacity="0.8"/>
<circle cx="33" cy="297" r="13" fill="rgb(84,209,124)" opacity="0.8"/>
<circle cx="264" cy="29" r="19" fill="rgb(212,26,39)" opacity="0.8"/>
<circle cx="291" cy="271" r="5" fill="rgb(213,191,193)" opacity="0.8"/>
<circle cx="237" cy="201" r="13" fill="rgb(155,41,78)" opacity="0.8"/>
<circle cx="247" cy="182" r="5" fill="rgb(28,245,197)" opacity="0.8"/>
<circle cx="358" cy="124" r="13" fill="rgb(207,220,67)" opacity="0.8"/>
<circle cx="232" cy="86" r="13" fill="rgb(92,60,110)" opacity="0.8"/>
<circle cx="260" cy="167" r="18" fill="rgb(222,36,229)" opacity="0.8"/>
<circle cx="343" cy="203" r="15" fill="rgb(14,9,174)" opacity="0.8"/>
<circle cx="275" cy="147" r="14" fill="rgb(200,119,1)" opacity="0.8"/>
<circle cx="377" cy="375" r="4" fill="rgb(32,209,97)" opacity="0.8"/>
<circle cx="233" cy="208" r="15" fill="rgb(227,141,225)" opacity="0.8"/>
<circle cx="72" cy="2" r="12" fill="rgb(66,178,23)" opacity="0.8"/>
<circle cx="119" cy="168" r="19" fill="rgb(211,199,225)" opacity="0.8"/>
<circle cx="169" cy="275" r="3" fill="rgb(202,203,67)" opacity="0.8"/>
<circle cx="262" cy="197" r="19" fill="rgb(196,205,138)" opacity="0.8"/>
<circle cx="53" cy="373" r="18" fill="rgb(228,131,33)" opacity="0.8"/>
<circle cx="273" cy="68" r="10" fill="rgb(243,170,61)" opacity="0.8"/>
<circle cx="254" cy="338" r="19" fill="rgb(97,163,171)" opacity="0.8"/>
<circle cx="16" cy="373" r="16" fill="rgb(165,147,250)" opacity="0.8"/>
<circle cx="97" cy="377" r="6" fill="rgb(1,193,251)" opacity="0.8"/>
<circle cx="31" cy="58" r="16" fill="rgb(1,251,122)" opacity="0.8"/>
<circle cx="67" cy="298" r="10" fill="rgb(249,171,178)" opacity="0.8"/>
<circle cx="257" cy="151" r="6" fill="rgb(3,98,76)" opacity="0.8"/>
<circle cx="20" cy="265" r="13" fill="rgb(204,72,23)" opacity="0.8"/>
<circle cx="120" cy="357" r="15" fill="rgb(191,239,46)" opacity="0.8"/>
<circle cx="261" cy="141" r="19" fill="rgb(37,160,12)" opacity="0.8"/>
<circle cx="47" cy="55" r="14" fill="rgb(109,63,143)" opacity="0.8"/>
<circle cx="225" cy="1" r="18" fill="rgb(232,84,206)" opacity="0.8"/>
<circle cx="263" cy="98" r="10" fill="rgb(187,49,50)" opacity="0.8"/>
<circle cx="149" cy="132" r="17" fill="rgb(229,101,51)" opacity="0.8"/>
<circle cx="85" cy="223" r="19" fill="rgb(104,139,39)" opacity="0.8"/>
<circle cx="380" cy="324" r="7" fill="rgb(234,224,65)" opacity="0.8"/>
<circle cx="202" cy="30" r="13" fill="rgb(68,132,95)" opacity="0.8"/>
<circle cx="322" cy="328" r="20" fill="rgb(211,73,152)" opacity="0.8"/>
<circle cx="339" cy="106" r="10" fill="rgb(204,18,137)" opacity="0.8"/>
<circle cx="163" cy="181" r="17" fill="rgb(181,188,38)" opacity="0.8"/>
<circle cx="372" cy="22" r="9" fill="rgb(193,237,166)" opacity="0.8"/>
<circle cx="145" cy="150" r="8" fill="rgb(118,78,209)" opacity="0.8"/>
<circle cx="22" cy="290" r="17" fill="rgb(197,109,205)" opacity="0.8"/>
<circle cx="268" cy="174" r="9" fill="rgb(239,188,123)" opacity="0.8"/>
<circle cx="112" cy="278" r="9" fill="rgb(255,66,108)" opacity="0.8"/>
<circle cx="380" cy="257" r="13" fill="rgb(251,147,232)" opacity="0.8"/>
<circle cx="375" cy="28" r="6" fill="rgb(60,246,141)" opacity="0.8"/>
<circle cx="0" cy="193" r="19" fill="rgb(223,181,232)" opacity="0.8"/>
<circle cx="42" cy="107" r="9" fill="rgb(49,17,62)" opacity="0.8"/>
<circle cx="337" cy="241" r="10" fill="rgb(45,42,116)" opacity="0.8"/>
<circle cx="196" cy="118" r="10" fill="rgb(232,218,219)" opacity="0.8"/>
<circle cx="60" cy="101" r="18" fill="rgb(198,57,43)" opacity="0.8"/>
<circle cx="351" cy="183" r="17" fill="rgb(55,134,123)" opacity="0.8"/>
<circle cx="297" cy="224" r="5" fill="rgb(74,73,143)" opacity="0.8"/>
<circle cx="333" cy="256" r="11" fill="rgb(161,218,39)" opacity="0.8"/>
<circle cx="261" cy="241" r="17" fill="rgb(16,34,118)" opacity="0.8"/>
<circle cx="139" cy="200" r="12" fill="rgb(88,38,69)" opacity="0.8"/>
<circle cx="133" cy="143" r="6" fill="rgb(126,197,200)" opacity="0.8"/>
<circle cx="288" cy="252" r="14" fill="rgb(247,98,183)" opacity="0.8"/>
<circle cx="309" cy="34" r="10" fill="rgb(205,23,53)" opacity="0.8"/>
<circle cx="342" cy="82" r="20" fill="rgb(200,132,65)" opacity="0.8"/>
<circle cx="148" cy="81" r="11" fill="rgb(245,248,129)" opacity="0.8"/>
<circle cx="365" cy="217" r="17" fill="rgb(50,57,107)" opacity="0.8"/>
<circle cx="363" cy="258" r="18" fill="rgb(138,123,47)" opacity="0.8"/>
<circle cx="377" cy="285" r="16" fill="rgb(127,152,184)" opacity="0.8"/>
<circle cx="272" cy="335" r="16" fill="rgb(117,71,29)" opacity="0.8"/>
<circle cx="113" cy="65" r="4" fill="rgb(183,74,62)" opacity="0.8"/>
<circle cx="346" cy="221" r="18" fill="rgb(145,144,115)" opacity="0.8"/>
<circle cx="275" cy="247" r="10" fill="rgb(91,51,13)" opacity="0.8"/>
<circle cx="349" cy="159" r="13" fill="rgb(122,146,40)" opacity="0.8"/>
<circle cx="32" cy="171" r="7" fill="rgb(138,53,138)" opacity="0.8"/>
<circle cx="298" cy="113" r="6" fill="rgb(52,148,48)" opacity="0.8"/>
<circle cx="373" cy="32" r="13" fill="rgb(121,40,8)" opacity="0.8"/>
<circle cx="27" cy="61" r="9" fill="rgb(236,72,62)" opacity="0.8"/>
<circle cx="109" cy="145" r="7" fill="rgb(52,8,45)" opacity="0.8"/>
<circle cx="205" cy="11" r="4" fill="rgb(3,34,199)" opacity="0.8"/>
<circle cx="373" cy="306" r="6" fill="rgb(15,6,82)" opacity="0.8"/>
<circle cx="252" cy="2" r="11" fill="rgb(191,149,105)" opacity="0.8"/>
<circle cx="143" cy="323" r="9" fill="rgb(66,42,180)" opacity="0.8"/>
<circle cx="15" cy="4" r="20" fill="rgb(234,107,234)" opacity="0.8"/>
<circle cx="73" cy="163" r="20" fill="rgb(108,59,46)" opacity="0.8"/>
<circle cx="91" cy="196" r="15" fill="rgb(35,175,135)" opacity="0.8"/>
<circle cx="200" cy="313" r="3" fill="rgb(236,60,254)" opacity="0.8"/>
<circle cx="329" cy="93" r="6" fill="rgb(209,59,221)" opacity="0.8"/>
<circle cx="281" cy="367" r="15" fill="rgb(72,252,25)" opacity="0.8"/>
<circle cx="62" cy="187" r="14" fill="rgb(98,75,215)" opacity="0.8"/>
<circle cx="112" cy="268" r="11" fill="rgb(2,59,196)" opacity="0.8"/>
<circle cx="29" cy="247" r="7" fill="rgb(68,79,175)" opacity="0.8"/>
<circle cx="315" cy="252" r="3" fill="rgb(197,86,103)" opacity="0.8"/>
<circle cx="296" cy="305" r="7" fill="rgb(222,105,149)" opacity="0.8"/>
<circle cx="126" cy="171" r="15" fill="rgb(151,226,172)" opacity="0.8"/>
<circle cx="282" cy="93" r="7" fill="rgb(49,150,205)" opacity="0.8"/>
<circle cx="376" cy="377" r="19" fill="rgb(175,160,81)" opacity="0.8"/>
</svg>