<svg xmlns="http://www.w3.org/2000/svg" viewBox="0 0 400 400" width="400" height="400">
<rect width="400" height="400" fill="#ab6515"/>
<circle cx="17" cy="170" r="9" fill="rgb(51,123,228)" opacity="0.8"/>
<circle cx="312" cy="276" r="10" fill="rgb(150,192,198)" opacity="0.8"/>
<circle cx="146" cy="132" r="10" fill="rgb(133,53,179)" opacity="0.8"/>
<circle cx="209" cy="24" r="8" fill="rgb(227,147,241)" opacity="0.8"/>
<circle cx="334" cy="242" r="4" fill="rgb(61,253,80)" opacity="0.8"/>
<circle cx="308" cy="97" r="19" fill="rgb(204,209,254)" opacity="0.8"/>
<circle cx="86" cy="223" r="4" fill="rgb(52,149,52)" opacity="0.8"/>
<circle cx="229" cy="195" r="19" fill="rgb(54,151,90)" opacity="0.8"/>
<circle cx="214" cy="106" r="12" fill="rgb(238,107,225)" opacity="0.8"/>
<circle cx="101" cy="292" r="9" fill="rgb(115,63,176)" opacity="0.8"/>
<circle cx="10" cy="76" r="6" fill="rgb(244,27,42)" opacity="0.8"/>
<circle cx="262" cy="323" r="16" fill="rgb(17,21,199)" opacity="0.8"/>
<circle cx="376" cy="212" r="11" fill="rgb(178,150,226)" opacity="0.8"/>
<circle cx="345" cy="67" r="18" fill="rgb(12,228,219)" opacity="0.8"/>
<circle cx="239" cy="124" r="11" fill="rgb(168,251,11)" opacity="0.8"/>
<circle cx="288" cy="338" r="3" fill="rgb(132,116,243)" opacity="0.8"/>
<circle cx="208" cy="356" r="13" fill="rgb(143,99,198)" opacity="0.8"/>
<circle cx="25" cy="252" r="10" fill="rgb(59,45,141)" opacity="0.8"/>
<circle cx="95" cy="285" r="12" fill="rgb(29,191,79)" opacity="0.8"/>
<circle cx="79" cy="183" r="12" fill="rgb(210,149,123)" opacity="0.8"/>
<circle cx="291" cy="167" r="5" fill="rgb(6,228,154)" opacity="0.8"/>
<circle cx="33" cy="215" r="7" fill="rgb(149,191,141)" opacity="0.8"/>
<circle cx="111" cy="269" r="18" fill="rgb(195,167,86)" opacity="0.8"/>
<circle cx="266" cy="238" r="20" fill="rgb(48,69,224)" opacity="0.8"/>
<circle cx="220" cy="1" r="20" fill="rgb(134,120,210)" opacity="0.8"/>
<circle cx="323" cy="377" r="11" fill="rgb(84,142,171)" opacity="0.8"/>
<circle cx="187" cy="233" r="4" fill="rgb(151,65,175)" opacity="0.8"/>
<circle cx="69" cy="378" r="11" fill="rgb(208,82,15)" opacity="0.8"/>
<circle cx="325" cy="184" r="15" fill="rgb(131,76,204)" opacity="0.8"/>
<circle cx="61" cy="5" r="8" fill="rgb(44,15,74)" opacity="0.8"/>
</svg>