<svg xmlns="http://www.w3.org/2000/svg" viewBox="0 0 400 400" width="400" height="400">
<rect width="400" height="400" fill="#77d949"/>
<circle cx="358" cy="292" r="20" fill="rgb(20,17,160)" opacity="0.8"/>
<circle cx="163" cy="23" r="14" fill="rgb(141,237,203)" opacity="0.8"/>
<circle cx="233" cy="161" r="4" fill="rgb(247,94,4)" opacity="0.8"/>
<circle cx="93" cy="101" r="4" fill="rgb(107,7,170)" opacity="0.8"/>
<circle cx="16" cy="241" r="8" fill="rgb(55,240,210)" opacity="0.8"/>
<circle cx="84" cy="179" r="14" fill="rgb(96,184,241)" opacity="0.8"/>
<circle cx="191" cy="25" r="17" fill="rgb(59,127,143)" opacity="0.8"/>
<circle cx="250" cy="177" r="20" fill="rgb(117,166,146)" opacity="0.8"/>
<circle cx="63" cy="107" r="9" fill="rgb(255,139,230)" opacity="0.8"/>
<circle cx="243" cy="334" r="7" fill="rgb(82,125,78)" opacity="0.8"/>
<circle cx="190" cy="321" r="13" fill="rgb(179,156,181)" opacity="0.8"/>
<circle cx="199" cy="91" r="9" fill="rgb(114,122,164)" opacity="0.8"/>
<circle cx="137" cy="110" r="7" fill="rgb(219,82,49)" opacity="0.8"/>
<circle cx="135" cy="372" r="12" fill="rgb(131,71,158)" opacity="0.8"/>
<circle cx="308" cy="290" r="14" fill="rgb(15,42,161)" opacity="0.8"/>
<circle cx="112" cy="41" r="12" fill="rgb(45,40,40)" opacity="0.8"/>
<circle cx="59" cy="237" r="11" fill="rgb(200,23,185)" opacity="0.8"/>
<circle cx="355" cy="213" r="10" fill="rgb(69,38,236)" opacity="0.8"/>
<circle cx="201" cy="188" r="7" fill="rgb(196,190,34)" opacity="0.8"/>
<circle cx="306" cy="373" r="13" fill="rgb(185,174,195)" opacity="0.8"/>
<circle cx="200" cy="172" r="15" fill="rgb(236,253,232)" opacity="0.8"/>
<circle cx="69" cy="20" r="11" fill="rgb(197,79,23)" opacity="0.8"/>
<circle cx="215" cy="84" r="7" fill="rgb(118,13,248)" opacity="0.8"/>
<circle cx="319" cy="87" r="11" fill="rgb(89,15,192)" opacity="0.8"/>
<circle cx="376" cy="48" r="14" fill="rgb(163,139,140)" opacity="0.8"/>
<circle cx="203" cy="375" r="4" fill="rgb(163,83,210)" opacity="0.8"/>
<circle cx="152" cy="190" r="8" fill="rgb(200,172,38)" opacity="0.8"/>
<circle cx="124" cy="288" r="10" fill="rgb(62,98,243)" opacity="0.8"/>
<circle cx="176" cy="20" r="17" fill="rgb(194,49,99)" opacity="0.8"/>
<circle cx="65" cy="139" r="20" fill="rgb(170,35,99)" opacity="0.8"/>
<circle cx="92" cy="245" r="14" fill="rgb(226,166,202)" opacity="0.8"/>
<circle cx="20" cy="81" r="5" fill="rgb(78,141,40)" opacity="0.8"/>
<circle cx="171" cy="279" r="9" fill="rgb(65,23,187)" opacity="0.8"/>
<circle cx="214" cy="26" r="4" fill="rgb(9,189,50)" opacity="0.8"/>
<circle cx="204" cy="148" r="17" fill="rgb(78,183,188)" opacity="0.8"/>
<circle cx="140" cy="122" r="17" fill="rgb(255,93,223)" opacity="0.8"/>
<circle cx="305" cy="112" r="15" fill="rgb(39,190,114)" opacity="0.8"/>
<circle cx="168" cy="27" r="18" fill="rgb(92,195,46)" opacity="0.8"/>
<circle cx="320" cy="79" r="7" fill="rgb(46,34,37)" opacity="0.8"/>
<circle cx="43" cy="302" r="13" fill="rgb(52,163,157)" opacity="0.8"/>
<circle cx="356" cy="374" r="20" fill="rgb(90,168,10)" opacity="0.8"/>
<circle cx="258" cy="132" r="19" fill="rgb(100,180,36)" opacity="0.8"/>
<circle cx="332" cy="52" r="6" fill="rgb(150,122,115)" opacity="0.8"/>
<circle cx="262" cy="356" r="4" fill="rgb(154,167,247)" opacity="0.8"/>
<circle cx="128" cy="366" r="17" fill="rgb(85,193,224)" opacity="0.8"/>
<circle cx="343" cy="255" r="15" fill="rgb(121,227,156)" opacity="0.8"/>
<circle cx="309" cy="309" r="3" fill="rgb(94,228,235)" opacity="0.8"/>
<circle cx="180" cy="360" r="14" fill="rgb(49,75,36)" opacity="0.8"/>
<circle cx="318" cy="159" r="8" fill="rgb(225,238,138)" opacity="0.8"/>
<circle cx="218" cy="153" r="15" fill="rgb(251,143,244)" opacity="0.8"/>
<circle cx="303" cy="99" r="7" fill="rgb(189,193,127)" opacity="0.8"/>
<circle cx="70" cy="358" r="14" fill="rgb(15,14,106)" opacity="0.8"/>
<circle cx="22" cy="246" r="5" fill="rgb(206,233,136)" opacity="0.8"/>
<circle cx="226" cy="250" r="11" fill="rgb(113,111,186)" opacity="0.8"/>
<circle cx="37" cy="339" r="3" fill="rgb(157,244,137)" opacity="0.8"/>
<circle cx="356" cy="256" r="3" fill="rgb(199,72,8)" opacity="0.8"/>
<circle cx="90" cy="217" r="4" fill="rgb(232,215,220)" opacity="0.8"/>
<circle cx="90" cy="331" r="17" fill="rgb(228,89,115)" opacity="0.8"/>
<circle cx="157" cy="136" r="7" fill="rgb(253,141,184)" opacity="0.8"/>
<circle cx="139" cy="187" r="4" fill="rgb(105,16,16)" opacity="0.8"/>
<circle cx="143" cy="306" r="12" fill="rgb(9,117,234)" opacity="0.8"/>
<circle cx="195" cy="267" r="3" fill="rgb(136,185,80)" opacity="0.8"/>
<circle cx="74" cy="225" r="15" fill="rgb(134,101,133)" opacity="0.8"/>
<circle cx="162" cy="28" r="11" fill="rgb(160,131,70)" opacity="0.8"/>
<circle cx="265" cy="237" r="3" fill="rgb(233,250,77)" opacity="0.8"/>
<circle cx="303" cy="69" r="10" fill="rgb(179,137,71)" opacity="0.8"/>
<circle cx="361" cy="49" r="17" fill="rgb(20,82,92)" opacity="0.8"/>
<circle cx="337" cy="296" r="7" fill="rgb(48,254,80)" opacity="0.8"/>
<circle cx="194" cy="289" r="5" fill="rgb(44,229,227)" opacity="0.8"/>
<circle cx="132" cy="213" r="11" fill="rgb(203,51,158)" opacity="0.8"/>
<circle cx="107" cy="13" r="8" fill="rgb(180,117,5)" opacity="0.8"/>
<circle cx="224" cy="330" r="18" fill="rgb(197,15,44)" opacity="0.8"/>
<circle cx="158" cy="107" r="5" fill="rgb(179,132,176)" opacity="0.8"/>
<circle cx="100" cy="19" r="8" fill="rgb(69,110,5)" opacity="0.8"/>
<circle cx="222" cy="350" r="8" fill="rgb(219,242,73)" opacity="0.8"/>
<circle cx="84" cy="272" r="20" fill="rgb(56,4,126)" opacity="0.8"/>
<circle cx="89" cy="218" r="15" fill="rgb(157,206,75)" opacity="0.8"/>
</svg>