<svg xmlns="http://www.w3.org/2000/svg" viewBox="0 0 400 400" width="400" height="400">
<rect width="400" height="400" fill="#9917a7"/>
<circle cx="330" cy="107" r="11" fill="rgb(234,34,39)" opacity="0.8"/>
<circle cx="337" cy="361" r="10" fill="rgb(4,193,192)" opacity="0.8"/>
<circle cx="78" cy="84" r="6" fill="rgb(80,202,30)" opacity="0.8"/>
<circle cx="87" cy="245" r="15" fill="rgb(47,255,237)" opacity="0.8"/>
<circle cx="18" cy="200" r="14" fill="rgb(158,41,167)" opacity="0.8"/>
<circle cx="349" cy="139" r="20" fill="rgb(81,236,149)" opacity="0.8"/>
<circle cx="13" cy="44" r="4" fill="rgb(141,7,11)" opacity="0.8"/>
<circle cx="272" cy="180" r="13" fill="rgb(204,188,108)" opacity="0.8"/>
<circle cx="30" cy="320" r="14" fill="rgb(17,47,182)" opacity="0.8"/>
<circle cx="300" cy="344" r="11" fill="rgb(148,94,92)" opacity="0.8"/>
<circle cx="166" cy="302" r="16" fill="rgb(229,28,29)" opacity="0.8"/>
<circle cx="131" cy="133" r="8" fill="rgb(187,135,95)" opacity="0.8"/>
<circle cx="185" cy="292" r="16" fill="rgb(119,59,141)" opacity="0.8"/>
<circle cx="66" cy="6" r="7" fill="rgb(145,140,77)" opacity="0.8"/>
<circle cx="169" cy="315" r="4" fill="rgb(79,204,71)" opacity="0.8"/>
<circle cx="32" cy="210" r="9" fill="rgb(21,101,115)" opacity="0.8"/>
<circle cx="204" cy="294" r="18" fill="rgb(118,85,95)" opacity="0.8"/>
<circle cx="192" cy="112" r="18" fill="rgb(124,121,75)" opacity="0.8"/>
<circle cx="343" cy="48" r="6" fill="rgb(149,20,21)" opacity="0.8"/>
<circle cx="304" cy="110" r="6" fill="rgb(41,73,252)" opacity="0.8"/>
<circle cx="348" cy="11" r="8" fill="rgb(30,79,62)" opacity="0.8"/>
<circle cx="250" cy="139" r="17" fill="rgb(47,201,95)" opacity="0.8"/>
<circle cx="212" cy="114" r="20" fill="rgb(26,134,201)" opacity="0.8"/>
<circle cx="176" cy="119" r="14" fill="rgb(213,134,112)" opacity="0.8"/>
<circle cx="329" cy="304" r="19" fill="rgb(212,104,142)" opacity="0.8"/>
<circle cx="311" cy="78" r="13" fill="rgb(162,207,92)" opacity="0.8"/>
<circle cx="200" cy="246" r="3" fill="rgb(220,154,21)" opacity="0.8"/>
<circle cx="261" cy="76" r="5" fill="rgb(205,197,29)" opacity="0.8"/>
<circle cx="264" cy="145" r="11" fill="rgb(159,132,220)" opacity="0.8"/>
<circle cx="373" cy="209" r="3" fill="rgb(220,85,91)" opacity="0.8"/>
<circle cx="306" cy="71" r="3" fill="rgb(6,2,115)" opacity="0.8"/>
<circle cx="139" cy="270" r="4" fill="rgb(50,177,37)" opacity="0.8"/>
<circle cx="51" cy="55" r="20" fill="rgb(64,213,45)" opacity="0.8"/>
<circle cx="319" cy="107" r="20" fill="rgb(2,254,170)" opacity="0.8"/>
<circle cx="232" cy="101" r="5" fill="rgb(110,164,119)" opacity="0.8"/>
<circle cx="238" cy="201" r="17" fill="rgb(250,3,250)" opacity="0.8"/>
<circle cx="377" cy="145" r="13" fill="rgb(125,63,168)" opacity="0.8"/>
<circle cx="171" cy="336" r="5" fill="rgb(183,194,158)" opacity="0.8"/>
<circle cx="119" cy="195" r="5" fill="rgb(197,118,6)" opacity="0.8"/>
<circle cx="64" cy="230" r="12" fill="rgb(83,156,84)" opacity="0.8"/>
<circle cx="70" cy="115" r="12" fill="rgb(53,130,78)" opacity="0.8"/>
<circle cx="277" cy="86" r="14" fill="rgb(109,111,76)" opacity="0.8"/>
<circle cx="119" cy="133" r="11" fill="rgb(139,235,169)" opacity="0.8"/>
<circle cx="351" cy="237" r="10" fill="rgb(61,92,154)" opacity="0.8"/>
<circle cx="156" cy="68" r="5" fill="rgb(51,80,32)" opacity="0.8"/>
<circle cx="253" cy="83" r="10" fill="rgb(216,9,86)" opacity="0.8"/>
<circle cx="142" cy="185" r="19" fill="rgb(200,15,144)" opacity="0.8"/>
<circle cx="150" cy="273" r="10" fill="rgb(179,101,78)" opacity="0.8"/>
<circle cx="161" cy="215" r="19" fill="rgb(101,12,4)" opacity="0.8"/>
<circle cx="11" cy="5" r="12" fill="rgb(178,143,99)" opacity="0.8"/>
<circle cx="326" cy="69" r="20" fill="rgb(246,90,6)" opacity="0.8"/>
<circle cx="216" cy="206" r="17" fill="rgb(61,5,39)" opacity="0.8"/>
<circle cx="182" cy="336" r="15" fill="rgb(15,116,191)" opacity="0.8"/>
<circle cx="191" cy="4" r="13" fill="rgb(0,39,133)" opacity="0.8"/>
<circle cx="344" cy="84" r="16" fill="rgb(131,84,97)" opacity="0.8"/>
<circle cx="253" cy="213" r="8" fill="rgb(19,97,48)" opacity="0.8"/>
<circle cx="22" cy="256" r="9" fill="rgb(208,227,82)" opacity="0.8"/>
<circle cx="49" cy="191" r="3" fill="rgb(105,112,17)" opacity="0.8"/>
<circle cx="270" cy="345" r="14" fill="rgb(39,238,155)" opacity="0.8"/>
<circle cx="2" cy="126" r="8" fill="rgb(196,103,69)" opacity="0.8"/>
<circle cx="25" cy="283" r="4" fill="rgb(68,7,54)" opacity="0.8"/>
<circle cx="62" cy="141" r="9" fill="rgb(180,76,176)" opacity="0.8"/>
<circle cx="37" cy="223" r="16" fill="rgb(243,13,32)" opacity="0.8"/>
<circle cx="140" cy="356" r="7" fill="rgb(136,150,75)" opacity="0.8"/>
<circle cx="256" cy="254" r="15" fill="rgb(101,82,144)" opacity="0.8"/>
<circle cx="152" cy="2" r="8" fill="rgb(180,89,186)" opacity="0.8"/>
<circle cx="170" cy="310" r="7" fill="rgb(174,108,206)" opacity="0.8"/>
<circle cx="187" cy="35" r="10" fill="rgb(236,74,65)" opacity="0.8"/>
<circle cx="24" cy="297" r="20" fill="rgb(49,63,151)" opacity="0.8"/>
<circle cx="299" cy="329" r="16" fill="rgb(176,141,237)" opacity="0.8"/>
<circle cx="244" cy="195" r="9" fill="rgb(84,45,30)" opacity="0.8"/>
<circle cx="358" cy="220" r="4" fill="rgb(237,144,68)" opacity="0.8"/>
<circle cx="369" cy="57" r="12" fill="rgb(162,21,163)" opacity="0.8"/>
<circle cx="281" cy="88" r="10" fill="rgb(245,206,109)" opacity="0.8"/>
<circle cx="150" cy="176" r="20" fill="rgb(117,90,224)" opacity="0.8"/>
<circle cx="144" cy="344" r="14" fill="rgb(181,165,205)" opacity="0.8"/>
<circle cx="46" cy="56" r="6" fill="rgb(89,98,186)" opacity="0.8"/>
<circle cx="380" cy="327" r="18" fill="rgb(124,215,214)" opacity="0.8"/>
<circle cx="314" cy="228" r="14" fill="rgb(138,234,20)" opacity="0.8"/>
<circle cx="261" cy="274" r="19" fill="rgb(2,80,128)" opacity="0.8"/>
<circle cx="63" cy="125" r="19" fill="rgb(77,242,11)" opacity="0.8"/>
<circle cx="127" cy="24" r="9" fill="rgb(239,138,135)" opacity="0.8"/>
<circle cx="228" cy="350" r="6" fill="rgb(69,165,61)" opacity="0.8"/>
<circle cx="216" cy="118" r="14" fill="rgb(244,157,207)" opacity="0.8"/>
<circle cx="211" cy="123" r="17" fill="rgb(20,41,86)" opacity="0.8"/>
<circle cx="133" cy="88" r="4" fill="rgb(138,225,92)" opacity="0.8"/>
<circle cx="318" cy="138" r="14" fill="rgb(132,28,62)" opacity="0.8"/>
<circle cx="180" cy="267" r="3" fill="rgb(241,205,54)" opacity="0.8"/>
<circle cx="222" cy="89" r="11" fill="rgb(86,39,51)" opacity="0.8"/>
<circle cx="258" cy="96" r="15" fill="rgb(90,149,171)" opacity="0.8"/>
<circle cx="58" cy="353" r="4" fill="rgb(152,41,23)" opacity="0.8"/>
<circle cx="69" cy="297" r="18" fill="rgb(97,45,221)" opacity="0.8"/>
<circle cx="320" cy="292" r="12" fill="rgb(163,227,184)" opacity="0.8"/>
<circle cx="78" cy="4" r="8" fill="rgb(58,77,11)" opacity="0.8"/>
<circle cx="11" cy="340" r="8" fill="rgb(147,16,204)" opacity="0.8"/>
<circle cx="93" cy="236" r="13" fill="rgb(68,60,130)" opacity="0.8"/>
<circle cx="148" cy="96" r="6" fill="rgb(16,194,221)" opacity="0.8"/>
<circle cx="374" cy="302" r="20" fill="rgb(90,147,199)" opacity="0.8"/>
<circle cx="306" cy="235" r="17" fill="rgb(42,157,64)" opacity="0.8"/>
<circle cx="74" cy="126" r="5" fill="rgb(69,127,153)" opacity="0.8"/>
<circle cx="306" cy="363" r="11" fill="rgb(78,101,37)" opacity="0.8"/>
<circle cx="32" cy="4" r="3" fill="rgb(174,55,190)" opacity="0.8"/>
<circle cx="219" cy="278" r="7" fill="rgb(67,247,134)" opacity="0.8"/>
<circle cx="377" cy="278" r="12" fill="rgb(253,163,8)" opacity="0.8"/>
<circle cx="305" cy="363" r="6" fill="rgb(250,110,21)" opacity="0.8"/>
<circle cx="168" cy="213" r="9" fill="rgb(246,133,45)" opacity="0.8"/>
<circle cx="355" cy="52" r="20" fill="rgb(33,211,95)" opacity="0.8"/>
<circle cx="226" cy="33" r="11" fill="rgb(185,156,12)" opacity="0.8"/>
<circle cx="348" cy="302" r="5" fill="rgb(207,55,108)" opacity="0.8"/>
<circle cx="111" cy="220" r="3" fill="rgb(32,161,109)" opacity="0.8"/>
<circle cx="191" cy="8" r="16" fill="rgb(103,114,202)" opacity="0.8"/>
<circle cx="349" cy="131" r="10" fill="rgb(158,0,254)" opacity="0.8"/>
<circle cx="258" cy="90" r="18" fill="rgb(164,234,213)" opacity="0.8"/>
<circle cx="234" cy="227" r="20" fill="rgb(1,129,97)" opacity="0.8"/>
<circle cx="43" cy="127" r="17" fill="rgb(205,156,97)" opacity="0.8"/>
<circle cx="362" cy="108" r="18" fill="rgb(167,38,101)" opacity="0.8"/>
<circle cx="110" cy="236" r="16" fill="rgb(174,119,145)" opacity="0.8"/>
<circle cx="276" cy="323" r="19" fill="rgb(211,177,146)" opacity="0.8"/>
<circle cx="194" cy="221" r="20" fill="rgb(159,11,179)" opacity="0.8"/>
<circle cx="350" cy="324" r="7" fill="rgb(10,101,181)" opacity="0.8"/>
<circle cx="65" cy="257" r="6" fill="rgb(240,148,31)" opacity="0.8"/>
<circle cx="187" cy="60" r="10" fill="rgb(247,60,145)" opacity="0.8"/>
<circle cx="174" cy="92" r="12" fill="rgb(53,225,240)" opacity="0.8"/>
<circle cx="46" cy="221" r="12" fill="rgb(116,156,165)" opacity="0.8"/>
<circle cx="102" cy="160" r="17" fill="rgb(108,165,22)" opacity="0.8"/>
<circle cx="171" cy="14" r="3" fill="rgb(214,247,28)" opacity="0.8"/>
<circle cx="66" cy="195" r="5" fill="rgb(117,224,223)" opacity="0.8"/>
<circle cx="28" cy="203" r="17" fill="rgb(153,196,179)" opacity="0.8"/>
<circle cx="320" cy="344" r="15" fill="rgb(117,31,87)" opacity="0.8"/>
<circle cx="178" cy="230" r="14" fill="rgb(100,11,132)" opacity="0.8"/>
<circle cx="11" cy="98" r="20" fill="rgb(27,19,43)" opacity="0.8"/>
<circle cx="0" cy="116" r="15" fill="rgb(122,196,173)" opacity="0.8"/>
<circle cx="154" cy="149" r="8" fill="rgb(219,148,100)" opacity="0.8"/>
<circle cx="170" cy="186" r="4" fill="rgb(41,15,171)" opacity="0.8"/>
<circle cx="379" cy="340" r="14" fill="rgb(202,32,17)" opacity="0.8"/>
<circle cx="121" cy="119" r="12" fill="rgb(149,219,88)" opacity="0.8"/>
<circle cx="33" cy="43" r="18" fill="rgb(110,46,177)" opacity="0.8"/>
<circle cx="60" cy="238" r="8" fill="rgb(21,191,116)" opacity="0.8"/>
<circle cx="359" cy="323" r="15" fill="rgb(38,31,43)" opacity="0.8"/>
<circle cx="81" cy="253" r="10" fill="rgb(128,115,70)" opacity="0.8"/>
<circle cx="344" cy="46" r="10" fill="rgb(136,216,118)" opacity="0.8"/>
<circle cx="295" cy="368" r="5" fill="rgb(77,172,181)" opacity="0.8"/>
<circle cx="51" cy="262" r="11" fill="rgb(249,143,187)" opacity="0.8"/>
<circle cx="218" cy="342" r="9" fill="rgb(153,162,249)" opacity="0.8"/>
<circle cx="290" cy="342" r="4" fill="rgb(101,199,26)" opacity="0.8"/>
<circle cx="251" cy="37" r="8" fill="rgb(77,69,154)" opacity="0.8"/>
<circle cx="313" cy="268" r="17" fill="rgb(156,19,51)" opacity="0.8"/>
<circle cx="365" cy="73" r="3" fill="rgb(249,240,89)" opacity="0.8"/>
<circle cx="193" cy="239" r="4" fill="rgb(104,102,227)" opacity="0.8"/>
<circle cx="61" cy="351" r="8" fill="rgb(164,94,14)" opacity="0.8"/>
<circle cx="81" cy="247" r="18" fill="rgb(210,13,223)" opacity="0.8"/>
<circle cx="243" cy="334" r="8" fill="rgb(17,167,154)" opacity="0.8"/>
<circle cx="239" cy="116" r="3" fill="rgb(198,207,42)" opacity="0.8"/>
<circle cx="376" cy="49" r="17" fill="rgb(172,203,186)" opacity="0.8"/>
<circle cx="337" cy="33" r="11" fill="rgb(164,46,188)" opacity="0.8"/>
<circle cx="344" cy="360" r="3" fill="rgb(173,42,103)" opacity="0.8"/>
<circle cx="365" cy="65" r="4" fill="rgb(24,70,217)" opacity="0.8"/>
<circle cx="66" cy="374" r="15" fill="rgb(137,41,150)" opacity="0.8"/>
<circle cx="281" cy="306" r="15" fill="rgb(109,19,63)" opacity="0.8"/>
<circle cx="357" cy="282" r="6" fill="rgb(249,165,247)" opacity="0.8"/>
<circle cx="179" cy="69" r="11" fill="rgb(189,157,236)" opacity="0.8"/>
<circle cx="130" cy="346" r="15" fill="rgb(2,149,160)" opacity="0.8"/>
<circle cx="10" cy="150" r="15" fill="rgb(94,250,83)" opacity="0.8"/>
<circle cx="192" cy="23" r="11" fill="rgb(178,72,187)" opacity="0.8"/>
<circle cx="272" cy="249" r="6" fill="rgb(223,250,25)" opacity="0.8"/>
</svg>