<svg xmlns="http://www.w3.org/2000/svg" viewBox="0 0 400 400" width="400" height="400">
<rect width="400" height="400" fill="#124e6e"/>
<circle cx="343" cy="309" r="10" fill="rgb(42,210,222)" opacity="0.8"/>
<circle cx="211" cy="84" r="7" fill="rgb(223,104,54)" opacity="0.8"/>
<circle cx="374" cy="261" r="19" fill="rgb(182,137,74)" opacity="0.8"/>
<circle cx="200" cy="244" r="14" fill="rgb(39,7,146)" opacity="0.8"/>
<circle cx="361" cy="75" r="7" fill="rgb(88,13,97)" opacity="0.8"/>
<circle cx="221" cy="54" r="3" fill="rgb(14,32,26)" opacity="0.8"/>
<circle cx="309" cy="291" r="4" fill="rgb(144,100,116)" opacity="0.8"/>
<circle cx="32" cy="116" r="12" fill="rgb(152,121,104)" opacity="0.8"/>
<circle cx="174" cy="71" r="13" fill="rgb(45,246,243)" opacity="0.8"/>
<circle cx="194" cy="20" r="14" fill="rgb(91,38,112)" opacity="0.8"/>
<circle cx="373" cy="337" r="17" fill="rgb(141,12,55)" opacity="0.8"/>
<circle cx="23" cy="196" r="19" fill="rgb(58,171,106)" opacity="0.8"/>
<circle cx="127" cy="25" r="6" fill="rgb(248,226,180)" opacity="0.8"/>
<circle cx="18" cy="155" r="6" fill="rgb(0,94,44)" opacity="0.8"/>
<circle cx="317" cy="268" r="20" fill="rgb(9,230,121)" opacity="0.8"/>
<circle cx="11" cy="17" r="10" fill="rgb(109,131,205)" opacity="0.8"/>
<circle cx="162" cy="318" r="20" fill="rgb(109,136,135)" opacity="0.8"/>
<circle cx="252" cy="109" r="3" fill="rgb(65,228,26)" opacity="0.8"/>
<circle cx="322" cy="249" r="9" fill="rgb(221,86,9)" opacity="0.8"/>
<circle cx="122" cy="324" r="18" fill="rgb(69,72,125)" opacity="0.8"/>
<circle cx="300" cy="283" r="10" fill="rgb(47,120,213)" opacity="0.8"/>
<circle cx="164" cy="299" r="12" fill="rgb(226,195,68)" opacity="0.8"/>
<circle cx="279" cy="204" r="18" fill="rgb(240,6,174)" opacity="0.8"/>
<circle cx="348" cy="196" r="18" fill="rgb(35,136,53)" opacity="0.8"/>
<circle cx="165" cy="22" r="14" fill="rgb(193,41,43)" opacity="0.8"/>
<circle cx="236" cy="379" r="16" fill="rgb(180,50,76)" opacity="0.8"/>
<circle cx="154" cy="235" r="19" fill="rgb(146,233,247)" opacity="0.8"/>
<circle cx="205" cy="338" r="8" fill="rgb(136,43,250)" opacity="0.8"/>
<circle cx="116" cy="337" r="7" fill="rgb(230,47,226)" opacity="0.8"/>
<circle cx="366" cy="298" r="18" fill="rgb(191,217,205)" opacity="0.8"/>
<circle cx="350" cy="309" r="6" fill="rgb(82,37,168)" opacity="0.8"/>
<circle cx="380" cy="272" r="5" fill="rgb(253,160,212)" opacity="0.8"/>
<circle cx="104" cy="279" r="10" fill="rgb(156,232,154)" opacity="0.8"/>
<circle cx="96" cy="344" r="18" fill="rgb(68,5,115)" opacity="0.8"/>
<circle cx="264" cy="105" r="16" fill="rgb(218,162,201)" opacity="0.8"/>
<circle cx="333" cy="363" r="5" fill="rgb(70,111,135)" opacity="0.8"/>
<circle cx="345" cy="137" r="7" fill="rgb(31,207,10)" opacity="0.8"/>
<circle cx="308" cy="69" r="20" fill="rgb(244,113,78)" opacity="0.8"/>
<circle cx="96" cy="150" r="9" fill="rgb(129,237,51)" opacity="0.8"/>
<circle cx="99" cy="156" r="7" fill="rgb(27,120,92)" opacity="0.8"/>
<circle cx="156" cy="131" r="15" fill="rgb(105,151,129)" opacity="0.8"/>
<circle cx="279" cy="308" r="19" fill="rgb(128,96,232)" opacity="0.8"/>
<circle cx="318" cy="164" r="12" fill="rgb(187,118,159)" opacity="0.8"/>
<circle cx="26" cy="165" r="19" fill="rgb(210,6,168)" opacity="0.8"/>
<circle cx="251" cy="146" r="10" fill="rgb(42,9,231)" opacity="0.8"/>
<circle cx="172" cy="180" r="6" fill="rgb(149,232,136)" opacity="0.8"/>
<circle cx="24" cy="311" r="6" fill="rgb(41,97,61)" opacity="0.8"/>
<circle cx="313" cy="28" r="13" fill="rgb(26,19,18)" opacity="0.8"/>
<circle cx="231" cy="294" r="15" fill="rgb(223,101,34)" opacity="0.8"/>
<circle cx="375" cy="52" r="4" fill="rgb(210,177,13)" opacity="0.8"/>
<circle cx="35" cy="132" r="12" fill="rgb(28,18,152)" opacity="0.8"/>
<circle cx="131" cy="29" r="14" fill="rgb(19,245,36)" opacity="0.8"/>
<circle cx="271" cy="1" r="19" fill="rgb(126,210,252)" opacity="0.8"/>
<circle cx="80" cy="185" r="18" fill="rgb(40,181,106)" opacity="0.8"/>
<circle cx="270" cy="28" r="3" fill="rgb(5,246,49)" opacity="0.8"/>
<circle cx="203" cy="121" r="9" fill="rgb(129,178,81)" opacity="0.8"/>
<circle cx="63" cy="84" r="3" fill="rgb(161,179,127)" opacity="0.8"/>
<circle cx="104" cy="340" r="14" fill="rgb(85,190,172)" opacity="0.8"/>
<circle cx="121" cy="58" r="10" fill="rgb(153,67,100)" opacity="0.8"/>
<circle cx="255" cy="330" r="11" fill="rgb(51,216,66)" opacity="0.8"/>
<circle cx="349" cy="219" r="16" fill="rgb(114,236,155)" opacity="0.8"/>
<circle cx="125" cy="76" r="20" fill="rgb(42,19,106)" opacity="0.8"/>
<circle cx="210" cy="115" r="8" fill="rgb(133,166,105)" opacity="0.8"/>
<circle cx="270" cy="3" r="9" fill="rgb(178,250,138)" opacity="0.8"/>
<circle cx="378" cy="196" r="15" fill="rgb(57,219,116)" opacity="0.8"/>
<circle cx="138" cy="96" r="8" fill="rgb(61,191,13)" opacity="0.8"/>
<circle cx="145" cy="146" r="18" fill="rgb(211,221,98)" opacity="0.8"/>
<circle cx="138" cy="19" r="13" fill="rgb(41,147,116)" opacity="0.8"/>
<circle cx="13" cy="161" r="10" fill="rgb(120,165,62)" opacity="0.8"/>
<circle cx="218" cy="233" r="3" fill="rgb(222,220,90)" opacity="0.8"/>
<circle cx="350" cy="225" r="19" fill="rgb(13,91,113)" opacity="0.8"/>
<circle cx="88" cy="159" r="7" fill="rgb(251,22,170)" opacity="0.8"/>
<circle cx="215" cy="214" r="20" fill="rgb(208,164,181)" opacity="0.8"/>
<circle cx="310" cy="134" r="7" fill="rgb(81,11,210)" opacity="0.8"/>
<circle cx="183" cy="65" r="4" fill="rgb(244,18,215)" opacity="0.8"/>
<circle cx="324" cy="98" r="13" fill="rgb(153,75,236)" opacity="0.8"/>
<circle cx="164" cy="275" r="8" fill="rgb(247,170,131)" opacity="0.8"/>
<circle cx="107" cy="336" r="5" fill="rgb(71,80,201)" opacity="0.8"/>
<circle cx="119" cy="128" r="15" fill="rgb(61,253,175)" opacity="0.8"/>
<circle cx="337" cy="188" r="18" fill="rgb(223,201,145)" opacity="0.8"/>
<circle cx="367" cy="21" r="15" fill="rgb(216,98,241)" opacity="0.8"/>
<circle cx="32" cy="191" r="17" fill="rgb(216,2,60)" opacity="0.8"/>
<circle cx="180" cy="329" r="7" fill="rgb(89,60,249)" opacity="0.8"/>
<circle cx="378" cy="57" r="15" fill="rgb(217,156,100)" opacity="0.8"/>
<circle cx="348" cy="20" r="7" fill="rgb(210,254,91)" opacity="0.8"/>
<circle cx="50" cy="146" r="9" fill="rgb(83,177,28)" opacity="0.8"/>
<circle cx="70" cy="56" r="10" fill="rgb(35,20,204)" opacity="0.8"/>
<circle cx="104" cy="249" r="14" fill="rgb(67,242,13)" opacity="0.8"/>
<circle cx="318" cy="149" r="12" fill="rgb(37,134,60)" opacity="0.8"/>
<circle cx="321" cy="270" r="15" fill="rgb(63,4,195)" opacity="0.8"/>
<circle cx="184" cy="179" r="16" fill="rgb(36,67,233)" opacity="0.8"/>
<circle cx="377" cy="358" r="17" fill="rgb(187,37,111)" opacity="0.8"/>
<circle cx="96" cy="68" r="5" fill="rgb(137,110,117)" opacity="0.8"/>
<circle cx="233" cy="180" r="4" fill="rgb(120,10,182)" opacity="0.8"/>
<circle cx="10" cy="315" r="8" fill="rgb(208,132,121)" opacity="0.8"/>
<circle cx="302" cy="188" r="14" fill="rgb(107,192,14)" opacity="0.8"/>
<circle cx="322" cy="43" r="16" fill="rgb(124,168,90)" opacity="0.8"/>
<circle cx="291" cy="180" r="14" fill="rgb(209,65,57)" opacity="0.8"/>
<circle cx="73" cy="111" r="20" fill="rgb(144,175,224)" opacity="0.8"/>
<circle cx="289" cy="363" r="14" fill="rgb(222,199,111)" opacity="0.8"/>
<circle cx="127" cy="358" r="16" fill="rgb(73,157,250)" opacity="0.8"/>
<circle cx="199" cy="335" r="17" fill="rgb(205,42,26)" opacity="0.8"/>
<circle cx="217" cy="82" r="7" fill="rgb(157,75,182)" opacity="0.8"/>
<circle cx="109" cy="278" r="17" fill="rgb(112,70,111)" opacity="0.8"/>
<circle cx="377" cy="278" r="6" fill="rgb(12,227,219)" opacity="0.8"/>
<circle cx="351" cy="29" r="7" fill="rgb(138,248,79)" opacity="0.8"/>
<circle cx="82" cy="278" r="5" fill="rgb(160,193,174)" opacity="0.8"/>
<circle cx="53" cy="101" r="14" fill="rgb(116,115,16)" opacity="0.8"/>
<circle cx="35" cy="167" r="7" fill="rgb(69,61,72)" opacity="0.8"/>
<circle cx="170" cy="77" r="16" fill="rgb(55,206,142)" opacity="0.8"/>
<circle cx="364" cy="90" r="19" fill="rgb(99,185,230)" opacity="0.8"/>
<circle cx="211" cy="215" r="19" fill="rgb(137,9,250)" opacity="0.8"/>
<circle cx="343" cy="73" r="11" fill="rgb(143,95,196)" opacity="0.8"/>
<circle cx="91" cy="205" r="9" fill="rgb(107,32,57)" opacity="0.8"/>
<circle cx="134" cy="209" r="4" fill="rgb(242,28,89)" opacity="0.8"/>
<circle cx="307" cy="330" r="4" fill="rgb(124,113,42)" opacity="0.8"/>
<circle cx="372" cy="378" r="9" fill="rgb(160,235,167)" opacity="0.8"/>
<circle cx="328" cy="56" r="10" fill="rgb(54,89,25)" opacity="0.8"/>
<circle cx="10" cy="254" r="19" fill="rgb(166,3,156)" opacity="0.8"/>
<circle cx="292" cy="206" r="13" fill="rgb(242,127,95)" opacity="0.8"/>
<circle cx="165" cy="30" r="17" fill="rgb(167,36,85)" opacity="0.8"/>
<circle cx="61" cy="220" r="20" fill="rgb(78,188,21)" opacity="0.8"/>
<circle cx="335" cy="33" r="5" fill="rgb(217,66,188)" opacity="0.8"/>
<circle cx="378" cy="334" r="6" fill="rgb(98,138,135)" opacity="0.8"/>
<circle cx="347" cy="302" r="11" fill="rgb(130,228,154)" opacity="0.8"/>
<circle cx="168" cy="136" r="13" fill="rgb(148,201,143)" opacity="0.8"/>
<circle cx="25" cy="377" r="18" fill="rgb(77,239,109)" opacity="0.8"/>
<circle cx="141" cy="325" r="17" fill="rgb(40,240,251)" opacity="0.8"/>
<circle cx="191" cy="245" r="19" fill="rgb(243,121,124)" opacity="0.8"/>
<circle cx="328" cy="133" r="4" fill="rgb(248,9,111)" opacity="0.8"/>
<circle cx="43" cy="266" r="18" fill="rgb(140,51,191)" opacity="0.8"/>
<circle cx="101" cy="21" r="20" fill="rgb(28,160,128)" opacity="0.8"/>
<circle cx="321" cy="297" r="3" fill="rgb(105,8,32)" opacity="0.8"/>
<circle cx="333" cy="210" r="9" fill="rgb(207,127,139)" opacity="0.8"/>
<circle cx="129" cy="52" r="17" fill="rgb(175,223,155)" opacity="0.8"/>
</svg>