<svg xmlns="http://www.w3.org/2000/svg" viewBox="0 0 400 400" width="400" height="400">
<rect width="400" height="400" fill="#cda373"/>
<circle cx="271" cy="260" r="8" fill="rgb(125,129,209)" opacity="0.8"/>
<circle cx="307" cy="220" r="16" fill="rgb(171,55,53)" opacity="0.8"/>
<circle cx="233" cy="131" r="8" fill="rgb(216,10,164)" opacity="0.8"/>
<circle cx="331" cy="2" r="10" fill="rgb(241,177,251)" opacity="0.8"/>
<circle cx="49" cy="121" r="14" fill="rgb(190,199,233)" opacity="0.8"/>
<circle cx="228" cy="201" r="3" fill="rgb(9,79,224)" opacity="0.8"/>
<circle cx="274" cy="318" r="6" fill="rgb(24,147,140)" opacity="0.8"/>
<circle cx="167" cy="110" r="8" fill="rgb(255,254,9)" opacity="0.8"/>
<circle cx="236" cy="221" r="20" fill="rgb(46,203,167)" opacity="0.8"/>
<circle cx="343" cy="40" r="5" fill="rgb(34,160,204)" opacity="0.8"/>
<circle cx="103" cy="38" r="19" fill="rgb(211,143,11)" opacity="0.8"/>
<circle cx="100" cy="61" r="13" fill="rgb(206,58,198)" opacity="0.8"/>
<circle cx="82" cy="276" r="14" fill="rgb(66,50,13)" opacity="0.8"/>
<circle cx="250" cy="104" r="20" fill="rgb(162,188,113)" opacity="0.8"/>
<circle cx="77" cy="53" r="4" fill="rgb(50,236,51)" opacity="0.8"/>
<circle cx="347" cy="208" r="18" fill="rgb(43,124,181)" opacity="0.8"/>
<circle cx="289" cy="377" r="20" fill="rgb(194,17,85)" opacity="0.8"/>
<circle cx="45" cy="269" r="3" fill="rgb(96,24,74)" opacity="0.8"/>
<circle cx="319" cy="180" r="3" fill="rgb(111,144,186)" opacity="0.8"/>
<circle cx="93" cy="315" r="4" fill="rgb(134,21,115)" opacity="0.8"/>
<circle cx="328" cy="117" r="6" fill="rgb(53,114,214)" opacity="0.8"/>
<circle cx="209" cy="188" r="18" fill="rgb(17,209,153)" opacity="0.8"/>
<circle cx="181" cy="254" r="20" fill="rgb(203,171,137)" opacity="0.8"/>
<circle cx="238" cy="249" r="20" fill="rgb(4,225,90)" opacity="0.8"/>
<circle cx="252" cy="143" r="12" fill="rgb(240,115,63)" opacity="0.8"/>
<circle cx="319" cy="232" r="7" fill="rgb(11,138,200)" opacity="0.8"/>
<circle cx="331" cy="31" r="10" fill="rgb(207,24,63)" opacity="0.8"/>
<circle cx="39" cy="319" r="4" fill="rgb(222,123,171)" opacity="0.8"/>
<circle cx="292" cy="238" r="4" fill="rgb(97,184,175)" opacity="0.8"/>
<circle cx="319" cy="21" r="7" fill="rgb(86,77,18)" opacity="0.8"/>
<circle cx="122" cy="326" r="6" fill="rgb(176,3,0)" opacity="0.8"/>
<circle cx="181" cy="132" r="6" fill="rgb(28,25,75)" opacity="0.8"/>
<circle cx="282" cy="366" r="11" fill="rgb(192,14,74)" opacity="0.8"/>
<circle cx="235" cy="333" r="10" fill="rgb(21,5,178)" opacity="0.8"/>
<circle cx="10" cy="236" r="13" fill="rgb(25,107,167)" opacity="0.8"/>
<circle cx="134" cy="252" r="20" fill="rgb(215,203,48)" opacity="0.8"/>
<circle cx="287" cy="1" r="15" fill="rgb(103,158,233)" opacity="0.8"/>
<circle cx="68" cy="142" r="6" fill="rgb(212,90,221)" opacity="0.8"/>
<circle cx="280" cy="178" r="11" fill="rgb(250,187,87)" opacity="0.8"/>
<circle cx="318" cy="362" r="19" fill="rgb(117,19,42)" opacity="0.8"/>
<circle cx="215" cy="300" r="19" fill="rgb(200,103,59)" opacity="0.8"/>
<circle cx="121" cy="369" r="13" fill="rgb(126,225,69)" opacity="0.8"/>
<circle cx="277" cy="358" r="4" fill="rgb(135,76,83)" opacity="0.8"/>
<circle cx="344" cy="164" r="18" fill="rgb(231,112,81)" opacity="0.8"/>
<circle cx="29" cy="369" r="6" fill="rgb(222,45,32)" opacity="0.8"/>
<circle cx="194" cy="341" r="18" fill="rgb(130,185,84)" opacity="0.8"/>
<circle cx="157" cy="19" r="15" fill="rgb(244,16,121)" opacity="0.8"/>
<circle cx="113" cy="161" r="11" fill="rgb(160,74,131)" opacity="0.8"/>
<circle cx="123" cy="118" r="20" fill="rgb(223,96,255)" opacity="0.8"/>
<circle cx="136" cy="347" r="20" fill="rgb(84,75,194)" opacity="0.8"/>
<circle cx="95" cy="174" r="12" fill="rgb(70,84,3)" opacity="0.8"/>
<circle cx="314" cy="228" r="18" fill="rgb(243,1,209)" opacity="0.8"/>
<circle cx="31" cy="164" r="8" fill="rgb(150,211,26)" opacity="0.8"/>
<circle cx="89" cy="184" r="4" fill="rgb(24,69,167)" opacity="0.8"/>
<circle cx="196" cy="126" r="19" fill="rgb(127,59,34)" opacity="0.8"/>
<circle cx="234" cy="217" r="11" fill="rgb(54,22,16)" opacity="0.8"/>
<circle cx="120" cy="241" r="15" fill="rgb(189,154,141)" opacity="0.8"/>
<circle cx="267" cy="214" r="13" fill="rgb(132,162,137)" opacity="0.8"/>
<circle cx="53" cy="322" r="12" fill="rgb(154,147,148)" opacity="0.8"/>
<circle cx="53" cy="199" r="6" fill="rgb(84,125,41)" opacity="0.8"/>
<circle cx="135" cy="3" r="15" fill="rgb(34,51,53)" opacity="0.8"/>
<circle cx="283" cy="174" r="8" fill="rgb(131,141,180)" opacity="0.8"/>
<circle cx="3" cy="116" r="12" fill="rgb(17,215,115)" opacity="0.8"/>
<circle cx="372" cy="165" r="3" fill="rgb(229,175,175)" opacity="0.8"/>
<circle cx="180" cy="327" r="13" fill="rgb(202,135,95)" opacity="0.8"/>
<circle cx="198" cy="113" r="7" fill="rgb(60,112,57)" opacity="0.8"/>
<circle cx="215" cy="134" r="6" fill="rgb(44,183,249)" opacity="0.8"/>
<circle cx="329" cy="292" r="5" fill="rgb(242,207,107)" opacity="0.8"/>
<circle cx="65" cy="281" r="18" fill="rgb(53,2,181)" opacity="0.8"/>
<circle cx="327" cy="159" r="8" fill="rgb(245,244,163)" opacity="0.8"/>
<circle cx="92" cy="150" r="17" fill="rgb(72,234,129)" opacity="0.8"/>
<circle cx="21" cy="147" r="8" fill="rgb(18,56,59)" opacity="0.8"/>
<circle cx="135" cy="0" r="13" fill="rgb(119,100,183)" opacity="0.8"/>
<circle cx="270" cy="220" r="6" fill="rgb(12,41,176)" opacity="0.8"/>
<circle cx="180" cy="167" r="14" fill="rgb(160,35,24)" opacity="0.8"/>
<circle cx="24" cy="98" r="4" fill="rgb(205,193,0)" opacity="0.8"/>
<circle cx="6" cy="187" r="19" fill="rgb(63,178,203)" opacity="0.8"/>
<circle cx="254" cy="27" r="14" fill="rgb(107,170,221)" opacity="0.8"/>
<circle cx="31" cy="172" r="11" fill="rgb(140,220,91)" opacity="0.8"/>
<circle cx="49" cy="373" r="20" fill="rgb(192,246,102)" opacity="0.8"/>
<circle cx="137" cy="254" r="12" fill="rgb(153,196,114)" opacity="0.8"/>
<circle cx="91" cy="255" r="11" fill="rgb(158,31,214)" opacity="0.8"/>
<circle cx="58" cy="349" r="6" fill="rgb(182,37,24)" opacity="0.8"/>
<circle cx="156" cy="35" r="7" fill="rgb(178,248,191)" opacity="0.8"/>
<circle cx="34" cy="2" r="5" fill="rgb(141,111,61)" opacity="0.8"/>
<circle cx="193" cy="257" r="7" fill="rgb(217,35,87)" opacity="0.8"/>
<circle cx="58" cy="156" r="7" fill="rgb(183,73,13)" opacity="0.8"/>
<circle cx="304" cy="98" r="16" fill="rgb(42,36,38)" opacity="0.8"/>
<circle cx="355" cy="71" r="11" fill="rgb(72,231,220)" opacity="0.8"/>
<circle cx="370" cy="380" r="12" fill="rgb(151,92,109)" opacity="0.8"/>
<circle cx="243" cy="122" r="19" fill="rgb(178,111,69)" opacity="0.8"/>
<circle cx="81" cy="114" r="5" fill="rgb(185,182,196)" opacity="0.8"/>
<circle cx="34" cy="213" r="12" fill="rgb(93,9,34)" opacity="0.8"/>
<circle cx="339" cy="194" r="19" fill="rgb(108,79,187)" opacity="0.8"/>
<circle cx="188" cy="82" r="14" fill="rgb(222,65,159)" opacity="0.8"/>
<circle cx="108" cy="126" r="7" fill="rgb(23,221,78)" opacity="0.8"/>
<circle cx="365" cy="260" r="8" fill="rgb(126,54,21)" opacity="0.8"/>
<circle cx="195" cy="101" r="11" fill="rgb(226,190,125)" opacity="0.8"/>
<circle cx="367" cy="252" r="15" fill="rgb(152,155,207)" opacity="0.8"/>
<circle cx="241" cy="138" r="3" fill="rgb(163,53,2)" opacity="0.8"/>
<circle cx="9" cy="72" r="19" fill="rgb(6,178,219)" opacity="0.8"/>
<circle cx="16" cy="366" r="20" fill="rgb(60,31,116)" opacity="0.8"/>
<circle cx="226" cy="82" r="3" fill="rgb(205,109,12)" opacity="0.8"/>
<circle cx="35" cy="216" r="12" fill="rgb(32,72,65)" opacity="0.8"/>
<circle cx="48" cy="108" r="19" fill="rgb(241,98,105)" opacity="0.8"/>
<circle cx="27" cy="213" r="7" fill="rgb(24,57,139)" opacity="0.8"/>
<circle cx="80" cy="160" r="14" fill="rgb(217,110,33)" opacity="0.8"/>
<circle cx="276" cy="351" r="15" fill="rgb(150,84,32)" opacity="0.8"/>
<circle cx="335" cy="99" r="19" fill="rgb(199,182,215)" opacity="0.8"/>
<circle cx="110" cy="55" r="8" fill="rgb(96,50,34)" opacity="0.8"/>
<circle cx="236" cy="168" r="19" fill="rgb(232,71,156)" opacity="0.8"/>
<circle cx="155" cy="267" r="8" fill="rgb(199,103,9)" opacity="0.8"/>
<circle cx="330" cy="297" r="18" fill="rgb(62,214,48)" opacity="0.8"/>
<circle cx="322" cy="238" r="10" fill="rgb(161,225,156)" opacity="0.8"/>
<circle cx="174" cy="324" r="9" fill="rgb(50,38,235)" opacity="0.8"/>
<circle cx="292" cy="345" r="8" fill="rgb(0,5,218)" opacity="0.8"/>
<circle cx="241" cy="271" r="19" fill="rgb(140,210,12)" opacity="0.8"/>
<circle cx="185" cy="304" r="12" fill="rgb(242,164,94)" opacity="0.8"/>
<circle cx="288" cy="166" r="10" fill="rgb(58,152,156)" opacity="0.8"/>
<circle cx="335" cy="237" r="8" fill="rgb(209,213,69)" opacity="0.8"/>
<circle cx="44" cy="102" r="7" fill="rgb(207,42,248)" opacity="0.8"/>
<circle cx="59" cy="134" r="15" fill="rgb(24,47,3)" opacity="0.8"/>
<circle cx="246" cy="342" r="10" fill="rgb(110,23,5)" opacity="0.8"/>
<circle cx="66" cy="51" r="17" fill="rgb(186,53,246)" opacity="0.8"/>
<circle cx="31" cy="346" r="19" fill="rgb(240,105,216)" opacity="0.8"/>
<circle cx="198" cy="18" r="16" fill="rgb(193,154,232)" opacity="0.8"/>
<circle cx="163" cy="262" r="20" fill="rgb(68,68,76)" opacity="0.8"/>
<circle cx="177" cy="155" r="7" fill="rgb(137,197,168)" opacity="0.8"/>
<circle cx="363" cy="362" r="20" fill="rgb(67,183,65)" opacity="0.8"/>
<circle cx="380" cy="380" r="20" fill="rgb(167,240,176)" opacity="0.8"/>
<circle cx="252" cy="23" r="18" fill="rgb(220,244,0)" opacity="0.8"/>
<circle cx="327" cy="206" r="9" fill="rgb(114,142,189)" opacity="0.8"/>
<circle cx="296" cy="358" r="20" fill="rgb(76,180,21)" opacity="0.8"/>
<circle cx="73" cy="286" r="14" fill="rgb(231,52,101)" opacity="0.8"/>
<circle cx="214" cy="145" r="4" fill="rgb(121,107,60)" opacity="0.8"/>
<circle cx="240" cy="125" r="11" fill="rgb(208,243,204)" opacity="0.8"/>
<circle cx="151" cy="311" r="4" fill="rgb(115,208,107)" opacity="0.8"/>
<circle cx="227" cy="171" r="4" fill="rgb(18,121,142)" opacity="0.8"/>
<circle cx="318" cy="165" r="5" fill="rgb(172,93,222)" opacity="0.8"/>
<circle cx="363" cy="295" r="14" fill="rgb(203,217,160)" opacity="0.8"/>
<circle cx="192" cy="41" r="4" fill="rgb(181,219,2)" opacity="0.8"/>
<circle cx="220" cy="155" r="18" fill="rgb(106,126,218)" opacity="0.8"/>
<circle cx="364" cy="172" r="4" fill="rgb(193,226,18)" opacity="0.8"/>
<circle cx="34" cy="13" r="17" fill="rgb(166,223,172)" opacity="0.8"/>
<circle cx="222" cy="12" r="13" fill="rgb(63,119,201)" opacity="0.8"/>
<circle cx="212" cy="27" r="4" fill="rgb(123,43,148)" opacity="0.8"/>
<circle cx="359" cy="248" r="17" fill="rgb(19,56,174)" opacity="0.8"/>
<circle cx="104" cy="194" r="5" fill="rgb(107,54,151)" opacity="0.8"/>
<circle cx="15" cy="152" r="7" fill="rgb(230,133,219)" opacity="0.8"/>
<circle cx="244" cy="293" r="15" fill="rgb(81,196,39)" opacity="0.8"/>
<circle cx="377" cy="4" r="8" fill="rgb(54,96,31)" opacity="0.8"/>
<circle cx="248" cy="144" r="4" fill="rgb(100,199,44)" opacity="0.8"/>
<circle cx="123" cy="136" r="8" fill="rgb(163,101,78)" opacity="0.8"/>
<circle cx="42" cy="128" r="18" fill="rgb(9,81,132)" opacity="0.8"/>
<circle cx="154" cy="358" r="15" fill="rgb(115,92,15)" opacity="0.8"/>
<circle cx="203" cy="206" r="17" fill="rgb(241,68,50)" opacity="0.8"/>
<circle cx="89" cy="223" r="9" fill="rgb(116,202,17)" opacity="0.8"/>
<circle cx="138" cy="24" r="9" fill="rgb(199,17,100)" opacity="0.8"/>
<circle cx="69" cy="42" r="7" fill="rgb(176,63,168)" opacity="0.8"/>
<circle cx="166" cy="163" r="11" fill="rgb(211,36,132)" opacity="0.8"/>
<circle cx="263" cy="338" r="14" fill="rgb(114,168,165)" opacity="0.8"/>
<circle cx="64" cy="57" r="6" fill="rgb(145,91,57)" opacity="0.8"/>
<circle cx="48" cy="303" r="15" fill="rgb(214,194,42)" opacity="0.8"/>
<circle cx="70" cy="282" r="4" fill="rgb(163,43,148)" opacity="0.8"/>
<circle cx="105" cy="366" r="15" fill="rgb(235,238,141)" opacity="0.8"/>
<circle cx="3" cy="45" r="9" fill="rgb(44,254,137)" opacity="0.8"/>
<circle cx="153" cy="15" r="20" fill="rgb(107,22,198)" opacity="0.8"/>
<circle cx="346" cy="286" r="10" fill="rgb(86,201,109)" opacity="0.8"/>
<circle cx="8" cy="352" r="16" fill="rgb(107,185,228)" opacity="0.8"/>
<circle cx="221" cy="342" r="20" fill="rgb(131,143,5)" opacity="0.8"/>
<circle cx="169" cy="144" r="16" fill="rgb(235,17,189)" opacity="0.8"/>
<circle cx="140" cy="369" r="6" fill="rgb(205,149,1)" opacity="0.8"/>
<circle cx="37" cy="166" r="14" fill="rgb(204,120,91)" opacity="0.8"/>
<circle cx="6" cy="242" r="7" fill="rgb(96,49,104)" opacity="0.8"/>
<circle cx="143" cy="242" r="20" fill="rgb(196,6,141)" opacity="0.8"/>
<circle cx="96" cy="7" r="14" fill="rgb(120,43,51)" opacity="0.8"/>
<circle cx="307" cy="158" r="3" fill="rgb(202,187,212)" opacity="0.8"/>
<circle cx="67" cy="191" r="12" fill="rgb(19,25,47)" opacity="0.8"/>
<circle cx="199" cy="205" r="12" fill="rgb(98,87,162)" opacity="0.8"/>
<circle cx="253" cy="84" r="6" fill="rgb(238,24,169)" opacity="0.8"/>
<circle cx="307" cy="175" r="9" fill="rgb(166,141,103)" opacity="0.8"/>
<circle cx="360" cy="165" r="6" fill="rgb(191,178,217)" opacity="0.8"/>
<circle cx="129" cy="277" r="5" fill="rgb(53,77,79)" opacity="0.8"/>
<circle cx="167" cy="356" r="3" fill="rgb(161,66,165)" opacity="0.8"/>
<circle cx="255" cy="254" r="20" fill="rgb(85,48,231)" opacity="0.8"/>
<circle cx="275" cy="100" r="19" fill="rgb(195,183,123)" opacity="0.8"/>
<circle cx="111" cy="356" r="10" fill="rgb(105,118,228)" opacity="0.8"/>
<circle cx="348" cy="261" r="19" fill="rgb(77,189,12)" opacity="0.8"/>
<circle cx="182" cy="369" r="15" fill="rgb(179,236,110)" opacity="0.8"/>
<circle cx="360" cy="171" r="7" fill="rgb(71,174,217)" opacity="0.8"/>
<circle cx="312" cy="306" r="15" fill="rgb(115,28,215)" opacity="0.8"/>
<circle cx="365" cy="144" r="6" fill="rgb(229,4,192)" opacity="0.8"/>
<circle cx="153" cy="18" r="7" fill="rgb(57,250,183)" opacity="0.8"/>
<circle cx="242" cy="307" r="17" fill="rgb(123,50,54)" opacity="0.8"/>
<circle cx="290" cy="9" r="14" fill="rgb(160,155,134)" opacity="0.8"/>
<circle cx="316" cy="67" r="4" fill="rgb(211,165,83)" opacity="0.8"/>
<circle cx="212" cy="342" r="14" fill="rgb(117,5,197)" opacity="0.8"/>
</svg>