<svg xmlns="http://www.w3.org/2000/svg" viewBox="0 0 400 400" width="400" height="400">
<rect width="400" height="400" fill="#f01010"/>
<circle cx="266" cy="227" r="13" fill="rgb(41,52,25)" opacity="0.8"/>
<circle cx="338" cy="364" r="7" fill="rgb(57,176,5)" opacity="0.8"/>
<circle cx="276" cy="167" r="11" fill="rgb(113,248,75)" opacity="0.8"/>
<circle cx="274" cy="20" r="9" fill="rgb(73,52,117)" opacity="0.8"/>
<circle cx="192" cy="179" r="6" fill="rgb(49,75,114)" opacity="0.8"/>
<circle cx="190" cy="127" r="10" fill="rgb(52,224,230)" opacity="0.8"/>
<circle cx="153" cy="174" r="7" fill="rgb(225,184,234)" opacity="0.8"/>
<circle cx="288" cy="165" r="16" fill="rgb(187,176,212)" opacity="0.8"/>
<circle cx="183" cy="24" r="20" fill="rgb(123,255,73)" opacity="0.8"/>
<circle cx="153" cy="30" r="10" fill="rgb(255,142,163)" opacity="0.8"/>
<circle cx="231" cy="343" r="18" fill="rgb(251,236,113)" opacity="0.8"/>
<circle cx="275" cy="332" r="4" fill="rgb(57,52,245)" opacity="0.8"/>
<circle cx="135" cy="20" r="5" fill="rgb(73,27,80)" opacity="0.8"/>
<circle cx="253" cy="221" r="14" fill="rgb(125,148,51)" opacity="0.8"/>
<circle cx="84" cy="85" r="13" fill="rgb(110,210,40)" opacity="0.8"/>
<circle cx="11" cy="176" r="20" fill="rgb(73,7,195)" opacity="0.8"/>
<circle cx="371" cy="105" r="7" fill="rgb(169,222,135)" opacity="0.8"/>
<circle cx="25" cy="360" r="13" fill="rgb(128,123,253)" opacity="0.8"/>
<circle cx="126" cy="258" r="7" fill="rgb(204,201,6)" opacity="0.8"/>
<circle cx="228" cy="316" r="17" fill="rgb(85,219,49)" opacity="0.8"/>
<circle cx="102" cy="143" r="10" fill="rgb(129,244,80)" opacity="0.8"/>
<circle cx="108" cy="22" r="14" fill="rgb(2,171,4)" opacity="0.8"/>
<circle cx="260" cy="75" r="5" fill="rgb(3,53,222)" opacity="0.8"/>
<circle cx="307" cy="178" r="4" fill="rgb(230,216,147)" opacity="0.8"/>
<circle cx="227" cy="58" r="5" fill="rgb(92,89,140)" opacity="0.8"/>
<circle cx="175" cy="139" r="15" fill="rgb(228,126,165)" opacity="0.8"/>
<circle cx="13" cy="23" r="13" fill="rgb(209,54,207)" opacity="0.8"/>
<circle cx="260" cy="53" r="12" fill="rgb(73,17,77)" opacity="0.8"/>
<circle cx="24" cy="262" r="15" fill="rgb(154,23,156)" opacity="0.8"/>
<circle cx="371" cy="94" r="11" fill="rgb(143,145,131)" opacity="0.8"/>
<circle cx="65" cy="22" r="4" fill="rgb(70,94,185)" opacity="0.8"/>
<circle cx="248" cy="294" r="5" fill="rgb(97,25,253)" opacity="0.8"/>
<circle cx="365" cy="343" r="3" fill="rgb(126,152,127)" opacity="0.8"/>
<circle cx="0" cy="49" r="3" fill="rgb(31,107,22)" opacity="0.8"/>
<circle cx="136" cy="7" r="12" fill="rgb(203,165,252)" opacity="0.8"/>
<circle cx="47" cy="86" r="16" fill="rgb(67,233,105)" opacity="0.8"/>
<circle cx="299" cy="27" r="6" fill="rgb(247,122,232)" opacity="0.8"/>
<circle cx="373" cy="304" r="13" fill="rgb(227,56,73)" opacity="0.8"/>
<circle cx="375" cy="30" r="11" fill="rgb(13,101,222)" opacity="0.8"/>
<circle cx="125" cy="108" r="8" fill="rgb(110,9,86)" opacity="0.8"/>
<circle cx="90" cy="27" r="16" fill="rgb(252,20,204)" opacity="0.8"/>
<circle cx="282" cy="57" r="13" fill="rgb(60,149,230)" opacity="0.8"/>
<circle cx="337" cy="270" r="20" fill="rgb(46,38,60)" opacity="0.8"/>
<circle cx="83" cy="193" r="4" fill="rgb(75,104,221)" opacity="0.8"/>
<circle cx="66" cy="26" r="16" fill="rgb(24,65,163)" opacity="0.8"/>
<circle cx="113" cy="116" r="11" fill="rgb(87,234,126)" opacity="0.8"/>
<circle cx="5" cy="191" r="18" fill="rgb(247,183,233)" opacity="0.8"/>
<circle cx="129" cy="99" r="10" fill="rgb(95,223,184)" opacity="0.8"/>
<circle cx="358" cy="175" r="9" fill="rgb(94,167,150)" opacity="0.8"/>
<circle cx="101" cy="9" r="11" fill="rgb(74,197,161)" opacity="0.8"/>
<circle cx="165" cy="321" r="17" fill="rgb(150,81,46)" opacity="0.8"/>
<circle cx="256" cy="344" r="10" fill="rgb(36,74,170)" opacity="0.8"/>
<circle cx="201" cy="292" r="12" fill="rgb(28,219,8)" opacity="0.8"/>
<circle cx="238" cy="200" r="5" fill="rgb(246,242,136)" opacity="0.8"/>
<circle cx="297" cy="68" r="15" fill="rgb(213,175,212)" opacity="0.8"/>
<circle cx="277" cy="258" r="9" fill="rgb(198,144,158)" opacity="0.8"/>
<circle cx="272" cy="306" r="16" fill="rgb(0,173,198)" opacity="0.8"/>
<circle cx="304" cy="44" r="8" fill="rgb(151,77,201)" opacity="0.8"/>
<circle cx="91" cy="150" r="10" fill="rgb(11,208,78)" opacity="0.8"/>
<circle cx="14" cy="338" r="9" fill="rgb(132,46,19)" opacity="0.8"/>
<circle cx="125" cy="374" r="5" fill="rgb(83,135,13)" opacity="0.8"/>
<circle cx="194" cy="85" r="11" fill="rgb(101,75,4)" opacity="0.8"/>
<circle cx="210" cy="141" r="16" fill="rgb(51,141,26)" opacity="0.8"/>
<circle cx="312" cy="368" r="9" fill="rgb(32,75,144)" opacity="0.8"/>
<circle cx="150" cy="7" r="20" fill="rgb(135,32,108)" opacity="0.8"/>
<circle cx="186" cy="322" r="4" fill="rgb(168,181,46)" opacity="0.8"/>
<circle cx="269" cy="319" r="4" fill="rgb(148,74,56)" opacity="0.8"/>
<circle cx="52" cy="148" r="17" fill="rgb(55,189,68)" opacity="0.8"/>
<circle cx="293" cy="32" r="11" fill="rgb(36,136,157)" opacity="0.8"/>
<circle cx="153" cy="202" r="7" fill="rgb(25,84,218)" opacity="0.8"/>
<circle cx="206" cy="235" r="3" fill="rgb(185,120,238)" opacity="0.8"/>
<circle cx="207" cy="137" r="5" fill="rgb(76,196,203)" opacity="0.8"/>
<circle cx="220" cy="238" r="10" fill="rgb(134,21,242)" opacity="0.8"/>
<circle cx="15" cy="242" r="4" fill="rgb(226,245,23)" opacity="0.8"/>
<circle cx="372" cy="172" r="4" fill="rgb(22,67,108)" opacity="0.8"/>
<circle cx="87" cy="178" r="14" fill="rgb(43,42,205)" opacity="0.8"/>
<circle cx="89" cy="166" r="10" fill="rgb(248,252,205)" opacity="0.8"/>
<circle cx="283" cy="339" r="17" fill="rgb(163,105,239)" opacity="0.8"/>
<circle cx="189" cy="13" r="14" fill="rgb(208,119,144)" opacity="0.8"/>
<circle cx="321" cy="23" r="10" fill="rgb(67,175,182)" opacity="0.8"/>
<circle cx="126" cy="19" r="9" fill="rgb(100,13,144)" opacity="0.8"/>
<circle cx="346" cy="310" r="4" fill="rgb(87,105,165)" opacity="0.8"/>
<circle cx="144" cy="200" r="5" fill="rgb(190,203,220)" opacity="0.8"/>
<circle cx="164" cy="232" r="20" fill="rgb(140,44,95)" opacity="0.8"/>
<circle cx="227" cy="19" r="10" fill="rgb(226,107,191)" opacity="0.8"/>
<circle cx="16" cy="354" r="12" fill="rgb(155,190,162)" opacity="0.8"/>
<circle cx="193" cy="186" r="20" fill="rgb(193,45,155)" opacity="0.8"/>
<circle cx="136" cy="330" r="4" fill="rgb(121,78,49)" opacity="0.8"/>
<circle cx="294" cy="244" r="9" fill="rgb(233,157,198)" opacity="0.8"/>
<circle cx="367" cy="78" r="19" fill="rgb(119,22,221)" opacity="0.8"/>
<circle cx="49" cy="254" r="8" fill="rgb(235,60,84)" opacity="0.8"/>
<circle cx="160" cy="338" r="12" fill="rgb(80,203,253)" opacity="0.8"/>
<circle cx="318" cy="278" r="6" fill="rgb(97,182,55)" opacity="0.8"/>
<circle cx="149" cy="211" r="17" fill="rgb(208,2,19)" opacity="0.8"/>
<circle cx="49" cy="37" r="16" fill="rgb(134,83,165)" opacity="0.8"/>
<circle cx="193" cy="136" r="17" fill="rgb(213,114,109)" opacity="0.8"/>
<circle cx="147" cy="95" r="14" fill="rgb(161,2,72)" opacity="0.8"/>
<circle cx="107" cy="269" r="14" fill="rgb(154,123,116)" opacity="0.8"/>
<circle cx="196" cy="27" r="19" fill="rgb(167,54,152)" opacity="0.8"/>
<circle cx="313" cy="116" r="18" fill="rgb(237,208,14)" opacity="0.8"/>
<circle cx="233" cy="184" r="3" fill="rgb(71,113,51)" opacity="0.8"/>
<circle cx="201" cy="307" r="4" fill="rgb(100,146,66)" opacity="0.8"/>
<circle cx="325" cy="107" r="7" fill="rgb(235,52,21)" opacity="0.8"/>
<circle cx="86" cy="336" r="13" fill="rgb(60,107,149)" opacity="0.8"/>
<circle cx="360" cy="117" r="5" fill="rgb(240,72,25)" opacity="0.8"/>
<circle cx="67" cy="272" r="20" fill="rgb(195,226,235)" opacity="0.8"/>
<circle cx="279" cy="376" r="13" fill="rgb(185,200,231)" opacity="0.8"/>
<circle cx="41" cy="286" r="19" fill="rgb(214,9,242)" opacity="0.8"/>
<circle cx="226" cy="187" r="3" fill="rgb(82,198,65)" opacity="0.8"/>
<circle cx="10" cy="133" r="17" fill="rgb(142,129,189)" opacity="0.8"/>
<circle cx="38" cy="296" r="7" fill="rgb(54,217,107)" opacity="0.8"/>
<circle cx="93" cy="16" r="5" fill="rgb(233,16,252)" opacity="0.8"/>
<circle cx="84" cy="297" r="4" fill="rgb(44,210,187)" opacity="0.8"/>
<circle cx="65" cy="342" r="4" fill="rgb(18,149,222)" opacity="0.8"/>
<circle cx="74" cy="15" r="16" fill="rgb(13,41,94)" opacity="0.8"/>
<circle cx="246" cy="241" r="8" fill="rgb(125,86,169)" opacity="0.8"/>
<circle cx="212" cy="178" r="3" fill="rgb(166,247,133)" opacity="0.8"/>
<circle cx="360" cy="174" r="15" fill="rgb(66,152,212)" opacity="0.8"/>
<circle cx="250" cy="53" r="16" fill="rgb(48,29,98)" opacity="0.8"/>
<circle cx="267" cy="89" r="19" fill="rgb(108,252,238)" opacity="0.8"/>
<circle cx="181" cy="180" r="14" fill="rgb(3,253,123)" opacity="0.8"/>
<circle cx="205" cy="50" r="5" fill="rgb(7,23,182)" opacity="0.8"/>
<circle cx="74" cy="218" r="5" fill="rgb(51,233,6)" opacity="0.8"/>
<circle cx="35" cy="109" r="12" fill="rgb(80,175,44)" opacity="0.8"/>
<circle cx="224" cy="100" r="15" fill="rgb(114,185,7)" opacity="0.8"/>
<circle cx="209" cy="346" r="3" fill="rgb(119,239,108)" opacity="0.8"/>
<circle cx="157" cy="25" r="8" fill="rgb(26,20,171)" opacity="0.8"/>
<circle cx="226" cy="201" r="16" fill="rgb(82,135,205)" opacity="0.8"/>
<circle cx="294" cy="312" r="12" fill="rgb(86,119,132)" opacity="0.8"/>
<circle cx="222" cy="89" r="17" fill="rgb(235,190,66)" opacity="0.8"/>
<circle cx="173" cy="17" r="5" fill="rgb(210,152,113)" opacity="0.8"/>
<circle cx="149" cy="195" r="7" fill="rgb(112,166,125)" opacity="0.8"/>
<circle cx="243" cy="98" r="8" fill="rgb(212,52,86)" opacity="0.8"/>
<circle cx="333" cy="4" r="15" fill="rgb(193,4,84)" opacity="0.8"/>
<circle cx="302" cy="71" r="8" fill="rgb(138,229,234)" opacity="0.8"/>
<circle cx="205" cy="316" r="11" fill="rgb(146,17,114)" opacity="0.8"/>
<circle cx="108" cy="187" r="13" fill="rgb(91,178,1)" opacity="0.8"/>
<circle cx="376" cy="207" r="18" fill="rgb(70,138,231)" opacity="0.8"/>
<circle cx="236" cy="175" r="17" fill="rgb(216,22,187)" opacity="0.8"/>
<circle cx="16" cy="175" r="3" fill="rgb(186,157,164)" opacity="0.8"/>
<circle cx="45" cy="159" r="9" fill="rgb(242,154,134)" opacity="0.8"/>
<circle cx="15" cy="140" r="15" fill="rgb(180,19,194)" opacity="0.8"/>
<circle cx="49" cy="273" r="4" fill="rgb(199,114,255)" opacity="0.8"/>
<circle cx="191" cy="318" r="12" fill="rgb(171,240,133)" opacity="0.8"/>
<circle cx="285" cy="233" r="16" fill="rgb(149,148,52)" opacity="0.8"/>
<circle cx="380" cy="363" r="8" fill="rgb(203,126,83)" opacity="0.8"/>
<circle cx="249" cy="331" r="15" fill="rgb(170,157,9)" opacity="0.8"/>
<circle cx="328" cy="114" r="5" fill="rgb(18,132,208)" opacity="0.8"/>
<circle cx="181" cy="66" r="12" fill="rgb(205,37,118)" opacity="0.8"/>
<circle cx="298" cy="247" r="11" fill="rgb(188,244,38)" opacity="0.8"/>
<circle cx="224" cy="139" r="9" fill="rgb(198,206,29)" opacity="0.8"/>
<circle cx="60" cy="110" r="7" fill="rgb(88,86,146)" opacity="0.8"/>
<circle cx="72" cy="98" r="12" fill="rgb(119,173,247)" opacity="0.8"/>
<circle cx="336" cy="193" r="3" fill="rgb(205,118,55)" opacity="0.8"/>
<circle cx="20" cy="312" r="5" fill="rgb(134,222,73)" opacity="0.8"/>
<circle cx="3" cy="136" r="18" fill="rgb(89,196,170)" opacity="0.8"/>
<circle cx="93" cy="287" r="16" fill="rgb(14,110,194)" opacity="0.8"/>
<circle cx="20" cy="134" r="11" fill="rgb(31,219,179)" opacity="0.8"/>
<circle cx="357" cy="346" r="13" fill="rgb(53,244,67)" opacity="0.8"/>
<circle cx="327" cy="300" r="17" fill="rgb(253,132,56)" opacity="0.8"/>
<circle cx="216" cy="253" r="7" fill="rgb(226,12,138)" opacity="0.8"/>
<circle cx="230" cy="217" r="10" fill="rgb(244,53,77)" opacity="0.8"/>
<circle cx="244" cy="40" r="5" fill="rgb(150,33,49)" opacity="0.8"/>
</svg>