<svg xmlns="http://www.w3.org/2000/svg" viewBox="0 0 400 400" width="400" height="400">
<rect width="400" height="400" fill="#111f2f"/>
<circle cx="107" cy="29" r="4" fill="rgb(105,176,117)" opacity="0.8"/>
<circle cx="324" cy="346" r="10" fill="rgb(196,161,245)" opacity="0.8"/>
<circle cx="183" cy="69" r="12" fill="rgb(35,51,173)" opacity="0.8"/>
<circle cx="287" cy="335" r="9" fill="rgb(153,63,57)" opacity="0.8"/>
<circle cx="264" cy="3" r="11" fill="rgb(19,31,174)" opacity="0.8"/>
<circle cx="91" cy="349" r="13" fill="rgb(209,167,126)" opacity="0.8"/>
<circle cx="339" cy="328" r="13" fill="rgb(18,90,203)" opacity="0.8"/>
<circle cx="298" cy="18" r="15" fill="rgb(185,1,0)" opacity="0.8"/>
<circle cx="375" cy="121" r="14" fill="rgb(164,157,132)" opacity="0.8"/>
<circle cx="124" cy="115" r="13" fill="rgb(13,90,131)" opacity="0.8"/>
<circle cx="261" cy="110" r="10" fill="rgb(10,155,41)" opacity="0.8"/>
<circle cx="99" cy="71" r="16" fill="rgb(224,19,248)" opacity="0.8"/>
<circle cx="230" cy="174" r="9" fill="rgb(183,74,201)" opacity="0.8"/>
<circle cx="277" cy="202" r="17" fill="rgb(209,183,57)" opacity="0.8"/>
<circle cx="278" cy="314" r="6" fill="rgb(221,15,186)" opacity="0.8"/>
<circle cx="329" cy="138" r="3" fill="rgb(53,215,64)" opacity="0.8"/>
<circle cx="276" cy="302" r="3" fill="rgb(84,98,119)" opacity="0.8"/>
<circle cx="247" cy="119" r="7" fill="rgb(52,82,50)" opacity="0.8"/>
<circle cx="62" cy="302" r="6" fill="rgb(210,146,2)" opacity="0.8"/>
<circle cx="257" cy="122" r="14" fill="rgb(80,146,207)" opacity="0.8"/>
<circle cx="311" cy="170" r="6" fill="rgb(84,132,75)" opacity="0.8"/>
<circle cx="76" cy="279" r="11" fill="rgb(13,7,142)" opacity="0.8"/>
<circle cx="214" cy="336" r="8" fill="rgb(79,240,93)" opacity="0.8"/>
<circle cx="49" cy="49" r="11" fill="rgb(44,125,22)" opacity="0.8"/>
<circle cx="135" cy="18" r="20" fill="rgb(250,190,164)" opacity="0.8"/>
<circle cx="81" cy="376" r="18" fill="rgb(220,238,125)" opacity="0.8"/>
<circle cx="341" cy="204" r="7" fill="rgb(2,11,107)" opacity="0.8"/>
<circle cx="250" cy="31" r="16" fill="rgb(248,166,20)" opacity="0.8"/>
<circle cx="308" cy="321" r="14" fill="rgb(172,28,162)" opacity="0.8"/>
<circle cx="164" cy="8" r="19" fill="rgb(117,66,232)" opacity="0.8"/>
<circle cx="245" cy="350" r="20" fill="rgb(208,82,193)" opacity="0.8"/>
<circle cx="348" cy="141" r="13" fill="rgb(206,81,194)" opacity="0.8"/>
<circle cx="14" cy="251" r="13" fill="rgb(224,142,244)" opacity="0.8"/>
<circle cx="50" cy="242" r="19" fill="rgb(205,0,76)" opacity="0.8"/>
<circle cx="180" cy="141" r="20" fill="rgb(216,82,139)" opacity="0.8"/>
<circle cx="71" cy="231" r="14" fill="rgb(23,22,241)" opacity="0.8"/>
<circle cx="186" cy="117" r="11" fill="rgb(203,198,215)" opacity="0.8"/>
<circle cx="239" cy="224" r="19" fill="rgb(182,169,110)" opacity="0.8"/>
<circle cx="61" cy="55" r="16" fill="rgb(188,203,231)" opacity="0.8"/>
<circle cx="162" cy="121" r="14" fill="rgb(121,254,41)" opacity="0.8"/>
<circle cx="49" cy="45" r="19" fill="rgb(228,198,125)" opacity="0.8"/>
<circle cx="262" cy="115" r="11" fill="rgb(176,209,216)" opacity="0.8"/>
</svg>