<svg xmlns="http://www.w3.org/2000/svg" viewBox="0 0 400 400" width="400" height="400">
<rect width="400" height="400" fill="#000000"/>
<circle cx="9" cy="247" r="15" fill="rgb(165,51,227)" opacity="0.8"/>
<circle cx="262" cy="187" r="14" fill="rgb(198,49,71)" opacity="0.8"/>
<circle cx="199" cy="52" r="16" fill="rgb(79,223,242)" opacity="0.8"/>
<circle cx="228" cy="376" r="19" fill="rgb(177,45,18)" opacity="0.8"/>
<circle cx="42" cy="325" r="5" fill="rgb(52,185,171)" opacity="0.8"/>
<circle cx="1" cy="189" r="12" fill="rgb(93,69,81)" opacity="0.8"/>
<circle cx="199" cy="146" r="8" fill="rgb(46,117,61)" opacity="0.8"/>
<circle cx="235" cy="349" r="20" fill="rgb(12,210,11)" opacity="0.8"/>
<circle cx="10" cy="126" r="7" fill="rgb(170,176,236)" opacity="0.8"/>
<circle cx="312" cy="89" r="20" fill="rgb(218,31,34)" opacity="0.8"/>
<circle cx="196" cy="50" r="15" fill="rgb(95,109,17)" opacity="0.8"/>
<circle cx="95" cy="316" r="13" fill="rgb(154,210,237)" opacity="0.8"/>
<circle cx="264" cy="42" r="14" fill="rgb(48,131,19)" opacity="0.8"/>
<circle cx="35" cy="305" r="8" fill="rgb(64,248,165)" opacity="0.8"/>
<circle cx="217" cy="236" r="14" fill="rgb(39,252,183)" opacity="0.8"/>
<circle cx="275" cy="87" r="6" fill="rgb(125,215,252)" opacity="0.8"/>
<circle cx="335" cy="69" r="3" fill="rgb(113,158,191)" opacity="0.8"/>
<circle cx="76" cy="365" r="20" fill="rgb(104,55,174)" opacity="0.8"/>
<circle cx="131" cy="145" r="18" fill="rgb(13,172,14)" opacity="0.8"/>
<circle cx="281" cy="196" r="7" fill="rgb(125,231,109)" opacity="0.8"/>
<circle cx="49" cy="73" r="8" fill="rgb(32,2,170)" opacity="0.8"/>
<circle cx="185" cy="249" r="6" fill="rgb(106,202,231)" opacity="0.8"/>
<circle cx="34" cy="330" r="9" fill="rgb(249,128,172)" opacity="0.8"/>
<circle cx="240" cy="240" r="11" fill="rgb(221,101,9)" opacity="0.8"/>
<circle cx="208" cy="221" r="11" fill="rgb(61,160,175)" opacity="0.8"/>
<circle cx="211" cy="179" r="18" fill="rgb(7,66,142)" opacity="0.8"/>
<circle cx="310" cy="20" r="14" fill="rgb(67,128,80)" opacity="0.8"/>
<circle cx="65" cy="85" r="11" fill="rgb(106,46,174)" opacity="0.8"/>
<circle cx="217" cy="150" r="10" fill="rgb(39,57,128)" opacity="0.8"/>
<circle cx="274" cy="158" r="5" fill="rgb(7,233,206)" opacity="0.8"/>
<circle cx="217" cy="57" r="7" fill="rgb(181,249,201)" opacity="0.8"/>
<circle cx="371" cy="347" r="3" fill="rgb(213,217,234)" opacity="0.8"/>
<circle cx="323" cy="372" r="16" fill="rgb(200,19,138)" opacity="0.8"/>
<circle cx="193" cy="199" r="8" fill="rgb(189,213,101)" opacity="0.8"/>
<circle cx="118" cy="378" r="7" fill="rgb(213,232,126)" opacity="0.8"/>
<circle cx="229" cy="99" r="3" fill="rgb(74,156,155)" opacity="0.8"/>
<circle cx="315" cy="210" r="10" fill="rgb(119,72,105)" opacity="0.8"/>
<circle cx="88" cy="134" r="13" fill="rgb(97,50,197)" opacity="0.8"/>
<circle cx="379" cy="319" r="7" fill="rgb(184,225,46)" opacity="0.8"/>
<circle cx="168" cy="180" r="9" fill="rgb(170,169,79)" opacity="0.8"/>
<circle cx="117" cy="286" r="14" fill="rgb(144,59,192)" opacity="0.8"/>
<circle cx="150" cy="52" r="18" fill="rgb(240,254,18)" opacity="0.8"/>
<circle cx="154" cy="364" r="17" fill="rgb(149,57,47)" opacity="0.8"/>
<circle cx="312" cy="17" r="19" fill="rgb(110,20,177)" opacity="0.8"/>
<circle cx="98" cy="378" r="16" fill="rgb(229,103,152)" opacity="0.8"/>
<circle cx="362" cy="131" r="4" fill="rgb(130,85,135)" opacity="0.8"/>
<circle cx="82" cy="65" r="19" fill="rgb(58,48,12)" opacity="0.8"/>
<circle cx="155" cy="90" r="19" fill="rgb(155,207,217)" opacity="0.8"/>
<circle cx="181" cy="50" r="13" fill="rgb(102,244,169)" opacity="0.8"/>
<circle cx="228" cy="343" r="3" fill="rgb(34,33,163)" opacity="0.8"/>
<circle cx="265" cy="213" r="15" fill="rgb(193,6,122)" opacity="0.8"/>
<circle cx="159" cy="92" r="6" fill="rgb(255,126,153)" opacity="0.8"/>
<circle cx="252" cy="322" r="15" fill="rgb(195,188,180)" opacity="0.8"/>
<circle cx="295" cy="180" r="5" fill="rgb(203,171,21)" opacity="0.8"/>
<circle cx="102" cy="49" r="17" fill="rgb(228,218,208)" opacity="0.8"/>
<circle cx="319" cy="172" r="4" fill="rgb(205,27,51)" opacity="0.8"/>
<circle cx="57" cy="212" r="11" fill="rgb(30,215,211)" opacity="0.8"/>
<circle cx="300" cy="109" r="6" fill="rgb(151,185,123)" opacity="0.8"/>
<circle cx="4" cy="102" r="15" fill="rgb(26,245,198)" opacity="0.8"/>
<circle cx="68" cy="333" r="9" fill="rgb(52,46,202)" opacity="0.8"/>
<circle cx="37" cy="108" r="7" fill="rgb(224,179,208)" opacity="0.8"/>
<circle cx="143" cy="20" r="15" fill="rgb(95,230,252)" opacity="0.8"/>
<circle cx="203" cy="242" r="8" fill="rgb(239,227,174)" opacity="0.8"/>
<circle cx="21" cy="296" r="6" fill="rgb(120,51,172)" opacity="0.8"/>
<circle cx="158" cy="104" r="7" fill="rgb(192,154,104)" opacity="0.8"/>
<circle cx="136" cy="180" r="10" fill="rgb(125,0,216)" opacity="0.8"/>
<circle cx="270" cy="127" r="14" fill="rgb(23,40,59)" opacity="0.8"/>
<circle cx="243" cy="218" r="4" fill="rgb(251,147,24)" opacity="0.8"/>
<circle cx="379" cy="310" r="17" fill="rgb(218,38,92)" opacity="0.8"/>
<circle cx="318" cy="379" r="16" fill="rgb(189,82,232)" opacity="0.8"/>
<circle cx="177" cy="4" r="20" fill="rgb(134,131,239)" opacity="0.8"/>
<circle cx="3" cy="286" r="5" fill="rgb(59,180,212)" opacity="0.8"/>
<circle cx="379" cy="349" r="14" fill="rgb(128,186,52)" opacity="0.8"/>
<circle cx="168" cy="323" r="17" fill="rgb(219,252,38)" opacity="0.8"/>
<circle cx="243" cy="246" r="20" fill="rgb(164,140,188)" opacity="0.8"/>
<circle cx="309" cy="74" r="14" fill="rgb(248,204,111)" opacity="0.8"/>
<circle cx="199" cy="169" r="12" fill="rgb(228,174,252)" opacity="0.8"/>
<circle cx="273" cy="143" r="14" fill="rgb(185,63,148)" opacity="0.8"/>
<circle cx="358" cy="350" r="13" fill="rgb(150,196,171)" opacity="0.8"/>
<circle cx="58" cy="278" r="6" fill="rgb(46,218,39)" opacity="0.8"/>
<circle cx="125" cy="110" r="20" fill="rgb(241,7,186)" opacity="0.8"/>
<circle cx="121" cy="206" r="10" fill="rgb(142,227,221)" opacity="0.8"/>
<circle cx="229" cy="230" r="18" fill="rgb(224,76,178)" opacity="0.8"/>
<circle cx="261" cy="192" r="20" fill="rgb(125,155,44)" opacity="0.8"/>
<circle cx="178" cy="229" r="9" fill="rgb(208,166,228)" opacity="0.8"/>
<circle cx="148" cy="186" r="20" fill="rgb(89,94,188)" opacity="0.8"/>
<circle cx="377" cy="18" r="20" fill="rgb(133,188,114)" opacity="0.8"/>
<circle cx="366" cy="2" r="15" fill="rgb(237,196,184)" opacity="0.8"/>
<circle cx="1" cy="66" r="9" fill="rgb(94,92,7)" opacity="0.8"/>
<circle cx="23" cy="187" r="16" fill="rgb(33,27,212)" opacity="0.8"/>
<circle cx="10" cy="173" r="18" fill="rgb(92,156,92)" opacity="0.8"/>
<circle cx="117" cy="340" r="5" fill="rgb(222,203,180)" opacity="0.8"/>
<circle cx="216" cy="226" r="18" fill="rgb(185,182,99)" opacity="0.8"/>
<circle cx="148" cy="269" r="16" fill="rgb(14,187,108)" opacity="0.8"/>
<circle cx="162" cy="205" r="16" fill="rgb(140,143,20)" opacity="0.8"/>
<circle cx="360" cy="120" r="3" fill="rgb(236,100,15)" opacity="0.8"/>
<circle cx="155" cy="339" r="8" fill="rgb(109,205,99)" opacity="0.8"/>
<circle cx="337" cy="92" r="17" fill="rgb(109,178,143)" opacity="0.8"/>
<circle cx="311" cy="380" r="5" fill="rgb(140,117,215)" opacity="0.8"/>
<circle cx="22" cy="11" r="8" fill="rgb(110,39,218)" opacity="0.8"/>
<circle cx="76" cy="325" r="10" fill="rgb(133,3,13)" opacity="0.8"/>
<circle cx="328" cy="256" r="12" fill="rgb(204,49,5)" opacity="0.8"/>
<circle cx="104" cy="325" r="6" fill="rgb(206,228,196)" opacity="0.8"/>
<circle cx="105" cy="177" r="15" fill="rgb(112,118,253)" opacity="0.8"/>
<circle cx="359" cy="46" r="10" fill="rgb(50,120,106)" opacity="0.8"/>
<circle cx="167" cy="28" r="16" fill="rgb(76,4,196)" opacity="0.8"/>
<circle cx="141" cy="380" r="9" fill="rgb(11,146,191)" opacity="0.8"/>
<circle cx="35" cy="22" r="4" fill="rgb(29,110,54)" opacity="0.8"/>
<circle cx="323" cy="167" r="13" fill="rgb(204,68,237)" opacity="0.8"/>
<circle cx="159" cy="177" r="10" fill="rgb(36,191,75)" opacity="0.8"/>
<circle cx="42" cy="257" r="11" fill="rgb(218,81,160)" opacity="0.8"/>
<circle cx="170" cy="255" r="15" fill="rgb(150,111,211)" opacity="0.8"/>
<circle cx="40" cy="165" r="15" fill="rgb(91,189,43)" opacity="0.8"/>
<circle cx="90" cy="357" r="12" fill="rgb(42,117,55)" opacity="0.8"/>
<circle cx="241" cy="261" r="16" fill="rgb(237,32,103)" opacity="0.8"/>
<circle cx="380" cy="149" r="15" fill="rgb(209,80,247)" opacity="0.8"/>
<circle cx="213" cy="163" r="13" fill="rgb(177,57,101)" opacity="0.8"/>
<circle cx="371" cy="38" r="7" fill="rgb(65,172,63)" opacity="0.8"/>
<circle cx="231" cy="113" r="7" fill="rgb(28,141,132)" opacity="0.8"/>
<circle cx="262" cy="372" r="20" fill="rgb(19,120,136)" opacity="0.8"/>
<circle cx="220" cy="115" r="12" fill="rgb(21,46,57)" opacity="0.8"/>
<circle cx="179" cy="253" r="13" fill="rgb(23,124,54)" opacity="0.8"/>
<circle cx="45" cy="310" r="14" fill="rgb(207,185,153)" opacity="0.8"/>
<circle cx="375" cy="69" r="12" fill="rgb(23,54,252)" opacity="0.8"/>
<circle cx="128" cy="1" r="9" fill="rgb(116,63,174)" opacity="0.8"/>
<circle cx="213" cy="125" r="3" fill="rgb(58,95,202)" opacity="0.8"/>
<circle cx="228" cy="333" r="17" fill="rgb(183,60,46)" opacity="0.8"/>
<circle cx="45" cy="18" r="11" fill="rgb(152,31,38)" opacity="0.8"/>
<circle cx="61" cy="302" r="9" fill="rgb(236,165,171)" opacity="0.8"/>
<circle cx="336" cy="84" r="10" fill="rgb(245,105,245)" opacity="0.8"/>
<circle cx="256" cy="282" r="7" fill="rgb(224,221,161)" opacity="0.8"/>
<circle cx="11" cy="365" r="9" fill="rgb(238,3,120)" opacity="0.8"/>
<circle cx="77" cy="231" r="5" fill="rgb(223,41,133)" opacity="0.8"/>
<circle cx="266" cy="184" r="8" fill="rgb(231,224,188)" opacity="0.8"/>
<circle cx="288" cy="305" r="7" fill="rgb(147,248,111)" opacity="0.8"/>
<circle cx="299" cy="322" r="20" fill="rgb(215,129,123)" opacity="0.8"/>
<circle cx="216" cy="20" r="20" fill="rgb(192,246,238)" opacity="0.8"/>
<circle cx="227" cy="81" r="17" fill="rgb(13,46,144)" opacity="0.8"/>
<circle cx="337" cy="372" r="7" fill="rgb(101,50,242)" opacity="0.8"/>
<circle cx="64" cy="294" r="17" fill="rgb(184,144,238)" opacity="0.8"/>
<circle cx="200" cy="62" r="11" fill="rgb(84,88,112)" opacity="0.8"/>
<circle cx="308" cy="226" r="11" fill="rgb(1,206,172)" opacity="0.8"/>
<circle cx="355" cy="333" r="15" fill="rgb(71,33,95)" opacity="0.8"/>
<circle cx="365" cy="219" r="6" fill="rgb(67,152,62)" opacity="0.8"/>
<circle cx="171" cy="217" r="15" fill="rgb(101,172,77)" opacity="0.8"/>
<circle cx="342" cy="263" r="15" fill="rgb(212,63,219)" opacity="0.8"/>
</svg>