<svg xmlns="http://www.w3.org/2000/svg" viewBox="0 0 400 400" width="400" height="400">
<rect width="400" height="400" fill="#88f878"/>
<circle cx="198" cy="332" r="20" fill="rgb(217,81,172)" opacity="0.8"/>
<circle cx="109" cy="234" r="12" fill="rgb(108,28,184)" opacity="0.8"/>
<circle cx="8" cy="97" r="12" fill="rgb(194,210,66)" opacity="0.8"/>
<circle cx="280" cy="188" r="11" fill="rgb(13,19,135)" opacity="0.8"/>
<circle cx="128" cy="321" r="11" fill="rgb(36,183,22)" opacity="0.8"/>
<circle cx="220" cy="19" r="10" fill="rgb(203,65,70)" opacity="0.8"/>
<circle cx="20" cy="161" r="17" fill="rgb(145,55,235)" opacity="0.8"/>
<circle cx="258" cy="353" r="17" fill="rgb(26,231,91)" opacity="0.8"/>
<circle cx="32" cy="187" r="15" fill="rgb(197,181,104)" opacity="0.8"/>
<circle cx="306" cy="364" r="6" fill="rgb(95,243,176)" opacity="0.8"/>
<circle cx="127" cy="7" r="16" fill="rgb(123,85,102)" opacity="0.8"/>
<circle cx="312" cy="249" r="14" fill="rgb(165,224,65)" opacity="0.8"/>
<circle cx="322" cy="194" r="16" fill="rgb(61,30,172)" opacity="0.8"/>
<circle cx="106" cy="359" r="10" fill="rgb(77,222,126)" opacity="0.8"/>
<circle cx="269" cy="201" r="18" fill="rgb(148,85,18)" opacity="0.8"/>
<circle cx="217" cy="380" r="13" fill="rgb(205,56,147)" opacity="0.8"/>
<circle cx="112" cy="362" r="12" fill="rgb(9,132,182)" opacity="0.8"/>
<circle cx="219" cy="0" r="14" fill="rgb(255,62,85)" opacity="0.8"/>
<circle cx="288" cy="245" r="10" fill="rgb(36,182,47)" opacity="0.8"/>
<circle cx="267" cy="61" r="5" fill="rgb(175,63,170)" opacity="0.8"/>
<circle cx="307" cy="220" r="8" fill="rgb(7,154,77)" opacity="0.8"/>
<circle cx="118" cy="300" r="12" fill="rgb(253,43,221)" opacity="0.8"/>
<circle cx="30" cy="263" r="19" fill="rgb(89,208,53)" opacity="0.8"/>
<circle cx="229" cy="17" r="17" fill="rgb(205,105,61)" opacity="0.8"/>
<circle cx="142" cy="43" r="18" fill="rgb(179,173,166)" opacity="0.8"/>
<circle cx="19" cy="155" r="9" fill="rgb(200,123,120)" opacity="0.8"/>
<circle cx="208" cy="87" r="15" fill="rgb(208,235,150)" opacity="0.8"/>
<circle cx="247" cy="326" r="7" fill="rgb(131,234,143)" opacity="0.8"/>
<circle cx="328" cy="174" r="20" fill="rgb(5,244,122)" opacity="0.8"/>
<circle cx="371" cy="182" r="19" fill="rgb(158,30,11)" opacity="0.8"/>
<circle cx="190" cy="65" r="14" fill="rgb(220,167,48)" opacity="0.8"/>
<circle cx="75" cy="101" r="17" fill="rgb(76,202,166)" opacity="0.8"/>
<circle cx="38" cy="191" r="13" fill="rgb(22,215,215)" opacity="0.8"/>
<circle cx="277" cy="186" r="5" fill="rgb(80,75,236)" opacity="0.8"/>
<circle cx="370" cy="373" r="12" fill="rgb(90,161,174)" opacity="0.8"/>
<circle cx="216" cy="52" r="15" fill="rgb(177,21,2)" opacity="0.8"/>
<circle cx="110" cy="56" r="20" fill="rgb(160,53,67)" opacity="0.8"/>
<circle cx="285" cy="303" r="18" fill="rgb(56,3,174)" opacity="0.8"/>
<circle cx="288" cy="267" r="4" fill="rgb(226,137,69)" opacity="0.8"/>
<circle cx="317" cy="116" r="5" fill="rgb(143,32,196)" opacity="0.8"/>
<circle cx="242" cy="168" r="12" fill="rgb(120,165,126)" opacity="0.8"/>
<circle cx="375" cy="246" r="15" fill="rgb(251,93,214)" opacity="0.8"/>
<circle cx="204" cy="215" r="11" fill="rgb(234,9,166)" opacity="0.8"/>
<circle cx="111" cy="368" r="11" fill="rgb(104,102,195)" opacity="0.8"/>
<circle cx="185" cy="87" r="9" fill="rgb(247,19,44)" opacity="0.8"/>
<circle cx="346" cy="236" r="5" fill="rgb(223,54,20)" opacity="0.8"/>
<circle cx="149" cy="232" r="6" fill="rgb(11,17,46)" opacity="0.8"/>
<circle cx="67" cy="29" r="18" fill="rgb(211,133,164)" opacity="0.8"/>
<circle cx="120" cy="141" r="5" fill="rgb(142,16,230)" opacity="0.8"/>
<circle cx="92" cy="343" r="7" fill="rgb(85,89,151)" opacity="0.8"/>
<circle cx="106" cy="25" r="14" fill="rgb(104,104,103)" opacity="0.8"/>
<circle cx="91" cy="341" r="5" fill="rgb(91,178,187)" opacity="0.8"/>
<circle cx="374" cy="286" r="19" fill="rgb(193,207,209)" opacity="0.8"/>
<circle cx="191" cy="216" r="13" fill="rgb(8,156,221)" opacity="0.8"/>
<circle cx="8" cy="127" r="4" fill="rgb(8,43,170)" opacity="0.8"/>
<circle cx="280" cy="153" r="8" fill="rgb(182,166,230)" opacity="0.8"/>
<circle cx="196" cy="261" r="5" fill="rgb(175,181,41)" opacity="0.8"/>
<circle cx="113" cy="344" r="13" fill="rgb(251,12,163)" opacity="0.8"/>
<circle cx="345" cy="181" r="13" fill="rgb(87,165,194)" opacity="0.8"/>
<circle cx="369" cy="37" r="20" fill="rgb(150,32,81)" opacity="0.8"/>
<circle cx="331" cy="155" r="14" fill="rgb(211,79,12)" opacity="0.8"/>
<circle cx="357" cy="215" r="19" fill="rgb(115,152,200)" opacity="0.8"/>
<circle cx="39" cy="219" r="14" fill="rgb(249,80,172)" opacity="0.8"/>
<circle cx="190" cy="161" r="16" fill="rgb(90,178,178)" opacity="0.8"/>
<circle cx="46" cy="140" r="12" fill="rgb(130,110,145)" opacity="0.8"/>
<circle cx="61" cy="227" r="13" fill="rgb(27,104,222)" opacity="0.8"/>
<circle cx="249" cy="210" r="14" fill="rgb(172,50,217)" opacity="0.8"/>
<circle cx="179" cy="144" r="3" fill="rgb(195,42,179)" opacity="0.8"/>
<circle cx="304" cy="34" r="8" fill="rgb(119,126,85)" opacity="0.8"/>
<circle cx="296" cy="58" r="15" fill="rgb(33,225,18)" opacity="0.8"/>
<circle cx="141" cy="191" r="16" fill="rgb(121,75,80)" opacity="0.8"/>
<circle cx="362" cy="10" r="16" fill="rgb(102,145,199)" opacity="0.8"/>
<circle cx="55" cy="274" r="16" fill="rgb(201,113,247)" opacity="0.8"/>
<circle cx="159" cy="327" r="14" fill="rgb(4,157,17)" opacity="0.8"/>
<circle cx="305" cy="45" r="16" fill="rgb(42,149,102)" opacity="0.8"/>
<circle cx="41" cy="202" r="7" fill="rgb(1,132,150)" opacity="0.8"/>
<circle cx="375" cy="249" r="4" fill="rgb(179,117,247)" opacity="0.8"/>
<circle cx="235" cy="88" r="12" fill="rgb(198,32,182)" opacity="0.8"/>
<circle cx="215" cy="265" r="18" fill="rgb(178,81,211)" opacity="0.8"/>
<circle cx="203" cy="100" r="20" fill="rgb(107,1,248)" opacity="0.8"/>
<circle cx="160" cy="155" r="12" fill="rgb(0,15,81)" opacity="0.8"/>
<circle cx="174" cy="15" r="17" fill="rgb(156,11,73)" opacity="0.8"/>
<circle cx="239" cy="50" r="5" fill="rgb(16,216,137)" opacity="0.8"/>
<circle cx="272" cy="196" r="12" fill="rgb(13,68,54)" opacity="0.8"/>
<circle cx="181" cy="188" r="17" fill="rgb(95,127,74)" opacity="0.8"/>
<circle cx="21" cy="155" r="11" fill="rgb(112,111,121)" opacity="0.8"/>
<circle cx="98" cy="271" r="15" fill="rgb(48,41,187)" opacity="0.8"/>
<circle cx="69" cy="231" r="17" fill="rgb(127,164,172)" opacity="0.8"/>
<circle cx="252" cy="366" r="20" fill="rgb(207,247,149)" opacity="0.8"/>
<circle cx="106" cy="235" r="8" fill="rgb(119,198,5)" opacity="0.8"/>
<circle cx="75" cy="283" r="9" fill="rgb(145,161,239)" opacity="0.8"/>
<circle cx="143" cy="50" r="12" fill="rgb(182,238,238)" opacity="0.8"/>
<circle cx="58" cy="26" r="6" fill="rgb(46,21,172)" opacity="0.8"/>
<circle cx="231" cy="289" r="5" fill="rgb(72,75,67)" opacity="0.8"/>
<circle cx="220" cy="169" r="20" fill="rgb(180,105,9)" opacity="0.8"/>
<circle cx="93" cy="199" r="20" fill="rgb(145,252,175)" opacity="0.8"/>
<circle cx="167" cy="322" r="10" fill="rgb(179,177,111)" opacity="0.8"/>
<circle cx="270" cy="335" r="8" fill="rgb(62,175,93)" opacity="0.8"/>
<circle cx="303" cy="58" r="15" fill="rgb(252,6,229)" opacity="0.8"/>
<circle cx="104" cy="140" r="7" fill="rgb(227,79,17)" opacity="0.8"/>
<circle cx="308" cy="61" r="19" fill="rgb(72,237,28)" opacity="0.8"/>
<circle cx="325" cy="125" r="16" fill="rgb(76,28,55)" opacity="0.8"/>
<circle cx="216" cy="295" r="4" fill="rgb(238,49,54)" opacity="0.8"/>
<circle cx="131" cy="289" r="14" fill="rgb(210,70,99)" opacity="0.8"/>
<circle cx="229" cy="261" r="9" fill="rgb(27,145,173)" opacity="0.8"/>
<circle cx="47" cy="352" r="4" fill="rgb(96,4,25)" opacity="0.8"/>
<circle cx="175" cy="0" r="12" fill="rgb(7,9,20)" opacity="0.8"/>
<circle cx="284" cy="278" r="18" fill="rgb(200,165,80)" opacity="0.8"/>
<circle cx="136" cy="110" r="16" fill="rgb(219,70,99)" opacity="0.8"/>
<circle cx="201" cy="12" r="6" fill="rgb(118,149,205)" opacity="0.8"/>
<circle cx="20" cy="69" r="15" fill="rgb(78,12,162)" opacity="0.8"/>
<circle cx="167" cy="271" r="8" fill="rgb(126,20,111)" opacity="0.8"/>
<circle cx="159" cy="25" r="17" fill="rgb(43,138,231)" opacity="0.8"/>
<circle cx="274" cy="203" r="15" fill="rgb(108,168,115)" opacity="0.8"/>
<circle cx="60" cy="244" r="16" fill="rgb(138,32,5)" opacity="0.8"/>
<circle cx="96" cy="246" r="10" fill="rgb(214,22,129)" opacity="0.8"/>
<circle cx="259" cy="324" r="20" fill="rgb(41,198,47)" opacity="0.8"/>
<circle cx="272" cy="351" r="20" fill="rgb(169,188,249)" opacity="0.8"/>
<circle cx="166" cy="44" r="5" fill="rgb(190,252,207)" opacity="0.8"/>
<circle cx="334" cy="4" r="20" fill="rgb(3,182,191)" opacity="0.8"/>
<circle cx="225" cy="106" r="10" fill="rgb(118,37,30)" opacity="0.8"/>
<circle cx="169" cy="133" r="20" fill="rgb(94,255,167)" opacity="0.8"/>
<circle cx="351" cy="63" r="3" fill="rgb(154,69,160)" opacity="0.8"/>
<circle cx="19" cy="319" r="14" fill="rgb(176,189,46)" opacity="0.8"/>
<circle cx="43" cy="165" r="12" fill="rgb(235,177,143)" opacity="0.8"/>
<circle cx="84" cy="278" r="3" fill="rgb(172,126,84)" opacity="0.8"/>
<circle cx="290" cy="358" r="8" fill="rgb(162,50,251)" opacity="0.8"/>
<circle cx="363" cy="235" r="9" fill="rgb(78,146,2)" opacity="0.8"/>
<circle cx="212" cy="89" r="17" fill="rgb(143,255,212)" opacity="0.8"/>
<circle cx="37" cy="329" r="12" fill="rgb(43,9,118)" opacity="0.8"/>
<circle cx="296" cy="169" r="8" fill="rgb(169,91,165)" opacity="0.8"/>
<circle cx="299" cy="199" r="13" fill="rgb(108,125,153)" opacity="0.8"/>
<circle cx="328" cy="331" r="20" fill="rgb(68,146,146)" opacity="0.8"/>
<circle cx="245" cy="111" r="9" fill="rgb(52,168,17)" opacity="0.8"/>
<circle cx="48" cy="207" r="11" fill="rgb(32,68,5)" opacity="0.8"/>
<circle cx="263" cy="178" r="15" fill="rgb(14,129,167)" opacity="0.8"/>
<circle cx="235" cy="369" r="14" fill="rgb(32,169,29)" opacity="0.8"/>
<circle cx="59" cy="348" r="7" fill="rgb(154,207,214)" opacity="0.8"/>
<circle cx="64" cy="245" r="10" fill="rgb(104,10,147)" opacity="0.8"/>
<circle cx="173" cy="211" r="13" fill="rgb(3,204,242)" opacity="0.8"/>
<circle cx="180" cy="360" r="16" fill="rgb(50,140,72)" opacity="0.8"/>
<circle cx="188" cy="1" r="9" fill="rgb(32,115,186)" opacity="0.8"/>
<circle cx="42" cy="253" r="7" fill="rgb(134,142,101)" opacity="0.8"/>
<circle cx="308" cy="278" r="14" fill="rgb(121,93,187)" opacity="0.8"/>
<circle cx="372" cy="240" r="18" fill="rgb(8,220,227)" opacity="0.8"/>
</svg>