<svg xmlns="http://www.w3.org/2000/svg" viewBox="0 0 400 400" width="400" height="400">
<rect width="400" height="400" fill="#ac9454"/>
<circle cx="215" cy="54" r="20" fill="rgb(96,107,174)" opacity="0.8"/>
<circle cx="333" cy="31" r="7" fill="rgb(189,35,120)" opacity="0.8"/>
<circle cx="368" cy="3" r="7" fill="rgb(13,65,78)" opacity="0.8"/>
<circle cx="47" cy="262" r="13" fill="rgb(220,155,15)" opacity="0.8"/>
<circle cx="60" cy="218" r="6" fill="rgb(245,25,151)" opacity="0.8"/>
<circle cx="282" cy="15" r="10" fill="rgb(8,199,146)" opacity="0.8"/>
<circle cx="227" cy="29" r="8" fill="rgb(249,216,251)" opacity="0.8"/>
<circle cx="367" cy="201" r="17" fill="rgb(84,120,239)" opacity="0.8"/>
<circle cx="67" cy="88" r="18" fill="rgb(88,80,10)" opacity="0.8"/>
<circle cx="237" cy="78" r="20" fill="rgb(182,15,166)" opacity="0.8"/>
<circle cx="75" cy="159" r="17" fill="rgb(199,250,218)" opacity="0.8"/>
<circle cx="335" cy="113" r="18" fill="rgb(220,50,224)" opacity="0.8"/>
<circle cx="243" cy="210" r="10" fill="rgb(134,112,73)" opacity="0.8"/>
<circle cx="222" cy="183" r="18" fill="rgb(27,52,111)" opacity="0.8"/>
<circle cx="140" cy="56" r="6" fill="rgb(42,192,254)" opacity="0.8"/>
<circle cx="173" cy="367" r="17" fill="rgb(65,186,5)" opacity="0.8"/>
<circle cx="50" cy="350" r="13" fill="rgb(107,143,14)" opacity="0.8"/>
<circle cx="100" cy="355" r="13" fill="rgb(251,19,3)" opacity="0.8"/>
<circle cx="215" cy="120" r="14" fill="rgb(221,31,16)" opacity="0.8"/>
<circle cx="12" cy="109" r="8" fill="rgb(54,152,181)" opacity="0.8"/>
<circle cx="310" cy="371" r="15" fill="rgb(123,131,198)" opacity="0.8"/>
<circle cx="138" cy="126" r="13" fill="rgb(91,130,119)" opacity="0.8"/>
<circle cx="320" cy="19" r="3" fill="rgb(174,96,47)" opacity="0.8"/>
<circle cx="161" cy="237" r="5" fill="rgb(70,86,116)" opacity="0.8"/>
<circle cx="8" cy="262" r="20" fill="rgb(155,230,52)" opacity="0.8"/>
<circle cx="253" cy="114" r="11" fill="rgb(121,209,36)" opacity="0.8"/>
<circle cx="291" cy="280" r="14" fill="rgb(154,15,183)" opacity="0.8"/>
<circle cx="225" cy="108" r="10" fill="rgb(118,249,208)" opacity="0.8"/>
<circle cx="237" cy="15" r="15" fill="rgb(44,54,191)" opacity="0.8"/>
<circle cx="176" cy="7" r="19" fill="rgb(88,50,197)" opacity="0.8"/>
<circle cx="158" cy="347" r="6" fill="rgb(66,206,230)" opacity="0.8"/>
<circle cx="268" cy="288" r="7" fill="rgb(248,213,66)" opacity="0.8"/>
<circle cx="155" cy="93" r="14" fill="rgb(133,110,170)" opacity="0.8"/>
<circle cx="29" cy="375" r="18" fill="rgb(121,97,111)" opacity="0.8"/>
<circle cx="292" cy="122" r="12" fill="rgb(200,92,222)" opacity="0.8"/>
<circle cx="151" cy="223" r="12" fill="rgb(14,180,110)" opacity="0.8"/>
<circle cx="10" cy="309" r="4" fill="rgb(248,151,45)" opacity="0.8"/>
<circle cx="64" cy="293" r="6" fill="rgb(229,203,186)" opacity="0.8"/>
<circle cx="240" cy="105" r="20" fill="rgb(237,17,7)" opacity="0.8"/>
<circle cx="24" cy="80" r="3" fill="rgb(208,198,164)" opacity="0.8"/>
<circle cx="359" cy="90" r="4" fill="rgb(104,101,143)" opacity="0.8"/>
<circle cx="248" cy="315" r="14" fill="rgb(66,174,101)" opacity="0.8"/>
<circle cx="209" cy="286" r="4" fill="rgb(211,102,229)" opacity="0.8"/>
<circle cx="41" cy="259" r="6" fill="rgb(235,12,23)" opacity="0.8"/>
<circle cx="282" cy="275" r="18" fill="rgb(249,106,98)" opacity="0.8"/>
<circle cx="220" cy="359" r="17" fill="rgb(173,14,177)" opacity="0.8"/>
<circle cx="285" cy="292" r="14" fill="rgb(139,18,34)" opacity="0.8"/>
<circle cx="325" cy="203" r="5" fill="rgb(209,95,203)" opacity="0.8"/>
<circle cx="300" cy="124" r="5" fill="rgb(4,98,115)" opacity="0.8"/>
<circle cx="101" cy="149" r="10" fill="rgb(206,175,13)" opacity="0.8"/>
<circle cx="340" cy="56" r="5" fill="rgb(79,120,68)" opacity="0.8"/>
</svg>