<svg xmlns="http://www.w3.org/2000/svg" viewBox="0 0 400 400" width="400" height="400">
<rect width="400" height="400" fill="#45abfb"/>
<circle cx="251" cy="130" r="8" fill="rgb(13,196,28)" opacity="0.8"/>
<circle cx="196" cy="125" r="11" fill="rgb(0,169,38)" opacity="0.8"/>
<circle cx="310" cy="228" r="13" fill="rgb(35,107,129)" opacity="0.8"/>
<circle cx="151" cy="378" r="8" fill="rgb(200,181,166)" opacity="0.8"/>
<circle cx="320" cy="346" r="9" fill="rgb(62,75,200)" opacity="0.8"/>
<circle cx="53" cy="211" r="6" fill="rgb(193,246,92)" opacity="0.8"/>
<circle cx="36" cy="352" r="12" fill="rgb(163,147,102)" opacity="0.8"/>
<circle cx="12" cy="144" r="19" fill="rgb(184,253,228)" opacity="0.8"/>
<circle cx="269" cy="33" r="13" fill="rgb(131,141,210)" opacity="0.8"/>
<circle cx="255" cy="242" r="16" fill="rgb(36,148,154)" opacity="0.8"/>
<circle cx="84" cy="165" r="11" fill="rgb(64,185,15)" opacity="0.8"/>
<circle cx="120" cy="280" r="16" fill="rgb(65,221,36)" opacity="0.8"/>
<circle cx="354" cy="91" r="20" fill="rgb(170,158,36)" opacity="0.8"/>
<circle cx="149" cy="353" r="9" fill="rgb(124,189,153)" opacity="0.8"/>
<circle cx="360" cy="58" r="20" fill="rgb(138,23,105)" opacity="0.8"/>
<circle cx="112" cy="222" r="17" fill="rgb(83,163,213)" opacity="0.8"/>
<circle cx="325" cy="307" r="4" fill="rgb(56,141,106)" opacity="0.8"/>
<circle cx="51" cy="134" r="15" fill="rgb(148,99,38)" opacity="0.8"/>
<circle cx="17" cy="115" r="15" fill="rgb(232,24,114)" opacity="0.8"/>
<circle cx="81" cy="19" r="4" fill="rgb(199,191,2)" opacity="0.8"/>
<circle cx="276" cy="138" r="4" fill="rgb(240,229,246)" opacity="0.8"/>
<circle cx="69" cy="128" r="12" fill="rgb(173,148,121)" opacity="0.8"/>
<circle cx="28" cy="44" r="6" fill="rgb(171,82,231)" opacity="0.8"/>
<circle cx="354" cy="215" r="19" fill="rgb(40,244,135)" opacity="0.8"/>
<circle cx="27" cy="233" r="8" fill="rgb(12,249,74)" opacity="0.8"/>
<circle cx="44" cy="237" r="14" fill="rgb(177,79,2)" opacity="0.8"/>
<circle cx="134" cy="207" r="8" fill="rgb(212,72,94)" opacity="0.8"/>
<circle cx="154" cy="38" r="10" fill="rgb(207,150,70)" opacity="0.8"/>
<circle cx="268" cy="339" r="19" fill="rgb(191,14,186)" opacity="0.8"/>
<circle cx="212" cy="158" r="12" fill="rgb(201,161,216)" opacity="0.8"/>
<circle cx="20" cy="303" r="18" fill="rgb(50,180,12)" opacity="0.8"/>
<circle cx="247" cy="232" r="11" fill="rgb(249,66,111)" opacity="0.8"/>
<circle cx="134" cy="30" r="18" fill="rgb(4,158,182)" opacity="0.8"/>
<circle cx="122" cy="337" r="10" fill="rgb(93,18,36)" opacity="0.8"/>
<circle cx="99" cy="342" r="7" fill="rgb(208,249,114)" opacity="0.8"/>
<circle cx="324" cy="211" r="16" fill="rgb(208,108,196)" opacity="0.8"/>
<circle cx="50" cy="186" r="14" fill="rgb(184,123,14)" opacity="0.8"/>
<circle cx="316" cy="221" r="5" fill="rgb(170,148,37)" opacity="0.8"/>
<circle cx="289" cy="84" r="17" fill="rgb(78,247,43)" opacity="0.8"/>
<circle cx="202" cy="95" r="4" fill="rgb(85,218,226)" opacity="0.8"/>
<circle cx="108" cy="232" r="14" fill="rgb(60,67,246)" opacity="0.8"/>
<circle cx="308" cy="12" r="11" fill="rgb(166,122,107)" opacity="0.8"/>
<circle cx="11" cy="289" r="6" fill="rgb(216,217,125)" opacity="0.8"/>
<circle cx="355" cy="308" r="14" fill="rgb(246,253,82)" opacity="0.8"/>
<circle cx="350" cy="220" r="15" fill="rgb(72,86,166)" opacity="0.8"/>
<circle cx="175" cy="320" r="3" fill="rgb(112,129,36)" opacity="0.8"/>
<circle cx="212" cy="232" r="13" fill="rgb(52,233,250)" opacity="0.8"/>
<circle cx="209" cy="235" r="16" fill="rgb(42,255,99)" opacity="0.8"/>
<circle cx="288" cy="205" r="6" fill="rgb(155,0,110)" opacity="0.8"/>
<circle cx="96" cy="16" r="9" fill="rgb(104,105,193)" opacity="0.8"/>
<circle cx="291" cy="312" r="8" fill="rgb(140,12,254)" opacity="0.8"/>
<circle cx="157" cy="51" r="16" fill="rgb(112,129,21)" opacity="0.8"/>
<circle cx="292" cy="93" r="4" fill="rgb(195,47,122)" opacity="0.8"/>
<circle cx="164" cy="336" r="3" fill="rgb(215,93,9)" opacity="0.8"/>
<circle cx="74" cy="46" r="4" fill="rgb(25,226,122)" opacity="0.8"/>
<circle cx="352" cy="318" r="14" fill="rgb(137,39,212)" opacity="0.8"/>
<circle cx="50" cy="113" r="20" fill="rgb(40,234,245)" opacity="0.8"/>
<circle cx="236" cy="73" r="20" fill="rgb(103,229,129)" opacity="0.8"/>
<circle cx="246" cy="338" r="12" fill="rgb(149,165,221)" opacity="0.8"/>
<circle cx="352" cy="85" r="7" fill="rgb(174,203,230)" opacity="0.8"/>
<circle cx="254" cy="66" r="12" fill="rgb(157,144,118)" opacity="0.8"/>
<circle cx="188" cy="297" r="19" fill="rgb(209,92,77)" opacity="0.8"/>
<circle cx="273" cy="380" r="12" fill="rgb(236,72,110)" opacity="0.8"/>
<circle cx="230" cy="12" r="9" fill="rgb(211,252,109)" opacity="0.8"/>
<circle cx="374" cy="67" r="7" fill="rgb(97,185,122)" opacity="0.8"/>
<circle cx="82" cy="138" r="6" fill="rgb(174,224,225)" opacity="0.8"/>
<circle cx="309" cy="239" r="3" fill="rgb(193,246,13)" opacity="0.8"/>
<circle cx="345" cy="201" r="13" fill="rgb(209,73,68)" opacity="0.8"/>
<circle cx="229" cy="260" r="10" fill="rgb(141,245,248)" opacity="0.8"/>
<circle cx="159" cy="160" r="20" fill="rgb(95,116,209)" opacity="0.8"/>
<circle cx="185" cy="373" r="7" fill="rgb(188,74,17)" opacity="0.8"/>
<circle cx="243" cy="29" r="18" fill="rgb(78,231,122)" opacity="0.8"/>
<circle cx="301" cy="63" r="5" fill="rgb(164,237,250)" opacity="0.8"/>
<circle cx="291" cy="65" r="10" fill="rgb(112,8,169)" opacity="0.8"/>
<circle cx="112" cy="164" r="14" fill="rgb(5,37,232)" opacity="0.8"/>
<circle cx="95" cy="71" r="20" fill="rgb(5,243,15)" opacity="0.8"/>
<circle cx="321" cy="314" r="12" fill="rgb(245,95,124)" opacity="0.8"/>
<circle cx="51" cy="330" r="17" fill="rgb(61,73,201)" opacity="0.8"/>
<circle cx="222" cy="379" r="4" fill="rgb(75,132,83)" opacity="0.8"/>
<circle cx="312" cy="42" r="17" fill="rgb(166,14,28)" opacity="0.8"/>
<circle cx="134" cy="15" r="15" fill="rgb(198,65,37)" opacity="0.8"/>
<circle cx="205" cy="292" r="14" fill="rgb(121,115,171)" opacity="0.8"/>
<circle cx="279" cy="252" r="19" fill="rgb(182,58,203)" opacity="0.8"/>
<circle cx="65" cy="317" r="7" fill="rgb(155,124,8)" opacity="0.8"/>
<circle cx="2" cy="12" r="20" fill="rgb(80,138,13)" opacity="0.8"/>
<circle cx="143" cy="245" r="20" fill="rgb(93,218,126)" opacity="0.8"/>
<circle cx="286" cy="287" r="9" fill="rgb(74,157,5)" opacity="0.8"/>
<circle cx="176" cy="84" r="17" fill="rgb(150,7,147)" opacity="0.8"/>
<circle cx="126" cy="297" r="4" fill="rgb(144,165,44)" opacity="0.8"/>
<circle cx="81" cy="256" r="15" fill="rgb(103,228,159)" opacity="0.8"/>
<circle cx="218" cy="198" r="14" fill="rgb(77,5,132)" opacity="0.8"/>
<circle cx="139" cy="307" r="18" fill="rgb(51,217,244)" opacity="0.8"/>
<circle cx="7" cy="9" r="13" fill="rgb(218,150,49)" opacity="0.8"/>
<circle cx="314" cy="108" r="16" fill="rgb(186,58,127)" opacity="0.8"/>
<circle cx="188" cy="90" r="14" fill="rgb(34,55,85)" opacity="0.8"/>
<circle cx="46" cy="25" r="4" fill="rgb(96,53,190)" opacity="0.8"/>
<circle cx="213" cy="232" r="20" fill="rgb(61,110,0)" opacity="0.8"/>
<circle cx="54" cy="140" r="7" fill="rgb(39,189,91)" opacity="0.8"/>
<circle cx="333" cy="238" r="12" fill="rgb(213,99,154)" opacity="0.8"/>
<circle cx="213" cy="139" r="20" fill="rgb(103,128,10)" opacity="0.8"/>
<circle cx="124" cy="129" r="15" fill="rgb(153,62,18)" opacity="0.8"/>
<circle cx="326" cy="139" r="8" fill="rgb(75,1,155)" opacity="0.8"/>
</svg>