<svg xmlns="http://www.w3.org/2000/svg" viewBox="0 0 400 400" width="400" height="400">
<rect width="400" height="400" fill="#ffd1c1"/>
<circle cx="346" cy="342" r="8" fill="rgb(97,50,28)" opacity="0.8"/>
<circle cx="119" cy="206" r="6" fill="rgb(82,86,12)" opacity="0.8"/>
<circle cx="74" cy="25" r="6" fill="rgb(191,13,157)" opacity="0.8"/>
<circle cx="279" cy="141" r="6" fill="rgb(211,62,165)" opacity="0.8"/>
<circle cx="224" cy="202" r="6" fill="rgb(119,152,30)" opacity="0.8"/>
<circle cx="156" cy="54" r="9" fill="rgb(142,42,108)" opacity="0.8"/>
<circle cx="327" cy="54" r="19" fill="rgb(39,127,149)" opacity="0.8"/>
<circle cx="29" cy="348" r="12" fill="rgb(39,241,173)" opacity="0.8"/>
<circle cx="174" cy="2" r="13" fill="rgb(0,42,165)" opacity="0.8"/>
<circle cx="108" cy="186" r="11" fill="rgb(128,168,55)" opacity="0.8"/>
<circle cx="213" cy="113" r="9" fill="rgb(249,174,178)" opacity="0.8"/>
<circle cx="201" cy="211" r="4" fill="rgb(36,125,133)" opacity="0.8"/>
<circle cx="109" cy="361" r="11" fill="rgb(229,95,219)" opacity="0.8"/>
<circle cx="304" cy="246" r="4" fill="rgb(234,102,214)" opacity="0.8"/>
<circle cx="246" cy="334" r="13" fill="rgb(139,145,235)" opacity="0.8"/>
<circle cx="237" cy="102" r="15" fill="rgb(201,75,59)" opacity="0.8"/>
<circle cx="72" cy="321" r="12" fill="rgb(112,47,78)" opacity="0.8"/>
<circle cx="128" cy="25" r="5" fill="rgb(53,38,250)" opacity="0.8"/>
<circle cx="353" cy="222" r="9" fill="rgb(251,144,172)" opacity="0.8"/>
<circle cx="39" cy="72" r="5" fill="rgb(129,229,92)" opacity="0.8"/>
<circle cx="177" cy="319" r="19" fill="rgb(91,26,196)" opacity="0.8"/>
<circle cx="103" cy="40" r="20" fill="rgb(31,46,157)" opacity="0.8"/>
<circle cx="241" cy="182" r="12" fill="rgb(241,36,177)" opacity="0.8"/>
<circle cx="364" cy="137" r="8" fill="rgb(95,182,73)" opacity="0.8"/>
<circle cx="215" cy="272" r="19" fill="rgb(104,173,226)" opacity="0.8"/>
<circle cx="356" cy="220" r="3" fill="rgb(117,190,157)" opacity="0.8"/>
<circle cx="273" cy="72" r="13" fill="rgb(139,19,177)" opacity="0.8"/>
<circle cx="77" cy="363" r="5" fill="rgb(43,66,8)" opacity="0.8"/>
<circle cx="135" cy="332" r="8" fill="rgb(251,139,66)" opacity="0.8"/>
<circle cx="140" cy="286" r="9" fill="rgb(169,100,252)" opacity="0.8"/>
<circle cx="17" cy="38" r="7" fill="rgb(14,188,54)" opacity="0.8"/>
<circle cx="109" cy="137" r="7" fill="rgb(62,94,246)" opacity="0.8"/>
<circle cx="65" cy="150" r="20" fill="rgb(232,217,219)" opacity="0.8"/>
<circle cx="146" cy="17" r="11" fill="rgb(35,21,193)" opacity="0.8"/>
<circle cx="322" cy="180" r="12" fill="rgb(116,47,153)" opacity="0.8"/>
<circle cx="122" cy="119" r="8" fill="rgb(161,184,65)" opacity="0.8"/>
<circle cx="291" cy="241" r="4" fill="rgb(28,19,242)" opacity="0.8"/>
<circle cx="230" cy="0" r="9" fill="rgb(229,29,42)" opacity="0.8"/>
<circle cx="93" cy="290" r="20" fill="rgb(216,87,78)" opacity="0.8"/>
<circle cx="11" cy="358" r="16" fill="rgb(163,112,67)" opacity="0.8"/>
<circle cx="208" cy="288" r="17" fill="rgb(88,123,201)" opacity="0.8"/>
<circle cx="359" cy="101" r="3" fill="rgb(168,187,90)" opacity="0.8"/>
<circle cx="172" cy="313" r="11" fill="rgb(32,119,113)" opacity="0.8"/>
<circle cx="5" cy="264" r="16" fill="rgb(3,68,101)" opacity="0.8"/>
<circle cx="94" cy="118" r="3" fill="rgb(237,244,99)" opacity="0.8"/>
<circle cx="368" cy="135" r="19" fill="rgb(11,242,42)" opacity="0.8"/>
<circle cx="157" cy="143" r="5" fill="rgb(81,108,162)" opacity="0.8"/>
<circle cx="22" cy="12" r="14" fill="rgb(223,57,178)" opacity="0.8"/>
<circle cx="157" cy="62" r="10" fill="rgb(161,183,185)" opacity="0.8"/>
<circle cx="58" cy="154" r="12" fill="rgb(49,12,200)" opacity="0.8"/>
<circle cx="354" cy="351" r="4" fill="rgb(195,39,168)" opacity="0.8"/>
<circle cx="131" cy="133" r="17" fill="rgb(178,125,181)" opacity="0.8"/>
<circle cx="183" cy="132" r="5" fill="rgb(13,147,25)" opacity="0.8"/>
<circle cx="220" cy="379" r="10" fill="rgb(214,5,90)" opacity="0.8"/>
<circle cx="363" cy="41" r="10" fill="rgb(77,52,67)" opacity="0.8"/>
<circle cx="202" cy="134" r="6" fill="rgb(48,61,197)" opacity="0.8"/>
<circle cx="275" cy="362" r="8" fill="rgb(249,56,110)" opacity="0.8"/>
<circle cx="143" cy="67" r="10" fill="rgb(207,12,23)" opacity="0.8"/>
<circle cx="8" cy="261" r="10" fill="rgb(203,107,138)" opacity="0.8"/>
<circle cx="310" cy="85" r="8" fill="rgb(29,156,100)" opacity="0.8"/>
<circle cx="93" cy="296" r="3" fill="rgb(214,25,124)" opacity="0.8"/>
</svg>