<svg xmlns="http://www.w3.org/2000/svg" viewBox="0 0 400 400" width="400" height="400">
<rect width="400" height="400" fill="#335d8d"/>
<circle cx="10" cy="59" r="5" fill="rgb(251,112,1)" opacity="0.8"/>
<circle cx="305" cy="357" r="16" fill="rgb(19,26,129)" opacity="0.8"/>
<circle cx="185" cy="377" r="11" fill="rgb(246,30,193)" opacity="0.8"/>
<circle cx="354" cy="44" r="6" fill="rgb(39,143,156)" opacity="0.8"/>
<circle cx="4" cy="226" r="19" fill="rgb(190,201,248)" opacity="0.8"/>
<circle cx="103" cy="208" r="17" fill="rgb(22,52,78)" opacity="0.8"/>
<circle cx="79" cy="350" r="12" fill="rgb(146,5,79)" opacity="0.8"/>
<circle cx="198" cy="234" r="17" fill="rgb(162,192,52)" opacity="0.8"/>
<circle cx="67" cy="321" r="8" fill="rgb(23,231,29)" opacity="0.8"/>
<circle cx="359" cy="75" r="6" fill="rgb(63,243,123)" opacity="0.8"/>
<circle cx="243" cy="22" r="6" fill="rgb(16,45,15)" opacity="0.8"/>
<circle cx="240" cy="213" r="4" fill="rgb(246,135,67)" opacity="0.8"/>
<circle cx="354" cy="335" r="7" fill="rgb(133,172,232)" opacity="0.8"/>
<circle cx="241" cy="284" r="16" fill="rgb(7,161,207)" opacity="0.8"/>
<circle cx="332" cy="28" r="4" fill="rgb(90,93,42)" opacity="0.8"/>
<circle cx="209" cy="32" r="7" fill="rgb(86,91,96)" opacity="0.8"/>
<circle cx="184" cy="105" r="13" fill="rgb(212,230,203)" opacity="0.8"/>
<circle cx="85" cy="192" r="17" fill="rgb(247,85,145)" opacity="0.8"/>
<circle cx="116" cy="284" r="16" fill="rgb(178,73,10)" opacity="0.8"/>
<circle cx="209" cy="266" r="9" fill="rgb(254,190,21)" opacity="0.8"/>
<circle cx="142" cy="153" r="15" fill="rgb(212,189,183)" opacity="0.8"/>
<circle cx="66" cy="14" r="19" fill="rgb(32,79,127)" opacity="0.8"/>
<circle cx="98" cy="105" r="18" fill="rgb(211,240,191)" opacity="0.8"/>
<circle cx="197" cy="369" r="5" fill="rgb(118,213,19)" opacity="0.8"/>
<circle cx="370" cy="168" r="11" fill="rgb(110,188,80)" opacity="0.8"/>
<circle cx="186" cy="139" r="11" fill="rgb(24,36,60)" opacity="0.8"/>
<circle cx="160" cy="260" r="3" fill="rgb(91,106,8)" opacity="0.8"/>
<circle cx="231" cy="62" r="8" fill="rgb(154,89,60)" opacity="0.8"/>
<circle cx="115" cy="21" r="4" fill="rgb(155,223,50)" opacity="0.8"/>
<circle cx="265" cy="274" r="5" fill="rgb(12,152,218)" opacity="0.8"/>
<circle cx="369" cy="303" r="12" fill="rgb(32,241,157)" opacity="0.8"/>
<circle cx="115" cy="370" r="19" fill="rgb(188,177,133)" opacity="0.8"/>
<circle cx="362" cy="259" r="14" fill="rgb(70,102,142)" opacity="0.8"/>
<circle cx="317" cy="40" r="10" fill="rgb(203,9,121)" opacity="0.8"/>
<circle cx="250" cy="292" r="16" fill="rgb(2,117,190)" opacity="0.8"/>
<circle cx="101" cy="345" r="19" fill="rgb(22,222,233)" opacity="0.8"/>
<circle cx="303" cy="214" r="18" fill="rgb(63,216,42)" opacity="0.8"/>
<circle cx="47" cy="310" r="3" fill="rgb(126,96,4)" opacity="0.8"/>
<circle cx="52" cy="38" r="7" fill="rgb(163,148,64)" opacity="0.8"/>
<circle cx="294" cy="283" r="18" fill="rgb(68,102,215)" opacity="0.8"/>
<circle cx="42" cy="31" r="10" fill="rgb(146,111,83)" opacity="0.8"/>
<circle cx="66" cy="204" r="5" fill="rgb(202,88,240)" opacity="0.8"/>
<circle cx="307" cy="365" r="12" fill="rgb(102,24,156)" opacity="0.8"/>
<circle cx="377" cy="379" r="17" fill="rgb(48,50,33)" opacity="0.8"/>
<circle cx="308" cy="122" r="15" fill="rgb(96,204,96)" opacity="0.8"/>
<circle cx="228" cy="274" r="16" fill="rgb(174,224,241)" opacity="0.8"/>
<circle cx="111" cy="143" r="20" fill="rgb(163,23,13)" opacity="0.8"/>
<circle cx="350" cy="359" r="11" fill="rgb(24,212,185)" opacity="0.8"/>
<circle cx="91" cy="20" r="17" fill="rgb(213,64,143)" opacity="0.8"/>
<circle cx="36" cy="101" r="19" fill="rgb(56,109,110)" opacity="0.8"/>
<circle cx="263" cy="183" r="4" fill="rgb(156,225,140)" opacity="0.8"/>
<circle cx="156" cy="347" r="8" fill="rgb(137,121,208)" opacity="0.8"/>
<circle cx="128" cy="165" r="14" fill="rgb(229,150,193)" opacity="0.8"/>
<circle cx="122" cy="161" r="10" fill="rgb(85,234,28)" opacity="0.8"/>
<circle cx="348" cy="82" r="9" fill="rgb(74,82,103)" opacity="0.8"/>
<circle cx="234" cy="212" r="12" fill="rgb(14,113,6)" opacity="0.8"/>
<circle cx="9" cy="157" r="4" fill="rgb(231,54,206)" opacity="0.8"/>
<circle cx="285" cy="249" r="14" fill="rgb(106,33,80)" opacity="0.8"/>
<circle cx="138" cy="309" r="9" fill="rgb(217,123,194)" opacity="0.8"/>
<circle cx="244" cy="29" r="12" fill="rgb(66,67,34)" opacity="0.8"/>
<circle cx="204" cy="79" r="17" fill="rgb(50,136,209)" opacity="0.8"/>
<circle cx="58" cy="83" r="12" fill="rgb(9,153,244)" opacity="0.8"/>
<circle cx="226" cy="8" r="16" fill="rgb(181,234,13)" opacity="0.8"/>
<circle cx="104" cy="223" r="14" fill="rgb(25,98,44)" opacity="0.8"/>
<circle cx="280" cy="120" r="20" fill="rgb(65,86,232)" opacity="0.8"/>
<circle cx="42" cy="179" r="5" fill="rgb(205,98,114)" opacity="0.8"/>
<circle cx="280" cy="276" r="6" fill="rgb(70,88,189)" opacity="0.8"/>
<circle cx="140" cy="317" r="19" fill="rgb(236,249,41)" opacity="0.8"/>
<circle cx="230" cy="245" r="4" fill="rgb(238,73,135)" opacity="0.8"/>
<circle cx="372" cy="254" r="10" fill="rgb(167,190,253)" opacity="0.8"/>
<circle cx="2" cy="368" r="6" fill="rgb(250,8,207)" opacity="0.8"/>
<circle cx="334" cy="367" r="13" fill="rgb(132,118,202)" opacity="0.8"/>
<circle cx="82" cy="92" r="9" fill="rgb(0,64,226)" opacity="0.8"/>
<circle cx="243" cy="218" r="4" fill="rgb(62,2,88)" opacity="0.8"/>
<circle cx="166" cy="66" r="11" fill="rgb(195,188,103)" opacity="0.8"/>
<circle cx="234" cy="154" r="3" fill="rgb(196,165,17)" opacity="0.8"/>
<circle cx="356" cy="35" r="8" fill="rgb(74,111,50)" opacity="0.8"/>
<circle cx="370" cy="362" r="8" fill="rgb(185,151,226)" opacity="0.8"/>
<circle cx="195" cy="316" r="4" fill="rgb(191,227,26)" opacity="0.8"/>
<circle cx="375" cy="54" r="8" fill="rgb(79,146,13)" opacity="0.8"/>
<circle cx="337" cy="85" r="18" fill="rgb(168,197,177)" opacity="0.8"/>
<circle cx="16" cy="370" r="3" fill="rgb(230,54,104)" opacity="0.8"/>
<circle cx="15" cy="360" r="7" fill="rgb(113,95,35)" opacity="0.8"/>
<circle cx="95" cy="7" r="20" fill="rgb(97,125,58)" opacity="0.8"/>
<circle cx="66" cy="321" r="13" fill="rgb(146,23,24)" opacity="0.8"/>
<circle cx="340" cy="258" r="8" fill="rgb(225,69,62)" opacity="0.8"/>
<circle cx="293" cy="81" r="18" fill="rgb(152,89,252)" opacity="0.8"/>
<circle cx="88" cy="248" r="4" fill="rgb(112,26,162)" opacity="0.8"/>
<circle cx="348" cy="171" r="18" fill="rgb(240,44,79)" opacity="0.8"/>
<circle cx="308" cy="13" r="14" fill="rgb(166,149,249)" opacity="0.8"/>
<circle cx="233" cy="324" r="16" fill="rgb(27,61,25)" opacity="0.8"/>
<circle cx="121" cy="216" r="15" fill="rgb(17,42,26)" opacity="0.8"/>
<circle cx="219" cy="45" r="4" fill="rgb(213,208,48)" opacity="0.8"/>
<circle cx="294" cy="373" r="13" fill="rgb(22,8,37)" opacity="0.8"/>
<circle cx="16" cy="35" r="11" fill="rgb(181,155,251)" opacity="0.8"/>
<circle cx="268" cy="367" r="16" fill="rgb(245,104,167)" opacity="0.8"/>
<circle cx="158" cy="220" r="5" fill="rgb(121,184,251)" opacity="0.8"/>
<circle cx="182" cy="161" r="6" fill="rgb(117,135,214)" opacity="0.8"/>
<circle cx="81" cy="127" r="13" fill="rgb(19,235,141)" opacity="0.8"/>
<circle cx="252" cy="151" r="10" fill="rgb(189,148,161)" opacity="0.8"/>
<circle cx="160" cy="61" r="5" fill="rgb(69,221,22)" opacity="0.8"/>
<circle cx="296" cy="281" r="13" fill="rgb(68,178,88)" opacity="0.8"/>
<circle cx="259" cy="366" r="12" fill="rgb(184,106,94)" opacity="0.8"/>
<circle cx="67" cy="228" r="12" fill="rgb(17,104,178)" opacity="0.8"/>
<circle cx="13" cy="48" r="18" fill="rgb(231,41,17)" opacity="0.8"/>
<circle cx="243" cy="224" r="15" fill="rgb(58,52,77)" opacity="0.8"/>
<circle cx="212" cy="133" r="14" fill="rgb(66,142,94)" opacity="0.8"/>
<circle cx="26" cy="309" r="9" fill="rgb(210,19,171)" opacity="0.8"/>
<circle cx="59" cy="89" r="11" fill="rgb(185,150,252)" opacity="0.8"/>
<circle cx="21" cy="36" r="5" fill="rgb(162,248,252)" opacity="0.8"/>
<circle cx="108" cy="76" r="14" fill="rgb(62,70,205)" opacity="0.8"/>
<circle cx="354" cy="134" r="7" fill="rgb(180,52,196)" opacity="0.8"/>
<circle cx="16" cy="227" r="3" fill="rgb(232,31,113)" opacity="0.8"/>
<circle cx="143" cy="272" r="7" fill="rgb(206,93,57)" opacity="0.8"/>
<circle cx="139" cy="369" r="9" fill="rgb(100,116,166)" opacity="0.8"/>
<circle cx="333" cy="224" r="12" fill="rgb(179,60,196)" opacity="0.8"/>
<circle cx="66" cy="212" r="12" fill="rgb(98,21,143)" opacity="0.8"/>
<circle cx="368" cy="365" r="18" fill="rgb(106,124,70)" opacity="0.8"/>
<circle cx="175" cy="11" r="18" fill="rgb(180,165,205)" opacity="0.8"/>
<circle cx="336" cy="85" r="11" fill="rgb(200,48,229)" opacity="0.8"/>
<circle cx="83" cy="124" r="9" fill="rgb(124,66,77)" opacity="0.8"/>
<circle cx="57" cy="26" r="16" fill="rgb(135,248,113)" opacity="0.8"/>
<circle cx="158" cy="179" r="8" fill="rgb(48,222,173)" opacity="0.8"/>
<circle cx="7" cy="106" r="11" fill="rgb(120,215,164)" opacity="0.8"/>
<circle cx="79" cy="378" r="14" fill="rgb(157,112,212)" opacity="0.8"/>
<circle cx="188" cy="188" r="4" fill="rgb(21,242,201)" opacity="0.8"/>
<circle cx="233" cy="67" r="6" fill="rgb(4,89,236)" opacity="0.8"/>
<circle cx="235" cy="263" r="6" fill="rgb(18,28,246)" opacity="0.8"/>
<circle cx="265" cy="306" r="9" fill="rgb(210,194,88)" opacity="0.8"/>
<circle cx="369" cy="97" r="6" fill="rgb(183,19,255)" opacity="0.8"/>
<circle cx="152" cy="68" r="16" fill="rgb(21,26,94)" opacity="0.8"/>
<circle cx="249" cy="8" r="12" fill="rgb(153,17,164)" opacity="0.8"/>
<circle cx="122" cy="213" r="5" fill="rgb(207,94,128)" opacity="0.8"/>
<circle cx="335" cy="272" r="18" fill="rgb(204,95,13)" opacity="0.8"/>
<circle cx="3" cy="285" r="14" fill="rgb(90,188,137)" opacity="0.8"/>
<circle cx="49" cy="76" r="7" fill="rgb(28,224,93)" opacity="0.8"/>
<circle cx="195" cy="377" r="12" fill="rgb(213,127,146)" opacity="0.8"/>
<circle cx="131" cy="155" r="8" fill="rgb(44,137,176)" opacity="0.8"/>
<circle cx="375" cy="289" r="16" fill="rgb(211,168,206)" opacity="0.8"/>
<circle cx="354" cy="276" r="15" fill="rgb(147,191,188)" opacity="0.8"/>
<circle cx="320" cy="330" r="3" fill="rgb(83,148,172)" opacity="0.8"/>
<circle cx="59" cy="1" r="6" fill="rgb(115,160,120)" opacity="0.8"/>
<circle cx="374" cy="211" r="20" fill="rgb(193,46,86)" opacity="0.8"/>
<circle cx="171" cy="175" r="13" fill="rgb(158,217,104)" opacity="0.8"/>
<circle cx="55" cy="335" r="12" fill="rgb(62,65,173)" opacity="0.8"/>
<circle cx="174" cy="180" r="9" fill="rgb(249,0,143)" opacity="0.8"/>
<circle cx="69" cy="152" r="15" fill="rgb(215,101,99)" opacity="0.8"/>
<circle cx="86" cy="10" r="17" fill="rgb(12,134,88)" opacity="0.8"/>
<circle cx="118" cy="344" r="13" fill="rgb(119,189,187)" opacity="0.8"/>
<circle cx="236" cy="307" r="14" fill="rgb(255,60,107)" opacity="0.8"/>
<circle cx="362" cy="278" r="12" fill="rgb(64,134,193)" opacity="0.8"/>
<circle cx="124" cy="250" r="10" fill="rgb(181,245,102)" opacity="0.8"/>
<circle cx="209" cy="14" r="10" fill="rgb(198,143,55)" opacity="0.8"/>
<circle cx="278" cy="305" r="16" fill="rgb(167,178,106)" opacity="0.8"/>
<circle cx="175" cy="75" r="14" fill="rgb(230,144,62)" opacity="0.8"/>
<circle cx="80" cy="142" r="15" fill="rgb(3,130,35)" opacity="0.8"/>
<circle cx="40" cy="305" r="4" fill="rgb(84,234,240)" opacity="0.8"/>
<circle cx="18" cy="201" r="12" fill="rgb(250,130,108)" opacity="0.8"/>
<circle cx="305" cy="44" r="6" fill="rgb(212,156,241)" opacity="0.8"/>
<circle cx="196" cy="357" r="18" fill="rgb(72,227,148)" opacity="0.8"/>
<circle cx="136" cy="232" r="3" fill="rgb(133,24,40)" opacity="0.8"/>
<circle cx="70" cy="222" r="17" fill="rgb(31,208,95)" opacity="0.8"/>
<circle cx="199" cy="296" r="10" fill="rgb(0,50,197)" opacity="0.8"/>
<circle cx="358" cy="152" r="19" fill="rgb(52,205,84)" opacity="0.8"/>
<circle cx="22" cy="136" r="8" fill="rgb(18,65,74)" opacity="0.8"/>
<circle cx="378" cy="188" r="4" fill="rgb(239,106,121)" opacity="0.8"/>
<circle cx="38" cy="290" r="8" fill="rgb(150,210,236)" opacity="0.8"/>
<circle cx="287" cy="32" r="3" fill="rgb(234,135,92)" opacity="0.8"/>
<circle cx="184" cy="285" r="16" fill="rgb(187,45,252)" opacity="0.8"/>
<circle cx="243" cy="83" r="3" fill="rgb(45,77,236)" opacity="0.8"/>
<circle cx="10" cy="242" r="19" fill="rgb(10,46,245)" opacity="0.8"/>
<circle cx="216" cy="51" r="7" fill="rgb(74,141,246)" opacity="0.8"/>
<circle cx="226" cy="314" r="16" fill="rgb(125,103,147)" opacity="0.8"/>
<circle cx="51" cy="205" r="16" fill="rgb(175,2,60)" opacity="0.8"/>
<circle cx="40" cy="306" r="17" fill="rgb(129,203,89)" opacity="0.8"/>
<circle cx="370" cy="113" r="4" fill="rgb(205,203,30)" opacity="0.8"/>
<circle cx="256" cy="286" r="5" fill="rgb(67,201,94)" opacity="0.8"/>
<circle cx="306" cy="50" r="11" fill="rgb(66,91,182)" opacity="0.8"/>
</svg>