<svg xmlns="http://www.w3.org/2000/svg" viewBox="0 0 400 400" width="400" height="400">
<rect width="400" height="400" fill="#66ba1a"/>
<circle cx="28" cy="217" r="8" fill="rgb(96,231,202)" opacity="0.8"/>
<circle cx="36" cy="229" r="7" fill="rgb(96,2,75)" opacity="0.8"/>
<circle cx="83" cy="6" r="12" fill="rgb(186,217,145)" opacity="0.8"/>
<circle cx="220" cy="25" r="14" fill="rgb(203,126,22)" opacity="0.8"/>
<circle cx="65" cy="74" r="15" fill="rgb(161,225,200)" opacity="0.8"/>
<circle cx="182" cy="197" r="8" fill="rgb(21,82,192)" opacity="0.8"/>
<circle cx="124" cy="189" r="5" fill="rgb(251,90,22)" opacity="0.8"/>
<circle cx="160" cy="0" r="16" fill="rgb(139,249,180)" opacity="0.8"/>
<circle cx="155" cy="291" r="17" fill="rgb(74,198,24)" opacity="0.8"/>
<circle cx="243" cy="8" r="10" fill="rgb(27,155,6)" opacity="0.8"/>
<circle cx="239" cy="365" r="14" fill="rgb(215,177,141)" opacity="0.8"/>
<circle cx="201" cy="182" r="17" fill="rgb(90,185,98)" opacity="0.8"/>
<circle cx="295" cy="75" r="17" fill="rgb(207,159,143)" opacity="0.8"/>
<circle cx="358" cy="322" r="19" fill="rgb(10,2,58)" opacity="0.8"/>
<circle cx="271" cy="105" r="12" fill="rgb(107,51,18)" opacity="0.8"/>
<circle cx="225" cy="48" r="8" fill="rgb(176,169,154)" opacity="0.8"/>
<circle cx="245" cy="190" r="20" fill="rgb(88,157,68)" opacity="0.8"/>
<circle cx="335" cy="179" r="14" fill="rgb(217,34,213)" opacity="0.8"/>
<circle cx="107" cy="177" r="20" fill="rgb(104,246,254)" opacity="0.8"/>
<circle cx="253" cy="137" r="6" fill="rgb(1,119,16)" opacity="0.8"/>
<circle cx="150" cy="261" r="13" fill="rgb(182,205,67)" opacity="0.8"/>
<circle cx="200" cy="244" r="18" fill="rgb(192,97,15)" opacity="0.8"/>
<circle cx="175" cy="10" r="8" fill="rgb(113,132,153)" opacity="0.8"/>
<circle cx="304" cy="297" r="8" fill="rgb(68,212,86)" opacity="0.8"/>
<circle cx="35" cy="156" r="10" fill="rgb(255,29,193)" opacity="0.8"/>
<circle cx="105" cy="376" r="7" fill="rgb(205,110,9)" opacity="0.8"/>
<circle cx="201" cy="3" r="20" fill="rgb(174,211,203)" opacity="0.8"/>
<circle cx="282" cy="115" r="14" fill="rgb(156,194,181)" opacity="0.8"/>
<circle cx="57" cy="182" r="15" fill="rgb(112,244,51)" opacity="0.8"/>
<circle cx="320" cy="153" r="12" fill="rgb(120,121,206)" opacity="0.8"/>
<circle cx="302" cy="296" r="13" fill="rgb(18,18,116)" opacity="0.8"/>
<circle cx="292" cy="279" r="16" fill="rgb(139,220,72)" opacity="0.8"/>
<circle cx="54" cy="46" r="10" fill="rgb(216,117,129)" opacity="0.8"/>
<circle cx="152" cy="57" r="15" fill="rgb(40,128,29)" opacity="0.8"/>
<circle cx="219" cy="185" r="15" fill="rgb(9,29,193)" opacity="0.8"/>
<circle cx="329" cy="41" r="20" fill="rgb(58,237,11)" opacity="0.8"/>
<circle cx="245" cy="101" r="5" fill="rgb(13,9,231)" opacity="0.8"/>
<circle cx="90" cy="28" r="14" fill="rgb(248,189,220)" opacity="0.8"/>
<circle cx="118" cy="89" r="17" fill="rgb(138,121,126)" opacity="0.8"/>
<circle cx="134" cy="261" r="8" fill="rgb(160,221,246)" opacity="0.8"/>
<circle cx="245" cy="226" r="14" fill="rgb(152,53,190)" opacity="0.8"/>
<circle cx="122" cy="113" r="8" fill="rgb(248,108,243)" opacity="0.8"/>
<circle cx="370" cy="227" r="13" fill="rgb(129,149,197)" opacity="0.8"/>
<circle cx="301" cy="347" r="3" fill="rgb(145,254,6)" opacity="0.8"/>
<circle cx="167" cy="332" r="6" fill="rgb(97,14,170)" opacity="0.8"/>
<circle cx="264" cy="331" r="18" fill="rgb(47,39,82)" opacity="0.8"/>
<circle cx="145" cy="18" r="15" fill="rgb(157,242,235)" opacity="0.8"/>
<circle cx="309" cy="129" r="3" fill="rgb(138,184,38)" opacity="0.8"/>
<circle cx="370" cy="100" r="5" fill="rgb(14,124,186)" opacity="0.8"/>
<circle cx="161" cy="138" r="8" fill="rgb(9,123,76)" opacity="0.8"/>
<circle cx="69" cy="234" r="15" fill="rgb(182,148,48)" opacity="0.8"/>
<circle cx="264" cy="244" r="5" fill="rgb(88,217,228)" opacity="0.8"/>
</svg>