<svg xmlns="http://www.w3.org/2000/svg" viewBox="0 0 400 400" width="400" height="400">
<rect width="400" height="400" fill="#012f3f"/>
<circle cx="92" cy="6" r="18" fill="rgb(39,244,85)" opacity="0.8"/>
<circle cx="257" cy="121" r="9" fill="rgb(140,45,16)" opacity="0.8"/>
<circle cx="104" cy="100" r="5" fill="rgb(252,82,50)" opacity="0.8"/>
<circle cx="292" cy="172" r="17" fill="rgb(7,68,181)" opacity="0.8"/>
<circle cx="321" cy="70" r="7" fill="rgb(234,110,219)" opacity="0.8"/>
<circle cx="8" cy="87" r="17" fill="rgb(234,153,155)" opacity="0.8"/>
<circle cx="137" cy="110" r="16" fill="rgb(190,173,173)" opacity="0.8"/>
<circle cx="17" cy="227" r="20" fill="rgb(136,161,97)" opacity="0.8"/>
<circle cx="348" cy="71" r="7" fill="rgb(174,160,33)" opacity="0.8"/>
<circle cx="5" cy="125" r="17" fill="rgb(217,152,100)" opacity="0.8"/>
<circle cx="96" cy="277" r="11" fill="rgb(52,188,139)" opacity="0.8"/>
<circle cx="72" cy="203" r="20" fill="rgb(12,215,150)" opacity="0.8"/>
<circle cx="165" cy="236" r="7" fill="rgb(78,92,206)" opacity="0.8"/>
<circle cx="166" cy="312" r="15" fill="rgb(115,116,135)" opacity="0.8"/>
<circle cx="163" cy="138" r="5" fill="rgb(66,30,250)" opacity="0.8"/>
<circle cx="29" cy="28" r="18" fill="rgb(41,232,26)" opacity="0.8"/>
<circle cx="274" cy="227" r="18" fill="rgb(154,19,166)" opacity="0.8"/>
<circle cx="354" cy="291" r="4" fill="rgb(240,107,18)" opacity="0.8"/>
<circle cx="168" cy="194" r="20" fill="rgb(244,21,111)" opacity="0.8"/>
<circle cx="118" cy="309" r="3" fill="rgb(66,43,46)" opacity="0.8"/>
<circle cx="112" cy="118" r="4" fill="rgb(46,218,195)" opacity="0.8"/>
<circle cx="32" cy="60" r="5" fill="rgb(71,229,117)" opacity="0.8"/>
<circle cx="7" cy="281" r="14" fill="rgb(169,57,8)" opacity="0.8"/>
<circle cx="58" cy="12" r="11" fill="rgb(114,145,11)" opacity="0.8"/>
<circle cx="18" cy="55" r="8" fill="rgb(144,254,34)" opacity="0.8"/>
<circle cx="23" cy="98" r="16" fill="rgb(225,155,133)" opacity="0.8"/>
<circle cx="181" cy="350" r="11" fill="rgb(82,9,222)" opacity="0.8"/>
<circle cx="6" cy="332" r="18" fill="rgb(144,108,22)" opacity="0.8"/>
<circle cx="195" cy="306" r="16" fill="rgb(111,189,38)" opacity="0.8"/>
<circle cx="125" cy="259" r="13" fill="rgb(130,13,135)" opacity="0.8"/>
<circle cx="192" cy="198" r="7" fill="rgb(148,59,235)" opacity="0.8"/>
<circle cx="367" cy="219" r="7" fill="rgb(61,74,146)" opacity="0.8"/>
<circle cx="280" cy="189" r="18" fill="rgb(150,2,211)" opacity="0.8"/>
<circle cx="336" cy="251" r="10" fill="rgb(10,109,139)" opacity="0.8"/>
<circle cx="161" cy="269" r="17" fill="rgb(195,65,214)" opacity="0.8"/>
<circle cx="203" cy="322" r="9" fill="rgb(196,172,220)" opacity="0.8"/>
<circle cx="27" cy="347" r="12" fill="rgb(150,226,56)" opacity="0.8"/>
<circle cx="316" cy="188" r="7" fill="rgb(104,171,220)" opacity="0.8"/>
<circle cx="77" cy="349" r="11" fill="rgb(180,40,164)" opacity="0.8"/>
<circle cx="1" cy="178" r="3" fill="rgb(126,237,177)" opacity="0.8"/>
<circle cx="64" cy="221" r="14" fill="rgb(250,216,70)" opacity="0.8"/>
<circle cx="304" cy="169" r="20" fill="rgb(57,231,157)" opacity="0.8"/>
<circle cx="71" cy="254" r="9" fill="rgb(40,23,233)" opacity="0.8"/>
<circle cx="20" cy="122" r="12" fill="rgb(148,155,40)" opacity="0.8"/>
<circle cx="121" cy="183" r="18" fill="rgb(5,130,217)" opacity="0.8"/>
<circle cx="49" cy="374" r="18" fill="rgb(167,153,29)" opacity="0.8"/>
<circle cx="176" cy="56" r="17" fill="rgb(120,234,16)" opacity="0.8"/>
<circle cx="70" cy="124" r="15" fill="rgb(189,69,228)" opacity="0.8"/>
<circle cx="345" cy="148" r="4" fill="rgb(88,163,3)" opacity="0.8"/>
<circle cx="241" cy="80" r="11" fill="rgb(40,211,6)" opacity="0.8"/>
<circle cx="375" cy="188" r="9" fill="rgb(48,247,247)" opacity="0.8"/>
<circle cx="139" cy="351" r="13" fill="rgb(105,71,36)" opacity="0.8"/>
<circle cx="154" cy="379" r="16" fill="rgb(245,8,204)" opacity="0.8"/>
<circle cx="373" cy="189" r="19" fill="rgb(236,79,236)" opacity="0.8"/>
<circle cx="303" cy="170" r="4" fill="rgb(207,151,169)" opacity="0.8"/>
<circle cx="20" cy="18" r="11" fill="rgb(112,176,111)" opacity="0.8"/>
<circle cx="243" cy="315" r="19" fill="rgb(211,122,36)" opacity="0.8"/>
<circle cx="192" cy="204" r="14" fill="rgb(255,247,82)" opacity="0.8"/>
<circle cx="147" cy="96" r="12" fill="rgb(232,175,236)" opacity="0.8"/>
<circle cx="120" cy="228" r="16" fill="rgb(227,91,87)" opacity="0.8"/>
<circle cx="65" cy="121" r="12" fill="rgb(19,158,175)" opacity="0.8"/>
<circle cx="132" cy="297" r="3" fill="rgb(102,103,157)" opacity="0.8"/>
<circle cx="41" cy="227" r="12" fill="rgb(226,23,179)" opacity="0.8"/>
<circle cx="208" cy="309" r="3" fill="rgb(174,20,250)" opacity="0.8"/>
<circle cx="362" cy="108" r="13" fill="rgb(155,71,195)" opacity="0.8"/>
<circle cx="310" cy="186" r="7" fill="rgb(206,40,241)" opacity="0.8"/>
<circle cx="237" cy="182" r="9" fill="rgb(40,192,91)" opacity="0.8"/>
<circle cx="188" cy="365" r="19" fill="rgb(168,225,70)" opacity="0.8"/>
<circle cx="124" cy="104" r="13" fill="rgb(205,235,145)" opacity="0.8"/>
<circle cx="292" cy="10" r="11" fill="rgb(79,231,135)" opacity="0.8"/>
<circle cx="50" cy="110" r="10" fill="rgb(17,161,123)" opacity="0.8"/>
<circle cx="294" cy="27" r="4" fill="rgb(131,110,183)" opacity="0.8"/>
<circle cx="85" cy="268" r="15" fill="rgb(40,4,143)" opacity="0.8"/>
<circle cx="34" cy="30" r="20" fill="rgb(67,193,74)" opacity="0.8"/>
<circle cx="380" cy="24" r="9" fill="rgb(186,148,9)" opacity="0.8"/>
<circle cx="71" cy="259" r="14" fill="rgb(142,170,229)" opacity="0.8"/>
<circle cx="235" cy="146" r="17" fill="rgb(67,121,175)" opacity="0.8"/>
<circle cx="283" cy="23" r="9" fill="rgb(113,23,101)" opacity="0.8"/>
<circle cx="83" cy="217" r="20" fill="rgb(96,65,192)" opacity="0.8"/>
<circle cx="358" cy="214" r="12" fill="rgb(249,13,250)" opacity="0.8"/>
<circle cx="75" cy="137" r="12" fill="rgb(228,171,164)" opacity="0.8"/>
<circle cx="101" cy="307" r="19" fill="rgb(75,126,187)" opacity="0.8"/>
<circle cx="128" cy="348" r="8" fill="rgb(179,218,11)" opacity="0.8"/>
<circle cx="204" cy="301" r="18" fill="rgb(0,249,0)" opacity="0.8"/>
<circle cx="197" cy="362" r="16" fill="rgb(130,120,51)" opacity="0.8"/>
<circle cx="258" cy="310" r="8" fill="rgb(137,164,50)" opacity="0.8"/>
<circle cx="101" cy="6" r="18" fill="rgb(160,21,104)" opacity="0.8"/>
<circle cx="173" cy="343" r="4" fill="rgb(27,17,226)" opacity="0.8"/>
<circle cx="245" cy="377" r="4" fill="rgb(15,68,31)" opacity="0.8"/>
<circle cx="169" cy="271" r="17" fill="rgb(198,134,107)" opacity="0.8"/>
<circle cx="340" cy="38" r="10" fill="rgb(204,115,89)" opacity="0.8"/>
<circle cx="215" cy="157" r="19" fill="rgb(1,45,80)" opacity="0.8"/>
</svg>