<svg xmlns="http://www.w3.org/2000/svg" viewBox="0 0 400 400" width="400" height="400">
<rect width="400" height="400" fill="#9a46e6"/>
<circle cx="201" cy="328" r="15" fill="rgb(51,112,162)" opacity="0.8"/>
<circle cx="112" cy="377" r="8" fill="rgb(210,110,57)" opacity="0.8"/>
<circle cx="364" cy="361" r="15" fill="rgb(90,74,197)" opacity="0.8"/>
<circle cx="26" cy="298" r="16" fill="rgb(79,198,186)" opacity="0.8"/>
<circle cx="54" cy="102" r="4" fill="rgb(162,167,248)" opacity="0.8"/>
<circle cx="249" cy="131" r="3" fill="rgb(185,76,20)" opacity="0.8"/>
<circle cx="174" cy="62" r="7" fill="rgb(92,219,96)" opacity="0.8"/>
<circle cx="3" cy="34" r="19" fill="rgb(105,84,205)" opacity="0.8"/>
<circle cx="82" cy="13" r="7" fill="rgb(153,123,85)" opacity="0.8"/>
<circle cx="249" cy="103" r="4" fill="rgb(107,246,148)" opacity="0.8"/>
<circle cx="245" cy="71" r="3" fill="rgb(230,58,29)" opacity="0.8"/>
<circle cx="375" cy="297" r="18" fill="rgb(108,38,166)" opacity="0.8"/>
<circle cx="143" cy="211" r="14" fill="rgb(118,101,177)" opacity="0.8"/>
<circle cx="50" cy="65" r="5" fill="rgb(129,121,148)" opacity="0.8"/>
<circle cx="338" cy="252" r="5" fill="rgb(49,38,147)" opacity="0.8"/>
<circle cx="2" cy="269" r="15" fill="rgb(131,16,227)" opacity="0.8"/>
<circle cx="304" cy="140" r="9" fill="rgb(125,128,220)" opacity="0.8"/>
<circle cx="194" cy="314" r="11" fill="rgb(60,132,107)" opacity="0.8"/>
<circle cx="241" cy="190" r="16" fill="rgb(209,43,14)" opacity="0.8"/>
<circle cx="270" cy="336" r="18" fill="rgb(12,77,231)" opacity="0.8"/>
<circle cx="46" cy="346" r="10" fill="rgb(2,194,49)" opacity="0.8"/>
<circle cx="177" cy="0" r="7" fill="rgb(144,92,111)" opacity="0.8"/>
<circle cx="84" cy="265" r="7" fill="rgb(134,59,207)" opacity="0.8"/>
<circle cx="349" cy="178" r="9" fill="rgb(133,182,238)" opacity="0.8"/>
<circle cx="180" cy="61" r="5" fill="rgb(125,66,105)" opacity="0.8"/>
<circle cx="293" cy="178" r="5" fill="rgb(70,221,193)" opacity="0.8"/>
<circle cx="8" cy="241" r="16" fill="rgb(226,51,204)" opacity="0.8"/>
<circle cx="47" cy="24" r="7" fill="rgb(35,108,253)" opacity="0.8"/>
<circle cx="132" cy="30" r="20" fill="rgb(25,246,168)" opacity="0.8"/>
<circle cx="221" cy="87" r="11" fill="rgb(134,164,65)" opacity="0.8"/>
<circle cx="74" cy="255" r="13" fill="rgb(30,29,245)" opacity="0.8"/>
<circle cx="373" cy="148" r="9" fill="rgb(65,30,33)" opacity="0.8"/>
<circle cx="288" cy="104" r="17" fill="rgb(113,138,87)" opacity="0.8"/>
<circle cx="314" cy="68" r="3" fill="rgb(59,168,122)" opacity="0.8"/>
<circle cx="221" cy="151" r="10" fill="rgb(10,190,236)" opacity="0.8"/>
<circle cx="235" cy="217" r="12" fill="rgb(141,245,81)" opacity="0.8"/>
<circle cx="246" cy="345" r="19" fill="rgb(33,52,227)" opacity="0.8"/>
<circle cx="119" cy="158" r="12" fill="rgb(17,86,240)" opacity="0.8"/>
<circle cx="3" cy="66" r="19" fill="rgb(255,178,197)" opacity="0.8"/>
<circle cx="323" cy="367" r="11" fill="rgb(110,114,179)" opacity="0.8"/>
<circle cx="126" cy="363" r="9" fill="rgb(59,22,103)" opacity="0.8"/>
<circle cx="140" cy="242" r="9" fill="rgb(120,168,244)" opacity="0.8"/>
<circle cx="206" cy="320" r="15" fill="rgb(3,111,13)" opacity="0.8"/>
<circle cx="29" cy="325" r="18" fill="rgb(69,209,174)" opacity="0.8"/>
<circle cx="71" cy="255" r="5" fill="rgb(125,94,225)" opacity="0.8"/>
<circle cx="83" cy="352" r="16" fill="rgb(100,213,152)" opacity="0.8"/>
<circle cx="316" cy="119" r="15" fill="rgb(86,225,135)" opacity="0.8"/>
<circle cx="288" cy="111" r="10" fill="rgb(91,56,66)" opacity="0.8"/>
<circle cx="298" cy="294" r="15" fill="rgb(134,179,78)" opacity="0.8"/>
<circle cx="135" cy="122" r="14" fill="rgb(18,100,242)" opacity="0.8"/>
<circle cx="38" cy="131" r="4" fill="rgb(221,144,238)" opacity="0.8"/>
<circle cx="364" cy="276" r="15" fill="rgb(78,134,110)" opacity="0.8"/>
<circle cx="124" cy="184" r="3" fill="rgb(135,255,6)" opacity="0.8"/>
<circle cx="333" cy="172" r="9" fill="rgb(61,155,42)" opacity="0.8"/>
<circle cx="31" cy="146" r="13" fill="rgb(19,40,169)" opacity="0.8"/>
<circle cx="92" cy="137" r="20" fill="rgb(243,189,212)" opacity="0.8"/>
<circle cx="146" cy="143" r="10" fill="rgb(100,221,1)" opacity="0.8"/>
<circle cx="106" cy="344" r="9" fill="rgb(154,224,29)" opacity="0.8"/>
<circle cx="27" cy="261" r="18" fill="rgb(128,222,77)" opacity="0.8"/>
<circle cx="330" cy="240" r="12" fill="rgb(242,53,249)" opacity="0.8"/>
<circle cx="103" cy="76" r="14" fill="rgb(159,3,137)" opacity="0.8"/>
<circle cx="136" cy="100" r="4" fill="rgb(20,55,8)" opacity="0.8"/>
<circle cx="38" cy="60" r="15" fill="rgb(141,174,40)" opacity="0.8"/>
<circle cx="160" cy="43" r="8" fill="rgb(252,118,213)" opacity="0.8"/>
<circle cx="115" cy="201" r="19" fill="rgb(164,87,253)" opacity="0.8"/>
<circle cx="342" cy="263" r="9" fill="rgb(57,29,75)" opacity="0.8"/>
<circle cx="14" cy="121" r="3" fill="rgb(244,176,228)" opacity="0.8"/>
<circle cx="253" cy="370" r="7" fill="rgb(242,84,6)" opacity="0.8"/>
<circle cx="351" cy="371" r="11" fill="rgb(65,104,193)" opacity="0.8"/>
<circle cx="236" cy="159" r="20" fill="rgb(232,132,173)" opacity="0.8"/>
<circle cx="351" cy="81" r="10" fill="rgb(2,108,246)" opacity="0.8"/>
<circle cx="253" cy="196" r="17" fill="rgb(34,224,97)" opacity="0.8"/>
<circle cx="202" cy="2" r="3" fill="rgb(129,153,13)" opacity="0.8"/>
<circle cx="370" cy="178" r="3" fill="rgb(67,199,216)" opacity="0.8"/>
<circle cx="189" cy="131" r="17" fill="rgb(227,220,95)" opacity="0.8"/>
<circle cx="41" cy="314" r="6" fill="rgb(31,157,201)" opacity="0.8"/>
<circle cx="96" cy="64" r="5" fill="rgb(59,212,49)" opacity="0.8"/>
<circle cx="370" cy="370" r="6" fill="rgb(187,47,224)" opacity="0.8"/>
<circle cx="272" cy="317" r="14" fill="rgb(210,46,106)" opacity="0.8"/>
<circle cx="18" cy="292" r="6" fill="rgb(116,203,104)" opacity="0.8"/>
<circle cx="147" cy="331" r="11" fill="rgb(27,28,160)" opacity="0.8"/>
<circle cx="252" cy="267" r="14" fill="rgb(35,184,97)" opacity="0.8"/>
<circle cx="313" cy="133" r="9" fill="rgb(220,2,27)" opacity="0.8"/>
<circle cx="351" cy="295" r="17" fill="rgb(203,106,176)" opacity="0.8"/>
<circle cx="209" cy="134" r="14" fill="rgb(183,27,197)" opacity="0.8"/>
<circle cx="18" cy="104" r="12" fill="rgb(206,22,119)" opacity="0.8"/>
<circle cx="196" cy="290" r="10" fill="rgb(233,94,90)" opacity="0.8"/>
<circle cx="18" cy="72" r="14" fill="rgb(26,53,133)" opacity="0.8"/>
<circle cx="52" cy="201" r="12" fill="rgb(98,150,185)" opacity="0.8"/>
<circle cx="339" cy="12" r="12" fill="rgb(49,5,196)" opacity="0.8"/>
<circle cx="268" cy="331" r="13" fill="rgb(197,32,26)" opacity="0.8"/>
<circle cx="97" cy="342" r="3" fill="rgb(236,25,56)" opacity="0.8"/>
<circle cx="92" cy="29" r="5" fill="rgb(200,176,166)" opacity="0.8"/>
<circle cx="226" cy="217" r="5" fill="rgb(249,12,178)" opacity="0.8"/>
<circle cx="69" cy="224" r="9" fill="rgb(161,225,122)" opacity="0.8"/>
<circle cx="111" cy="258" r="9" fill="rgb(47,201,218)" opacity="0.8"/>
<circle cx="185" cy="267" r="19" fill="rgb(195,84,99)" opacity="0.8"/>
<circle cx="157" cy="218" r="19" fill="rgb(245,173,183)" opacity="0.8"/>
<circle cx="15" cy="273" r="7" fill="rgb(137,241,184)" opacity="0.8"/>
<circle cx="183" cy="218" r="12" fill="rgb(26,60,239)" opacity="0.8"/>
<circle cx="138" cy="379" r="4" fill="rgb(78,242,135)" opacity="0.8"/>
<circle cx="227" cy="34" r="9" fill="rgb(53,146,108)" opacity="0.8"/>
<circle cx="373" cy="105" r="14" fill="rgb(240,136,85)" opacity="0.8"/>
<circle cx="20" cy="145" r="7" fill="rgb(125,193,198)" opacity="0.8"/>
<circle cx="106" cy="239" r="4" fill="rgb(117,80,117)" opacity="0.8"/>
<circle cx="140" cy="305" r="11" fill="rgb(253,251,243)" opacity="0.8"/>
<circle cx="265" cy="297" r="17" fill="rgb(39,122,128)" opacity="0.8"/>
<circle cx="189" cy="128" r="4" fill="rgb(237,95,50)" opacity="0.8"/>
<circle cx="311" cy="61" r="10" fill="rgb(153,112,39)" opacity="0.8"/>
<circle cx="191" cy="355" r="9" fill="rgb(110,10,149)" opacity="0.8"/>
<circle cx="151" cy="293" r="8" fill="rgb(155,81,59)" opacity="0.8"/>
<circle cx="292" cy="327" r="19" fill="rgb(182,132,125)" opacity="0.8"/>
<circle cx="175" cy="120" r="9" fill="rgb(163,75,75)" opacity="0.8"/>
<circle cx="252" cy="233" r="4" fill="rgb(139,194,77)" opacity="0.8"/>
<circle cx="183" cy="170" r="14" fill="rgb(31,75,37)" opacity="0.8"/>
<circle cx="240" cy="281" r="12" fill="rgb(208,130,165)" opacity="0.8"/>
<circle cx="29" cy="248" r="17" fill="rgb(214,78,50)" opacity="0.8"/>
<circle cx="171" cy="13" r="15" fill="rgb(115,129,146)" opacity="0.8"/>
<circle cx="88" cy="342" r="8" fill="rgb(231,67,168)" opacity="0.8"/>
<circle cx="85" cy="73" r="16" fill="rgb(41,74,119)" opacity="0.8"/>
<circle cx="198" cy="227" r="15" fill="rgb(1,182,49)" opacity="0.8"/>
<circle cx="164" cy="112" r="16" fill="rgb(254,221,84)" opacity="0.8"/>
<circle cx="257" cy="230" r="10" fill="rgb(217,107,208)" opacity="0.8"/>
<circle cx="70" cy="125" r="11" fill="rgb(45,109,159)" opacity="0.8"/>
<circle cx="120" cy="286" r="20" fill="rgb(123,238,201)" opacity="0.8"/>
<circle cx="285" cy="78" r="3" fill="rgb(139,140,195)" opacity="0.8"/>
<circle cx="69" cy="82" r="9" fill="rgb(13,232,107)" opacity="0.8"/>
<circle cx="57" cy="293" r="16" fill="rgb(32,33,238)" opacity="0.8"/>
<circle cx="308" cy="40" r="7" fill="rgb(32,106,112)" opacity="0.8"/>
<circle cx="80" cy="80" r="20" fill="rgb(222,244,37)" opacity="0.8"/>
<circle cx="356" cy="45" r="9" fill="rgb(60,211,53)" opacity="0.8"/>
<circle cx="46" cy="116" r="3" fill="rgb(47,144,172)" opacity="0.8"/>
<circle cx="347" cy="348" r="4" fill="rgb(120,39,10)" opacity="0.8"/>
<circle cx="174" cy="89" r="4" fill="rgb(25,225,20)" opacity="0.8"/>
<circle cx="254" cy="273" r="15" fill="rgb(12,146,231)" opacity="0.8"/>
<circle cx="320" cy="229" r="20" fill="rgb(75,74,166)" opacity="0.8"/>
<circle cx="314" cy="0" r="10" fill="rgb(52,141,234)" opacity="0.8"/>
<circle cx="219" cy="48" r="11" fill="rgb(56,4,208)" opacity="0.8"/>
<circle cx="7" cy="159" r="17" fill="rgb(154,152,134)" opacity="0.8"/>
<circle cx="184" cy="75" r="19" fill="rgb(181,254,183)" opacity="0.8"/>
<circle cx="49" cy="324" r="16" fill="rgb(141,177,112)" opacity="0.8"/>
<circle cx="119" cy="276" r="8" fill="rgb(142,56,18)" opacity="0.8"/>
<circle cx="271" cy="172" r="13" fill="rgb(176,122,224)" opacity="0.8"/>
<circle cx="83" cy="341" r="13" fill="rgb(56,130,78)" opacity="0.8"/>
<circle cx="55" cy="53" r="5" fill="rgb(58,106,102)" opacity="0.8"/>
<circle cx="305" cy="63" r="18" fill="rgb(30,203,181)" opacity="0.8"/>
<circle cx="97" cy="306" r="18" fill="rgb(35,110,126)" opacity="0.8"/>
<circle cx="375" cy="229" r="11" fill="rgb(110,178,156)" opacity="0.8"/>
<circle cx="7" cy="235" r="12" fill="rgb(162,56,134)" opacity="0.8"/>
<circle cx="372" cy="100" r="8" fill="rgb(164,76,237)" opacity="0.8"/>
<circle cx="142" cy="363" r="12" fill="rgb(165,42,76)" opacity="0.8"/>
<circle cx="314" cy="95" r="4" fill="rgb(175,184,108)" opacity="0.8"/>
<circle cx="225" cy="184" r="16" fill="rgb(241,161,33)" opacity="0.8"/>
<circle cx="256" cy="74" r="7" fill="rgb(16,13,61)" opacity="0.8"/>
<circle cx="202" cy="22" r="4" fill="rgb(13,137,135)" opacity="0.8"/>
</svg>