<svg xmlns="http://www.w3.org/2000/svg" viewBox="0 0 400 400" width="400" height="400">
<rect width="400" height="400" fill="#cc7434"/>
<circle cx="212" cy="356" r="5" fill="rgb(33,19,38)" opacity="0.8"/>
<circle cx="187" cy="234" r="7" fill="rgb(0,182,170)" opacity="0.8"/>
<circle cx="317" cy="53" r="19" fill="rgb(134,244,129)" opacity="0.8"/>
<circle cx="67" cy="345" r="7" fill="rgb(11,32,89)" opacity="0.8"/>
<circle cx="153" cy="361" r="14" fill="rgb(108,133,167)" opacity="0.8"/>
<circle cx="79" cy="167" r="3" fill="rgb(13,61,135)" opacity="0.8"/>
<circle cx="92" cy="145" r="14" fill="rgb(164,90,9)" opacity="0.8"/>
<circle cx="233" cy="41" r="8" fill="rgb(186,178,19)" opacity="0.8"/>
<circle cx="127" cy="323" r="11" fill="rgb(68,162,3)" opacity="0.8"/>
<circle cx="12" cy="112" r="7" fill="rgb(133,254,168)" opacity="0.8"/>
<circle cx="200" cy="111" r="13" fill="rgb(7,194,221)" opacity="0.8"/>
<circle cx="15" cy="164" r="7" fill="rgb(47,58,125)" opacity="0.8"/>
<circle cx="337" cy="230" r="17" fill="rgb(203,99,247)" opacity="0.8"/>
<circle cx="278" cy="305" r="8" fill="rgb(150,225,56)" opacity="0.8"/>
<circle cx="167" cy="154" r="4" fill="rgb(221,220,109)" opacity="0.8"/>
<circle cx="358" cy="228" r="14" fill="rgb(179,82,196)" opacity="0.8"/>
<circle cx="39" cy="376" r="16" fill="rgb(125,50,232)" opacity="0.8"/>
<circle cx="38" cy="201" r="9" fill="rgb(225,153,71)" opacity="0.8"/>
<circle cx="340" cy="136" r="12" fill="rgb(53,37,224)" opacity="0.8"/>
<circle cx="291" cy="224" r="13" fill="rgb(171,178,166)" opacity="0.8"/>
<circle cx="139" cy="183" r="8" fill="rgb(71,227,158)" opacity="0.8"/>
<circle cx="113" cy="217" r="13" fill="rgb(251,223,205)" opacity="0.8"/>
<circle cx="198" cy="51" r="12" fill="rgb(243,224,252)" opacity="0.8"/>
<circle cx="12" cy="8" r="15" fill="rgb(21,6,223)" opacity="0.8"/>
<circle cx="26" cy="162" r="20" fill="rgb(184,252,8)" opacity="0.8"/>
<circle cx="147" cy="70" r="14" fill="rgb(244,206,59)" opacity="0.8"/>
<circle cx="326" cy="118" r="19" fill="rgb(17,74,218)" opacity="0.8"/>
<circle cx="61" cy="325" r="17" fill="rgb(61,144,39)" opacity="0.8"/>
<circle cx="199" cy="348" r="18" fill="rgb(184,144,248)" opacity="0.8"/>
<circle cx="246" cy="185" r="5" fill="rgb(70,106,70)" opacity="0.8"/>
<circle cx="240" cy="24" r="11" fill="rgb(163,234,136)" opacity="0.8"/>
<circle cx="256" cy="109" r="6" fill="rgb(254,110,135)" opacity="0.8"/>
<circle cx="3" cy="105" r="14" fill="rgb(101,131,89)" opacity="0.8"/>
<circle cx="87" cy="369" r="8" fill="rgb(60,66,6)" opacity="0.8"/>
<circle cx="341" cy="313" r="13" fill="rgb(82,212,244)" opacity="0.8"/>
<circle cx="104" cy="147" r="6" fill="rgb(57,53,200)" opacity="0.8"/>
<circle cx="111" cy="62" r="6" fill="rgb(53,54,129)" opacity="0.8"/>
<circle cx="313" cy="308" r="13" fill="rgb(239,237,54)" opacity="0.8"/>
<circle cx="344" cy="240" r="8" fill="rgb(187,47,231)" opacity="0.8"/>
<circle cx="26" cy="54" r="4" fill="rgb(126,220,77)" opacity="0.8"/>
<circle cx="169" cy="153" r="5" fill="rgb(102,81,182)" opacity="0.8"/>
<circle cx="64" cy="148" r="13" fill="rgb(59,59,65)" opacity="0.8"/>
<circle cx="86" cy="150" r="15" fill="rgb(80,143,11)" opacity="0.8"/>
<circle cx="154" cy="67" r="9" fill="rgb(243,43,227)" opacity="0.8"/>
<circle cx="73" cy="25" r="3" fill="rgb(227,157,12)" opacity="0.8"/>
<circle cx="303" cy="258" r="15" fill="rgb(129,163,76)" opacity="0.8"/>
<circle cx="19" cy="71" r="17" fill="rgb(225,213,144)" opacity="0.8"/>
<circle cx="39" cy="149" r="5" fill="rgb(96,22,43)" opacity="0.8"/>
<circle cx="266" cy="325" r="3" fill="rgb(6,186,232)" opacity="0.8"/>
<circle cx="268" cy="15" r="16" fill="rgb(182,242,42)" opacity="0.8"/>
<circle cx="129" cy="37" r="17" fill="rgb(141,12,176)" opacity="0.8"/>
<circle cx="54" cy="58" r="19" fill="rgb(191,231,175)" opacity="0.8"/>
<circle cx="317" cy="224" r="13" fill="rgb(203,140,244)" opacity="0.8"/>
<circle cx="50" cy="246" r="18" fill="rgb(19,191,231)" opacity="0.8"/>
<circle cx="208" cy="305" r="12" fill="rgb(244,32,172)" opacity="0.8"/>
<circle cx="131" cy="18" r="14" fill="rgb(197,48,189)" opacity="0.8"/>
<circle cx="204" cy="113" r="15" fill="rgb(164,20,131)" opacity="0.8"/>
<circle cx="15" cy="280" r="12" fill="rgb(58,225,201)" opacity="0.8"/>
<circle cx="76" cy="255" r="11" fill="rgb(199,101,55)" opacity="0.8"/>
<circle cx="164" cy="334" r="4" fill="rgb(116,70,97)" opacity="0.8"/>
<circle cx="24" cy="190" r="7" fill="rgb(34,175,149)" opacity="0.8"/>
<circle cx="341" cy="38" r="11" fill="rgb(16,188,144)" opacity="0.8"/>
<circle cx="156" cy="218" r="13" fill="rgb(240,214,127)" opacity="0.8"/>
<circle cx="4" cy="371" r="13" fill="rgb(32,171,144)" opacity="0.8"/>
<circle cx="179" cy="207" r="20" fill="rgb(216,111,186)" opacity="0.8"/>
<circle cx="59" cy="297" r="15" fill="rgb(100,226,149)" opacity="0.8"/>
<circle cx="56" cy="344" r="9" fill="rgb(115,191,104)" opacity="0.8"/>
<circle cx="316" cy="230" r="16" fill="rgb(159,96,56)" opacity="0.8"/>
<circle cx="273" cy="359" r="9" fill="rgb(237,232,235)" opacity="0.8"/>
<circle cx="214" cy="129" r="14" fill="rgb(219,114,97)" opacity="0.8"/>
<circle cx="164" cy="287" r="16" fill="rgb(109,151,241)" opacity="0.8"/>
<circle cx="172" cy="345" r="16" fill="rgb(213,143,61)" opacity="0.8"/>
<circle cx="7" cy="137" r="8" fill="rgb(30,113,234)" opacity="0.8"/>
<circle cx="262" cy="321" r="19" fill="rgb(248,124,189)" opacity="0.8"/>
<circle cx="379" cy="235" r="9" fill="rgb(233,155,246)" opacity="0.8"/>
<circle cx="85" cy="18" r="18" fill="rgb(184,9,105)" opacity="0.8"/>
<circle cx="301" cy="125" r="18" fill="rgb(187,97,40)" opacity="0.8"/>
<circle cx="103" cy="168" r="11" fill="rgb(68,128,209)" opacity="0.8"/>
<circle cx="356" cy="103" r="12" fill="rgb(32,9,250)" opacity="0.8"/>
<circle cx="3" cy="98" r="5" fill="rgb(162,199,154)" opacity="0.8"/>
<circle cx="369" cy="62" r="13" fill="rgb(170,15,38)" opacity="0.8"/>
<circle cx="57" cy="58" r="7" fill="rgb(111,211,144)" opacity="0.8"/>
<circle cx="312" cy="342" r="11" fill="rgb(91,74,43)" opacity="0.8"/>
<circle cx="179" cy="156" r="18" fill="rgb(16,104,103)" opacity="0.8"/>
<circle cx="342" cy="191" r="6" fill="rgb(37,240,88)" opacity="0.8"/>
<circle cx="36" cy="329" r="6" fill="rgb(83,29,247)" opacity="0.8"/>
<circle cx="340" cy="255" r="7" fill="rgb(13,215,185)" opacity="0.8"/>
<circle cx="268" cy="228" r="6" fill="rgb(7,78,255)" opacity="0.8"/>
<circle cx="87" cy="289" r="13" fill="rgb(134,236,44)" opacity="0.8"/>
<circle cx="88" cy="339" r="18" fill="rgb(62,198,178)" opacity="0.8"/>
<circle cx="339" cy="53" r="4" fill="rgb(196,138,97)" opacity="0.8"/>
<circle cx="198" cy="71" r="13" fill="rgb(146,207,91)" opacity="0.8"/>
<circle cx="15" cy="127" r="7" fill="rgb(25,50,232)" opacity="0.8"/>
<circle cx="133" cy="233" r="10" fill="rgb(70,98,152)" opacity="0.8"/>
<circle cx="241" cy="96" r="3" fill="rgb(64,188,124)" opacity="0.8"/>
<circle cx="240" cy="68" r="9" fill="rgb(138,180,224)" opacity="0.8"/>
<circle cx="233" cy="27" r="20" fill="rgb(213,15,193)" opacity="0.8"/>
<circle cx="171" cy="147" r="15" fill="rgb(246,12,16)" opacity="0.8"/>
<circle cx="139" cy="61" r="20" fill="rgb(148,158,51)" opacity="0.8"/>
<circle cx="218" cy="265" r="16" fill="rgb(218,6,201)" opacity="0.8"/>
<circle cx="280" cy="178" r="5" fill="rgb(66,164,85)" opacity="0.8"/>
<circle cx="162" cy="275" r="16" fill="rgb(163,101,190)" opacity="0.8"/>
<circle cx="43" cy="241" r="16" fill="rgb(174,218,45)" opacity="0.8"/>
<circle cx="174" cy="201" r="8" fill="rgb(76,28,185)" opacity="0.8"/>
<circle cx="322" cy="292" r="15" fill="rgb(186,116,72)" opacity="0.8"/>
<circle cx="3" cy="83" r="9" fill="rgb(197,108,247)" opacity="0.8"/>
<circle cx="60" cy="94" r="4" fill="rgb(142,5,79)" opacity="0.8"/>
<circle cx="100" cy="64" r="12" fill="rgb(159,237,115)" opacity="0.8"/>
<circle cx="142" cy="285" r="3" fill="rgb(122,133,217)" opacity="0.8"/>
<circle cx="201" cy="52" r="6" fill="rgb(48,59,174)" opacity="0.8"/>
<circle cx="74" cy="147" r="16" fill="rgb(207,1,224)" opacity="0.8"/>
<circle cx="275" cy="374" r="19" fill="rgb(191,44,213)" opacity="0.8"/>
<circle cx="239" cy="107" r="8" fill="rgb(118,253,49)" opacity="0.8"/>
<circle cx="290" cy="268" r="19" fill="rgb(39,125,122)" opacity="0.8"/>
<circle cx="88" cy="149" r="20" fill="rgb(208,18,51)" opacity="0.8"/>
<circle cx="39" cy="56" r="8" fill="rgb(232,147,236)" opacity="0.8"/>
<circle cx="4" cy="77" r="14" fill="rgb(199,215,50)" opacity="0.8"/>
<circle cx="64" cy="176" r="12" fill="rgb(69,214,124)" opacity="0.8"/>
<circle cx="167" cy="66" r="10" fill="rgb(244,85,71)" opacity="0.8"/>
<circle cx="43" cy="360" r="8" fill="rgb(81,51,208)" opacity="0.8"/>
<circle cx="27" cy="204" r="19" fill="rgb(164,106,154)" opacity="0.8"/>
<circle cx="181" cy="224" r="12" fill="rgb(104,153,25)" opacity="0.8"/>
<circle cx="180" cy="199" r="3" fill="rgb(175,209,89)" opacity="0.8"/>
<circle cx="50" cy="352" r="9" fill="rgb(41,68,114)" opacity="0.8"/>
<circle cx="150" cy="39" r="17" fill="rgb(172,66,0)" opacity="0.8"/>
<circle cx="16" cy="70" r="5" fill="rgb(177,90,222)" opacity="0.8"/>
<circle cx="176" cy="57" r="19" fill="rgb(23,151,173)" opacity="0.8"/>
<circle cx="260" cy="232" r="6" fill="rgb(238,202,90)" opacity="0.8"/>
<circle cx="93" cy="300" r="10" fill="rgb(171,176,238)" opacity="0.8"/>
<circle cx="13" cy="380" r="5" fill="rgb(1,251,179)" opacity="0.8"/>
<circle cx="197" cy="119" r="3" fill="rgb(135,146,202)" opacity="0.8"/>
<circle cx="308" cy="275" r="12" fill="rgb(44,37,33)" opacity="0.8"/>
<circle cx="252" cy="276" r="12" fill="rgb(53,108,103)" opacity="0.8"/>
<circle cx="152" cy="182" r="8" fill="rgb(66,14,106)" opacity="0.8"/>
<circle cx="214" cy="10" r="5" fill="rgb(111,46,159)" opacity="0.8"/>
<circle cx="4" cy="173" r="6" fill="rgb(177,163,9)" opacity="0.8"/>
<circle cx="63" cy="307" r="19" fill="rgb(68,80,130)" opacity="0.8"/>
<circle cx="136" cy="345" r="5" fill="rgb(79,157,112)" opacity="0.8"/>
<circle cx="61" cy="243" r="18" fill="rgb(82,115,48)" opacity="0.8"/>
<circle cx="70" cy="336" r="9" fill="rgb(208,184,47)" opacity="0.8"/>
<circle cx="202" cy="176" r="6" fill="rgb(86,222,254)" opacity="0.8"/>
<circle cx="288" cy="319" r="6" fill="rgb(18,56,73)" opacity="0.8"/>
<circle cx="174" cy="144" r="20" fill="rgb(149,3,226)" opacity="0.8"/>
<circle cx="146" cy="20" r="16" fill="rgb(51,240,197)" opacity="0.8"/>
<circle cx="376" cy="152" r="11" fill="rgb(57,54,121)" opacity="0.8"/>
<circle cx="68" cy="308" r="13" fill="rgb(146,18,118)" opacity="0.8"/>
<circle cx="133" cy="58" r="15" fill="rgb(91,22,48)" opacity="0.8"/>
<circle cx="256" cy="183" r="20" fill="rgb(163,189,197)" opacity="0.8"/>
</svg>