<svg xmlns="http://www.w3.org/2000/svg" viewBox="0 0 400 400" width="400" height="400">
<rect width="400" height="400" fill="#8927b7"/>
<circle cx="246" cy="325" r="16" fill="rgb(97,48,180)" opacity="0.8"/>
<circle cx="159" cy="52" r="12" fill="rgb(139,4,145)" opacity="0.8"/>
<circle cx="244" cy="268" r="16" fill="rgb(245,174,133)" opacity="0.8"/>
<circle cx="284" cy="374" r="20" fill="rgb(238,38,249)" opacity="0.8"/>
<circle cx="37" cy="326" r="17" fill="rgb(129,230,68)" opacity="0.8"/>
<circle cx="256" cy="60" r="7" fill="rgb(225,103,143)" opacity="0.8"/>
<circle cx="73" cy="291" r="7" fill="rgb(74,204,196)" opacity="0.8"/>
<circle cx="201" cy="148" r="6" fill="rgb(33,249,158)" opacity="0.8"/>
<circle cx="13" cy="329" r="20" fill="rgb(22,102,60)" opacity="0.8"/>
<circle cx="200" cy="165" r="19" fill="rgb(136,207,203)" opacity="0.8"/>
<circle cx="24" cy="52" r="6" fill="rgb(64,242,145)" opacity="0.8"/>
<circle cx="262" cy="350" r="18" fill="rgb(80,243,16)" opacity="0.8"/>
<circle cx="21" cy="363" r="7" fill="rgb(179,162,147)" opacity="0.8"/>
<circle cx="362" cy="323" r="10" fill="rgb(170,5,214)" opacity="0.8"/>
<circle cx="324" cy="276" r="12" fill="rgb(177,60,78)" opacity="0.8"/>
<circle cx="111" cy="302" r="4" fill="rgb(224,76,222)" opacity="0.8"/>
<circle cx="320" cy="346" r="14" fill="rgb(164,191,152)" opacity="0.8"/>
<circle cx="283" cy="65" r="17" fill="rgb(111,242,31)" opacity="0.8"/>
<circle cx="48" cy="254" r="4" fill="rgb(33,203,38)" opacity="0.8"/>
<circle cx="341" cy="341" r="11" fill="rgb(69,191,84)" opacity="0.8"/>
<circle cx="233" cy="375" r="6" fill="rgb(54,31,75)" opacity="0.8"/>
<circle cx="316" cy="116" r="11" fill="rgb(112,27,232)" opacity="0.8"/>
<circle cx="95" cy="92" r="14" fill="rgb(22,198,48)" opacity="0.8"/>
<circle cx="317" cy="168" r="15" fill="rgb(62,61,19)" opacity="0.8"/>
<circle cx="149" cy="293" r="9" fill="rgb(104,41,45)" opacity="0.8"/>
<circle cx="285" cy="318" r="7" fill="rgb(195,226,192)" opacity="0.8"/>
<circle cx="204" cy="254" r="4" fill="rgb(233,61,108)" opacity="0.8"/>
<circle cx="203" cy="251" r="4" fill="rgb(244,60,145)" opacity="0.8"/>
<circle cx="91" cy="366" r="6" fill="rgb(40,151,173)" opacity="0.8"/>
<circle cx="182" cy="129" r="15" fill="rgb(104,14,162)" opacity="0.8"/>
<circle cx="192" cy="304" r="9" fill="rgb(237,144,174)" opacity="0.8"/>
<circle cx="266" cy="375" r="4" fill="rgb(221,41,255)" opacity="0.8"/>
<circle cx="344" cy="52" r="16" fill="rgb(40,45,148)" opacity="0.8"/>
<circle cx="249" cy="199" r="17" fill="rgb(74,12,123)" opacity="0.8"/>
<circle cx="7" cy="75" r="20" fill="rgb(164,40,175)" opacity="0.8"/>
<circle cx="334" cy="88" r="4" fill="rgb(66,111,59)" opacity="0.8"/>
<circle cx="263" cy="126" r="20" fill="rgb(75,108,124)" opacity="0.8"/>
<circle cx="292" cy="266" r="6" fill="rgb(188,38,204)" opacity="0.8"/>
<circle cx="209" cy="105" r="6" fill="rgb(44,55,224)" opacity="0.8"/>
<circle cx="178" cy="108" r="7" fill="rgb(142,233,94)" opacity="0.8"/>
<circle cx="223" cy="213" r="18" fill="rgb(74,20,249)" opacity="0.8"/>
<circle cx="259" cy="232" r="12" fill="rgb(23,9,50)" opacity="0.8"/>
<circle cx="66" cy="29" r="4" fill="rgb(12,91,93)" opacity="0.8"/>
<circle cx="131" cy="276" r="9" fill="rgb(250,242,122)" opacity="0.8"/>
<circle cx="36" cy="216" r="3" fill="rgb(144,232,114)" opacity="0.8"/>
<circle cx="198" cy="88" r="6" fill="rgb(210,120,212)" opacity="0.8"/>
<circle cx="137" cy="126" r="8" fill="rgb(212,117,9)" opacity="0.8"/>
<circle cx="305" cy="74" r="18" fill="rgb(173,117,61)" opacity="0.8"/>
<circle cx="93" cy="166" r="6" fill="rgb(162,107,175)" opacity="0.8"/>
<circle cx="30" cy="259" r="13" fill="rgb(110,215,195)" opacity="0.8"/>
<circle cx="82" cy="322" r="17" fill="rgb(58,163,161)" opacity="0.8"/>
<circle cx="212" cy="185" r="4" fill="rgb(74,247,74)" opacity="0.8"/>
<circle cx="18" cy="243" r="5" fill="rgb(200,187,133)" opacity="0.8"/>
<circle cx="182" cy="333" r="5" fill="rgb(71,225,108)" opacity="0.8"/>
<circle cx="180" cy="363" r="14" fill="rgb(79,63,163)" opacity="0.8"/>
<circle cx="270" cy="296" r="10" fill="rgb(166,242,243)" opacity="0.8"/>
<circle cx="133" cy="12" r="13" fill="rgb(53,78,186)" opacity="0.8"/>
<circle cx="293" cy="329" r="12" fill="rgb(255,16,114)" opacity="0.8"/>
<circle cx="122" cy="177" r="9" fill="rgb(72,131,195)" opacity="0.8"/>
<circle cx="72" cy="315" r="18" fill="rgb(33,192,5)" opacity="0.8"/>
<circle cx="109" cy="78" r="12" fill="rgb(215,141,137)" opacity="0.8"/>
<circle cx="335" cy="143" r="16" fill="rgb(161,215,37)" opacity="0.8"/>
<circle cx="332" cy="182" r="17" fill="rgb(159,234,25)" opacity="0.8"/>
<circle cx="221" cy="110" r="3" fill="rgb(212,232,11)" opacity="0.8"/>
<circle cx="132" cy="165" r="15" fill="rgb(162,29,70)" opacity="0.8"/>
<circle cx="76" cy="280" r="13" fill="rgb(153,86,77)" opacity="0.8"/>
<circle cx="296" cy="2" r="20" fill="rgb(243,121,166)" opacity="0.8"/>
<circle cx="3" cy="47" r="8" fill="rgb(227,56,237)" opacity="0.8"/>
<circle cx="371" cy="329" r="11" fill="rgb(168,200,209)" opacity="0.8"/>
<circle cx="6" cy="348" r="19" fill="rgb(74,57,31)" opacity="0.8"/>
<circle cx="204" cy="73" r="3" fill="rgb(3,179,195)" opacity="0.8"/>
</svg>