<svg xmlns="http://www.w3.org/2000/svg" viewBox="0 0 400 400" width="400" height="400">
<rect width="400" height="400" fill="#447cbc"/>
<circle cx="236" cy="305" r="15" fill="rgb(129,100,238)" opacity="0.8"/>
<circle cx="176" cy="279" r="15" fill="rgb(101,12,13)" opacity="0.8"/>
<circle cx="57" cy="345" r="5" fill="rgb(111,38,39)" opacity="0.8"/>
<circle cx="351" cy="54" r="13" fill="rgb(28,88,180)" opacity="0.8"/>
<circle cx="312" cy="219" r="10" fill="rgb(73,153,63)" opacity="0.8"/>
<circle cx="172" cy="196" r="19" fill="rgb(60,91,233)" opacity="0.8"/>
<circle cx="18" cy="137" r="20" fill="rgb(45,221,74)" opacity="0.8"/>
<circle cx="298" cy="139" r="7" fill="rgb(245,93,27)" opacity="0.8"/>
<circle cx="239" cy="55" r="14" fill="rgb(10,56,52)" opacity="0.8"/>
<circle cx="370" cy="205" r="9" fill="rgb(51,136,155)" opacity="0.8"/>
<circle cx="246" cy="291" r="9" fill="rgb(38,127,125)" opacity="0.8"/>
<circle cx="227" cy="62" r="7" fill="rgb(158,87,179)" opacity="0.8"/>
<circle cx="64" cy="373" r="16" fill="rgb(48,208,32)" opacity="0.8"/>
<circle cx="169" cy="314" r="6" fill="rgb(16,40,74)" opacity="0.8"/>
<circle cx="34" cy="289" r="19" fill="rgb(229,35,87)" opacity="0.8"/>
<circle cx="337" cy="375" r="3" fill="rgb(172,72,201)" opacity="0.8"/>
<circle cx="175" cy="175" r="13" fill="rgb(170,72,137)" opacity="0.8"/>
<circle cx="84" cy="306" r="10" fill="rgb(183,236,90)" opacity="0.8"/>
<circle cx="112" cy="312" r="10" fill="rgb(162,126,229)" opacity="0.8"/>
<circle cx="284" cy="84" r="11" fill="rgb(3,35,146)" opacity="0.8"/>
<circle cx="286" cy="279" r="16" fill="rgb(39,70,255)" opacity="0.8"/>
<circle cx="67" cy="173" r="3" fill="rgb(53,130,10)" opacity="0.8"/>
<circle cx="99" cy="249" r="3" fill="rgb(192,230,250)" opacity="0.8"/>
<circle cx="345" cy="120" r="7" fill="rgb(31,60,159)" opacity="0.8"/>
<circle cx="345" cy="82" r="19" fill="rgb(143,159,22)" opacity="0.8"/>
<circle cx="352" cy="170" r="16" fill="rgb(31,170,16)" opacity="0.8"/>
<circle cx="102" cy="126" r="20" fill="rgb(54,139,81)" opacity="0.8"/>
<circle cx="35" cy="165" r="19" fill="rgb(40,31,132)" opacity="0.8"/>
<circle cx="57" cy="33" r="20" fill="rgb(245,245,78)" opacity="0.8"/>
<circle cx="51" cy="331" r="20" fill="rgb(32,140,50)" opacity="0.8"/>
<circle cx="8" cy="356" r="18" fill="rgb(179,211,73)" opacity="0.8"/>
<circle cx="251" cy="257" r="19" fill="rgb(214,75,152)" opacity="0.8"/>
<circle cx="263" cy="82" r="11" fill="rgb(165,157,153)" opacity="0.8"/>
<circle cx="229" cy="353" r="18" fill="rgb(225,212,110)" opacity="0.8"/>
<circle cx="379" cy="171" r="7" fill="rgb(238,128,11)" opacity="0.8"/>
<circle cx="86" cy="60" r="9" fill="rgb(59,54,40)" opacity="0.8"/>
<circle cx="254" cy="17" r="3" fill="rgb(60,207,25)" opacity="0.8"/>
<circle cx="365" cy="363" r="8" fill="rgb(74,50,26)" opacity="0.8"/>
<circle cx="23" cy="179" r="3" fill="rgb(105,19,131)" opacity="0.8"/>
<circle cx="360" cy="12" r="19" fill="rgb(78,243,167)" opacity="0.8"/>
<circle cx="21" cy="68" r="4" fill="rgb(29,246,193)" opacity="0.8"/>
<circle cx="70" cy="56" r="18" fill="rgb(31,114,112)" opacity="0.8"/>
<circle cx="218" cy="119" r="16" fill="rgb(157,230,93)" opacity="0.8"/>
<circle cx="157" cy="130" r="17" fill="rgb(37,125,235)" opacity="0.8"/>
<circle cx="317" cy="300" r="11" fill="rgb(129,19,69)" opacity="0.8"/>
<circle cx="285" cy="118" r="10" fill="rgb(84,185,96)" opacity="0.8"/>
<circle cx="358" cy="227" r="13" fill="rgb(38,74,192)" opacity="0.8"/>
<circle cx="323" cy="63" r="5" fill="rgb(83,72,220)" opacity="0.8"/>
<circle cx="70" cy="47" r="10" fill="rgb(220,253,194)" opacity="0.8"/>
<circle cx="79" cy="247" r="13" fill="rgb(94,151,140)" opacity="0.8"/>
<circle cx="304" cy="72" r="3" fill="rgb(174,181,179)" opacity="0.8"/>
<circle cx="309" cy="102" r="3" fill="rgb(219,133,125)" opacity="0.8"/>
<circle cx="352" cy="252" r="11" fill="rgb(127,247,30)" opacity="0.8"/>
<circle cx="32" cy="367" r="8" fill="rgb(147,242,80)" opacity="0.8"/>
<circle cx="107" cy="222" r="12" fill="rgb(194,19,125)" opacity="0.8"/>
<circle cx="0" cy="263" r="6" fill="rgb(235,95,100)" opacity="0.8"/>
<circle cx="128" cy="48" r="20" fill="rgb(102,29,205)" opacity="0.8"/>
<circle cx="297" cy="276" r="5" fill="rgb(98,199,77)" opacity="0.8"/>
<circle cx="47" cy="167" r="14" fill="rgb(36,195,20)" opacity="0.8"/>
<circle cx="35" cy="31" r="17" fill="rgb(238,241,52)" opacity="0.8"/>
<circle cx="170" cy="115" r="9" fill="rgb(26,13,248)" opacity="0.8"/>
<circle cx="41" cy="152" r="11" fill="rgb(25,40,158)" opacity="0.8"/>
<circle cx="273" cy="54" r="10" fill="rgb(177,82,218)" opacity="0.8"/>
<circle cx="205" cy="199" r="4" fill="rgb(102,90,216)" opacity="0.8"/>
<circle cx="187" cy="13" r="6" fill="rgb(39,200,196)" opacity="0.8"/>
<circle cx="374" cy="80" r="14" fill="rgb(227,102,113)" opacity="0.8"/>
<circle cx="347" cy="184" r="5" fill="rgb(32,133,187)" opacity="0.8"/>
<circle cx="138" cy="236" r="15" fill="rgb(225,53,221)" opacity="0.8"/>
<circle cx="27" cy="66" r="14" fill="rgb(191,104,126)" opacity="0.8"/>
<circle cx="78" cy="141" r="16" fill="rgb(69,178,168)" opacity="0.8"/>
<circle cx="9" cy="98" r="6" fill="rgb(35,84,121)" opacity="0.8"/>
<circle cx="155" cy="11" r="8" fill="rgb(14,124,151)" opacity="0.8"/>
<circle cx="209" cy="230" r="11" fill="rgb(170,132,169)" opacity="0.8"/>
<circle cx="224" cy="186" r="13" fill="rgb(194,74,218)" opacity="0.8"/>
<circle cx="81" cy="204" r="8" fill="rgb(180,64,225)" opacity="0.8"/>
<circle cx="337" cy="219" r="13" fill="rgb(191,60,41)" opacity="0.8"/>
<circle cx="297" cy="131" r="14" fill="rgb(150,44,16)" opacity="0.8"/>
<circle cx="263" cy="32" r="9" fill="rgb(143,22,232)" opacity="0.8"/>
<circle cx="363" cy="48" r="5" fill="rgb(77,199,52)" opacity="0.8"/>
<circle cx="192" cy="294" r="4" fill="rgb(34,221,83)" opacity="0.8"/>
<circle cx="22" cy="16" r="14" fill="rgb(59,46,228)" opacity="0.8"/>
<circle cx="103" cy="143" r="8" fill="rgb(149,202,176)" opacity="0.8"/>
<circle cx="310" cy="287" r="15" fill="rgb(162,234,202)" opacity="0.8"/>
<circle cx="347" cy="193" r="9" fill="rgb(177,128,26)" opacity="0.8"/>
<circle cx="210" cy="302" r="18" fill="rgb(246,143,16)" opacity="0.8"/>
<circle cx="226" cy="379" r="16" fill="rgb(51,134,212)" opacity="0.8"/>
<circle cx="193" cy="37" r="14" fill="rgb(232,158,88)" opacity="0.8"/>
<circle cx="200" cy="359" r="4" fill="rgb(79,64,84)" opacity="0.8"/>
<circle cx="50" cy="307" r="4" fill="rgb(98,240,56)" opacity="0.8"/>
<circle cx="324" cy="83" r="10" fill="rgb(39,204,215)" opacity="0.8"/>
<circle cx="12" cy="339" r="3" fill="rgb(74,199,169)" opacity="0.8"/>
<circle cx="133" cy="332" r="19" fill="rgb(11,193,139)" opacity="0.8"/>
<circle cx="375" cy="183" r="4" fill="rgb(204,89,72)" opacity="0.8"/>
<circle cx="166" cy="258" r="16" fill="rgb(245,176,70)" opacity="0.8"/>
<circle cx="270" cy="61" r="8" fill="rgb(59,116,155)" opacity="0.8"/>
<circle cx="313" cy="147" r="3" fill="rgb(10,78,249)" opacity="0.8"/>
<circle cx="281" cy="308" r="6" fill="rgb(112,235,137)" opacity="0.8"/>
<circle cx="91" cy="144" r="9" fill="rgb(57,196,81)" opacity="0.8"/>
<circle cx="142" cy="39" r="15" fill="rgb(124,144,75)" opacity="0.8"/>
<circle cx="233" cy="79" r="11" fill="rgb(51,48,168)" opacity="0.8"/>
<circle cx="44" cy="283" r="8" fill="rgb(214,192,151)" opacity="0.8"/>
<circle cx="133" cy="112" r="20" fill="rgb(244,176,199)" opacity="0.8"/>
<circle cx="336" cy="110" r="20" fill="rgb(3,25,127)" opacity="0.8"/>
<circle cx="176" cy="218" r="19" fill="rgb(139,128,144)" opacity="0.8"/>
<circle cx="222" cy="112" r="4" fill="rgb(117,129,23)" opacity="0.8"/>
<circle cx="32" cy="20" r="5" fill="rgb(198,189,51)" opacity="0.8"/>
<circle cx="244" cy="61" r="18" fill="rgb(34,139,144)" opacity="0.8"/>
<circle cx="380" cy="130" r="7" fill="rgb(58,216,174)" opacity="0.8"/>
<circle cx="195" cy="231" r="8" fill="rgb(93,153,8)" opacity="0.8"/>
<circle cx="365" cy="327" r="11" fill="rgb(213,7,129)" opacity="0.8"/>
<circle cx="159" cy="254" r="9" fill="rgb(57,141,82)" opacity="0.8"/>
<circle cx="11" cy="7" r="9" fill="rgb(0,62,39)" opacity="0.8"/>
<circle cx="306" cy="220" r="15" fill="rgb(128,31,108)" opacity="0.8"/>
<circle cx="336" cy="332" r="8" fill="rgb(98,36,74)" opacity="0.8"/>
<circle cx="86" cy="274" r="9" fill="rgb(130,224,182)" opacity="0.8"/>
<circle cx="103" cy="351" r="16" fill="rgb(9,118,213)" opacity="0.8"/>
<circle cx="302" cy="288" r="9" fill="rgb(149,48,158)" opacity="0.8"/>
<circle cx="201" cy="190" r="9" fill="rgb(165,99,118)" opacity="0.8"/>
<circle cx="257" cy="264" r="13" fill="rgb(248,52,175)" opacity="0.8"/>
<circle cx="130" cy="321" r="4" fill="rgb(119,1,93)" opacity="0.8"/>
<circle cx="65" cy="79" r="11" fill="rgb(219,85,83)" opacity="0.8"/>
<circle cx="352" cy="167" r="10" fill="rgb(195,0,47)" opacity="0.8"/>
<circle cx="25" cy="312" r="4" fill="rgb(180,95,67)" opacity="0.8"/>
<circle cx="85" cy="148" r="12" fill="rgb(94,123,170)" opacity="0.8"/>
<circle cx="117" cy="120" r="17" fill="rgb(18,194,11)" opacity="0.8"/>
<circle cx="40" cy="369" r="7" fill="rgb(22,200,253)" opacity="0.8"/>
<circle cx="358" cy="166" r="4" fill="rgb(193,238,197)" opacity="0.8"/>
<circle cx="113" cy="95" r="4" fill="rgb(8,233,124)" opacity="0.8"/>
<circle cx="130" cy="174" r="12" fill="rgb(103,251,71)" opacity="0.8"/>
<circle cx="345" cy="339" r="19" fill="rgb(218,147,71)" opacity="0.8"/>
<circle cx="341" cy="74" r="19" fill="rgb(100,96,104)" opacity="0.8"/>
</svg>